<svg width="101" height="72" viewBox="0 0 101 72" fill="none" xmlns="http://www.w3.org/2000/svg">
<g clip-path="url(#clip0_1573_34356)">
<path fill-rule="evenodd" clip-rule="evenodd" d="M44.2931 62.3316C44.2931 62.9531 44.0713 63.5492 43.6765 63.9886C43.2817 64.4281 42.7463 64.675 42.188 64.675C41.6297 64.675 41.0943 64.4281 40.6996 63.9886C40.3048 63.5492 40.083 62.9531 40.083 62.3316C40.083 62.0239 40.1375 61.7192 40.2432 61.4349C40.349 61.1506 40.5041 60.8922 40.6996 60.6746C40.895 60.457 41.1271 60.2844 41.3825 60.1667C41.6379 60.0489 41.9116 59.9883 42.188 59.9883C42.4645 59.9883 42.7382 60.0489 42.9936 60.1667C43.249 60.2844 43.481 60.457 43.6765 60.6746C43.872 60.8922 44.027 61.1506 44.1328 61.4349C44.2386 61.7192 44.2931 62.0239 44.2931 62.3316Z" fill="#0F0F2C"/>
<path d="M71.1108 69.2933C68.4445 69.384 33.7984 70.1586 27.4868 69.952C27.398 69.9491 27.3115 69.9812 27.2456 70.0415C27.1797 70.1018 27.1395 70.1855 27.1336 70.2752C27.1336 70.2752 27.0883 70.8917 27.2534 71.5377C27.336 71.8607 27.4711 72.2015 27.7191 72.4813C27.9671 72.7611 28.3438 72.9639 28.8029 72.9734C29.2018 72.9816 31.6796 72.9879 35.2309 72.9927C38.7822 72.9975 43.3858 73.0001 47.9678 73.0001C52.5498 73.0001 57.11 72.9975 60.5743 72.9908C62.3064 72.9874 63.7646 72.983 64.8148 72.9776C65.3399 72.9749 65.7631 72.972 66.0681 72.9687C66.3731 72.9655 66.5302 72.9648 66.6288 72.9571C66.9014 72.9359 67.3109 72.833 67.8644 72.6842C68.418 72.5354 69.0871 72.34 69.7614 72.1342C71.1101 71.7224 72.4591 71.278 72.9806 71.0634C73.229 70.9611 73.4423 70.8234 73.5875 70.613C73.6601 70.5078 73.7155 70.377 73.7188 70.2288C73.722 70.0806 73.6647 69.9267 73.5722 69.8117C73.3872 69.5817 73.1075 69.4675 72.715 69.3865C72.3225 69.3055 71.8035 69.2697 71.1108 69.2933ZM71.1337 69.9856C71.7908 69.9632 72.2653 70.0003 72.578 70.0649C72.8643 70.1239 72.9704 70.2063 73.0012 70.233C72.9625 70.2794 72.8704 70.3605 72.7219 70.4217C72.2825 70.6025 70.9015 71.0622 69.5632 71.4708C68.894 71.6751 68.2303 71.869 67.6884 72.0147C67.1465 72.1603 66.6979 72.2569 66.5763 72.2663C66.5763 72.2663 66.3635 72.2728 66.0608 72.276C65.7582 72.2792 65.3358 72.2822 64.8114 72.2849C63.7625 72.2903 62.3049 72.2947 60.5731 72.298C57.1096 72.3047 52.5495 72.3073 47.9678 72.3073C43.3861 72.3073 38.7825 72.3048 35.2317 72.3C31.6808 72.2952 29.1614 72.2878 28.8171 72.2806C28.533 72.2748 28.3716 72.179 28.23 72.0193C28.0885 71.8596 27.9826 71.6198 27.9174 71.3645C27.8507 71.1038 27.8267 70.8427 27.8186 70.6443C34.7341 70.8345 68.4269 70.0777 71.1337 69.9856Z" fill="#0F0F2C"/>
<path fill-rule="evenodd" clip-rule="evenodd" d="M27.4751 70.2984C27.4751 70.2984 27.3232 72.5964 28.8096 72.6271C30.296 72.6578 65.8133 72.673 66.602 72.6118C67.3906 72.5505 71.8899 71.1381 72.8507 70.7427C73.6698 70.4056 73.8214 69.5476 71.1218 69.6397C68.422 69.7315 33.8541 70.5072 27.4751 70.2984Z" fill="#0F0F2C"/>
<path d="M57.2027 51.502C56.6745 51.502 50.1081 51.5784 43.4631 51.655C36.8181 51.7317 30.1043 51.8085 29.4472 51.8085C28.7805 51.8085 28.3169 51.7209 27.8732 51.9589C27.6514 52.0779 27.4796 52.2907 27.3696 52.553C27.2596 52.8154 27.1912 53.1355 27.1312 53.5612C27.0616 54.054 27.0406 55.2657 27.0301 56.9104C27.0197 58.555 27.0277 60.5903 27.0428 62.5743C27.073 66.5422 27.1323 70.3036 27.1323 70.3036C27.133 70.3491 27.1426 70.394 27.1605 70.4357C27.1783 70.4775 27.2042 70.5153 27.2365 70.5469C27.2689 70.5786 27.3071 70.6035 27.3489 70.6203C27.3908 70.637 27.4355 70.6453 27.4806 70.6445C27.5714 70.643 27.658 70.6051 27.7212 70.5391C27.7844 70.4732 27.8191 70.3846 27.8177 70.2928C27.8177 70.2928 27.7587 66.5336 27.7285 62.5692C27.7135 60.5871 27.7055 58.5534 27.7159 56.9146C27.7264 55.2759 27.7634 53.9897 27.8101 53.659C27.8662 53.2612 27.9319 52.9877 28.001 52.8228C28.0701 52.6579 28.1224 52.6098 28.195 52.5708C28.3403 52.4929 28.7488 52.5012 29.4472 52.5012C30.1551 52.5012 36.8261 52.4244 43.4711 52.3478C50.1161 52.2711 56.7449 52.1947 57.2027 52.1947C57.6384 52.1947 57.7915 52.2692 57.9167 52.4606C58.042 52.652 58.131 53.0666 58.1494 53.7347C58.1832 54.9662 57.634 67.6924 57.2448 69.8865C57.2368 69.9313 57.2377 69.9772 57.2473 70.0216C57.2569 70.0661 57.2751 70.1081 57.3009 70.1455C57.3266 70.1828 57.3593 70.2147 57.3973 70.2392C57.4352 70.2637 57.4775 70.2805 57.5218 70.2885C57.6113 70.3047 57.7035 70.2844 57.7781 70.232C57.8527 70.1796 57.9037 70.0994 57.9198 70.009C58.3656 67.4962 58.8767 55.2417 58.8348 53.7154C58.8152 53.0047 58.7523 52.4806 58.4889 52.0783C58.2255 51.676 57.7527 51.502 57.2027 51.502Z" fill="#0F0F2C"/>
<path d="M35.4261 17.6309C34.9633 17.6013 34.4823 17.6275 33.9852 17.7106C33.8955 17.7255 33.8154 17.7759 33.7624 17.8506C33.7094 17.9252 33.688 18.0181 33.7028 18.1087C33.7176 18.1993 33.7675 18.2803 33.8414 18.3338C33.9153 18.3873 34.0073 18.409 34.097 18.394C35.9033 18.0923 37.3397 18.5746 38.5488 19.8598C38.5798 19.8928 38.617 19.9193 38.6581 19.9378C38.6993 19.9562 38.7437 19.9663 38.7887 19.9675C38.8337 19.9686 38.8785 19.9608 38.9205 19.9445C38.9626 19.9281 39.001 19.9036 39.0336 19.8722C39.0995 19.8089 39.1377 19.7218 39.14 19.6301C39.1423 19.5383 39.1085 19.4494 39.0459 19.3828C38.0388 18.3123 36.8143 17.7199 35.4261 17.6309Z" fill="#0F0F2C"/>
<path d="M43.6743 19.9665C42.9834 19.9439 42.3376 20.1557 41.7594 20.5247C41.6825 20.5737 41.628 20.6516 41.608 20.7412C41.588 20.8308 41.604 20.9248 41.6526 21.0025C41.7012 21.0801 41.7783 21.1351 41.867 21.1554C41.9557 21.1756 42.0487 21.1594 42.1256 21.1103C42.7775 20.6943 43.4326 20.5387 44.2082 20.7408C44.2518 20.7522 44.2972 20.7548 44.3418 20.7485C44.3864 20.7421 44.4293 20.727 44.4681 20.7039C44.5069 20.6808 44.5408 20.6503 44.5679 20.6139C44.595 20.5776 44.6148 20.5363 44.6261 20.4922C44.6373 20.4481 44.6399 20.4023 44.6336 20.3572C44.6274 20.3121 44.6123 20.2688 44.5895 20.2296C44.5666 20.1904 44.5363 20.1561 44.5002 20.1287C44.4642 20.1014 44.4233 20.0814 44.3796 20.0701C44.1401 20.0077 43.9047 19.974 43.6743 19.9665Z" fill="#0F0F2C"/>
<path d="M34.057 0.00727711C32.8282 0.0752468 31.6361 0.623395 30.8302 1.7012C30.0975 2.68115 29.7213 4.10243 29.8406 5.92285C29.4527 5.79487 28.9143 5.64973 28.2012 5.60818C27.005 5.53851 25.4946 5.84283 24.496 7.28393C23.3506 8.9365 22.8652 11.1627 22.7264 12.9262C22.7264 12.9263 22.7264 12.9265 22.7264 12.9266C22.6796 13.5236 22.4914 15.2001 22.5504 17.064C22.6094 18.9279 22.8996 20.9995 23.8921 22.4643C24.5141 23.3822 25.4667 23.6386 26.2996 23.5231C27.1324 23.4075 27.8729 22.9797 28.3095 22.5041C28.5249 22.2692 28.6805 22.0324 28.6068 21.7368C28.57 21.5889 28.4683 21.4744 28.3711 21.4078C28.2738 21.3411 28.1765 21.3065 28.0791 21.2802C27.6892 21.1753 27.2212 21.1946 27.0125 21.1662C26.5262 21.1 26.0576 20.6607 25.8228 20.0587C25.5879 19.4567 25.5958 18.7368 25.9835 18.1576C26.3725 17.5763 26.8319 17.4945 27.3152 17.6001C27.7986 17.7057 28.2706 18.0757 28.4354 18.359C28.6027 18.6468 28.6914 19.2277 28.7373 19.7916C28.7602 20.0735 28.7772 20.3517 28.8066 20.6014C28.8359 20.8511 28.8639 21.0674 28.9776 21.2752C29.1638 21.6155 29.5339 21.8879 29.9699 21.816C30.406 21.7441 30.7516 21.3358 30.9377 20.6559C31.2884 19.3751 31.9379 15.4976 34.6142 13.9406C35.692 15.0128 36.8393 15.7098 38.0595 15.9499C39.286 16.1912 40.5682 15.962 41.8722 15.3051C43.2007 16.6621 44.391 17.4701 45.4569 17.807C46.5709 18.159 47.5657 17.9862 48.3239 17.4335C49.8405 16.3283 50.4422 13.901 50.281 11.3796C50.1198 8.8582 49.1699 6.19745 47.3026 4.60739C45.5067 3.07815 42.8475 2.648 39.4824 4.302C38.8847 1.47237 36.3907 -0.1218 34.057 0.00727711ZM34.0945 0.699224C36.2045 0.582521 38.5434 2.07356 38.9053 4.83892C38.9125 4.89424 38.9329 4.94697 38.9647 4.99262C38.9965 5.03827 39.0387 5.07549 39.0878 5.10111C39.1368 5.12673 39.1913 5.14 39.2466 5.13978C39.3018 5.13956 39.3562 5.12587 39.4051 5.09985C42.7997 3.29103 45.1974 3.72078 46.8605 5.13696C48.5237 6.55314 49.4445 9.0489 49.5964 11.4244C49.7483 13.7999 49.1059 16.0097 47.9229 16.8718C47.3314 17.3029 46.6125 17.4463 45.662 17.1459C44.7114 16.8455 43.5413 16.073 42.1895 14.6538C42.1376 14.5993 42.0695 14.5634 41.9956 14.5517C41.9216 14.54 41.8459 14.553 41.78 14.5888C40.5021 15.283 39.3202 15.4922 38.1904 15.2699C37.0606 15.0476 35.965 14.3849 34.8962 13.2617C34.8452 13.2082 34.7785 13.1726 34.706 13.1603C34.6334 13.148 34.5588 13.1595 34.4933 13.1933C31.2324 14.8772 30.5882 19.3336 30.2768 20.4711C30.1275 21.0166 29.9389 21.119 29.8593 21.1322C29.7798 21.1453 29.6528 21.0767 29.5781 20.94C29.5613 20.9093 29.5132 20.7396 29.4874 20.5198C29.4615 20.3001 29.4444 20.0254 29.4208 19.7347C29.3735 19.1534 29.3193 18.5108 29.027 18.008C28.7319 17.5006 28.148 17.0735 27.4603 16.9233C26.7726 16.773 25.9457 16.9768 25.4152 17.7694H25.4156C24.8838 18.564 24.8792 19.5291 25.1848 20.3126C25.4905 21.0962 26.1152 21.7431 26.9211 21.8527C27.2392 21.896 27.6558 21.8967 27.8698 21.9466C27.8515 21.9743 27.8481 21.988 27.8066 22.0332C27.5053 22.3615 26.8548 22.7469 26.2062 22.8369C25.5576 22.9269 24.9381 22.7814 24.4581 22.0731C23.6049 20.8138 23.2929 18.8456 23.2358 17.0419C23.1787 15.2382 23.3602 13.6195 23.4103 12.9811C23.5424 11.302 24.0287 9.16618 25.0578 7.68132C25.8994 6.46673 27.1036 6.23811 28.1617 6.29975C29.2199 6.36139 30.0679 6.73463 30.0679 6.73463C30.1233 6.75909 30.184 6.76835 30.244 6.76147C30.3041 6.75459 30.3612 6.73181 30.4097 6.69544C30.4583 6.65907 30.4964 6.6104 30.5203 6.55436C30.5442 6.49831 30.553 6.43688 30.5459 6.37628C30.3131 4.41029 30.6989 3.02615 31.3775 2.11868C32.056 1.21121 33.0395 0.757577 34.0945 0.699224Z" fill="#0F0F2C"/>
<path fill-rule="evenodd" clip-rule="evenodd" d="M30.8349 19.6248L28.9133 18.6433C28.8669 18.4723 28.8077 18.316 28.7309 18.1838C28.2711 17.3931 26.6187 16.5897 25.6992 17.9637C24.7797 19.3374 25.6743 21.3339 26.9665 21.5096C27.5042 21.5828 28.7954 21.4649 28.0577 22.269C27.3198 23.073 25.2768 23.8953 24.1748 22.269C22.3291 19.5451 22.9712 14.1895 23.0682 12.9541C23.2036 11.2328 23.6895 9.05153 24.7768 7.48281C26.617 4.82712 30.2053 6.41761 30.2053 6.41761C29.2437 -1.70384 38.4748 -1.09049 39.2448 4.79368C53.1496 -2.61547 52.9573 26.459 41.9423 14.8943C39.2799 16.3407 36.8556 15.821 34.649 13.502C32.1508 14.792 31.2601 17.8736 30.8349 19.6248Z" fill="#0F0F2C"/>
<path d="M28.8062 18.3143C28.7198 18.3429 28.6483 18.4051 28.6072 18.4871C28.5869 18.5277 28.5747 18.5719 28.5713 18.6172C28.5679 18.6626 28.5734 18.7082 28.5874 18.7514C28.6014 18.7946 28.6238 18.8346 28.6531 18.8691C28.6824 18.9036 28.7182 18.932 28.7584 18.9525L33.361 21.3028C33.3941 21.3197 33.4298 21.3311 33.4666 21.3364L45.4255 23.0779C45.4701 23.0844 45.5155 23.082 45.5592 23.0707C45.6028 23.0595 45.6439 23.0397 45.6799 23.0125C45.716 22.9852 45.7464 22.9511 45.7694 22.9119C45.7924 22.8728 45.8075 22.8295 45.814 22.7845C45.8204 22.7395 45.818 22.6936 45.8069 22.6495C45.7958 22.6054 45.7762 22.564 45.7492 22.5275C45.7222 22.4911 45.6884 22.4604 45.6497 22.4371C45.611 22.4139 45.5681 22.3986 45.5235 22.3921L33.62 20.6592L29.068 18.334C29.0278 18.3135 28.984 18.3012 28.9391 18.2978C28.8941 18.2945 28.849 18.3 28.8062 18.3143Z" fill="#0F0F2C"/>
<path d="M33.5234 20.6393C33.4784 20.6365 33.4334 20.6427 33.3908 20.6576C33.3482 20.6724 33.3089 20.6955 33.2752 20.7257C33.2415 20.7558 33.214 20.7924 33.1942 20.8333C33.1745 20.8742 33.1629 20.9186 33.1602 20.964C33.058 22.6714 33.2809 23.8922 33.7392 24.7137C34.1976 25.5352 34.938 25.9362 35.6924 25.8869C37.2013 25.7883 38.6713 24.1669 39.1332 21.8307C39.142 21.7861 39.1421 21.7401 39.1334 21.6954C39.1246 21.6507 39.1072 21.6082 39.0822 21.5704C39.0572 21.5325 39.025 21.4999 38.9875 21.4746C38.95 21.4493 38.908 21.4317 38.8638 21.4229C38.8196 21.414 38.7741 21.414 38.7299 21.4228C38.6858 21.4317 38.6437 21.4493 38.6063 21.4745C38.5688 21.4998 38.5367 21.5323 38.5116 21.5701C38.4866 21.6079 38.4692 21.6504 38.4604 21.695C38.0428 23.8073 36.6662 25.1292 35.6481 25.1957C35.139 25.229 34.6961 25.0178 34.3366 24.3735C33.9771 23.7292 33.7475 22.6308 33.8448 21.0058C33.8503 20.9141 33.8195 20.824 33.7592 20.7553C33.6989 20.6866 33.6141 20.6449 33.5234 20.6393Z" fill="#0F0F2C"/>
<path d="M40.6711 21.6865C40.5817 21.6697 40.4895 21.6895 40.4145 21.7415C40.3396 21.7935 40.2882 21.8734 40.2716 21.9636C39.9951 23.4704 40.0853 24.4953 40.4897 25.1686C40.8941 25.842 41.6362 26.0588 42.3427 25.9352C43.0491 25.8116 43.7688 25.404 44.3904 24.8528C45.0121 24.3016 45.5354 23.6031 45.7976 22.85C45.8277 22.7634 45.8225 22.6682 45.7832 22.5854C45.7439 22.5027 45.6736 22.439 45.5879 22.4086C45.5021 22.3781 45.4079 22.3834 45.3259 22.4231C45.244 22.4628 45.181 22.5338 45.1508 22.6204C44.9407 23.2238 44.4852 23.847 43.9381 24.3321C43.391 24.8172 42.7521 25.1604 42.226 25.2525C41.6998 25.3445 41.3356 25.2417 41.076 24.8095C40.8164 24.3773 40.6852 23.5107 40.9459 22.09C40.9624 21.9997 40.9428 21.9064 40.8912 21.8308C40.8397 21.7551 40.7605 21.7032 40.6711 21.6865Z" fill="#0F0F2C"/>
<path d="M39.797 21.5622C39.7539 21.5488 39.7087 21.5441 39.6638 21.5484C39.619 21.5527 39.5754 21.5659 39.5356 21.5871C39.4958 21.6084 39.4606 21.6374 39.4319 21.6725C39.4032 21.7075 39.3816 21.748 39.3684 21.7914C38.6051 24.2999 38.9041 26.3358 40.2034 27.7978C40.2641 27.8662 40.3492 27.9074 40.44 27.9124C40.5307 27.9174 40.6198 27.8858 40.6875 27.8245C40.721 27.7941 40.7483 27.7574 40.7678 27.7163C40.7872 27.6753 40.7985 27.6307 40.8009 27.5853C40.8033 27.5398 40.7968 27.4943 40.7818 27.4514C40.7668 27.4085 40.7436 27.369 40.7135 27.3351C39.5859 26.0663 39.3043 24.3599 40.0239 21.9952C40.0371 21.9517 40.0418 21.906 40.0376 21.8607C40.0333 21.8154 40.0203 21.7714 39.9992 21.7312C39.9781 21.691 39.9494 21.6554 39.9147 21.6264C39.88 21.5974 39.84 21.5756 39.797 21.5622Z" fill="#0F0F2C"/>
<path fill-rule="evenodd" clip-rule="evenodd" d="M37.5082 23.0828C37.4718 23.1803 37.4239 23.2724 37.3672 23.3536C37.3104 23.4349 37.2459 23.5038 37.1773 23.5564C37.1088 23.6091 37.0375 23.6444 36.9675 23.6605C36.8976 23.6765 36.8304 23.6728 36.7698 23.6498C36.7091 23.6267 36.6563 23.5847 36.6141 23.5261C36.572 23.4675 36.5415 23.3934 36.5243 23.3082C36.5071 23.2229 36.5036 23.1282 36.514 23.0293C36.5243 22.9303 36.5484 22.8293 36.5847 22.7318C36.6581 22.5348 36.7771 22.3645 36.9155 22.2581C37.054 22.1518 37.2006 22.1182 37.3231 22.1648C37.4455 22.2114 37.5338 22.3342 37.5686 22.5064C37.6033 22.6786 37.5815 22.8859 37.5082 23.0828Z" fill="#0F0F2C"/>
<path fill-rule="evenodd" clip-rule="evenodd" d="M42.3793 24.0018C42.3429 24.0993 42.295 24.1913 42.2383 24.2726C42.1815 24.3538 42.117 24.4228 42.0484 24.4754C41.9798 24.528 41.9086 24.5634 41.8386 24.5794C41.7687 24.5954 41.7015 24.5918 41.6409 24.5687C41.5802 24.5457 41.5273 24.5037 41.4852 24.445C41.4431 24.3864 41.4126 24.3124 41.3954 24.2271C41.3782 24.1419 41.3747 24.0471 41.3851 23.9482C41.3954 23.8493 41.4194 23.7482 41.4558 23.6507C41.5291 23.4538 41.6482 23.2834 41.7866 23.1771C41.9251 23.0708 42.0717 23.0372 42.1942 23.0837C42.3166 23.1303 42.4049 23.2532 42.4396 23.4254C42.4744 23.5975 42.4526 23.8049 42.3793 24.0018Z" fill="#0F0F2C"/>
<path d="M42.2961 26.4953C42.2122 26.46 42.1178 26.4599 42.0338 26.4949C41.9498 26.5299 41.8829 26.5972 41.848 26.682C40.3889 30.2271 37.2268 32.8704 34.1005 33.3881C32.5374 33.6469 30.9904 33.3875 29.6231 32.4634C28.2558 31.5393 27.0573 29.937 26.249 27.4582C26.2349 27.415 26.2125 27.3749 26.1831 27.3404C26.1537 27.3059 26.1179 27.2776 26.0776 27.2571C26.0374 27.2366 25.9936 27.2243 25.9486 27.221C25.9037 27.2176 25.8585 27.2232 25.8158 27.2375C25.7294 27.2662 25.6579 27.3284 25.6169 27.4104C25.5759 27.4923 25.5688 27.5874 25.5972 27.6747C26.4413 30.263 27.7234 32.0132 29.2416 33.0394C30.7597 34.0655 32.5031 34.3544 34.2115 34.0715C37.6284 33.5057 40.9348 30.7057 42.4814 26.9479C42.5162 26.8631 42.5163 26.7677 42.4815 26.6828C42.4468 26.598 42.3801 26.5305 42.2961 26.4953Z" fill="#0F0F2C"/>
<path d="M34.3623 28.3647C34.2809 28.3236 34.1868 28.3169 34.1005 28.3459C34.0142 28.375 33.9429 28.4375 33.9023 28.5197C33.8822 28.5604 33.8702 28.6047 33.8671 28.6501C33.8639 28.6955 33.8696 28.741 33.8839 28.7842C33.8982 28.8273 33.9208 28.8672 33.9503 28.9016C33.9799 28.9359 34.0158 28.964 34.0561 28.9843C34.0561 28.9843 35.114 29.5212 36.5019 29.5479C36.5928 29.5497 36.6806 29.5149 36.7461 29.4513C36.8116 29.3876 36.8495 29.3003 36.8513 29.2085C36.8521 29.163 36.8441 29.1178 36.8277 29.0755C36.8112 29.0331 36.7867 28.9944 36.7555 28.9617C36.7242 28.9289 36.6869 28.9026 36.6456 28.8844C36.6044 28.8662 36.5599 28.8564 36.5149 28.8556C35.2945 28.8321 34.3623 28.3647 34.3623 28.3647Z" fill="#0F0F2C"/>
<path fill-rule="evenodd" clip-rule="evenodd" d="M15.6479 48.4763C14.4419 50.0656 12.4432 54.6839 11.7754 56.5194C11.1075 58.3551 11.2783 58.6688 11.853 58.8099C13.0314 59.0995 19.1526 61.2574 20.1621 61.5554C21.1715 61.8535 21.1429 62.1759 20.4105 62.5751C18.2305 63.7638 16.7255 66.011 15.6599 67.4517C13.597 70.2402 14.8105 71.4964 14.0218 71.4657C13.233 71.435 8.50802 70.8264 6.22596 70.332C0.161372 69.0182 -0.288303 64.5619 0.104155 60.7644C0.533645 56.608 5.15968 48.194 8.06108 43.5362C13.6729 34.5277 19.5276 32.7129 21.6059 32.1805C23.749 31.6317 24.4854 31.9593 24.6539 32.9847C25.601 38.7487 28.9055 37.3773 29.779 36.8087C30.8158 36.1338 30.9689 35.3069 32.3563 35.3281C41.1932 35.4632 42.6829 46.0005 43.0904 48.2556C43.4981 50.5109 43.1294 50.8246 42.4556 50.8834C41.4436 50.9719 31.8804 51.0059 29.2715 51.0366C26.6628 51.0673 26.6628 51.3736 26.4808 52.4155C26.1508 54.304 26.3062 63.0664 26.3062 63.0664C25.6849 63.2625 24.3841 62.5761 22.5787 61.576C20.7732 60.5759 16.8905 59.4189 14.5609 58.8305C12.2312 58.2423 12.27 57.8304 12.7165 55.9086C13.163 53.9868 15.6479 48.4763 15.6479 48.4763ZM28.2881 39.8113C27.6879 39.8113 27.2008 40.3341 27.2008 40.9781C27.2008 41.6221 27.6879 42.1448 28.2881 42.1448C28.888 42.1448 29.3751 41.6221 29.3751 40.9781C29.3751 40.3341 28.888 39.8113 28.2881 39.8113ZM28.2881 46.3833C27.8494 46.3833 27.4932 46.7655 27.4932 47.2363C27.4932 47.7072 27.8494 48.0894 28.2881 48.0894C28.7268 48.0894 29.0828 47.7072 29.0828 47.2363C29.0828 46.7655 28.7268 46.3833 28.2881 46.3833Z" fill="#0F0F2C"/>
<path d="M18.71 62.3067C18.6275 62.268 18.5332 62.2639 18.4478 62.2955C18.3624 62.327 18.2929 62.3915 18.2546 62.4748C18.2163 62.5581 18.2123 62.6534 18.2435 62.7396C18.2747 62.8259 18.3386 62.8961 18.421 62.9348C18.421 62.9348 19.9425 63.6489 21.6831 64.6021C23.4236 65.5552 25.3947 66.775 26.2037 67.6567C26.2655 67.724 26.3513 67.7638 26.4422 67.7673C26.533 67.7708 26.6215 67.7376 26.6882 67.6752C26.7549 67.6128 26.7943 67.5261 26.7977 67.4344C26.8011 67.3426 26.7684 67.2532 26.7066 67.1858C25.7451 66.138 23.7715 64.9579 22.0099 63.9932C20.2482 63.0285 18.71 62.3067 18.71 62.3067Z" fill="#0F0F2C"/>
<path d="M24.8298 67.3948C24.7872 67.4096 24.7479 67.4328 24.7141 67.4629C24.6804 67.4931 24.6529 67.5297 24.6331 67.5707C24.5934 67.6532 24.5878 67.7483 24.6174 67.8351C24.647 67.9218 24.7095 67.9931 24.7912 68.0334C24.7912 68.0334 25.9637 68.6337 26.4662 69.1498C26.4978 69.1823 26.5354 69.2082 26.5768 69.226C26.6183 69.2438 26.6629 69.2531 26.708 69.2535C26.753 69.2539 26.7977 69.2453 26.8395 69.2283C26.8813 69.2112 26.9193 69.186 26.9514 69.154C27.0162 69.0896 27.0531 69.0018 27.0538 68.9099C27.0545 68.8181 27.0191 68.7297 26.9553 68.6643C26.2845 67.9754 25.0916 67.411 25.0916 67.411C25.0099 67.3708 24.9158 67.3649 24.8298 67.3948Z" fill="#0F0F2C"/>
<path d="M23.9265 68.5656C23.8368 68.55 23.7448 68.571 23.6705 68.624C23.5962 68.677 23.5458 68.7576 23.5304 68.8481C23.5149 68.9386 23.5357 69.0316 23.5881 69.1066C23.6405 69.1816 23.7202 69.2326 23.8097 69.2482C23.8097 69.2482 25.0951 69.4757 26.2964 70.1076C26.3364 70.1286 26.38 70.1415 26.4249 70.1455C26.4698 70.1494 26.515 70.1444 26.558 70.1308C26.6009 70.1171 26.6408 70.095 26.6753 70.0657C26.7098 70.0365 26.7383 70.0007 26.7591 69.9603C26.801 69.8788 26.8092 69.7839 26.7819 69.6963C26.7545 69.6087 26.6939 69.5357 26.6133 69.4933C25.2949 68.7999 23.9265 68.5656 23.9265 68.5656Z" fill="#0F0F2C"/>
<path d="M14.231 66.906C14.195 66.9335 14.1648 66.9677 14.142 67.007C14.1192 67.0462 14.1042 67.0896 14.098 67.1346C14.0918 67.1797 14.0944 67.2255 14.1057 67.2695C14.1171 67.3135 14.1369 67.3549 14.164 67.3912C14.164 67.3912 14.6071 67.9835 15.1414 68.6483C15.6756 69.3131 16.2722 70.0339 16.705 70.3766C17.0643 70.6611 17.3535 70.885 17.8175 71.0036C18.2815 71.1222 18.8826 71.1468 19.9674 71.137C22.124 71.1174 24.6376 71.0804 26.6656 71.3496C26.7103 71.3556 26.7557 71.3526 26.7992 71.3408C26.8428 71.329 26.8836 71.3087 26.9193 71.281C26.9551 71.2533 26.9851 71.2187 27.0076 71.1793C27.0301 71.1398 27.0447 71.0963 27.0506 71.0512C27.0564 71.0061 27.0534 70.9602 27.0418 70.9163C27.0301 70.8723 27.01 70.8312 26.9825 70.7951C26.9551 70.759 26.9209 70.7288 26.8819 70.706C26.8428 70.6833 26.7998 70.6686 26.7551 70.6627C24.6473 70.3829 22.1145 70.4247 19.9613 70.4443C18.891 70.454 18.3276 70.4195 17.9859 70.3322C17.6442 70.2448 17.487 70.1159 17.1279 69.8316C16.8425 69.6056 16.1996 68.8655 15.6741 68.2115C15.1485 67.5575 14.7112 66.9733 14.7112 66.9733C14.6564 66.9001 14.575 66.8518 14.4849 66.8392C14.3948 66.8266 14.3035 66.8506 14.231 66.906Z" fill="#0F0F2C"/>
<path d="M64.7234 22.4764C64.6358 22.4519 64.5422 22.4636 64.4631 22.5088C64.4239 22.5313 64.3895 22.5613 64.3617 22.5971C64.334 22.633 64.3135 22.6741 64.3015 22.7179C64.2895 22.7618 64.2862 22.8076 64.2917 22.8528C64.2972 22.898 64.3115 22.9416 64.3338 22.9812C65.3439 24.7795 65.3094 26.4865 64.1865 28.2891C64.1625 28.3276 64.1462 28.3705 64.1387 28.4154C64.1311 28.4603 64.1324 28.5062 64.1424 28.5506C64.1524 28.595 64.171 28.6369 64.1971 28.674C64.2231 28.7111 64.2562 28.7427 64.2944 28.7669C64.3713 28.8158 64.4643 28.8318 64.5529 28.8114C64.6416 28.791 64.7185 28.736 64.767 28.6583C65.996 26.6854 66.041 24.6163 64.9304 22.6391C64.8855 22.5593 64.811 22.5007 64.7234 22.4764Z" fill="#0F0F2C"/>
<path d="M63.499 23.9672C63.4116 23.9921 63.3375 24.0511 63.2931 24.1312C63.2487 24.2113 63.2375 24.306 63.2622 24.3943C63.3777 24.8076 63.3761 25.13 63.3203 25.3383C63.2645 25.5467 63.1742 25.6352 63.0704 25.6766C62.9666 25.7179 62.8106 25.7185 62.5909 25.6012C62.3712 25.4839 62.1032 25.2462 61.8409 24.8582C61.7896 24.7824 61.7106 24.7302 61.6213 24.7131C61.5319 24.6961 61.4395 24.7156 61.3644 24.7674C61.2893 24.8191 61.2377 24.8989 61.2208 24.9892C61.2039 25.0794 61.2232 25.1728 61.2745 25.2486C61.5845 25.7071 61.9211 26.0275 62.2702 26.2139C62.6193 26.4003 62.9961 26.4506 63.3219 26.321C63.6476 26.1913 63.8835 25.8883 63.9824 25.5192C64.0812 25.1501 64.0628 24.7086 63.9223 24.2061C63.8975 24.1177 63.839 24.0429 63.7596 23.9981C63.6803 23.9533 63.5865 23.9422 63.499 23.9672Z" fill="#0F0F2C"/>
<path d="M68.9986 21.5505C68.9551 21.5626 68.9145 21.5832 68.879 21.6112C68.8434 21.6391 68.8137 21.6738 68.7914 21.7134C68.7692 21.753 68.7549 21.7966 68.7493 21.8417C68.7437 21.8869 68.747 21.9327 68.759 21.9765C68.9943 22.84 68.7571 23.4555 68.4911 23.6411C68.3582 23.7338 68.2209 23.7601 68.0116 23.6801C67.8024 23.6001 67.5266 23.3876 67.2443 22.9743C67.1927 22.8987 67.1135 22.8469 67.0241 22.8303C66.9347 22.8137 66.8424 22.8336 66.7675 22.8857C66.7304 22.9116 66.6987 22.9445 66.6742 22.9827C66.6497 23.0209 66.6329 23.0636 66.6248 23.1084C66.6166 23.1532 66.6173 23.1991 66.6268 23.2436C66.6362 23.2881 66.6543 23.3303 66.6799 23.3678C67.0166 23.8608 67.3817 24.1799 67.769 24.328C68.1563 24.4761 68.5712 24.4268 68.8807 24.2109C69.4997 23.779 69.7072 22.8452 69.4203 21.7925C69.4083 21.7487 69.3879 21.7076 69.3603 21.6717C69.3326 21.6358 69.2982 21.6058 69.2591 21.5833C69.2199 21.5608 69.1767 21.5464 69.132 21.5407C69.0873 21.5351 69.042 21.5385 68.9986 21.5505Z" fill="#0F0F2C"/>
<path d="M70.497 28.6968C70.4196 28.6487 70.3264 28.6337 70.238 28.6549C70.1496 28.6761 70.0732 28.732 70.0255 28.8101C69.4897 29.6883 68.9225 30.386 68.3355 30.753C67.7486 31.1199 67.165 31.2001 66.3911 30.8419C66.3502 30.8229 66.306 30.8123 66.261 30.8106C66.216 30.8089 66.1711 30.8161 66.1288 30.832C66.0866 30.8478 66.0479 30.8719 66.0149 30.9028C65.9819 30.9338 65.9553 30.971 65.9365 31.0123C65.9177 31.0537 65.9072 31.0984 65.9055 31.1438C65.9038 31.1893 65.911 31.2346 65.9267 31.2773C65.9424 31.3199 65.9662 31.359 65.9968 31.3924C66.0275 31.4257 66.0643 31.4526 66.1053 31.4716C67.0511 31.9094 67.9533 31.8066 68.6964 31.3421C69.4395 30.8775 70.0468 30.0951 70.6091 29.1735C70.6327 29.1347 70.6485 29.0917 70.6557 29.0468C70.6629 29.0018 70.6612 28.9559 70.6508 28.9117C70.6403 28.8674 70.6214 28.8257 70.595 28.7888C70.5686 28.7519 70.5353 28.7207 70.497 28.6968Z" fill="#0F0F2C"/>
<path d="M74.6475 30.0454C74.562 30.0139 74.4677 30.018 74.3853 30.0567C74.3028 30.0954 74.239 30.1656 74.2077 30.2519C73.8679 31.1914 73.0977 32.2105 72.1554 32.9076C71.2132 33.6046 70.1205 33.9743 69.1127 33.7394C67.8365 33.442 66.602 34.0091 65.4817 34.9157C64.3615 35.8224 63.3177 37.0866 62.359 38.3221C58.6503 43.1019 56.3294 49.9155 56.3294 49.9155C56.3147 49.9585 56.3085 50.004 56.3112 50.0495C56.3138 50.0949 56.3253 50.1393 56.345 50.1803C56.3647 50.2212 56.3922 50.2578 56.4259 50.288C56.4596 50.3182 56.4989 50.3414 56.5414 50.3562C56.584 50.3711 56.629 50.3774 56.674 50.3747C56.719 50.372 56.763 50.3603 56.8035 50.3404C56.844 50.3206 56.8802 50.2928 56.9101 50.2588C56.94 50.2247 56.963 50.1851 56.9777 50.1421C56.9777 50.1421 59.3001 43.3873 62.8986 38.7497C63.8478 37.5264 64.8719 36.2966 65.9103 35.4562C66.9488 34.6157 67.9633 34.1824 68.9584 34.4144C70.2221 34.7089 71.5081 34.2451 72.5607 33.4665C73.6132 32.6879 74.454 31.5894 74.8518 30.4896C74.883 30.4033 74.879 30.3081 74.8407 30.2248C74.8024 30.1415 74.7329 30.077 74.6475 30.0454Z" fill="#0F0F2C"/>
<path d="M68.7921 36.6543C68.7472 36.6577 68.7033 36.6699 68.6631 36.6904C68.6229 36.7109 68.587 36.7393 68.5576 36.7738C68.5282 36.8083 68.5059 36.8483 68.4918 36.8915C68.4777 36.9348 68.4722 36.9804 68.4756 37.0258C69.1537 46.1558 68.814 54.7315 65.0946 61.5369C65.0728 61.5768 65.059 61.6205 65.0539 61.6657C65.0489 61.711 65.0527 61.7567 65.0652 61.8005C65.0776 61.8442 65.0985 61.885 65.1266 61.9206C65.1547 61.9561 65.1895 61.9858 65.2289 62.0078C65.2684 62.0298 65.3117 62.0437 65.3565 62.0488C65.4013 62.0538 65.4466 62.05 65.4899 62.0373C65.5332 62.0247 65.5736 62.0036 65.6088 61.9751C65.644 61.9467 65.6733 61.9116 65.695 61.8717C69.5234 54.867 69.8412 46.1531 69.1595 36.974C69.1527 36.8824 69.1102 36.7972 69.0413 36.7373C68.9724 36.6773 68.8828 36.6475 68.7921 36.6543Z" fill="#0F0F2C"/>
<path d="M82.4824 32.6123C81.9736 32.6107 81.4689 32.6973 80.9474 32.8578C79.8248 33.2034 78.8542 34.1889 77.8615 35.2027C76.8687 36.2165 75.8594 37.2711 74.8168 37.8174C73.1592 38.686 72.1288 38.3337 71.4277 37.7996C70.7266 37.2656 70.4067 36.5182 70.4067 36.5182C70.3892 36.4762 70.3636 36.4382 70.3315 36.4063C70.2994 36.3744 70.2614 36.3491 70.2197 36.332C70.1779 36.3149 70.1332 36.3063 70.0882 36.3067C70.0431 36.3071 69.9986 36.3164 69.9571 36.3342C69.9156 36.3519 69.878 36.3778 69.8464 36.4102C69.8149 36.4426 69.7899 36.4811 69.773 36.5232C69.7562 36.5654 69.7477 36.6105 69.7481 36.656C69.7484 36.7015 69.7577 36.7465 69.7753 36.7884C69.7753 36.7884 70.1485 37.6929 71.0148 38.3528C71.8812 39.0127 73.2925 39.3962 75.1325 38.432C76.3295 37.8049 77.3623 36.6978 78.349 35.6902C79.3357 34.6825 80.2819 33.7868 81.1472 33.5204C82.0922 33.2296 82.8622 33.2094 83.8134 33.5494C84.7645 33.8894 85.8964 34.615 87.4432 35.8405C90.7507 38.4612 96.6533 42.8013 99.8158 53.9556C100.621 56.7964 100.37 59.9437 99.613 62.6344C98.8563 65.325 97.5754 67.5606 96.4612 68.536C96.461 68.536 96.4609 68.536 96.4608 68.536C95.7452 69.1624 94.3822 70.4894 91.7981 71.2779C89.2141 72.0664 85.4169 72.3017 79.8947 70.6022C79.8772 70.5968 79.8653 70.5838 79.8614 70.5658C79.8575 70.5481 79.8625 70.5311 79.8763 70.5187C79.8776 70.5175 79.8789 70.5164 79.8801 70.5152C80.4198 70.0101 81.2028 69.1107 81.637 67.8216C82.0712 66.5327 82.1408 64.8549 81.2819 62.8744C81.2766 62.8621 81.2764 62.8489 81.2819 62.8361C81.2867 62.8255 81.2956 62.8191 81.3052 62.8145C82.3827 62.536 85.6675 61.9335 91.4602 62.949C91.5046 62.9568 91.55 62.9556 91.594 62.9457C91.6379 62.9357 91.6795 62.9171 91.7163 62.8909C91.7531 62.8647 91.7845 62.8314 91.8086 62.793C91.8326 62.7545 91.849 62.7116 91.8567 62.6668C91.8644 62.622 91.8632 62.5761 91.8534 62.5317C91.8435 62.4873 91.8251 62.4453 91.7991 62.4081C91.7732 62.3709 91.7402 62.3393 91.7022 62.3149C91.6641 62.2906 91.6217 62.2741 91.5773 62.2663C85.6714 61.231 82.2719 61.8455 81.1131 62.1473C81.1047 62.1495 81.0964 62.1521 81.0883 62.155C80.8942 62.2217 80.7369 62.3678 80.6543 62.5567C80.6542 62.5569 80.654 62.5572 80.6539 62.5574C80.5717 62.7464 80.5715 62.9625 80.6535 63.152C81.451 64.9907 81.3719 66.4579 80.9876 67.5986C80.6033 68.7393 79.8976 69.5543 79.414 70.0069L79.4178 70.0034C79.2215 70.1818 79.1344 70.4549 79.1916 70.7158C79.2488 70.9766 79.442 71.187 79.6949 71.2648C85.3182 72.9954 89.2697 72.7732 91.9963 71.9412C94.7229 71.1093 96.232 69.653 96.91 69.0594C98.2107 67.9208 99.4887 65.6115 100.273 62.8238C101.057 60.0361 101.328 56.7717 100.475 53.7651C97.263 42.4357 91.1525 37.8991 87.8664 35.2955C86.296 34.0512 85.1185 33.2812 84.0422 32.8965C83.504 32.7041 82.9911 32.614 82.4824 32.6123Z" fill="#0F0F2C"/>
<path d="M71.1278 63.0165C71.1278 63.0165 67.4934 62.7765 65.3178 65.7016C64.8418 66.3414 64.4311 67.0389 64.2165 67.6603C64.1092 67.9709 64.0459 68.2633 64.0741 68.5482C64.1023 68.8332 64.2703 69.1331 64.5536 69.2626C64.5537 69.2626 64.5539 69.2626 64.554 69.2626C64.9488 69.4428 65.3983 69.3382 65.8406 69.0863C66.2829 68.8344 66.7638 68.425 67.3273 67.8632C69.6623 65.5357 71.6103 64.8568 73.1985 64.9505C73.2435 64.9531 73.2885 64.9468 73.3311 64.9319C73.3737 64.9169 73.4129 64.8937 73.4466 64.8634C73.4802 64.8331 73.5076 64.7965 73.5273 64.7555C73.5469 64.7145 73.5583 64.67 73.5609 64.6246C73.5661 64.5329 73.5351 64.4428 73.4746 64.3743C73.4141 64.3057 73.3291 64.2642 73.2383 64.2589C71.4223 64.1518 69.2702 64.9533 66.8459 67.37C66.3042 67.91 65.8505 68.2854 65.5038 68.4829C65.1571 68.6803 64.9636 68.6894 64.8364 68.6313C64.7758 68.6036 64.7684 68.5999 64.7564 68.4794C64.7445 68.3587 64.776 68.1434 64.864 67.8887C65.0399 67.3794 65.4217 66.7154 65.8662 66.1179C67.81 63.5044 71.0845 63.7077 71.0845 63.7077C71.1295 63.7105 71.1746 63.7045 71.2172 63.6897C71.2598 63.675 71.2992 63.652 71.333 63.6219C71.3667 63.5918 71.3943 63.5553 71.4142 63.5144C71.434 63.4735 71.4456 63.4291 71.4485 63.3837C71.4541 63.2921 71.4235 63.2019 71.3634 63.133C71.3033 63.0642 71.2185 63.0223 71.1278 63.0165Z" fill="#0F0F2C"/>
<path d="M73.3296 66.2182C72.5717 66.2424 71.6596 66.4706 70.8127 66.8042C69.9657 67.1379 69.1918 67.5653 68.7174 68.0737C68.3412 68.4769 68.0215 68.6545 67.7929 68.7065C67.5643 68.7586 67.4217 68.7092 67.2946 68.6049C67.3119 68.619 67.2876 68.6003 67.2755 68.5221C67.2634 68.444 67.2642 68.3262 67.2763 68.2106C67.3004 67.9794 67.3605 67.7672 67.3605 67.7672C67.3858 67.679 67.3754 67.5842 67.3315 67.5037C67.2877 67.4232 67.214 67.3637 67.1266 67.3381C67.0393 67.3125 66.9455 67.323 66.8658 67.3673C66.7862 67.4116 66.7272 67.4861 66.7018 67.5743C66.7018 67.5743 66.6261 67.8329 66.5943 68.1379C66.5784 68.2904 66.5712 68.4574 66.5978 68.6292C66.6243 68.8011 66.6855 68.9978 66.8618 69.1426C67.1383 69.3695 67.5326 69.4758 67.9437 69.3822C68.3547 69.2887 68.7777 69.019 69.2165 68.5488C69.5572 68.1836 70.2739 67.7601 71.0618 67.4498C71.8496 67.1395 72.7164 66.9308 73.351 66.9105C73.3512 66.9105 73.3513 66.9105 73.3514 66.9105C73.9358 66.8918 74.2483 66.9752 74.5906 67.1862C74.9328 67.3971 75.3096 67.7681 75.8898 68.3138C76.5554 68.9398 77.5168 69.1873 78.5207 69.1279C79.5247 69.0685 80.5855 68.7021 81.4938 68.0436C81.5677 67.99 81.6175 67.9091 81.6323 67.8185C81.6471 67.7278 81.6256 67.635 81.5727 67.5604C81.5464 67.5234 81.5132 67.4919 81.4749 67.4679C81.4367 67.4439 81.3941 67.4277 81.3496 67.4203C81.3052 67.4129 81.2597 67.4144 81.2158 67.4248C81.1719 67.4352 81.1305 67.4542 81.0939 67.4807C80.2943 68.0604 79.3466 68.385 78.4806 68.4363C77.6145 68.4876 76.8445 68.2654 76.357 67.807C75.7843 67.2683 75.3955 66.8712 74.9476 66.5951C74.4997 66.3191 73.9976 66.1968 73.3296 66.2182Z" fill="#0F0F2C"/>
<path d="M72.3259 60.5214C70.5485 60.5413 68.7235 60.8866 67.2397 61.6073C65.9773 62.2205 64.7577 63.154 63.8073 64.1188C62.857 65.0835 62.1648 66.0493 62.0041 66.8896C61.8566 67.6608 62.0221 68.3554 62.5131 68.749C63.0041 69.1427 63.7306 69.1755 64.5387 68.8715C64.6238 68.8395 64.6929 68.7746 64.7308 68.6911C64.7686 68.6076 64.772 68.5123 64.7403 68.4262C64.7246 68.3836 64.7007 68.3445 64.6701 68.3111C64.6394 68.2778 64.6025 68.2509 64.5615 68.232C64.5205 68.2131 64.4763 68.2025 64.4312 68.2009C64.3862 68.1992 64.3413 68.2066 64.2991 68.2225C63.6286 68.4747 63.184 68.4023 62.9394 68.2063C62.6949 68.0102 62.5607 67.6306 62.6773 67.0211C62.7805 66.4809 63.3949 65.5198 64.2937 64.6074C65.1926 63.6949 66.3649 62.8007 67.5366 62.2316C70.2534 60.912 74.5247 60.9774 76.847 62.0213C79.3294 63.1371 80.9433 63.4465 80.9433 63.4465C80.9875 63.455 81.033 63.4545 81.0771 63.4452C81.1213 63.4359 81.1631 63.4179 81.2003 63.3922C81.2375 63.3666 81.2694 63.3337 81.294 63.2956C81.3187 63.2575 81.3356 63.2149 81.3439 63.1701C81.3607 63.0799 81.3413 62.9866 81.29 62.9107C81.2387 62.8349 81.1597 62.7828 81.0703 62.7658C81.0703 62.7658 79.5513 62.4787 77.126 61.3885C75.8332 60.8074 74.1034 60.5016 72.3259 60.5214Z" fill="#0F0F2C"/>
<path d="M85.9149 43.3009C85.8712 43.3117 85.8299 43.3311 85.7936 43.3579C85.7573 43.3848 85.7265 43.4187 85.7032 43.4575C85.6798 43.4964 85.6642 43.5396 85.6573 43.5845C85.6505 43.6295 85.6524 43.6754 85.6631 43.7195C86.3388 46.5167 86.5024 50.4491 86.8904 54.0578C87.2783 57.6664 87.8477 60.9757 89.5979 62.6012C89.6648 62.6634 89.7535 62.6962 89.8443 62.6923C89.9352 62.6885 90.0208 62.6483 90.0824 62.5807C90.1128 62.5472 90.1364 62.508 90.1519 62.4653C90.1673 62.4225 90.1743 62.3771 90.1724 62.3317C90.1705 62.2863 90.1597 62.2416 90.1407 62.2004C90.1217 62.1592 90.0949 62.1221 90.0617 62.0913C88.614 60.7468 87.9567 57.5577 87.5723 53.9828C87.188 50.4078 87.0337 46.4709 86.3294 43.5553C86.3187 43.5111 86.2995 43.4694 86.2729 43.4327C86.2463 43.396 86.2128 43.365 86.1743 43.3414C86.1358 43.3177 86.0931 43.302 86.0486 43.2951C86.0041 43.2881 85.9587 43.2901 85.9149 43.3009Z" fill="#0F0F2C"/>
<path d="M66.5973 16.9485C66.5254 16.9567 66.4579 16.9877 66.4045 17.037C66.3511 17.0863 66.3145 17.1514 66.2999 17.223C66.2999 17.223 66.0073 18.6592 65.0436 20.1419C64.0798 21.6245 62.4862 23.1219 59.8096 23.2908C59.7609 23.2939 59.7134 23.3075 59.6704 23.3306C59.6273 23.3537 59.5896 23.3858 59.5598 23.4248C59.53 23.4638 59.5087 23.5088 59.4975 23.5568C59.4863 23.6047 59.4853 23.6545 59.4946 23.7029C59.4946 23.7029 61.1872 32.5433 68.8528 34.3918C68.8967 34.4023 68.9421 34.4041 68.9866 34.3969C69.0311 34.3897 69.0738 34.3738 69.1122 34.3499C69.1505 34.3261 69.1839 34.2949 69.2103 34.258C69.2367 34.2211 69.2557 34.1794 69.2661 34.1351C69.2872 34.0457 69.2722 33.9516 69.2246 33.8734C69.1769 33.7952 69.1005 33.7393 69.012 33.718C62.2878 32.0965 60.4867 24.9132 60.2661 23.9283C62.9325 23.6164 64.6278 22.0439 65.6168 20.5223C66.2263 19.5847 66.5396 18.7781 66.7335 18.1739C67.916 20.3708 69.4263 21.6359 70.7104 22.2873C72.1413 23.0132 73.2974 23.0562 73.2974 23.0562C73.3556 23.0582 73.4133 23.0452 73.4652 23.0184C73.5171 22.9916 73.5613 22.9519 73.5938 22.9031C73.6263 22.8542 73.6459 22.7978 73.6508 22.7392C73.6557 22.6806 73.6458 22.6216 73.6219 22.568C73.5019 22.2986 73.4545 21.804 73.5197 21.288C73.5849 20.7721 73.7542 20.2316 73.9843 19.8438C74.2143 19.4561 74.4768 19.253 74.7305 19.2404C74.9842 19.2279 75.3633 19.3958 75.8487 20.0565C76.7282 21.2534 76.4389 22.3225 75.9241 23.1961C75.4093 24.0697 74.6597 24.6539 74.6597 24.6539C74.6124 24.6904 74.5754 24.7388 74.5522 24.7942C74.4339 25.0766 74.4277 25.4066 74.4412 25.8603C74.4547 26.314 74.5129 26.8638 74.6222 27.4506C74.8409 28.6243 75.2557 29.9437 75.9788 30.8999C76.9471 32.1803 78.5117 32.7634 79.8157 33.0473C81.1196 33.3312 82.1975 33.3109 82.1975 33.3109C82.2425 33.3101 82.287 33.3004 82.3283 33.2822C82.3695 33.2641 82.4069 33.2379 82.4382 33.2051C82.4695 33.1724 82.494 33.1337 82.5105 33.0914C82.527 33.0491 82.5351 33.0039 82.5343 32.9584C82.5335 32.9129 82.5238 32.868 82.5058 32.8263C82.4879 32.7846 82.4619 32.7468 82.4295 32.7153C82.3971 32.6837 82.3589 32.6588 82.3169 32.6422C82.275 32.6255 82.2303 32.6174 82.1852 32.6182C82.1852 32.6182 81.182 32.636 79.9603 32.37C78.7386 32.104 77.3332 31.5496 76.5238 30.4794C75.9122 29.6707 75.5022 28.4284 75.2961 27.3223C75.1931 26.7693 75.1389 26.2498 75.1266 25.8394C75.1151 25.4534 75.1619 25.176 75.1802 25.11C75.3279 24.9916 75.9808 24.4545 76.5135 23.5506C77.1086 22.5405 77.4476 21.0701 76.3994 19.6436C75.8437 18.8873 75.2685 18.5203 74.6968 18.5485C74.1252 18.5767 73.6914 18.9901 73.3961 19.4878C73.1008 19.9855 72.9156 20.5993 72.8397 21.2003C72.791 21.5855 72.808 21.9506 72.8638 22.2954C72.4676 22.2343 71.8752 22.1029 71.0181 21.668C69.7068 21.0028 68.1051 19.7134 66.9478 17.1487C66.9178 17.0823 66.8677 17.0271 66.8047 16.9912C66.7418 16.9552 66.6692 16.9403 66.5973 16.9485Z" fill="#0F0F2C"/>
<path d="M73.6447 4.80575C73.0057 4.77736 72.3299 4.80005 71.6146 4.87533C68.8005 5.17156 67.1761 6.62943 66.2972 8.00378C65.6643 8.99345 65.458 9.76868 65.36 10.2273C63.2925 9.07187 61.5261 8.72463 60.0632 9.03861C58.5023 9.37362 57.3157 10.4192 56.4617 11.7751C54.7539 14.4868 54.2778 18.4617 54.4955 21.2115C54.9151 26.5078 53.5698 27.6292 52.7118 29.3304C52.7117 29.3304 52.7115 29.3304 52.7114 29.3304C52.2863 30.1735 51.7671 31.5114 51.7076 33.0902C51.6482 34.6689 52.0625 36.491 53.481 38.2264C56.3655 41.7554 61.5185 40.5377 61.5185 40.5377C61.6072 40.5172 61.6842 40.462 61.7326 40.3842C61.7809 40.3065 61.7967 40.2124 61.7765 40.1229C61.7562 40.0333 61.7016 39.9556 61.6246 39.9067C61.5476 39.8579 61.4545 39.8419 61.3659 39.8624C61.3659 39.8624 56.5849 40.9362 54.0095 37.7853C52.698 36.1809 52.3388 34.5558 52.393 33.1164C52.4472 31.677 52.9287 30.4258 53.3226 29.6447C54.1026 28.0981 55.609 26.5844 55.179 21.1562C54.9721 18.5439 55.4676 14.6442 57.0404 12.147C57.8267 10.8983 58.8576 10.0056 60.2056 9.71625C61.5535 9.42694 63.2616 9.7366 65.4162 11.0329C65.4651 11.0623 65.5204 11.0789 65.5772 11.0813C65.6341 11.0837 65.6906 11.0718 65.7417 11.0466C65.7928 11.0215 65.837 10.9839 65.8701 10.9372C65.9033 10.8905 65.9244 10.8363 65.9317 10.7793C65.9317 10.7793 66.0802 9.62004 66.8735 8.37952C67.6668 7.139 69.0717 5.83935 71.6858 5.56418C74.4283 5.27553 76.4518 5.782 78.0586 6.96547C79.6654 8.14894 80.8708 10.0395 81.8732 12.5722C82.8809 15.1179 83.4785 17.3658 84.6841 19.1488C85.8896 20.9317 87.727 22.1963 91.0344 22.7059C92.0836 22.8675 94.0373 23.5181 95.555 24.7535C97.0727 25.989 98.1732 27.7515 97.7107 30.3088C97.2456 32.8808 95.7114 34.3524 93.8846 35.1579C92.0578 35.9634 89.9333 36.0625 88.4355 35.7976C88.346 35.7818 88.2539 35.8026 88.1794 35.8553C88.105 35.9081 88.0544 35.9886 88.0387 36.0791C88.023 36.1695 88.0436 36.2626 88.0958 36.3378C88.1481 36.4129 88.2277 36.4641 88.3173 36.4799C89.949 36.7685 92.1751 36.6674 94.159 35.7926C96.1429 34.9179 97.8799 33.2286 98.3854 30.4333C98.8936 27.6232 97.6317 25.5547 95.9852 24.2143C94.3388 22.874 92.326 22.2044 91.1381 22.0213H91.1377C87.9563 21.531 86.362 20.4019 85.2504 18.758C84.1389 17.1139 83.5339 14.9014 82.51 12.3147C81.481 9.71493 80.2179 7.69844 78.4627 6.40573C77.1464 5.4362 75.5617 4.89091 73.6447 4.80575Z" fill="#0F0F2C"/>
<path fill-rule="evenodd" clip-rule="evenodd" d="M61.4421 40.1995C61.4421 40.1995 56.4751 41.345 53.7452 38.0051C51.0152 34.6652 52.1981 31.111 53.0171 29.4868C53.8361 27.8629 55.2619 26.5453 54.8371 21.1831C54.4125 15.821 56.7806 5.43359 65.5916 10.7345C65.5916 10.7345 66.2219 5.79044 71.6501 5.21905C77.2539 4.62925 80.1602 7.31027 82.1916 12.4427C84.2231 17.5752 84.5971 21.363 91.0861 22.3629C93.3233 22.7075 99.0186 25.0032 98.0479 30.3706C97.0772 35.7377 91.5058 36.6913 88.3763 36.1379C88.124 35.9378 87.8828 35.7482 87.6545 35.5675C85.1569 33.5887 83.6962 32.8612 82.1916 32.9647C82.1916 32.9647 78.0292 33.0403 76.2515 30.6896C74.9168 28.9247 74.6013 25.5664 74.8682 24.9291C74.8682 24.9291 78.0519 22.4735 76.1243 19.8501C74.0421 17.0161 72.6541 21.2393 73.3093 22.71C73.3093 22.71 69.014 22.563 66.6359 17.2926C66.6359 17.2926 65.4225 23.2836 59.8313 23.6365C59.8313 23.6365 61.4973 32.2619 68.9327 34.0548C66.6971 33.6238 64.5077 36.1142 62.6287 38.5357C62.2156 39.0682 61.8197 39.6269 61.4421 40.1995Z" fill="#0F0F2C"/>
<path d="M61.4431 6.10473C60.5128 6.03394 59.4653 6.3024 58.3043 6.99537C58.226 7.04208 58.1693 7.11829 58.1466 7.20724C58.1239 7.29618 58.1371 7.39059 58.1834 7.46969C58.2296 7.54878 58.305 7.60608 58.3931 7.62899C58.4811 7.6519 58.5746 7.63853 58.6529 7.59184C59.7259 6.95143 60.6283 6.73745 61.3914 6.79552C62.1545 6.85359 62.7955 7.18112 63.3557 7.6966C64.4762 8.72756 65.2235 10.5299 65.6201 12.1328C65.631 12.1769 65.6504 12.2185 65.6772 12.255C65.7041 12.2916 65.7378 12.3225 65.7764 12.3459C65.815 12.3693 65.8578 12.3848 65.9024 12.3915C65.947 12.3981 65.9924 12.3959 66.0361 12.3848C66.1243 12.3626 66.2001 12.3058 66.2469 12.2271C66.2936 12.1484 66.3076 12.0541 66.2856 11.965C65.8702 10.2862 65.1143 8.37743 63.8176 7.1844C63.1693 6.58789 62.3734 6.17553 61.4431 6.10473Z" fill="#0F0F2C"/>
</g>
<defs>
<clipPath id="clip0_1573_34356">
<rect width="101" height="73" fill="white"/>
</clipPath>
</defs>
</svg>
