<svg width="283" height="280" viewBox="0 0 283 280" fill="none" xmlns="http://www.w3.org/2000/svg">
<path d="M64.3737 43.712C56.6551 48.1562 49.2932 56.0088 49.2932 56.0088C49.1193 56.1935 49.0262 56.4395 49.0342 56.6927C49.0422 56.9459 49.1507 57.1856 49.3359 57.3591C49.5211 57.5325 49.7678 57.6255 50.0218 57.6177C50.2758 57.61 50.5162 57.5021 50.6903 57.3176C50.6903 57.3176 58.0094 49.5843 65.3333 45.3674C65.5534 45.2405 65.7139 45.0317 65.7795 44.7869C65.8451 44.5421 65.8104 44.2812 65.6832 44.0619C65.6202 43.9532 65.5365 43.8579 65.4366 43.7815C65.3367 43.7051 65.2228 43.649 65.1012 43.6166C64.9795 43.5841 64.8527 43.5758 64.7279 43.5922C64.6031 43.6085 64.4828 43.6493 64.3737 43.712Z" fill="#0F0F2C"/>
<path d="M64.183 80.9047C64.183 80.9047 62.3895 82.5917 61.5392 83.9999C61.4084 84.2171 61.3694 84.4771 61.4307 84.7229C61.4921 84.9687 61.6489 85.1801 61.8666 85.3108C61.9744 85.3756 62.094 85.4186 62.2185 85.4373C62.343 85.456 62.4699 85.45 62.5921 85.4198C62.7144 85.3896 62.8295 85.3357 62.9308 85.2612C63.0321 85.1866 63.1176 85.093 63.1826 84.9855C63.7238 84.0891 65.5236 82.2699 65.5236 82.2699C65.7053 82.0927 65.809 81.8507 65.8118 81.5973C65.8146 81.3438 65.7163 81.0997 65.5385 80.9185C65.3605 80.7375 65.1177 80.6344 64.8635 80.6319C64.6092 80.6293 64.3646 80.7273 64.183 80.9047Z" fill="#0F0F2C"/>
<path d="M74.9619 98.545C74.708 98.533 74.4598 98.6221 74.2718 98.7925C74.2718 98.7925 73.6256 99.3785 72.8841 100.095C72.1426 100.811 71.3286 101.612 70.8544 102.263C70.7804 102.365 70.7272 102.48 70.6978 102.602C70.6685 102.724 70.6635 102.851 70.6833 102.975C70.703 103.099 70.7472 103.218 70.8131 103.325C70.879 103.432 70.9654 103.525 71.0674 103.599C71.2731 103.747 71.5297 103.808 71.7807 103.769C72.0317 103.729 72.2565 103.591 72.4058 103.386C72.6711 103.022 73.5013 102.16 74.2183 101.467C74.9353 100.775 75.5621 100.206 75.5621 100.206C75.75 100.035 75.8622 99.7973 75.8743 99.5443C75.8863 99.2913 75.7971 99.0439 75.6263 98.8565C75.5415 98.7636 75.4393 98.6883 75.3253 98.6349C75.2112 98.5814 75.0877 98.5509 74.9619 98.545Z" fill="#0F0F2C"/>
<path d="M65.8134 131.212L64.2032 132.692C64.0163 132.864 63.9056 133.103 63.8953 133.356C63.885 133.61 63.976 133.856 64.1484 134.043C64.3207 134.229 64.5602 134.339 64.8142 134.35C65.0683 134.36 65.316 134.269 65.5029 134.097L67.1131 132.618C67.3001 132.446 67.4111 132.208 67.4215 131.954C67.432 131.701 67.3411 131.454 67.1689 131.268C67.0836 131.175 66.9808 131.1 66.8665 131.048C66.7522 130.995 66.6285 130.965 66.5026 130.96C66.3767 130.955 66.2509 130.974 66.1327 131.018C66.0144 131.061 65.906 131.127 65.8134 131.212Z" fill="#0F0F2C"/>
<path d="M70.2674 151.822C70.2674 151.822 69.119 152.757 67.8804 153.864C67.2612 154.417 66.6179 155.014 66.0723 155.573C65.5266 156.132 65.0874 156.597 64.8033 157.154C64.7463 157.266 64.7119 157.388 64.7021 157.513C64.6923 157.638 64.7074 157.764 64.7465 157.883C64.7855 158.003 64.8478 158.113 64.9297 158.209C65.0116 158.304 65.1115 158.382 65.2238 158.439C65.3361 158.496 65.4584 158.531 65.584 158.54C65.7095 158.55 65.8358 158.535 65.9555 158.496C66.0752 158.457 66.1862 158.395 66.2818 158.313C66.3775 158.232 66.4561 158.132 66.5131 158.02C66.5687 157.911 66.9513 157.415 67.4471 156.907C67.9429 156.399 68.5605 155.822 69.1601 155.286C70.3593 154.215 71.4797 153.304 71.4797 153.304C71.5772 153.224 71.6581 153.127 71.7177 153.016C71.7773 152.905 71.8145 152.784 71.8271 152.659C71.8397 152.534 71.8276 152.408 71.7913 152.288C71.755 152.168 71.6952 152.056 71.6155 151.959C71.4549 151.762 71.2226 151.638 70.9698 151.612C70.7171 151.587 70.4644 151.662 70.2674 151.822Z" fill="#0F0F2C"/>
<path d="M9.19234 221.289C5.41596 222.818 0.443571 225.988 0.443571 225.988C0.229345 226.124 0.0780553 226.34 0.0228902 226.587C-0.0322749 226.834 0.0131892 227.093 0.149342 227.307C0.216833 227.413 0.304615 227.504 0.407662 227.576C0.510708 227.649 0.626999 227.7 0.749904 227.727C0.872808 227.754 0.999934 227.757 1.12398 227.736C1.24802 227.714 1.36655 227.668 1.47284 227.601C1.47284 227.601 6.45887 224.458 9.91347 223.059C10.149 222.964 10.3368 222.779 10.4357 222.546C10.5346 222.313 10.5365 222.05 10.4409 221.815C10.3453 221.58 10.16 221.393 9.92584 221.294C9.6917 221.195 9.42787 221.194 9.19234 221.289Z" fill="#0F0F2C"/>
<path d="M29.7565 236.168C29.7565 236.168 25.1418 238.005 19.7794 240.723C14.4171 243.442 8.30866 246.982 5.13431 250.725C4.97044 250.918 4.89031 251.169 4.91157 251.421C4.93283 251.674 5.05376 251.907 5.24772 252.071C5.34382 252.152 5.455 252.213 5.57492 252.252C5.69485 252.29 5.82116 252.304 5.94665 252.294C6.07214 252.284 6.19434 252.249 6.30628 252.191C6.41822 252.134 6.5177 252.055 6.59904 251.959C9.35744 248.706 15.3709 245.102 20.6482 242.427C25.9255 239.751 30.468 237.943 30.468 237.943C30.704 237.849 30.893 237.665 30.9933 237.432C31.0936 237.2 31.0971 236.937 31.0029 236.701C30.9563 236.585 30.887 236.478 30.7991 236.388C30.7112 236.298 30.6063 236.227 30.4906 236.177C30.3748 236.127 30.2504 236.101 30.1245 236.1C29.9985 236.098 29.8734 236.121 29.7565 236.168Z" fill="#0F0F2C"/>
<path d="M34.1227 254.024C33.9239 253.866 33.6704 253.793 33.4177 253.821C33.1651 253.85 32.9342 253.977 32.7757 254.175L30.042 257.594C29.8835 257.792 29.8106 258.045 29.8391 258.296C29.8675 258.548 29.9952 258.779 30.1939 258.937C30.3927 259.095 30.6463 259.167 30.8989 259.139C31.1516 259.111 31.3825 258.983 31.541 258.785L34.2746 255.367C34.4331 255.169 34.5061 254.916 34.4776 254.664C34.4491 254.412 34.3214 254.182 34.1227 254.024Z" fill="#0F0F2C"/>
<path d="M113.083 230.127C112.96 230.099 112.833 230.096 112.709 230.118C112.585 230.139 112.466 230.185 112.36 230.252L110.323 231.541C110.216 231.608 110.124 231.695 110.052 231.798C109.979 231.901 109.928 232.017 109.9 232.139C109.873 232.262 109.87 232.389 109.891 232.512C109.913 232.636 109.959 232.754 110.026 232.86C110.094 232.966 110.181 233.058 110.285 233.13C110.388 233.202 110.504 233.253 110.627 233.281C110.75 233.308 110.877 233.311 111.001 233.289C111.125 233.268 111.243 233.222 111.35 233.155L113.387 231.866C113.493 231.799 113.585 231.712 113.658 231.609C113.73 231.506 113.782 231.39 113.809 231.268C113.837 231.145 113.84 231.018 113.818 230.895C113.797 230.771 113.751 230.653 113.683 230.547C113.547 230.333 113.331 230.182 113.083 230.127Z" fill="#0F0F2C"/>
<path d="M133.791 239.937L118.338 248.429C118.116 248.552 117.951 248.757 117.881 249.001C117.81 249.244 117.839 249.505 117.962 249.727C118.085 249.949 118.291 250.113 118.535 250.184C118.779 250.254 119.041 250.225 119.264 250.103L134.717 241.612C134.827 241.551 134.925 241.469 135.003 241.371C135.082 241.273 135.14 241.161 135.175 241.04C135.21 240.919 135.221 240.793 135.207 240.668C135.193 240.543 135.154 240.422 135.093 240.312C134.971 240.091 134.765 239.926 134.52 239.856C134.276 239.786 134.014 239.815 133.791 239.937Z" fill="#0F0F2C"/>
<path d="M132.989 274.578C132.735 274.569 132.488 274.661 132.302 274.834L128.966 277.936C128.78 278.109 128.671 278.349 128.662 278.602C128.653 278.855 128.746 279.101 128.919 279.287C129.093 279.472 129.333 279.581 129.587 279.59C129.841 279.599 130.088 279.506 130.274 279.334L133.61 276.232C133.796 276.059 133.905 275.82 133.914 275.567C133.923 275.314 133.831 275.067 133.658 274.882C133.572 274.79 133.469 274.715 133.354 274.663C133.239 274.611 133.115 274.582 132.989 274.578Z" fill="#0F0F2C"/>
<path d="M123.104 58.9591C122.98 58.9344 122.853 58.9342 122.729 58.9585C122.606 58.9829 122.488 59.0313 122.384 59.1009C122.172 59.2414 122.025 59.46 121.975 59.7084C121.925 59.9568 121.976 60.2147 122.117 60.4256C123.953 63.1734 127.435 64.3219 132.397 63.5486C132.521 63.5293 132.641 63.4856 132.748 63.4202C132.856 63.3549 132.949 63.269 133.024 63.1676C133.098 63.0662 133.151 62.9511 133.181 62.8291C133.21 62.7071 133.216 62.5805 133.196 62.4564C133.157 62.2061 133.019 61.9817 132.814 61.8325C132.608 61.6833 132.352 61.6215 132.101 61.6608C127.531 62.3729 125.087 61.4244 123.712 59.3665C123.572 59.1556 123.353 59.0091 123.104 58.9591Z" fill="#0F0F2C"/>
<path d="M131.358 41.9907C131.236 42.0214 131.121 42.0756 131.02 42.1506C130.919 42.2255 130.834 42.3196 130.77 42.4273C130.705 42.5351 130.662 42.6544 130.644 42.7786C130.626 42.9028 130.632 43.0294 130.663 43.1512C131.396 46.0546 132.6 48.3093 134.319 49.8536C136.038 51.3979 138.25 52.1789 140.776 52.2289C140.902 52.2315 141.027 52.2093 141.144 52.1636C141.261 52.1179 141.369 52.0497 141.459 51.9627C141.55 51.8757 141.623 51.7717 141.674 51.6567C141.724 51.5417 141.751 51.418 141.754 51.2925C141.756 51.167 141.734 51.0422 141.688 50.9253C141.642 50.8084 141.574 50.7016 141.487 50.611C141.399 50.5205 141.295 50.4479 141.18 50.3976C141.064 50.3472 140.94 50.3201 140.814 50.3176C138.651 50.2745 136.963 49.6546 135.603 48.4329C134.243 47.2113 133.191 45.3343 132.521 42.684C132.459 42.4384 132.302 42.2274 132.084 42.0974C131.866 41.9674 131.605 41.929 131.358 41.9907Z" fill="#0F0F2C"/>
<path d="M126.126 35.0645C125.32 35.1518 124.816 35.7613 124.501 36.3854C124.185 37.0094 123.983 37.7657 123.84 38.6574C123.553 40.4409 123.528 42.7623 123.804 45.2949C124.08 47.8276 124.605 50.0883 125.269 51.7686C125.602 52.6088 125.962 53.3052 126.404 53.8472C126.847 54.3892 127.471 54.8764 128.276 54.7891C129.082 54.7018 129.587 54.0923 129.902 53.4682C130.217 52.8442 130.419 52.0868 130.562 51.1951C130.849 49.4116 130.875 47.0913 130.598 44.5587C130.322 42.026 129.797 39.7643 129.133 38.0839C128.8 37.2437 128.44 36.5484 127.998 36.0064C127.556 35.4644 126.931 34.9773 126.126 35.0645ZM126.332 36.9519C126.203 36.9659 126.278 36.9077 126.521 37.205C126.763 37.5021 127.074 38.0556 127.361 38.7812C127.935 40.2327 128.444 42.371 128.705 44.7638C128.966 47.1567 128.93 49.3542 128.682 50.8947C128.558 51.6649 128.374 52.2719 128.201 52.614C128.028 52.9561 127.942 52.9146 128.071 52.9006C128.199 52.8867 128.125 52.9458 127.883 52.6485C127.64 52.3514 127.33 51.798 127.043 51.0723C126.468 49.6209 125.958 47.4827 125.697 45.0898C125.436 42.6968 125.474 40.4993 125.722 38.9588C125.846 38.1886 126.03 37.5815 126.203 37.2395C126.375 36.8974 126.46 36.938 126.332 36.9519Z" fill="#0F0F2C"/>
<path d="M133.091 34.0353C132.463 34.1033 132.04 34.5427 131.788 34.9643C131.536 35.3858 131.381 35.8653 131.26 36.4191C131.017 37.5268 130.936 38.9375 131.015 40.5233C131.021 40.6481 131.051 40.7704 131.105 40.8833C131.159 40.9962 131.234 41.0975 131.327 41.1814C131.419 41.2653 131.528 41.3301 131.646 41.3722C131.764 41.4143 131.889 41.4329 132.014 41.4268C132.139 41.4206 132.262 41.3898 132.375 41.3364C132.488 41.2829 132.59 41.2076 132.674 41.115C132.758 41.0224 132.823 40.9143 132.865 40.7967C132.907 40.679 132.925 40.5542 132.919 40.4295C132.847 38.9692 132.936 37.6804 133.124 36.8255C133.188 36.533 133.261 36.3872 133.331 36.2186C133.48 36.4359 133.653 36.7146 133.829 37.1593C134.251 38.2264 134.633 39.8243 134.828 41.6113C135.023 43.3983 134.994 45.0406 134.812 46.1731C134.733 46.6632 134.62 46.9952 134.518 47.2376C134.501 47.2141 134.493 47.2075 134.476 47.181C134.338 46.9698 134.122 46.8218 133.874 46.7696C133.627 46.7174 133.369 46.7652 133.157 46.9026C132.945 47.0402 132.797 47.256 132.744 47.5026C132.692 47.7492 132.74 48.0064 132.878 48.2178C132.994 48.3958 133.116 48.5662 133.265 48.7287C133.267 48.7305 133.269 48.7323 133.271 48.7341C133.611 49.1007 134.131 49.4531 134.766 49.3847C135.49 49.3064 135.921 48.7652 136.176 48.2595C136.432 47.7538 136.586 47.164 136.696 46.4761C136.918 45.1006 136.935 43.3345 136.725 41.4077C136.515 39.4808 136.118 37.7602 135.605 36.464C135.349 35.816 135.071 35.2735 134.713 34.8343C134.355 34.395 133.816 33.9592 133.093 34.0375L133.091 34.0353Z" fill="#0F0F2C"/>
<path d="M139.638 0.00533297C137.236 -0.0192414 135.079 1.1085 133.217 2.90434C131.355 4.7005 129.727 7.17501 128.217 10.0591C127.403 11.6101 126.263 13.5391 124.48 14.7339C122.697 15.929 120.27 16.5132 116.404 15.2C112.295 13.8042 108.943 12.9143 106 12.6957C103.058 12.4771 100.503 12.9606 98.1985 14.2956C95.9941 15.5673 91.4915 18.9883 91.3381 26.2094C88.8989 25.957 80.9563 25.6093 76.6224 31.6992C76.1346 32.3868 73.8848 35.3123 72.7065 39.9482C71.5282 44.5843 71.3761 51.0238 74.765 58.9262C75.3761 60.3457 77.3712 64.418 81.0444 67.9762C84.7177 71.5344 90.1597 74.5607 97.349 73.5801C99.6842 73.262 101.439 72.0584 102.605 70.5968C103.772 69.1353 104.389 67.4341 104.609 65.9593C104.722 65.2084 104.783 64.6041 104.343 64.0032C104.123 63.7026 103.75 63.5008 103.439 63.4432C103.128 63.3856 102.871 63.4192 102.634 63.4645C101.687 63.6471 100.802 64.0999 99.9189 64.1962C98.3096 64.376 96.6745 63.6566 95.3161 62.4587C93.9577 61.2608 92.9325 59.5953 92.5792 58.2147C92.0869 56.2934 91.875 54.2133 92.1416 52.7858C92.275 52.072 92.5207 51.544 92.8189 51.2285C93.1171 50.9131 93.456 50.7401 94.0996 50.7401C95.9447 50.7401 97.661 51.6445 99.0416 52.7538C100.422 53.8631 101.438 55.1545 101.854 55.736C102.571 56.7307 103.86 57.1666 105.028 56.6991C105.612 56.4654 106.129 55.9657 106.403 55.3029C106.677 54.6402 106.736 53.8408 106.588 52.8999C106.286 50.9842 105.132 48.3908 104.876 45.9702C104.748 44.76 104.84 43.649 105.276 42.7363C105.712 41.8239 106.475 41.0433 107.974 40.4538C111.658 39.0098 116.731 36.7389 121.689 35.2467C126.647 33.7545 131.447 33.1367 134.412 34.5801C135.48 35.1001 136.667 35.3877 137.977 35.1976C139.287 35.0075 140.678 34.3812 142.333 33.2479C144.04 32.0769 147.009 29.469 149.515 26.1412C152.022 22.8133 154.096 18.7522 153.548 14.6774C152.509 6.96374 146.755 0.0666784 139.641 0L139.638 0.00533297ZM139.619 1.91667C145.465 1.97073 150.71 8.0054 151.643 14.9377C152.081 18.1914 150.333 21.8732 147.979 24.9988C145.625 28.1245 142.696 30.6809 141.243 31.6779C139.732 32.7126 138.597 33.1812 137.697 33.3119C136.797 33.4426 136.089 33.2764 135.25 32.8682C131.417 31.0022 126.257 31.879 121.131 33.4217C116.006 34.9645 110.871 37.2691 107.269 38.6811C105.414 39.4103 104.187 40.5679 103.542 41.9204C102.896 43.2728 102.816 44.7545 102.966 46.1772C103.267 49.0223 104.478 51.8518 104.691 53.2018C104.8 53.8964 104.726 54.3394 104.627 54.5798C104.527 54.8201 104.43 54.8831 104.311 54.9307C104.074 55.0257 103.601 54.8925 103.409 54.6257C102.921 53.9452 101.823 52.5403 100.24 51.268C98.6555 49.995 96.5559 48.8319 94.0953 48.8319C93.0188 48.8319 92.0638 49.2394 91.4194 49.9209C90.7751 50.6025 90.4298 51.4887 90.2523 52.4391C89.8972 54.34 90.18 56.5925 90.7176 58.6904C91.1915 60.5428 92.398 62.4426 94.0429 63.8933C95.6871 65.3432 97.8259 66.3548 100.127 66.099C101.297 65.9713 102.241 65.5761 102.75 65.4239C102.758 65.5189 102.75 65.4135 102.712 65.6798C102.538 66.8427 102.018 68.265 101.105 69.4097C100.191 70.5545 98.9217 71.4392 97.0882 71.689C90.5441 72.5816 85.7723 69.8949 82.3788 66.6078C78.9855 63.3207 77.06 59.4141 76.5262 58.1742C73.2933 50.6341 73.4788 44.689 74.5641 40.4186C75.6493 36.1488 77.5884 33.6463 78.1858 32.8042C82.4611 26.7988 92.1043 28.1997 92.1043 28.1997C92.2445 28.2217 92.3879 28.2125 92.524 28.1726C92.6601 28.1328 92.7856 28.0634 92.8915 27.9693C92.9974 27.8752 93.0812 27.7589 93.1365 27.6287C93.1919 27.4985 93.2177 27.3576 93.2118 27.2163C92.9155 19.987 97.082 17.147 99.1594 15.9488C101.116 14.8154 103.193 14.405 105.855 14.6027C108.517 14.8005 111.741 15.6372 115.783 17.0101C120.068 18.4656 123.297 17.8291 125.547 16.321C127.797 14.8129 129.068 12.5561 129.913 10.9454C131.368 8.16642 132.92 5.8494 134.547 4.28025C136.174 2.71104 137.816 1.90013 139.616 1.9188L139.619 1.91667Z" fill="#0F0F2C"/>
<path fill-rule="evenodd" clip-rule="evenodd" d="M104.159 47.5488L96.0182 50.0553C95.4046 49.886 94.7582 49.7877 94.0954 49.7877C90.6552 49.7877 90.6169 54.4351 91.6467 58.4544C92.4739 61.6872 96.1113 65.5864 100.023 65.1495C102.225 64.9092 104.054 63.1835 103.66 65.8212C103.266 68.4588 101.387 72.0685 97.2178 72.6365C83.4844 74.5096 76.7904 61.2121 75.6455 58.5526C69.0226 43.109 76.3192 33.7817 77.4039 32.2527C82.0985 25.6558 92.2547 27.2558 92.2547 27.2558C91.9425 19.6377 96.4839 16.3885 98.6805 15.1215C102.942 12.6532 107.944 13.3358 116.095 16.1045C124.246 18.8733 127.407 13.6635 129.067 10.5016C132.031 4.83857 135.427 0.917611 139.629 0.961299C146.109 1.02137 151.609 7.48708 152.595 14.8102C153.581 22.1388 144.948 30.2976 141.787 32.4656C138.621 34.6336 136.736 34.6555 134.83 33.7271C128.032 30.4177 114.906 36.7142 107.621 39.5703C103.644 41.1376 103.501 44.4361 104.159 47.5488Z" fill="#0F0F2C"/>
<path d="M124.292 40.3445L95.7353 49.1418C95.6149 49.1788 95.503 49.2391 95.406 49.3192C95.309 49.3994 95.2288 49.4976 95.1699 49.6087C95.1111 49.7197 95.0749 49.8414 95.0632 49.9664C95.0515 50.0914 95.0646 50.2175 95.1019 50.3374C95.1391 50.4573 95.1996 50.5687 95.28 50.6653C95.3604 50.7618 95.4593 50.8417 95.5706 50.9002C95.682 50.9587 95.8038 50.9949 95.9292 51.0065C96.0546 51.018 96.181 51.0049 96.3013 50.9678L124.858 42.1705C124.978 42.1335 125.09 42.0732 125.187 41.9931C125.284 41.9129 125.364 41.8145 125.423 41.7035C125.482 41.5924 125.518 41.4709 125.53 41.3459C125.541 41.2209 125.528 41.0948 125.491 40.9749C125.454 40.855 125.393 40.7436 125.313 40.647C125.232 40.5504 125.134 40.4705 125.022 40.412C124.911 40.3534 124.789 40.3174 124.664 40.3058C124.538 40.2943 124.412 40.3074 124.292 40.3445Z" fill="#0F0F2C"/>
<path d="M102.253 68.4329C102.127 68.4391 102.004 68.47 101.89 68.5238C101.777 68.5776 101.674 68.6533 101.59 68.7464C101.42 68.9345 101.331 69.1822 101.344 69.4352C101.357 69.6882 101.47 69.9258 101.658 70.0957C101.658 70.0957 102.526 70.8636 103.228 72.5457C103.93 74.2277 104.423 76.7514 103.433 80.2347C103.364 80.4786 103.395 80.7399 103.519 80.9611C103.643 81.1823 103.85 81.3453 104.095 81.4144C104.339 81.4834 104.601 81.4527 104.823 81.3291C105.045 81.2054 105.209 80.9991 105.278 80.7552C106.381 76.8718 105.845 73.8408 104.998 71.8108C104.15 69.7808 102.944 68.6782 102.944 68.6782C102.756 68.5083 102.507 68.42 102.253 68.4329Z" fill="#0F0F2C"/>
<path d="M136.333 54.8361C136.094 54.9223 135.899 55.0996 135.791 55.329C135.684 55.5585 135.671 55.8212 135.758 56.0595C137.576 61.0792 135.623 67.6996 131.096 71.9689C126.569 76.2381 119.631 78.2351 111.194 74.0839C110.966 73.9718 110.703 73.9545 110.462 74.0359C110.222 74.1173 110.023 74.2907 109.911 74.518C109.855 74.6306 109.822 74.7529 109.814 74.8781C109.805 75.0034 109.822 75.129 109.862 75.2478C109.903 75.3667 109.966 75.4765 110.049 75.5709C110.132 75.6653 110.233 75.7424 110.346 75.7979C119.39 80.2478 127.376 78.1085 132.413 73.3576C137.451 68.6067 139.703 61.323 137.561 55.41C137.474 55.1717 137.296 54.9773 137.066 54.8697C136.836 54.7621 136.572 54.7501 136.333 54.8361Z" fill="#0F0F2C"/>
<path d="M107.876 94.0103C100.018 93.9395 96.2499 101.039 96.2499 101.039C96.131 101.263 96.1063 101.525 96.1812 101.767C96.256 102.01 96.4243 102.212 96.649 102.331C96.8737 102.449 97.1365 102.474 97.3795 102.399C97.6225 102.325 97.8258 102.157 97.9447 101.933C97.9447 101.933 101.167 95.862 107.858 95.9216C112.63 95.9675 121.18 98.7649 129.899 104.737C131.294 105.692 134.368 107.85 137.773 109.693C141.177 111.537 144.87 113.157 147.952 112.778C153.013 112.161 159.339 112.828 159.339 112.828C159.395 112.835 159.451 112.837 159.507 112.834C159.507 112.834 160.476 112.685 161.498 113.945C162.513 115.196 163.536 118.12 162.56 124.572C162.468 124.641 162.25 124.762 161.937 124.88C161.31 125.116 160.317 125.354 159.092 125.559C156.641 125.969 153.244 126.27 149.558 126.49C145.635 126.728 139.42 128.342 131.178 126.791C122.935 125.241 112.711 120.547 101.164 107.933C101.079 107.84 100.977 107.765 100.863 107.712C100.749 107.658 100.625 107.628 100.5 107.622C100.374 107.616 100.248 107.635 100.13 107.678C100.011 107.721 99.9026 107.786 99.8095 107.871C99.7165 107.956 99.6411 108.058 99.5877 108.171C99.5342 108.285 99.5037 108.408 99.4979 108.533C99.4922 108.659 99.5113 108.784 99.5541 108.902C99.5969 109.02 99.6626 109.129 99.7475 109.221C111.515 122.077 122.166 127.042 130.821 128.669C139.477 130.297 146.184 128.609 149.673 128.399C153.393 128.176 156.827 127.876 159.411 127.444C160.702 127.228 161.777 126.985 162.616 126.669C163.036 126.51 163.399 126.338 163.721 126.094C164.044 125.85 164.365 125.49 164.445 124.98C165.499 118.157 164.511 114.618 162.99 112.743C161.469 110.868 159.379 110.928 159.379 110.928L159.547 110.933C159.547 110.933 153.131 110.225 147.719 110.885C145.564 111.15 141.968 109.794 138.69 108.018C135.412 106.243 132.408 104.139 130.987 103.166C122.023 97.0265 113.351 94.0674 107.879 94.015L107.876 94.0103Z" fill="#0F0F2C"/>
<path d="M111.964 85.0478C111.712 85.0118 111.457 85.0769 111.253 85.2287C111.05 85.3805 110.915 85.6066 110.879 85.8573C110.861 85.9815 110.868 86.1082 110.899 86.2298C110.93 86.3515 110.985 86.4658 111.06 86.5663C111.135 86.6669 111.23 86.7515 111.338 86.8156C111.447 86.8797 111.566 86.922 111.691 86.9399C111.691 86.9399 113.656 87.2386 115.312 88.6198C116.967 90.0009 118.388 92.3255 117.17 97.1003C117.139 97.2219 117.133 97.3484 117.151 97.4727C117.169 97.5969 117.211 97.7164 117.276 97.8242C117.34 97.9321 117.425 98.0262 117.526 98.1013C117.627 98.1764 117.741 98.2309 117.863 98.2618C118.11 98.3242 118.371 98.2865 118.589 98.1571C118.808 98.0277 118.966 97.8172 119.029 97.5717C120.38 92.271 118.665 88.9244 116.542 87.1532C114.419 85.3821 111.964 85.0478 111.964 85.0478Z" fill="#0F0F2C"/>
<path d="M107.09 82.9729C93.803 86.7441 85.5186 101.67 81.9121 107.988C77.0495 116.507 74.9187 125.607 74.2707 133.486C73.6227 141.365 74.4405 147.997 75.577 151.758C76.7172 155.537 78.8337 157.748 81.4199 158.534C84.0061 159.319 86.8839 158.735 89.6819 157.513C104.697 150.961 112.653 141.44 115.322 138.238C116.824 136.433 117.382 134.241 117.378 132.22C117.372 130.198 116.834 128.33 116.017 126.987C115.465 126.08 115.081 124.363 114.906 122.922C114.732 121.482 114.727 120.324 114.727 120.324C114.726 120.198 114.701 120.074 114.652 119.958C114.603 119.843 114.532 119.738 114.443 119.649C114.353 119.561 114.247 119.491 114.131 119.444C114.014 119.396 113.89 119.372 113.764 119.373C113.509 119.374 113.266 119.475 113.087 119.655C112.908 119.835 112.808 120.079 112.809 120.332C112.809 120.332 112.815 121.594 113.003 123.151C113.191 124.709 113.522 126.57 114.378 127.978C114.969 128.95 115.457 130.553 115.461 132.224C115.466 133.895 115.011 135.619 113.846 137.018C111.179 140.217 103.533 149.383 88.9126 155.763C86.3585 156.878 83.9156 157.294 81.9784 156.705C80.0412 156.117 78.4312 154.583 77.413 151.208C76.3857 147.809 75.5529 141.301 76.1826 133.644C76.8124 125.986 78.8879 117.155 83.579 108.936C87.1924 102.606 95.4297 88.2717 107.616 84.8127C107.86 84.7432 108.067 84.5798 108.191 84.3584C108.314 84.1369 108.345 83.8757 108.275 83.632C108.205 83.3883 108.041 83.1823 107.819 83.0591C107.597 82.9359 107.335 82.9056 107.091 82.975L107.09 82.9729Z" fill="#0F0F2C"/>
<path d="M113.821 138.529C113.821 138.529 129.724 131.255 139.376 129.944C149.023 128.639 191.56 128.645 198.659 128.797C205.764 128.945 207.325 131.43 207.424 134.826C207.523 138.228 206.038 144.825 201.196 149.505C200.133 150.532 196.211 151.723 188.996 152.263C181.782 152.804 161.551 153.743 156.676 154.42C151.795 155.097 149.083 160.515 146.974 163.469C144.263 167.286 134.063 179.726 112.786 181.572C103.112 182.408 88.4692 181.638 81.6436 157.599C83.9169 158.314 86.6011 157.817 89.2963 156.637C102.898 150.701 110.589 142.335 113.821 138.529Z" fill="#0F0F2C"/>
<path d="M198.679 127.842C195.088 127.765 182.698 127.725 169.962 127.868C157.226 128.011 144.257 128.32 139.247 128.998C129.264 130.353 113.421 137.66 113.421 137.66C113.294 137.719 113.18 137.804 113.089 137.911C109.894 141.674 102.333 149.905 88.9124 155.761C86.341 156.887 83.8785 157.298 81.9333 156.686C81.7683 156.634 81.5924 156.628 81.4241 156.668C81.2558 156.707 81.1014 156.792 80.9773 156.912C80.8532 157.032 80.7638 157.183 80.7189 157.35C80.674 157.516 80.6751 157.691 80.7221 157.857C84.1831 170.047 89.7159 176.524 95.6904 179.752C101.665 182.981 107.966 182.947 112.87 182.523C134.488 180.648 144.955 167.965 147.756 164.022C149.961 160.933 152.57 155.956 156.807 155.368C159.125 155.046 165.448 154.633 172.013 154.246C178.579 153.859 185.433 153.489 189.066 153.217C192.713 152.943 195.542 152.507 197.63 151.995C199.717 151.484 201.039 150.987 201.861 150.193C206.957 145.268 208.488 138.514 208.38 134.8C208.327 132.962 207.825 131.134 206.278 129.858C204.731 128.583 202.341 127.919 198.678 127.843L198.679 127.842ZM198.639 129.753C202.08 129.824 204.023 130.477 205.057 131.33C206.091 132.183 206.42 133.295 206.465 134.854C206.555 137.944 205.117 144.383 200.527 148.819C200.285 149.052 199.115 149.663 197.173 150.138C195.23 150.614 192.491 151.042 188.924 151.31C185.342 151.578 178.473 151.949 171.901 152.337C165.329 152.724 159.1 153.118 156.542 153.474C151.018 154.24 148.205 160.095 146.192 162.915C143.568 166.609 133.636 178.803 112.703 180.618C107.933 181.03 102.075 181.03 96.603 178.073C91.3733 175.246 86.41 169.644 83.0419 158.814C85.1827 159.021 87.4557 158.485 89.6806 157.512C103.289 151.573 111.043 143.247 114.384 139.331C114.665 139.203 130.265 132.145 139.504 130.891C144.141 130.263 157.264 129.922 169.983 129.779C182.701 129.637 195.129 129.677 198.637 129.752L198.639 129.753Z" fill="#0F0F2C"/>
<path d="M220.621 126.151C219.391 126.214 218.014 126.777 216.272 127.929C214.801 128.907 212.355 129.73 210.315 130.257C208.275 130.784 206.646 131.041 206.646 131.041C206.522 131.06 206.402 131.104 206.295 131.17C206.188 131.235 206.094 131.321 206.02 131.423C205.946 131.524 205.893 131.639 205.864 131.761C205.834 131.883 205.829 132.01 205.849 132.134C205.889 132.384 206.026 132.609 206.232 132.758C206.438 132.907 206.694 132.968 206.946 132.929C206.946 132.929 208.661 132.659 210.795 132.107C212.929 131.556 215.486 130.749 217.334 129.521C218.917 128.473 220.032 128.095 220.719 128.061C221.406 128.026 221.715 128.219 222.087 128.647C222.259 128.844 222.476 129.695 222.22 130.759C221.963 131.823 221.321 133.045 220.266 134.01C217.772 136.299 210.21 144.035 208.922 145.358C208.325 145.972 207.407 146.653 206.673 146.83C206.306 146.918 206.01 146.905 205.712 146.774C205.414 146.644 205.072 146.371 204.712 145.761C204.648 145.653 204.563 145.558 204.462 145.483C204.362 145.407 204.247 145.352 204.125 145.321C204.004 145.289 203.877 145.282 203.752 145.3C203.627 145.317 203.507 145.359 203.399 145.423C203.29 145.486 203.196 145.571 203.12 145.671C203.044 145.771 202.989 145.885 202.957 146.007C202.926 146.129 202.919 146.255 202.936 146.379C202.954 146.504 202.996 146.623 203.06 146.731C203.57 147.596 204.211 148.205 204.94 148.524C205.67 148.844 206.445 148.85 207.123 148.687C208.48 148.36 209.552 147.455 210.298 146.688C211.574 145.377 219.238 137.552 221.564 135.417C222.92 134.176 223.74 132.641 224.086 131.204C224.432 129.768 224.392 128.376 223.536 127.393C222.884 126.643 221.851 126.087 220.621 126.149V126.151Z" fill="#0F0F2C"/>
<path d="M210.658 144.191C210.534 144.169 210.407 144.171 210.284 144.197C210.161 144.224 210.044 144.274 209.941 144.346C209.837 144.417 209.749 144.508 209.681 144.614C209.612 144.719 209.566 144.837 209.543 144.96L190.717 248.427L147.941 270.617L145.504 179.008C145.724 178.678 147.475 176.072 150.362 172.835C153.437 169.387 157.639 165.492 161.94 163.654C162.056 163.605 162.161 163.533 162.248 163.443C162.336 163.354 162.406 163.247 162.452 163.131C162.499 163.014 162.522 162.889 162.521 162.764C162.519 162.638 162.493 162.514 162.443 162.399C162.343 162.166 162.154 161.982 161.918 161.888C161.682 161.794 161.418 161.797 161.185 161.897C156.408 163.937 152.098 168.011 148.929 171.564C145.759 175.118 143.735 178.191 143.735 178.191C143.628 178.354 143.573 178.546 143.578 178.741L146.066 272.195C146.07 272.357 146.116 272.516 146.198 272.655C146.281 272.795 146.397 272.911 146.537 272.993C146.677 273.075 146.836 273.121 146.999 273.125C147.161 273.129 147.322 273.092 147.466 273.018L192.019 249.907C192.149 249.839 192.261 249.743 192.348 249.626C192.435 249.509 192.493 249.373 192.52 249.229L211.429 145.302C211.475 145.052 211.419 144.795 211.274 144.587C211.129 144.379 210.908 144.237 210.658 144.191Z" fill="#0F0F2C"/>
<path d="M200.254 113.063C198.936 112.912 197.707 113.197 196.653 113.472C194.753 113.972 189.992 114.685 189.992 114.685C189.868 114.703 189.748 114.745 189.64 114.81C189.532 114.874 189.438 114.959 189.363 115.06C189.288 115.161 189.233 115.275 189.202 115.397C189.172 115.519 189.165 115.645 189.184 115.769C189.202 115.894 189.245 116.013 189.31 116.121C189.374 116.228 189.46 116.322 189.561 116.397C189.662 116.472 189.777 116.526 189.899 116.557C190.021 116.587 190.148 116.593 190.273 116.575C190.273 116.575 194.93 115.901 197.14 115.32H197.145C198.144 115.06 199.143 114.859 200.039 114.962C200.936 115.065 201.752 115.41 202.611 116.455C203.555 117.606 204.196 118.81 204.261 119.373C204.293 119.655 204.267 119.689 204.185 119.764C204.106 119.839 203.817 120.002 203.161 120.039C202.907 120.054 202.67 120.168 202.501 120.357C202.332 120.547 202.245 120.795 202.259 121.048C202.274 121.301 202.389 121.538 202.579 121.707C202.768 121.875 203.018 121.962 203.271 121.947C204.19 121.895 204.955 121.674 205.509 121.147C206.062 120.621 206.243 119.834 206.166 119.156C206.01 117.8 205.145 116.524 204.095 115.245C202.961 113.865 201.577 113.216 200.26 113.065L200.254 113.063Z" fill="#0F0F2C"/>
<path d="M200.184 116.496C200.093 116.409 199.986 116.341 199.868 116.296C199.751 116.25 199.626 116.228 199.5 116.231C199.374 116.233 199.25 116.261 199.135 116.311C199.019 116.362 198.915 116.434 198.828 116.525C198.741 116.616 198.672 116.722 198.627 116.839C198.581 116.956 198.559 117.081 198.561 117.206C198.564 117.332 198.591 117.456 198.642 117.571C198.692 117.686 198.765 117.79 198.856 117.876C198.856 117.876 199.682 118.666 200.596 119.59C201.51 120.515 202.555 121.662 202.783 122.008C203.074 122.452 203.169 122.816 203.173 123C203.179 123.185 203.158 123.141 203.168 123.133C203.166 123.133 203.164 123.133 203.162 123.133C203.187 123.116 203.174 123.175 202.869 123.065C202.564 122.956 202.062 122.656 201.455 122.108C200.148 120.923 197.403 118.273 197.403 118.273C197.312 118.186 197.205 118.117 197.088 118.071C196.971 118.025 196.846 118.002 196.72 118.004C196.594 118.007 196.47 118.033 196.355 118.083C196.239 118.133 196.135 118.205 196.047 118.296C195.96 118.386 195.891 118.492 195.844 118.609C195.798 118.725 195.775 118.85 195.777 118.976C195.779 119.101 195.806 119.225 195.856 119.34C195.906 119.455 195.978 119.56 196.068 119.647C196.068 119.647 198.799 122.283 200.166 123.523C200.894 124.18 201.556 124.625 202.222 124.864C202.887 125.102 203.65 125.112 204.239 124.714C204.82 124.324 205.104 123.615 205.088 122.952C205.072 122.289 204.821 121.624 204.384 120.959C203.883 120.197 202.896 119.194 201.959 118.247C201.023 117.299 200.181 116.494 200.181 116.494L200.184 116.496Z" fill="#0F0F2C"/>
<path d="M193.229 119.897C193.132 119.817 193.02 119.756 192.9 119.719C192.779 119.682 192.653 119.669 192.527 119.681C192.402 119.693 192.28 119.729 192.169 119.787C192.058 119.846 191.959 119.926 191.879 120.023C191.798 120.119 191.738 120.231 191.701 120.351C191.664 120.471 191.651 120.597 191.662 120.722C191.674 120.847 191.711 120.969 191.77 121.079C191.829 121.19 191.909 121.289 192.006 121.369C192.006 121.369 193.329 122.462 194.876 123.667C196.424 124.873 198.105 126.159 199.208 126.712C200.307 127.268 201.581 127.273 202.341 126.467C203.102 125.661 203.113 124.455 202.666 123.236C202.622 123.119 202.556 123.01 202.471 122.918C202.386 122.826 202.283 122.751 202.169 122.698C202.054 122.645 201.931 122.615 201.805 122.61C201.679 122.605 201.553 122.625 201.435 122.668C201.317 122.711 201.208 122.777 201.116 122.862C201.023 122.947 200.948 123.049 200.895 123.163C200.842 123.277 200.812 123.401 200.807 123.526C200.802 123.651 200.821 123.777 200.865 123.894C201.167 124.718 200.995 125.105 200.945 125.157C200.895 125.21 200.733 125.34 200.074 125.007C200.072 125.007 200.071 125.007 200.069 125.007C199.408 124.675 197.578 123.35 196.055 122.163C194.533 120.977 193.227 119.899 193.227 119.899L193.229 119.897Z" fill="#0F0F2C"/>
<path d="M175.586 118.995C174.812 119.01 174.021 119.076 173.224 119.196C170.684 119.582 163.732 120.588 163.732 120.588C163.481 120.625 163.254 120.759 163.102 120.962C162.95 121.165 162.885 121.42 162.921 121.671C162.958 121.921 163.092 122.147 163.296 122.299C163.5 122.451 163.755 122.515 164.007 122.479C164.007 122.479 170.945 121.476 173.511 121.086C176.351 120.659 179.2 121.063 180.872 121.856C182.956 122.85 186.295 123.913 188.662 123.561C188.769 123.545 189.274 123.627 189.875 123.908C190.475 124.19 191.181 124.621 191.867 125.08C192.553 125.539 193.221 126.026 193.786 126.429C194.351 126.832 194.707 127.129 195.216 127.334C195.874 127.599 196.776 127.828 197.767 127.578C198.263 127.452 198.851 127.103 199.104 126.485C199.356 125.868 199.25 125.196 198.957 124.496C198.909 124.38 198.838 124.275 198.748 124.187C198.659 124.098 198.553 124.028 198.437 123.98C198.321 123.932 198.196 123.908 198.07 123.908C197.944 123.909 197.819 123.934 197.703 123.982C197.587 124.03 197.481 124.101 197.393 124.19C197.304 124.279 197.233 124.384 197.186 124.501C197.138 124.617 197.113 124.741 197.114 124.866C197.114 124.992 197.139 125.116 197.187 125.232C197.371 125.671 197.308 125.813 197.328 125.764C197.347 125.716 197.427 125.692 197.296 125.725C197.035 125.791 196.214 125.674 195.934 125.562C195.978 125.579 195.452 125.268 194.9 124.874C194.347 124.479 193.661 123.979 192.933 123.492C192.206 123.005 191.44 122.53 190.688 122.177C189.935 121.825 189.206 121.545 188.376 121.669C186.998 121.874 183.458 120.971 181.696 120.131C180.066 119.358 177.908 118.948 175.587 118.995L175.586 118.995Z" fill="#0F0F2C"/>
<path d="M196.349 110.158C195.849 110.141 195.313 110.225 194.776 110.47C193.403 111.097 190.43 111.571 188.313 112.398C185.193 113.625 179.215 113.284 174.11 113.021C169.014 112.77 162.342 112.447 162.342 112.447C162.216 112.441 162.09 112.46 161.972 112.502C161.853 112.545 161.744 112.61 161.651 112.694C161.558 112.779 161.482 112.881 161.429 112.994C161.375 113.108 161.344 113.231 161.338 113.356C161.332 113.481 161.351 113.607 161.393 113.725C161.436 113.843 161.501 113.952 161.586 114.044C161.671 114.137 161.773 114.213 161.887 114.266C162.001 114.32 162.124 114.35 162.25 114.356C162.25 114.356 168.921 114.679 174.014 114.93C179.087 115.192 185.084 115.725 189.02 114.177C190.76 113.498 193.68 113.075 195.582 112.206C196.147 111.948 196.481 112.016 196.984 112.221C197.487 112.426 198.053 112.835 198.791 113.131C198.908 113.178 199.033 113.201 199.159 113.2C199.284 113.199 199.409 113.173 199.525 113.123C199.641 113.074 199.746 113.003 199.834 112.913C199.922 112.823 199.991 112.717 200.038 112.601C200.133 112.366 200.13 112.103 200.031 111.87C199.931 111.637 199.743 111.453 199.508 111.358C199.089 111.19 198.492 110.771 197.71 110.452C197.319 110.292 196.856 110.174 196.357 110.157L196.349 110.158Z" fill="#0F0F2C"/>
<path d="M278.124 85.9064C258.894 86.1058 248.727 86.4553 242.517 87.1905C236.308 87.9258 233.967 89.1202 230.885 90.8084C229.048 91.8144 223.484 95.2147 216.351 99.6238C209.219 104.033 200.567 109.425 192.733 114.318C192.517 114.453 192.364 114.667 192.308 114.914C192.251 115.161 192.295 115.421 192.43 115.636C192.565 115.85 192.78 116.003 193.028 116.059C193.276 116.116 193.536 116.072 193.751 115.937C201.584 111.045 210.234 105.654 217.362 101.248C224.49 96.842 230.145 93.3938 231.808 92.483C234.878 90.8018 236.709 89.8038 242.744 89.0891C248.779 88.3745 258.931 88.017 278.145 87.8177C279.069 87.8073 279.783 87.8975 280.23 88.0534C280.677 88.2093 280.833 88.3608 280.947 88.6166C281.174 89.1282 281.028 90.6408 279.814 93.2285C276.449 100.397 274.355 104.346 272.595 106.825C270.835 109.304 269.436 110.345 267.179 111.888C265.015 113.368 250.418 122.683 236.47 131.553C222.522 140.424 209.141 148.906 209.141 148.906C209.035 148.973 208.943 149.061 208.87 149.163C208.798 149.266 208.747 149.382 208.719 149.505C208.692 149.627 208.689 149.754 208.711 149.877C208.732 150.001 208.778 150.119 208.846 150.225C208.913 150.331 209.001 150.423 209.104 150.495C209.207 150.567 209.324 150.618 209.446 150.645C209.569 150.672 209.697 150.675 209.821 150.653C209.945 150.632 210.063 150.586 210.169 150.519C210.169 150.519 223.552 142.036 237.502 133.165C251.451 124.294 265.887 115.091 268.264 113.464C270.554 111.899 272.263 110.603 274.161 107.929C276.059 105.256 278.172 101.237 281.551 94.0381C282.841 91.2905 283.39 89.3957 282.702 87.8444C282.358 87.0687 281.656 86.5247 280.864 86.2487C280.073 85.9727 279.171 85.8948 278.125 85.9064H278.124ZM182.341 120.822C175.58 125.055 170.9 128 170.9 128C170.685 128.135 170.533 128.35 170.477 128.597C170.421 128.844 170.466 129.104 170.601 129.318C170.737 129.532 170.953 129.684 171.201 129.74C171.449 129.795 171.709 129.751 171.924 129.615C171.924 129.615 176.601 126.673 183.36 122.441C183.467 122.375 183.559 122.288 183.632 122.185C183.705 122.083 183.757 121.967 183.785 121.845C183.813 121.722 183.817 121.595 183.795 121.472C183.774 121.348 183.729 121.229 183.662 121.123C183.527 120.909 183.311 120.756 183.064 120.7C182.816 120.644 182.556 120.688 182.341 120.822Z" fill="#0F0F2C"/>
<path fill-rule="evenodd" clip-rule="evenodd" d="M171.412 128.807C171.412 128.807 176.09 125.864 182.85 121.632L171.412 128.807Z" fill="#0F0F2C"/>
<path d="M121.511 88.2442C121.407 88.1727 121.291 88.1223 121.168 88.0958C121.045 88.0693 120.918 88.0672 120.794 88.0897C120.67 88.1121 120.551 88.1588 120.446 88.2268C120.34 88.2949 120.248 88.383 120.177 88.4863C120.032 88.6947 119.977 88.9517 120.022 89.2009C120.068 89.4501 120.211 89.6711 120.42 89.8153C120.42 89.8153 124.889 92.8994 130.165 96.3546C135.44 99.8098 141.468 103.619 144.831 105.167C151.493 108.23 159.433 108.665 163.622 109.777C168.156 110.981 176.171 112.094 181.846 111.779C187.39 111.464 191.821 110.78 191.821 110.78C192.072 110.741 192.297 110.605 192.448 110.4C192.598 110.196 192.66 109.941 192.621 109.69C192.602 109.566 192.559 109.447 192.493 109.34C192.428 109.232 192.342 109.139 192.24 109.065C192.139 108.99 192.023 108.937 191.901 108.907C191.778 108.877 191.651 108.872 191.527 108.891C191.527 108.891 187.182 109.562 181.738 109.87C176.424 110.166 168.378 109.062 164.114 107.929C159.495 106.704 151.823 106.276 145.634 103.43C142.577 102.023 136.47 98.1983 131.217 94.7579C125.964 91.3172 121.511 88.2442 121.511 88.2442Z" fill="#0F0F2C"/>
<path fill-rule="evenodd" clip-rule="evenodd" d="M249.748 87.5613C253.122 87.3702 257.258 87.2227 262.413 87.1025C262.413 87.1025 250.438 96.8886 247.792 99.1112C238.698 106.746 233.116 108.073 229.857 107.925C226.592 107.778 225.792 105.337 227.671 104.244C230.991 102.322 249.748 87.5613 249.748 87.5613Z" fill="#0449D1"/>
<path d="M78.605 208.457C78.39 208.322 78.1302 208.277 77.8824 208.333C77.6346 208.389 77.4193 208.541 77.2837 208.755C77.2837 208.755 71.5448 217.825 65.3219 228.305C59.099 238.784 52.4141 250.568 50.3997 256.438C50.1675 257.114 49.8114 257.717 49.4571 258.124C49.1175 258.513 48.7954 258.653 48.7295 258.67C48.7175 258.657 48.6939 258.647 48.6386 258.506C48.4981 258.149 48.378 257.281 48.5187 255.911C48.8203 252.95 49.2709 245.945 49.7042 239.345C49.9209 236.045 50.1331 232.853 50.3173 230.34C50.5012 227.83 50.6774 225.912 50.7538 225.486C50.7538 225.475 51.1164 223.546 53.2521 220.766C55.3937 217.979 59.2978 214.442 66.41 211.605C66.6459 211.511 66.8346 211.327 66.9347 211.094C67.0348 210.862 67.0381 210.599 66.9439 210.364C66.8971 210.247 66.8278 210.141 66.7398 210.051C66.6519 209.961 66.547 209.889 66.4313 209.84C66.3155 209.791 66.1911 209.764 66.0652 209.763C65.9393 209.761 65.8143 209.785 65.6974 209.831C58.2984 212.783 54.0813 216.542 51.7296 219.604C49.3779 222.665 48.8707 225.126 48.8707 225.126C48.8689 225.131 48.8671 225.135 48.8653 225.14C48.7251 225.916 48.587 227.677 48.402 230.201C48.2169 232.725 48.0057 235.92 47.789 239.22C47.3555 245.821 46.8989 252.869 46.6089 255.718C46.4512 257.253 46.5151 258.349 46.8507 259.204C47.0185 259.631 47.2718 260.013 47.6445 260.276C48.0172 260.539 48.4943 260.64 48.9102 260.594C49.7421 260.5 50.3602 260 50.9024 259.378C51.4445 258.756 51.9008 257.96 52.2109 257.058C54.053 251.69 60.7628 239.732 66.9694 229.279C73.1762 218.827 78.9023 209.776 78.9023 209.776C78.9695 209.669 79.015 209.551 79.0363 209.427C79.0576 209.304 79.0542 209.177 79.0264 209.055C78.9986 208.932 78.9469 208.816 78.8742 208.714C78.8015 208.612 78.7092 208.524 78.6027 208.457L78.605 208.457Z" fill="#0F0F2C"/>
<path d="M90.4758 177.261C90.2282 177.204 89.968 177.247 89.7525 177.381C89.7525 177.381 83.979 180.983 77.9512 184.73C71.9235 188.477 65.5499 192.422 64.6499 192.938C64.7949 192.855 64.5328 192.974 64.177 193.036C63.8213 193.098 63.3185 193.164 62.6984 193.231C61.4583 193.366 59.7455 193.508 57.6794 193.677C53.5471 194.014 47.9924 194.455 41.8306 195.161C29.5069 196.574 14.7683 199.028 3.96383 203.922C2.44861 204.608 1.48365 205.227 0.89422 205.999C0.599448 206.385 0.403958 206.844 0.393495 207.321C0.383087 207.798 0.563324 208.242 0.810766 208.581C1.3057 209.26 2.02219 209.655 2.80938 210.005C3.59657 210.356 4.47278 210.631 5.30445 210.854C6.75398 211.241 12.594 213.23 18.5501 215.493C24.5057 217.756 30.7552 220.388 32.9984 221.868C38.0094 225.18 43.0032 227.482 49.8368 226.773C49.9621 226.76 50.0836 226.723 50.1943 226.663C50.3051 226.603 50.403 226.522 50.4824 226.425C50.5618 226.327 50.6212 226.215 50.6571 226.095C50.693 225.975 50.7048 225.849 50.6917 225.724C50.6787 225.599 50.6413 225.478 50.5814 225.367C50.5214 225.257 50.4402 225.159 50.3424 225.08C50.2446 225.001 50.1322 224.942 50.0115 224.906C49.8908 224.87 49.7642 224.858 49.6389 224.871C43.3143 225.528 38.9288 223.494 34.0576 220.274C31.3591 218.494 25.2269 215.985 19.2327 213.707C13.2385 211.43 7.56035 209.478 5.79982 209.008C5.02644 208.8 4.22793 208.544 3.58722 208.259C2.94651 207.974 2.4816 207.628 2.35681 207.457C2.29441 207.372 2.30532 207.364 2.30532 207.361C2.30537 207.356 2.29981 207.306 2.41545 207.155C2.64547 206.854 3.3778 206.284 4.75223 205.662C15.175 200.94 29.8006 198.464 42.0444 197.06C48.1663 196.358 53.6964 195.919 57.8323 195.582C59.9003 195.413 61.6178 195.271 62.9016 195.132C63.5434 195.062 64.0753 194.993 64.5032 194.918C64.9311 194.844 65.2012 194.824 65.601 194.595C66.7389 193.943 72.9317 190.099 78.9611 186.351C84.9904 182.603 90.7645 179.001 90.7645 179.001C90.8713 178.935 90.9639 178.848 91.0371 178.746C91.1102 178.644 91.1624 178.528 91.1908 178.406C91.2191 178.283 91.2229 178.157 91.2021 178.033C91.1813 177.909 91.1362 177.791 91.0694 177.684C90.9343 177.47 90.7192 177.317 90.4714 177.261H90.4758Z" fill="#0F0F2C"/>
<path fill-rule="evenodd" clip-rule="evenodd" d="M98.165 186.011C99.1181 185.312 100.126 184.875 101.671 185.913C103.221 186.956 104.328 188.152 102.525 189.506C100.723 190.866 90.0684 198.774 88.551 199.625C87.0336 200.477 84.5576 200.379 82.2568 198.713C80.1697 197.201 97.0858 186.798 98.165 186.011Z" fill="#0449D1"/>
<path d="M145.027 189.382C144.777 189.333 144.519 189.386 144.308 189.527C144.308 189.527 132.376 197.54 119.353 206.164C106.329 214.787 92.1375 224.062 87.8959 226.435C78.6621 231.595 71.5331 231.803 65.2445 229.877C65.1242 229.84 64.9977 229.827 64.8723 229.839C64.7469 229.851 64.6252 229.887 64.5139 229.946C64.4026 230.005 64.3041 230.085 64.2238 230.182C64.1435 230.278 64.0832 230.39 64.0462 230.51C64.0092 230.63 63.9963 230.756 64.0082 230.881C64.0201 231.006 64.0566 231.128 64.1156 231.238C64.1746 231.349 64.2551 231.448 64.3522 231.528C64.4493 231.608 64.5613 231.668 64.6817 231.704C71.4089 233.765 79.2455 233.461 88.8342 228.103C93.3355 225.583 107.383 216.384 120.413 207.756C133.443 199.128 145.379 191.113 145.379 191.113C145.589 190.972 145.735 190.752 145.784 190.504C145.833 190.255 145.78 189.998 145.639 189.787C145.568 189.683 145.478 189.594 145.373 189.524C145.268 189.455 145.15 189.407 145.027 189.383V189.382Z" fill="#0F0F2C"/>
</svg>
