<svg width="146" height="168" viewBox="0 0 146 168" fill="none" xmlns="http://www.w3.org/2000/svg">
<path d="M141.462 101.944C141.378 102.559 140.782 103.217 140.128 102.675C139.597 102.233 140.224 101.094 140.855 101.136C140.952 101.138 141.048 101.161 141.135 101.205C141.222 101.249 141.298 101.313 141.357 101.391C141.416 101.469 141.456 101.559 141.474 101.655C141.492 101.751 141.488 101.85 141.462 101.944Z" fill="#231F20"/>
<path d="M22.1587 131.398C22.0702 132.014 21.4779 132.667 20.8241 132.129C20.2933 131.687 20.9202 130.548 21.551 130.591C22.0548 130.602 22.2164 130.99 22.1587 131.398Z" fill="#231F20"/>
<path opacity="0.7" d="M129.755 112.544C129.697 112.929 129.324 113.348 128.909 113.006C128.574 112.729 128.97 112.006 129.367 112.025C129.69 112.04 129.79 112.286 129.755 112.544Z" fill="#231F20"/>
<path opacity="0.7" d="M117.27 99.8325C117.216 100.217 116.839 100.636 116.428 100.294C116.089 100.013 116.485 99.2941 116.885 99.3133C116.95 99.3092 117.014 99.3212 117.072 99.3483C117.13 99.3753 117.181 99.4165 117.219 99.4682C117.257 99.5198 117.282 99.5802 117.291 99.6439C117.3 99.7075 117.293 99.7724 117.27 99.8325Z" fill="#231F20"/>
<path opacity="0.7" d="M0.97022 122.209C0.916374 122.594 0.53945 123.013 0.127911 122.671C-0.21055 122.394 0.185605 121.671 0.585604 121.69C0.649736 121.686 0.713874 121.698 0.772164 121.725C0.830453 121.752 0.881037 121.793 0.919288 121.845C0.957539 121.897 0.982242 121.957 0.991139 122.021C1.00004 122.084 0.992844 122.149 0.97022 122.209Z" fill="#231F20"/>
<path d="M39.5125 144.49C39.5125 144.49 40.1817 150.144 38.8625 155.117C37.3894 160.675 34.2471 165.64 33.6009 166.067C33.6009 166.067 32.324 167.567 44.0471 160.248C55.7701 152.929 60.2971 151.19 61.474 151.613C61.474 151.613 60.2817 137.14 61.0086 135.106C61.0086 135.106 54.774 128.721 54.0855 126.048C54.0778 126.048 48.9855 139.248 39.5125 144.49Z" fill="#231F20"/>
<path d="M126.836 159.552C125.505 158.902 97.5702 147.921 97.5702 147.921L97.8125 146.744C97.8125 146.744 97.7933 133.914 95.4433 134.317C95.4433 134.317 92.2625 133.394 91.8779 132.344C91.4933 131.294 95.8395 127.152 98.2779 122.66C98.2779 122.66 107.651 133.64 111.639 135.637C115.628 137.633 126.132 145.537 127.897 145.856C127.897 145.844 125.059 154.094 126.836 159.552Z" fill="#231F20"/>
<path d="M95.255 45.5405C95.255 45.5405 91.4204 8.39818 73.0396 2.24434C73.0396 2.24434 64.6627 -3.23643 59.3088 7.24434C59.3088 7.24434 52.1896 1.30587 46.8204 6.51741C46.8204 6.51741 37.5588 10.2328 35.6665 22.5828C33.7742 34.9328 32.9742 44.7982 34.8242 50.4289C36.6742 56.0597 37.7396 55.3789 40.2088 56.3828C42.6781 57.3866 52.8088 57.1828 56.4742 53.8751C56.4742 53.8751 50.7319 44.8828 50.2665 44.1405C49.8011 43.3982 44.8242 45.1789 43.0127 39.5251C43.0127 39.5251 43.3973 34.3982 47.3627 37.6251C47.3627 37.6251 45.9127 33.6482 44.9127 32.5559C44.9127 32.5559 59.4088 35.429 74.0627 28.6597C74.0627 28.6597 77.8588 27.6828 78.1742 26.5559C78.1742 26.5559 80.4358 48.0559 77.5627 51.9405C77.5627 51.9405 84.1934 55.229 95.2819 46.0982" fill="#231F20"/>
<path d="M75.8241 55.6711C74.5404 57.23 72.8898 58.4459 71.0203 59.2096C69.1452 59.9729 67.0883 60.1734 65.1011 59.7865C63.6902 59.4959 62.3304 58.9969 61.0665 58.3058C58.9067 57.0469 56.9946 55.4046 55.4242 53.4596C53.8656 51.5582 52.495 49.5102 51.3318 47.3442C50.2895 45.4404 49.3242 43.4981 48.4626 41.5211C47.9049 40.2596 47.3665 38.9865 46.8665 37.7019C46.6165 37.0596 46.4011 36.4058 46.1818 35.7558C45.9626 35.1058 45.7549 34.4519 45.5588 33.8019C45.2972 33.0135 45.4742 33.0327 45.9895 33.6058C46.7801 34.5624 47.4279 35.6286 47.9126 36.7711C48.9395 39.3635 50.0049 41.9211 51.2049 44.4135C52.383 46.9205 53.7808 49.3183 55.3818 51.5788C57.3049 54.2481 59.9165 56.675 62.9934 57.9558C63.4144 58.1324 63.8445 58.2865 64.2818 58.4173L64.9395 58.6058L65.5972 58.7404C66.4896 58.8754 67.3972 58.8754 68.2895 58.7404C70.0909 58.4618 71.7845 57.7047 73.1934 56.5481C74.0641 55.8358 74.826 55 75.4549 54.0673C76.0795 53.1243 76.5762 52.1026 76.9318 51.0288C77.4586 49.3684 77.8042 47.6559 77.9626 45.9211C78.1395 44.1711 78.2511 42.4096 78.2588 40.6673C78.278 37.9519 78.0549 35.2827 77.8434 32.5904C77.7972 31.9981 77.7357 31.4365 77.7011 30.8173C77.6347 30.0319 77.6205 29.243 77.6588 28.4558C77.679 28.0819 77.7842 27.7175 77.9665 27.3904C78.0232 27.2756 78.0901 27.1662 78.1665 27.0635C78.2818 26.9519 78.3972 27.1211 78.5203 27.5173C78.6966 28.1146 78.8138 28.7278 78.8703 29.3481C79.1588 31.7442 79.3665 34.2211 79.4895 36.7558C79.6213 39.3256 79.5918 41.9012 79.4011 44.4673C79.2907 46.4213 78.9971 48.3605 78.5242 50.2596C78.0384 52.2257 77.1316 54.0628 75.8665 55.6442L75.8241 55.6711Z" fill="#231F20"/>
<path d="M43.9818 42.5751C43.3319 41.8928 42.8499 41.0684 42.5741 40.1674C42.5087 40.0097 42.4895 39.8405 42.4395 39.6751C42.3899 39.5125 42.3589 39.3447 42.3472 39.1751V38.729C42.3433 38.6534 42.3433 38.5776 42.3472 38.502L42.3779 38.2366C42.4286 37.8899 42.5532 37.558 42.7433 37.2636C43.1144 36.7216 43.669 36.3322 44.3049 36.1674C44.8358 36.0134 45.3974 35.9988 45.9356 36.1251C46.2687 36.1962 46.5834 36.3354 46.8601 36.5339C47.1368 36.7325 47.3694 36.9862 47.5433 37.279C47.6472 37.4597 47.4472 37.5636 47.1587 37.602C47.0118 37.6194 46.8633 37.6194 46.7164 37.602C46.5753 37.6069 46.4351 37.5765 46.3087 37.5136C45.9272 37.3295 45.5045 37.2474 45.0818 37.2751C44.6712 37.3035 44.278 37.452 43.951 37.702C43.7593 37.8593 43.6376 38.0861 43.6126 38.3328C43.6062 38.3993 43.6062 38.4663 43.6126 38.5328L43.6356 38.779C43.6439 38.942 43.6658 39.1041 43.701 39.2636C43.8151 39.9875 44.119 40.6684 44.5818 41.2366C44.7272 41.4181 44.8853 41.589 45.0549 41.7482C45.1433 41.8251 45.2241 41.9097 45.3126 41.9866L45.5972 42.1982C46.1782 42.6341 46.8283 42.9695 47.5202 43.1905C48.0613 43.3335 48.6183 43.4071 49.1779 43.4097C49.301 43.4097 49.4202 43.4097 49.5395 43.4097C49.7032 43.4115 49.864 43.4524 50.0087 43.529C50.1176 43.6309 50.1894 43.7662 50.2126 43.9136C50.2356 43.9943 50.2626 44.0713 50.2779 44.152C50.3203 44.4059 50.1164 44.6482 49.7279 44.7213C49.4403 44.7659 49.1498 44.7891 48.8587 44.7905C48.5643 44.7798 48.2711 44.7463 47.9818 44.6905C47.3879 44.579 46.8094 44.3969 46.2587 44.1482C45.4122 43.7654 44.6421 43.2324 43.9856 42.5751H43.9818Z" fill="#231F20"/>
<path d="M66.1894 32.0018C64.3945 32.412 62.5996 32.7454 60.8047 33.0018C60.1471 33.0979 59.4855 33.2133 58.824 33.2787C56.4819 33.4972 54.1275 33.5524 51.7778 33.4441C50.7355 33.3941 49.6894 33.3402 48.6586 33.2441C47.3269 33.1666 46.0089 32.933 44.7317 32.5479C44.347 32.4172 44.4432 32.2133 44.8278 32.0633C45.4026 31.8683 46.0138 31.8052 46.6163 31.8787C47.924 32.0326 49.2317 32.1941 50.5509 32.2633C51.8701 32.3326 53.1932 32.4018 54.5355 32.4133C56.1707 32.3989 57.8028 32.2704 59.4201 32.0287C61.2124 31.8056 62.997 31.5018 64.7624 31.1172C65.8509 30.8826 66.9355 30.6172 68.0086 30.3172C69.6364 29.8748 71.2409 29.351 72.8163 28.7479C74.0077 28.2634 75.1711 27.7126 76.3009 27.0979L77.0278 26.6864C77.3419 26.5025 77.6729 26.3493 78.0163 26.2287C78.1133 26.1974 78.2144 26.1806 78.3163 26.1787C78.4058 26.1891 78.4945 26.2058 78.5817 26.2287C78.6561 26.2479 78.7342 26.2479 78.8086 26.2287C78.8701 26.2287 78.9124 26.2287 78.9163 26.321C78.9119 26.4319 78.8844 26.5406 78.8355 26.6402C78.6754 26.934 78.4439 27.1826 78.1624 27.3633C77.1593 28.0482 76.0944 28.638 74.9817 29.1249C73.8663 29.6326 72.7086 30.0787 71.5201 30.4864C69.7778 31.0941 67.9932 31.5941 66.2009 32.0249L66.1894 32.0018Z" fill="#231F20"/>
<path d="M32.7895 41.4751C32.7171 36.8897 33.079 32.3077 33.8703 27.7905C34.1664 26.1443 34.4433 24.4982 34.8549 22.8789C35.2001 21.4372 35.6212 20.0147 36.1164 18.6174C36.6194 17.2249 37.2129 15.8669 37.8933 14.552C39.2242 11.8695 41.0408 9.457 43.251 7.43664C44.2423 6.54873 45.3194 5.76153 46.4664 5.08664C46.7472 4.90971 47.051 4.77125 47.3433 4.60971L47.7818 4.37894L48.2395 4.1751C48.5472 4.04817 48.828 3.89433 49.1626 3.79048L49.6587 3.63279L49.9087 3.55202L50.1664 3.50971L50.8241 3.39817C51.0472 3.37894 51.2703 3.3751 51.4895 3.36356C51.7096 3.34431 51.9309 3.34431 52.151 3.36356C52.3703 3.38279 52.5933 3.38279 52.8087 3.42125C53.6789 3.55049 54.5309 3.78156 55.3472 4.10971C56.1381 4.4377 56.8944 4.84355 57.6049 5.32125L58.1241 5.70587C58.2933 5.83664 58.4587 5.97894 58.6241 6.11356C58.9425 6.41029 59.2382 6.73041 59.5087 7.07125C59.6435 7.23163 59.7502 7.41369 59.8241 7.60971C59.8703 7.74433 59.8626 7.80971 59.8241 7.82894C59.7203 7.85587 59.4972 7.68664 59.1049 7.48664C58.2933 7.10202 56.8472 6.50587 55.2587 5.75971C53.8976 5.1009 52.3854 4.81679 50.878 4.93664L50.351 5.0251C50.1741 5.05202 50.0087 5.12894 49.8395 5.17125C49.4714 5.28799 49.1117 5.42933 48.7626 5.59433C48.378 5.73664 48.0433 5.93664 47.6857 6.10971C47.328 6.28279 46.9933 6.49433 46.6472 6.70202C43.8993 8.45544 41.5985 10.826 39.928 13.6251C38.8816 15.3528 38.0204 17.186 37.3587 19.0943C36.7044 21.0425 36.1726 23.0297 35.7664 25.0443C35.2972 27.2559 34.9087 29.4905 34.6433 31.7405C34.4818 32.8636 34.4049 33.9943 34.2895 35.1213L34.1895 36.8174L34.1395 37.6674L34.1203 38.5136C34.0164 41.2975 34.158 44.0852 34.5433 46.8443C34.8233 48.9244 35.3395 50.9658 36.0818 52.9289L36.3549 53.6636C36.4049 53.7789 36.4626 53.8674 36.5126 53.9674C36.5749 54.065 36.6429 54.1587 36.7164 54.2482C37.0342 54.6126 37.4145 54.9174 37.8395 55.1482C38.7514 55.6043 39.7262 55.9219 40.7318 56.0905C42.3102 56.3714 43.9159 56.4669 45.5164 56.3751C47.1071 56.3047 48.6887 56.0963 50.2433 55.752C50.928 55.6059 51.5857 55.4136 52.2549 55.2136C54.7126 54.3905 55.3972 54.0213 56.0549 53.9828C56.201 53.9828 56.3741 53.9136 56.4703 53.9136C56.6357 53.9136 56.5241 54.1059 56.178 54.502C55.6162 55.0424 54.9657 55.4822 54.2549 55.802C52.8624 56.4093 51.4057 56.857 49.9126 57.1366C48.3945 57.4296 46.8544 57.5943 45.3087 57.6289C43.7305 57.6815 42.1509 57.5771 40.5933 57.3174C39.7841 57.1791 38.9897 56.9653 38.2203 56.6789C37.3779 56.3788 36.6076 55.9059 35.9587 55.2905C35.8276 55.1642 35.7079 55.0264 35.601 54.8789C35.4831 54.7291 35.38 54.5681 35.2933 54.3982C35.2549 54.3174 35.1933 54.2213 35.1703 54.152L35.0895 53.9443L34.928 53.5289C34.7241 52.9712 34.4818 52.4251 34.3126 51.8597L33.8357 50.152C33.7553 49.8685 33.6898 49.5809 33.6395 49.2905L33.4703 48.4289L33.301 47.5636C33.251 47.2751 33.2203 46.9828 33.1818 46.6943C33.1087 46.1136 33.0241 45.5405 32.9626 44.9559C32.8818 43.802 32.7626 42.6482 32.7549 41.4674L32.7895 41.4751Z" fill="#231F20"/>
<path d="M92.4511 32.7481C92.1691 31.6737 91.8691 30.6083 91.5511 29.5519C91.2357 28.5019 90.878 27.4519 90.5126 26.4058C89.7742 24.3211 88.9742 22.2635 88.028 20.2519C87.3511 18.7865 86.5742 17.3788 85.7742 15.9904C84.3796 13.525 82.7626 11.1922 80.9434 9.02115C80.0272 7.95234 79.0376 6.94863 77.9819 6.0173C76.9338 5.08999 75.7932 4.27288 74.578 3.57884C72.4524 2.31391 70.0423 1.60491 67.5703 1.5173C66.0477 1.44678 64.5443 1.88076 63.2934 2.75192C62.0279 3.68162 60.9201 4.80884 60.0127 6.09038C59.4511 6.89423 59.2627 6.66346 59.4665 5.76346C59.6264 5.15467 59.8725 4.57186 60.1973 4.03269C60.6535 3.2504 61.2432 2.55399 61.9396 1.975C62.6447 1.36134 63.4517 0.875812 64.3242 0.54038C65.1993 0.219121 66.1195 0.0374157 67.0511 0.00191755C68.8318 -0.0273175 70.6022 0.277969 72.2703 0.901918C75.5896 2.10576 78.4242 4.2673 80.7319 6.77884C82.1395 8.29817 83.4412 9.91221 84.628 11.6096C85.8333 13.3091 86.934 15.0803 87.9242 16.9135C90.0259 20.9467 91.7387 25.1709 93.0396 29.5288C93.8344 32.2058 94.5191 34.907 95.0934 37.6327C95.5592 39.7129 95.8411 41.83 95.9357 43.9596C95.9501 44.5146 95.9115 45.0697 95.8203 45.6173C95.7679 45.9161 95.6775 46.2069 95.5511 46.4827C95.4763 46.6291 95.386 46.767 95.2819 46.8942L95.0088 47.2096C94.2698 47.9898 93.4585 48.6981 92.5857 49.325C89.944 51.3129 86.8759 52.6586 83.6242 53.2558L82.5434 53.3981C82.3626 53.4173 82.1819 53.4481 82.0011 53.4596H81.4511H80.5088C80.2203 53.4596 79.9627 53.4173 79.7396 53.3942C79.351 53.3611 78.9653 53.2993 78.5857 53.2096C78.1451 53.1061 77.7376 52.8931 77.4011 52.5904C77.2843 52.4945 77.1797 52.3847 77.0896 52.2635C76.9973 52.0942 77.2319 51.9981 77.7126 51.9673C78.0111 51.9501 78.3103 51.9501 78.6088 51.9673C78.9665 52.0019 79.378 51.9673 79.8434 51.9673C80.5324 51.9865 81.222 51.9673 81.9088 51.9096C82.255 51.8788 82.5973 51.8173 82.9396 51.775L83.455 51.7058L83.9665 51.5942C85.3457 51.3136 86.6879 50.8748 87.9665 50.2865C89.2689 49.7014 90.5075 48.9835 91.6627 48.1442C91.9473 47.925 92.2396 47.7211 92.5088 47.4865L92.9203 47.1481L93.305 46.7904C93.4396 46.6712 93.5588 46.5481 93.6896 46.425C93.8203 46.3019 93.9357 46.1788 94.0357 46.0404L94.1934 45.8558C94.2037 45.8297 94.2194 45.806 94.2396 45.7865L94.2934 45.6519C94.3127 45.6058 94.328 45.5327 94.3473 45.475C94.4447 45.0098 94.4873 44.5347 94.4742 44.0596C94.4742 43.5442 94.4396 43.0096 94.3857 42.4711C94.2857 41.3942 94.1126 40.3019 93.9126 39.2135C93.5088 37.0327 92.9896 34.8558 92.4088 32.6981L92.4511 32.7481Z" fill="#231F20"/>
<path d="M73.2548 57.106C73.9279 60.429 73.4702 62.6098 70.224 63.0944C66.6971 63.6175 63.724 62.0713 62.5317 58.7137C62.5317 58.7137 66.2356 60.0444 69.4241 59.256C72.6125 58.4675 73.2548 57.106 73.2548 57.106Z" fill="#231F20"/>
<path d="M42.8009 100.783C43.0894 98.9521 43.4779 97.1598 43.8586 95.3598C44.2394 93.5598 44.6471 91.7636 45.1279 89.9752C45.4932 88.6829 45.824 87.379 46.2509 86.1021C46.9932 83.8521 47.8432 81.6329 48.8048 79.4675C49.2779 78.379 49.7932 77.3136 50.3432 76.2521C50.8932 75.1905 51.4971 74.1636 52.1009 73.1521C53.1862 71.3443 54.3727 69.5992 55.6548 67.9252C56.4821 66.8246 57.439 65.8277 58.5048 64.9559C59.0867 64.4828 59.774 64.1569 60.5086 64.0059L60.8125 63.979H60.9663H61.124L61.4355 64.0175C61.5373 64.0424 61.6374 64.0732 61.7355 64.1098C62.1188 64.2516 62.4537 64.4998 62.7009 64.8252C62.9586 65.2098 62.9855 65.4329 62.9125 65.4675C62.8394 65.5021 62.6163 65.3867 62.2894 65.2482C61.9164 65.0967 61.5068 65.0592 61.1125 65.1405C60.6045 65.2959 60.1261 65.5351 59.6971 65.8482C59.1814 66.1938 58.7021 66.5907 58.2663 67.0329C57.8024 67.4871 57.3633 67.966 56.9509 68.4675C56.1005 69.4894 55.302 70.5536 54.5586 71.6559C53.7894 72.7636 53.0779 73.8982 52.3894 75.0559C52.0432 75.6367 51.7048 76.2098 51.4009 76.8021C51.0971 77.3944 50.774 78.0021 50.4779 78.6136C49.0501 81.6147 47.863 84.7245 46.9279 87.9136C45.8226 91.4201 44.9097 94.9844 44.1932 98.5905C43.7444 100.801 43.431 103.038 43.2548 105.287C43.1769 106.132 43.1487 106.981 43.1702 107.829C43.2064 108.67 43.3197 109.505 43.5086 110.325C43.8971 111.971 44.478 113.565 45.2394 115.075C46.4274 117.391 47.8447 119.581 49.4702 121.614L50.5432 122.944C51.8971 124.606 52.3048 125.152 52.3817 125.698C52.4101 125.817 52.4256 125.938 52.4279 126.06C52.4009 126.364 51.6586 125.833 50.6086 124.641C48.9944 122.834 47.5221 120.905 46.2048 118.871C44.8265 116.752 43.7265 114.464 42.9317 112.064C42.8086 111.602 42.6548 111.152 42.5471 110.683L42.4048 109.975C42.3526 109.74 42.3141 109.503 42.2894 109.264L42.2086 108.541L42.1702 108.179V107.814C42.1702 107.329 42.1509 106.833 42.1702 106.375C42.2663 104.506 42.4625 102.641 42.7394 100.794L42.8009 100.783Z" fill="#231F20"/>
<path d="M100.647 99.7481C99.6932 95.9019 98.6701 92.0557 97.374 88.3211C96.9009 86.9557 96.3586 85.6288 95.8355 84.2904C93.8778 79.5981 91.7047 74.9558 88.8047 70.7904C87.5203 68.9493 86.0498 67.2455 84.4163 65.7058C83.4121 64.7355 82.2492 63.9446 80.9778 63.3673C80.3702 63.0936 79.7193 62.9283 79.0547 62.8788C78.3961 62.8438 77.7367 62.9352 77.1124 63.1481C76.3432 63.4558 76.2547 63.175 76.8547 62.5711C77.0461 62.403 77.255 62.256 77.4778 62.1327C77.6163 62.055 77.7618 61.9906 77.9124 61.9404C78.0761 61.8705 78.2461 61.8164 78.4201 61.7788C79.2633 61.5889 80.1428 61.6395 80.9586 61.925C82.4519 62.4758 83.815 63.3296 84.9624 64.4327C85.5297 64.9455 86.0702 65.4872 86.5816 66.0558C87.097 66.6096 87.5893 67.2096 88.0663 67.775C89.9434 70.1428 91.5785 72.6927 92.947 75.3865C93.774 76.9865 94.5855 78.6288 95.3663 80.2981C96.147 81.9673 96.9047 83.6519 97.5701 85.3711C98.997 89.1454 100.208 92.9978 101.197 96.9096L102.112 100.506C102.409 101.71 102.689 102.929 102.882 104.167C103.197 106.058 103.209 107.988 102.916 109.883C102.624 111.747 102.19 113.585 101.616 115.383C101.397 116.079 101.166 116.763 100.924 117.444C100.682 118.125 100.401 118.806 100.093 119.463C99.4893 120.779 98.797 122.04 98.074 123.279C97.7547 123.825 97.447 124.36 97.1201 124.902C96.5086 125.902 96.1086 126.552 95.774 126.983C95.6344 127.16 95.48 127.324 95.3124 127.475C95.1839 127.578 95.0461 127.67 94.9009 127.748C94.7778 127.813 94.647 127.913 94.5624 127.944C94.4201 127.994 94.4317 127.79 94.5163 127.348C94.6807 126.701 94.9399 126.081 95.2855 125.51C96.524 123.252 97.9393 121.06 99.0201 118.725C99.297 118.14 99.5355 117.548 99.7624 116.948C99.9893 116.348 100.205 115.713 100.405 115.087C100.804 113.833 101.136 112.56 101.401 111.271C101.595 110.323 101.737 109.365 101.824 108.402C101.894 107.45 101.881 106.494 101.785 105.544C101.539 103.594 101.147 101.666 100.612 99.775L100.647 99.7481Z" fill="#231F20"/>
<path d="M73.6819 74.6674C72.9939 74.9323 72.2614 75.0629 71.5242 75.052C70.8199 75.0361 70.121 74.9235 69.4473 74.7174C68.9706 74.5811 68.5041 74.4115 68.0511 74.2097C66.5363 73.4434 65.144 72.4557 63.9204 71.2789C63.3742 70.7789 62.8319 70.2712 62.3165 69.7405C61.6323 69.0863 61.0269 68.3544 60.5127 67.5597C60.3627 67.3059 60.5127 67.2482 60.8011 67.3405C61.2013 67.4956 61.5615 67.7388 61.855 68.052C63.1374 69.3947 64.5224 70.6357 65.9973 71.7636C66.9049 72.4309 67.9035 72.9646 68.9627 73.3482C70.0662 73.8125 71.2808 73.9461 72.4588 73.7328C73.1678 73.5735 73.8276 73.2449 74.3819 72.7751C74.8048 72.3939 75.184 71.9669 75.5127 71.502C75.86 71.0314 76.1711 70.5351 76.4435 70.0174C76.8532 69.2153 77.1917 68.3787 77.455 67.5174L77.6281 66.9559C77.8588 66.2597 78.0396 66.0828 78.4242 66.0366C78.5104 66.0192 78.5979 66.0089 78.6858 66.0059C78.9665 66.0059 79.105 66.3905 79.0088 66.9597C78.6066 68.6936 77.8868 70.338 76.8858 71.8097C76.5015 72.3985 76.061 72.9485 75.5704 73.452C75.4319 73.5789 75.305 73.7059 75.155 73.8366C75.0059 73.9587 74.8506 74.073 74.6896 74.1789C74.3721 74.3819 74.0375 74.557 73.6896 74.702L73.6819 74.6674Z" fill="#231F20"/>
<path d="M73.8818 79.9981C73.3894 80.0997 72.8833 80.1153 72.3856 80.0443C72.2087 80.0097 72.0318 80.002 71.8587 79.9597C71.566 79.8692 71.2836 79.748 71.0164 79.5981C70.8856 79.5251 70.751 79.4597 70.6318 79.3789L70.2702 79.1289C70.051 78.9943 69.8548 78.8328 69.6433 78.702C69.3616 78.5403 69.1156 78.3231 68.9202 78.0635C68.8625 77.9789 68.9972 77.852 69.1856 77.7674C69.269 77.7177 69.363 77.6883 69.4599 77.6816C69.5568 77.675 69.6538 77.6911 69.7433 77.7289C70.2318 78.0828 70.7164 78.3828 71.2049 78.7058C71.3505 78.8041 71.5137 78.8733 71.6856 78.9097C71.8539 78.9537 72.0247 78.9871 72.1972 79.0097C72.5701 79.0732 72.9511 79.0732 73.3241 79.0097L73.6702 78.9328C73.7856 78.8981 73.8933 78.852 74.0049 78.8097C74.3487 78.6726 74.6643 78.4731 74.9356 78.2212C75.0419 78.1241 75.1327 78.0112 75.2048 77.8866C75.2844 77.7629 75.3563 77.6345 75.4202 77.502C75.451 77.4481 75.4741 77.3866 75.5087 77.3366C75.6318 77.1405 75.7433 77.1328 76.0318 77.2674C76.0972 77.2981 76.1625 77.3251 76.2279 77.3597C76.326 77.4021 76.4057 77.478 76.453 77.5738C76.5002 77.6697 76.5117 77.7792 76.4856 77.8828C76.278 78.509 75.8557 79.0417 75.2933 79.3866C74.8688 79.6733 74.3957 79.8805 73.8972 79.9981H73.8818Z" fill="#231F20"/>
<path d="M73.3588 79.2635C73.0691 79.3723 72.8189 79.566 72.6409 79.8192C72.463 80.0725 72.3656 80.3735 72.3615 80.683C72.3573 80.9925 72.4466 81.296 72.6177 81.554C72.7887 81.8119 73.0336 82.0123 73.3204 82.1288C75.6396 83.125 75.6242 78.875 73.3588 79.2635Z" fill="#231F20"/>
<path d="M75.5278 81.9752C75.35 82.3117 75.068 82.5816 74.724 82.7444C74.393 82.8876 74.0243 82.9187 73.674 82.8329C73.4535 82.7968 73.2396 82.7281 73.0394 82.629C72.6942 82.4434 72.4078 82.1649 72.2124 81.8252C72.025 81.4905 71.942 81.1074 71.974 80.7252C72.0002 80.4039 72.0946 80.0918 72.2509 79.8098C72.2992 79.7201 72.3559 79.6351 72.4201 79.556C72.4792 79.4728 72.549 79.3977 72.6278 79.3329C72.7065 79.2663 72.7964 79.2143 72.8932 79.179C72.9841 79.1396 73.078 79.1074 73.174 79.0829C73.2971 79.0521 73.3355 79.229 73.3355 79.4252C73.3359 79.5218 73.3282 79.6183 73.3124 79.7137C73.3109 79.8024 73.2967 79.8905 73.2701 79.9752C73.1458 80.1462 73.0629 80.3437 73.0278 80.5521C72.9741 80.7513 72.9611 80.9593 72.9894 81.1637C73.0278 81.4483 73.3201 81.6098 73.6124 81.729C73.9047 81.8483 74.2009 81.8714 74.4009 81.6752C74.5439 81.521 74.6354 81.3261 74.6624 81.1175C74.7282 80.7637 74.6611 80.398 74.474 80.0906C74.4051 79.9962 74.3156 79.9187 74.2123 79.8641C74.109 79.8094 73.9946 79.779 73.8778 79.7752C73.8317 79.7752 73.7855 79.7752 73.7394 79.7752C73.7022 79.7779 73.665 79.7779 73.6278 79.7752C73.596 79.7524 73.5675 79.7252 73.5432 79.6944C73.4824 79.6116 73.4356 79.5194 73.4048 79.4214C73.3855 79.3637 73.3586 79.3098 73.3432 79.2521C73.3279 79.2082 73.322 79.1614 73.326 79.115C73.33 79.0686 73.3437 79.0236 73.3663 78.9829C73.4237 78.8727 73.5175 78.7857 73.6317 78.7367C73.856 78.6743 74.0917 78.6643 74.3205 78.7076C74.5493 78.751 74.765 78.8465 74.9509 78.9867C75.3245 79.2673 75.595 79.6635 75.7201 80.1137C75.9106 80.7529 75.8501 81.4406 75.5509 82.0367L75.5278 81.9752Z" fill="#231F20"/>
<path d="M79.3818 149.733L79.4664 152.248C79.4664 152.556 79.5203 152.86 79.5241 153.167C79.5472 154.248 79.5511 155.333 79.5588 156.417C79.5588 156.898 79.5587 157.379 79.6011 157.856L79.6395 158.775C79.6368 159.085 79.6072 159.394 79.5511 159.698C79.5164 159.89 79.3434 159.863 79.1664 159.698C78.9225 159.494 78.7556 159.214 78.6934 158.902C78.5539 157.669 78.505 156.427 78.5472 155.187C78.578 154.437 78.4626 153.648 78.4164 152.879C78.3664 152.04 78.3318 151.194 78.2934 150.348L78.2241 148.787C78.1857 147.998 78.1703 147.206 78.1087 146.421C78.0664 145.813 77.9587 145.221 77.8895 144.617C77.8895 144.483 77.8472 144.352 77.8434 144.233C77.8211 144.053 77.8491 143.871 77.9241 143.706C77.9532 143.65 77.9938 143.602 78.0434 143.563C78.1029 143.525 78.166 143.493 78.2318 143.467C78.2895 143.44 78.3395 143.41 78.3857 143.394C78.5011 143.348 78.8126 143.548 78.8972 143.902C79.1127 144.99 79.2413 146.094 79.2818 147.202L79.4203 149.721L79.3818 149.733Z" fill="#231F20"/>
<path d="M89.6893 139.014L86.9547 140.225C86.62 140.371 86.3008 140.544 85.9662 140.687C84.7777 141.187 83.5816 141.656 82.37 142.106C81.8316 142.298 81.3008 142.525 80.7585 142.714C80.4055 142.84 80.046 142.948 79.6816 143.037C79.4895 143.08 79.2938 143.106 79.097 143.114C78.868 143.131 78.638 143.097 78.4239 143.014C78.27 142.952 78.2277 142.837 78.2854 142.779C78.3696 142.706 78.4583 142.638 78.5508 142.575C78.7667 142.351 79.0294 142.178 79.32 142.068C79.9585 141.887 80.6239 141.594 81.3085 141.371C81.9931 141.148 82.6816 140.879 83.3854 140.644C84.2239 140.36 85.0393 139.921 85.8662 139.544L88.5893 138.294L90.2624 137.506C91.1008 137.098 91.9508 136.706 92.7739 136.271C93.4124 135.937 94.0085 135.544 94.6393 135.194C94.7777 135.114 94.9085 135.029 95.0547 134.96C95.5931 134.698 95.847 134.694 96.0662 134.96C96.1186 135.015 96.1627 135.077 96.197 135.144C96.2624 135.368 96.197 135.591 95.8123 135.818C94.7103 136.528 93.5659 137.17 92.3854 137.741C91.4893 138.187 90.5777 138.61 89.67 139.041L89.6893 139.014Z" fill="#231F20"/>
<path d="M67.9893 155.937C68.8047 156.275 69.6354 156.606 70.4662 156.921C70.77 157.033 71.0854 157.121 71.3893 157.237C72.4585 157.621 73.5354 158.044 74.62 158.437C75.1008 158.606 75.5854 158.779 76.0662 158.937C76.6917 159.124 77.3024 159.358 77.8931 159.637C78.0777 159.733 77.997 159.864 77.7854 159.956C77.4898 160.071 77.1655 160.09 76.8585 160.01C76.22 159.837 75.5816 159.664 74.9354 159.471C74.2893 159.279 73.6854 159.029 73.0624 158.779C72.32 158.471 71.5239 158.264 70.7547 158.01C69.9008 157.714 69.0547 157.402 68.2085 157.083L66.67 156.471C65.9008 156.156 65.1316 155.802 64.3624 155.456C63.7624 155.191 63.1547 154.96 62.5662 154.656C62.4393 154.587 62.3085 154.529 62.1816 154.448C62.0063 154.359 61.8567 154.227 61.747 154.064C61.7128 154.006 61.691 153.943 61.6831 153.876C61.6751 153.81 61.6812 153.743 61.7008 153.679C61.7117 153.618 61.7271 153.557 61.747 153.498C61.8239 153.321 62.097 153.314 62.447 153.448L63.2162 153.779L63.9854 154.144C64.5008 154.394 65.0354 154.641 65.5739 154.883C66.3777 155.241 67.1931 155.594 68.0239 155.921L67.9893 155.937Z" fill="#231F20"/>
<path d="M97.8511 149.975L97.8319 151.233V152.037V152.325C97.834 152.337 97.834 152.348 97.8319 152.36L97.8011 152.379L97.7396 152.417L97.6165 152.491L97.1626 152.752C96.4319 153.175 95.6857 153.571 94.9357 153.96C94.3896 154.241 93.8549 154.548 93.3011 154.81C91.3473 155.756 89.3588 156.602 87.3665 157.429L84.7203 158.533C83.6045 159.032 82.4587 159.461 81.2896 159.817C80.9242 159.925 80.928 159.794 81.1703 159.541C81.5668 159.151 82.0224 158.826 82.5203 158.579C84.7703 157.517 87.0511 156.56 89.3703 155.633C90.7549 155.071 92.1357 154.352 93.4934 153.66C94.2396 153.275 94.9819 152.891 95.7126 152.479L96.2626 152.171L96.7626 151.883C96.8035 151.866 96.8423 151.844 96.878 151.817V151.091C96.878 150.052 96.878 149.015 96.878 147.979C96.878 146.41 96.8549 144.829 96.7857 143.275C96.728 142.064 96.6049 140.883 96.478 139.698C96.4473 139.437 96.4088 139.183 96.3896 138.929C96.3203 137.956 96.3242 137.675 96.5088 137.421C96.5423 137.359 96.5809 137.3 96.6242 137.244C96.6934 137.175 96.7857 137.225 96.9011 137.398C97.0467 137.653 97.1506 137.93 97.2088 138.217C97.444 139.304 97.5919 140.407 97.6511 141.517C97.7396 142.637 97.7857 143.775 97.8203 144.91C97.8742 146.602 97.8857 148.298 97.8857 149.991L97.8511 149.975Z" fill="#231F20"/>
<path d="M63.8662 136.721L61.6392 135.652C61.447 135.579 61.2846 135.443 61.1777 135.268C61.1635 135.244 61.156 135.216 61.156 135.189C61.156 135.161 61.1635 135.134 61.1777 135.11L61.2162 134.979C61.1585 134.979 61.3546 134.979 61.0815 134.979L61.1046 134.944L61.1585 134.875L61.2623 134.737L61.37 134.602C61.3931 134.579 61.3931 134.556 61.4392 134.537L61.6546 134.471L62.6123 134.175L63.0854 134.029L63.3508 133.933C63.7008 133.802 64.0469 133.683 64.3969 133.548C65.0623 133.294 65.7123 133.006 66.3738 132.737C68.7085 131.794 71.0392 130.814 73.3738 129.837L76.4738 128.525C77.7877 127.918 79.1637 127.455 80.5777 127.144C81.0277 127.064 80.9892 127.244 80.6662 127.498C80.1516 127.873 79.5905 128.18 78.9969 128.41C76.3046 129.452 73.6508 130.648 70.92 131.744C69.2892 132.406 67.6392 133.198 65.97 133.898C65.42 134.125 64.8623 134.352 64.3046 134.571L63.4585 134.887L63.0354 135.021L62.7892 135.083L62.6585 135.118C62.6869 135.14 62.7179 135.16 62.7508 135.175L63.1931 135.398L66.3892 136.894C68.0662 137.664 69.7431 138.433 71.42 139.202C72.7239 139.775 74.0239 140.283 75.3239 140.825C75.6085 140.944 75.8931 141.056 76.1777 141.183C77.2354 141.656 77.5431 141.871 77.6623 142.206C77.6965 142.278 77.7223 142.355 77.7392 142.433C77.7623 142.652 77.2662 142.606 76.4662 142.314C74.0892 141.471 71.6739 140.391 69.2431 139.291C67.4392 138.479 65.6392 137.637 63.8392 136.802L63.8662 136.721Z" fill="#231F20"/>
<path d="M91.0356 132.721L89.1125 131.548C88.8779 131.41 88.6279 131.287 88.3972 131.144C87.5664 130.648 86.7549 130.114 85.9395 129.606C85.5549 129.375 85.2048 129.156 84.8395 128.941C84.3609 128.673 83.8962 128.382 83.4472 128.067C83.1702 127.864 83.7356 127.771 84.2895 128.067C85.2625 128.598 86.2664 129.075 87.2241 129.656C87.801 129.998 88.4279 130.306 89.0356 130.625L91.0241 131.717L92.2433 132.398C92.8625 132.737 93.4741 133.102 94.0933 133.433C94.5741 133.687 95.0702 133.894 95.5625 134.125C95.6716 134.172 95.7781 134.225 95.8818 134.283C96.2664 134.51 96.351 134.641 96.301 134.906C96.2954 134.966 96.2838 135.025 96.2664 135.083C96.2049 135.267 95.9664 135.314 95.6548 135.206C94.7223 134.849 93.8216 134.415 92.9625 133.906C92.3048 133.541 91.6664 133.137 91.0125 132.752L91.0356 132.721Z" fill="#231F20"/>
<path d="M60.4242 141.175L60.4857 136.175V135.279C60.4857 135.183 60.4857 135.229 60.2165 134.929C58.7258 133.348 57.3286 131.681 56.0319 129.937C55.4547 129.159 54.9168 128.353 54.4203 127.521C53.746 126.468 53.2871 125.291 53.0703 124.06C53.0088 123.675 53.2319 123.675 53.5203 123.944C53.6956 124.105 53.8517 124.286 53.9857 124.483C54.1714 124.728 54.3288 124.994 54.4549 125.275C55.5095 127.446 56.8299 129.477 58.3857 131.321C58.8434 131.898 59.3549 132.456 59.8857 133.006L60.6896 133.829L61.0934 134.237L61.3396 134.494L61.5049 134.667L61.5857 134.752V134.871L61.5511 140.075C61.5511 141.101 61.5511 142.135 61.5511 143.179C61.5511 144.744 61.5742 146.317 61.6434 147.871C61.6934 149.079 61.8396 150.256 61.9473 151.444C61.9742 151.702 62.0088 151.956 62.028 152.214C62.1126 153.187 62.0742 153.483 61.8049 153.733C61.7479 153.795 61.6848 153.852 61.6165 153.902C61.4088 154.037 61.1473 153.648 61.0088 152.921C60.6417 150.716 60.4526 148.484 60.4434 146.248C60.3973 144.564 60.3934 142.871 60.3819 141.183L60.4242 141.175Z" fill="#231F20"/>
<path d="M65.3051 116.287C64.3512 116.767 63.382 117.252 62.4474 117.748C62.0974 117.929 61.7666 118.133 61.4204 118.313L57.732 120.194C57.1897 120.475 56.6512 120.779 56.1243 121.083L55.1127 121.671C54.7647 121.855 54.4049 122.015 54.0358 122.152C53.8051 122.237 53.7474 122.056 53.8358 121.787C53.9676 121.426 54.2116 121.117 54.532 120.906C55.9128 120.137 57.3166 119.367 58.7628 118.687C59.6358 118.283 60.482 117.752 61.3512 117.29C62.3051 116.783 63.2743 116.287 64.232 115.794L66.0127 114.887L68.7051 113.533C69.3974 113.175 70.0589 112.787 70.7512 112.444C70.9051 112.367 71.0474 112.283 71.2051 112.213C71.782 111.948 72.0012 111.94 72.2089 112.083C72.2583 112.108 72.3047 112.139 72.3474 112.175C72.4628 112.287 72.2897 112.537 71.8974 112.783C71.3089 113.137 70.7051 113.498 70.082 113.844C69.4589 114.19 68.8127 114.502 68.1589 114.833L65.282 116.306L65.3051 116.287Z" fill="#231F20"/>
<path d="M75.9281 118.51C76.2357 119.187 76.5742 119.856 76.9396 120.51C77.0704 120.752 77.2357 120.975 77.3742 121.21C77.8473 122.052 78.3742 122.863 78.9127 123.667C79.1589 124.018 79.426 124.353 79.7127 124.671C80.0742 125.056 80.4319 125.494 80.7896 125.86C80.8973 125.983 80.8319 126.075 80.6357 126.098C80.5069 126.111 80.3769 126.102 80.2511 126.071C80.0967 126.029 79.9509 125.96 79.8204 125.867C79.5781 125.687 79.355 125.483 79.1357 125.298C78.9165 125.113 78.7511 124.875 78.555 124.652C78.1814 124.209 77.8456 123.736 77.5511 123.237C77.205 122.633 76.7588 122.083 76.3973 121.467C76.1934 121.14 76.0127 120.798 75.8088 120.463L75.2588 119.437C75.0473 119.01 74.8357 118.583 74.6357 118.148C74.3281 117.49 74.0781 116.802 73.8204 116.129C73.7281 115.863 73.6204 115.606 73.5127 115.36C73.405 115.113 73.3242 114.829 73.2434 114.556C73.2038 114.43 73.1755 114.302 73.1588 114.171C73.1289 114.002 73.1381 113.828 73.1857 113.663C73.2316 113.566 73.3035 113.484 73.3934 113.425C73.4266 113.399 73.4613 113.374 73.4973 113.352C73.555 113.325 73.6127 113.352 73.6934 113.429C73.8033 113.518 73.8914 113.631 73.9511 113.76C74.0038 113.866 74.05 113.975 74.0896 114.087C74.1319 114.198 74.1934 114.306 74.2396 114.417C74.3319 114.637 74.3973 114.863 74.4896 115.087C74.678 115.537 74.8396 115.994 75.0473 116.448C75.3434 117.121 75.6242 117.817 75.9588 118.49L75.9281 118.51Z" fill="#231F20"/>
<path d="M45.0434 139.186C45.9281 138.271 46.7665 137.302 47.5627 136.294C47.8511 135.91 48.1127 135.525 48.3934 135.16C49.4108 133.866 50.3117 132.485 51.0857 131.033C51.428 130.387 51.7286 129.72 51.9857 129.036C52.155 128.602 52.2934 128.156 52.455 127.717C52.6165 127.279 52.7973 126.848 52.9857 126.417C53.1088 126.148 53.2627 126.229 53.3704 126.521C53.523 126.956 53.5523 127.424 53.455 127.875C52.9506 129.798 52.1179 131.62 50.9934 133.26C50.3242 134.244 49.6742 135.29 48.955 136.248C48.1678 137.307 47.3306 138.333 46.4434 139.325C45.9011 139.929 45.3319 140.517 44.7473 141.083C43.8511 141.948 42.8819 142.706 41.9434 143.483C41.2088 144.079 40.5165 144.702 39.7627 145.279C39.6011 145.406 39.4396 145.536 39.2665 145.663C38.6127 146.11 38.3011 146.106 38.0281 145.933C37.9704 145.898 37.9011 145.875 37.8665 145.848C37.8319 145.821 37.8242 145.71 37.8896 145.544C37.9858 145.344 38.1282 145.17 38.305 145.036C39.5473 144.006 40.905 142.929 42.2281 141.813C42.7165 141.402 43.2088 140.979 43.6665 140.556C44.1242 140.133 44.5819 139.671 45.0204 139.202L45.0434 139.186Z" fill="#231F20"/>
<path d="M48.8085 158.198C47.2214 159.075 45.6431 159.972 44.0739 160.89L42.3739 161.929L36.3162 165.498L34.9778 166.306L34.647 166.509C34.5893 166.55 34.5289 166.585 34.4662 166.617C34.3942 166.657 34.3197 166.691 34.2431 166.721C33.9823 166.815 33.7149 166.889 33.4431 166.944C32.1254 167.227 30.7792 167.356 29.4316 167.329C29.0008 167.306 29.0701 167.144 29.4085 166.944C29.9379 166.66 30.5092 166.463 31.1008 166.359C31.7585 166.256 32.4124 166.102 33.047 165.975C33.3398 165.922 33.6279 165.846 33.9085 165.748L33.9585 165.725H33.9816L34.0355 165.694L34.2508 165.559L34.6855 165.294C35.8393 164.594 36.9931 163.89 38.1931 163.221C39.6201 162.425 41.0355 161.482 42.4662 160.617C44.038 159.671 45.6239 158.74 47.2239 157.825C48.2085 157.263 49.197 156.709 50.1893 156.163C51.6893 155.332 53.2239 154.544 54.7508 153.775C55.9393 153.182 57.0893 152.559 58.3393 152.079C58.6124 151.975 58.8855 151.871 59.1778 151.79C59.5617 151.669 59.9641 151.617 60.3662 151.636C60.5716 151.637 60.7697 151.712 60.9239 151.848C60.9806 151.891 61.0334 151.938 61.0816 151.99C61.1739 152.148 60.7624 152.306 60.0739 152.575C57.8786 153.463 55.7309 154.464 53.6393 155.575C52.0278 156.417 50.4162 157.286 48.8239 158.194L48.8085 158.198Z" fill="#231F20"/>
<path d="M116.393 139.514C114.755 138.38 113.14 137.212 111.547 136.01C110.97 135.567 110.366 135.16 109.797 134.706C107.79 133.11 105.847 131.429 103.99 129.648C103.163 128.86 102.355 128.04 101.578 127.206C101.07 126.667 100.608 126.087 100.197 125.471C99.7541 124.85 99.4318 124.15 99.2472 123.41C99.1472 122.925 99.3703 122.975 99.6972 123.256C100.173 123.665 100.617 124.11 101.024 124.587C102.832 126.706 104.936 128.717 107.055 130.74C108.394 131.944 109.793 133.079 111.247 134.14C112.824 135.348 114.424 136.529 116.055 137.667C117.063 138.367 118.07 139.064 119.097 139.729C120.636 140.737 122.228 141.737 123.836 142.629C125.086 143.321 126.363 143.91 127.647 144.479C127.932 144.602 128.213 144.71 128.497 144.837C129.555 145.294 129.843 145.529 129.955 145.925C129.986 146.014 130.009 146.105 130.024 146.198C130.024 146.467 129.513 146.498 128.67 146.24C126.163 145.33 123.754 144.171 121.478 142.779C119.743 141.76 118.051 140.66 116.378 139.54L116.393 139.514Z" fill="#231F20"/>
<path d="M116.401 156.048C114.75 155.343 113.093 154.649 111.432 153.967C110.824 153.717 110.205 153.502 109.597 153.252L103.193 150.583C102.247 150.171 101.297 149.84 100.324 149.502C99.6909 149.287 99.0728 149.03 98.4741 148.733C97.8435 148.43 97.2859 147.994 96.8394 147.456C96.5741 147.071 96.7817 147.04 97.151 147.156C97.6874 147.312 98.2151 147.497 98.7317 147.71C99.319 147.961 99.92 148.179 100.532 148.363C101.151 148.583 101.786 148.798 102.42 149.037C103.697 149.513 104.905 150.044 106.139 150.606C107.605 151.275 109.189 151.829 110.72 152.444L115.751 154.506L118.828 155.798L123.489 157.79C124.693 158.306 125.897 158.752 127.086 159.298C127.347 159.421 127.609 159.533 127.855 159.683C128.211 159.853 128.534 160.084 128.813 160.363C128.89 160.451 128.954 160.549 129.001 160.656C129.033 160.75 129.046 160.849 129.039 160.948C129.048 161.026 129.048 161.105 129.039 161.183C128.97 161.352 128.551 161.287 127.886 160.979C125.859 160.063 123.616 159.137 121.389 158.187C119.732 157.483 118.063 156.779 116.389 156.09L116.401 156.048Z" fill="#231F20"/>
<path d="M36.9242 145.537C36.8287 144.804 36.6346 144.087 36.3473 143.406C36.0792 142.765 35.6499 142.205 35.1011 141.779C34.8314 141.57 34.5285 141.407 34.205 141.298C34.0383 141.237 33.8674 141.188 33.6935 141.152L33.4242 141.091C33.3396 141.091 33.2512 141.071 33.1627 141.064C32.471 140.981 31.7709 141.116 31.1588 141.448C30.255 141.925 29.5935 142.852 29.0473 143.817C28.1377 145.637 27.5038 147.581 27.1665 149.587C26.7917 151.622 26.5285 153.676 26.3781 155.741C26.305 156.664 26.2588 157.587 26.2012 158.517C26.1434 159.424 26.1434 160.334 26.2012 161.241C26.2654 162.391 26.4471 163.531 26.7435 164.644C26.882 165.169 27.1013 165.668 27.3935 166.125C27.5259 166.327 27.6972 166.501 27.8973 166.637C28.0841 166.776 28.3043 166.863 28.5358 166.891C28.6896 166.891 28.8088 166.891 28.8896 166.891C28.9704 166.891 29.0127 166.925 29.0204 166.964C29.0281 167.002 28.9935 167.052 28.9204 167.114C28.8176 167.205 28.6972 167.274 28.5665 167.317C28.3546 167.399 28.1282 167.437 27.9011 167.429C27.5858 167.417 27.2814 167.31 27.0281 167.121C26.4453 166.689 26.0101 166.087 25.7819 165.398C25.5659 164.79 25.4024 164.165 25.2935 163.529C25.18 162.911 25.1042 162.287 25.0665 161.66C25.0281 161.041 25.0088 160.417 25.0127 159.798C25.0165 159.179 25.0588 158.525 25.105 157.944C25.2368 155.504 25.5052 153.074 25.9088 150.664C26.1556 149.182 26.4818 147.714 26.8858 146.267C27.2747 144.756 27.9255 143.324 28.8088 142.037C29.3362 141.301 30.0362 140.707 30.8473 140.306C31.6897 139.923 32.6265 139.799 33.5396 139.948C33.9816 140.022 34.4156 140.138 34.8358 140.294C35.2611 140.467 35.6578 140.703 36.0127 140.994C36.695 141.576 37.2234 142.317 37.5511 143.152C37.9454 144.135 38.1842 145.173 38.2588 146.229C38.3427 147.253 38.3427 148.282 38.2588 149.306C37.968 152.382 37.2749 155.406 36.1973 158.302C35.4425 160.55 34.4212 162.7 33.155 164.706C32.8591 165.149 32.5354 165.573 32.1858 165.975C31.7127 166.558 31.0984 167.011 30.4011 167.291C30.2314 167.364 30.0469 167.397 29.8622 167.388C29.6774 167.379 29.4973 167.327 29.3358 167.237C29.2603 167.187 29.1895 167.13 29.1242 167.067C29.1039 167.055 29.0858 167.039 29.0704 167.021C29.06 167.013 29.0516 167.003 29.0458 166.992C29.0401 166.98 29.037 166.967 29.037 166.954C29.037 166.941 29.0401 166.928 29.0458 166.916C29.0516 166.905 29.06 166.895 29.0704 166.887C29.0704 166.887 29.1358 166.86 29.1396 166.848C29.6573 166.642 30.139 166.355 30.5665 165.998C31.2889 165.326 31.9049 164.548 32.3935 163.691C32.9255 162.796 33.402 161.87 33.8204 160.917C34.6794 158.961 35.3779 156.937 35.9088 154.867C36.3454 153.342 36.6719 151.786 36.8858 150.214C37.0933 148.665 37.1011 147.095 36.9088 145.544L36.9242 145.537Z" fill="#231F20"/>
<path d="M139.905 141.552C139.863 140.14 139.555 138.706 138.632 137.836C138.402 137.625 138.143 137.449 137.863 137.313C137.718 137.243 137.568 137.188 137.413 137.148L137.182 137.079C137.105 137.059 137.028 137.079 136.951 137.052C136.317 136.987 135.681 137.149 135.155 137.509C134.327 138.127 133.64 138.913 133.14 139.817C132.169 141.484 131.394 143.257 130.832 145.102C130.248 146.965 129.768 148.859 129.393 150.775C129.224 151.629 129.082 152.483 128.967 153.344C128.851 154.206 128.751 155.063 128.713 155.913C128.639 156.987 128.702 158.067 128.901 159.125C128.996 159.615 129.188 160.08 129.467 160.494C129.752 160.86 130.149 161.122 130.597 161.24C130.897 161.298 131.047 161.329 131.043 161.406C131.04 161.483 130.886 161.59 130.567 161.667C130.367 161.717 130.161 161.738 129.955 161.729C129.893 161.729 129.828 161.729 129.759 161.729C129.69 161.718 129.623 161.7 129.559 161.675C129.413 161.628 129.273 161.564 129.143 161.483C128.557 161.089 128.128 160.501 127.936 159.821C127.757 159.226 127.645 158.614 127.601 157.994C127.554 157.399 127.548 156.801 127.582 156.206C127.648 155.046 127.777 153.89 127.967 152.744C128.332 150.463 128.853 148.209 129.524 145.998C129.932 144.671 130.367 143.325 130.901 141.994C131.166 141.324 131.465 140.668 131.797 140.029C132.124 139.375 132.51 138.753 132.951 138.171C133.447 137.497 134.069 136.927 134.782 136.49C135.544 136.029 136.447 135.86 137.324 136.017C138.185 136.17 138.977 136.586 139.59 137.209C139.891 137.52 140.149 137.869 140.359 138.248C140.549 138.617 140.704 139.003 140.82 139.402C141.075 140.365 141.185 141.36 141.147 142.356C141.12 143.327 141.018 144.296 140.843 145.252C140.277 148.105 139.364 150.878 138.124 153.509C137.237 155.554 136.118 157.489 134.79 159.279C134.482 159.677 134.148 160.053 133.79 160.406C133.327 160.895 132.749 161.262 132.109 161.471C131.939 161.529 131.757 161.549 131.579 161.529C131.4 161.509 131.227 161.45 131.074 161.356L131.332 161.167C131.306 161.2 131.277 161.23 131.247 161.259C131.177 161.342 131.1 161.418 131.017 161.486C130.897 161.556 130.82 161.413 130.774 161.102L130.751 160.944L131.163 160.813C131.32 160.775 131.474 160.725 131.624 160.663C131.85 160.557 132.064 160.428 132.263 160.279C132.988 159.703 133.618 159.018 134.132 158.248C134.693 157.444 135.207 156.608 135.67 155.744C136.623 153.97 137.441 152.126 138.117 150.229C138.638 148.82 139.065 147.379 139.393 145.913C139.729 144.478 139.89 143.007 139.874 141.533L139.905 141.552Z" fill="#231F20"/>
<path d="M99.4243 79.0594C97.2435 83.2902 95.282 87.6556 93.482 92.0787C92.8243 93.694 92.2243 95.3287 91.6166 96.9594C89.448 102.71 87.5776 108.57 86.0127 114.513C85.3281 117.156 84.7397 119.832 84.2551 122.494C83.9474 124.202 83.6897 125.921 83.4858 127.64C83.3935 128.502 83.3089 129.363 83.2589 130.221C83.1974 131.07 83.1974 131.922 83.2589 132.771C83.2589 132.898 83.2858 133.009 83.2897 133.106C83.2945 133.18 83.2945 133.254 83.2897 133.329C83.2897 133.452 83.2666 133.513 83.2243 133.517C83.182 133.521 82.9512 133.313 82.7781 132.859C82.5542 132.239 82.4082 131.593 82.3435 130.936C82.2546 130.014 82.2546 129.085 82.3435 128.163C82.698 124.589 83.2968 121.044 84.1358 117.552C84.9486 114.065 85.9025 110.603 86.9974 107.167C88.3012 103.067 89.6666 98.7979 91.2281 94.6825C92.941 90.1517 94.8525 85.7043 96.9627 81.3402C98.2602 78.6556 99.6435 76.0158 101.113 73.421C103.327 69.4878 105.791 65.7005 108.49 62.0825C110.54 59.2942 112.793 56.6614 115.232 54.2056C115.77 53.6633 116.313 53.1517 116.886 52.6325C117.459 52.1133 117.882 51.7902 118.27 51.4787C118.659 51.1671 118.994 50.9479 119.274 50.771C119.653 50.5005 120.086 50.3167 120.544 50.2325C120.691 50.1976 120.842 50.1783 120.994 50.1748C121.174 50.1748 121.059 50.4133 120.701 50.7863C120.524 50.9748 120.278 51.1902 119.986 51.4517C119.694 51.7133 119.359 52.0171 118.967 52.3479C114.386 56.321 110.297 61.294 106.705 66.6363C104.039 70.6319 101.618 74.7857 99.455 79.0748L99.4243 79.0594Z" fill="#231F20"/>
<path d="M110.436 92.0867C107.724 95.1302 105.17 98.31 102.782 101.614C101.897 102.814 101.094 104.067 100.251 105.291C98.782 107.467 97.3858 109.687 96.0205 111.937C94.6551 114.187 93.4243 116.494 92.2705 118.84C91.2397 120.929 90.3012 123.071 89.4705 125.229C88.4118 127.997 87.5318 130.829 86.8358 133.71C86.6166 134.606 86.4974 134.479 86.4512 133.66C86.4227 133.104 86.4343 132.548 86.4858 131.994C86.5166 131.652 86.5512 131.279 86.6089 130.887C86.6666 130.494 86.7743 130.087 86.8782 129.664C87.0628 128.894 87.2897 128.179 87.5166 127.444C87.7435 126.71 87.9935 125.979 88.2512 125.252C88.7897 123.811 89.3756 122.39 90.0089 120.99C91.2732 118.184 92.6854 115.447 94.2397 112.791C96.1012 109.606 98.0858 106.317 100.217 103.21C102.565 99.7918 105.081 96.4969 107.763 93.3251C109.424 91.402 111.117 89.479 112.905 87.6559C115.601 84.8827 118.473 82.285 121.501 79.879C123.811 78.0175 126.253 76.3272 128.809 74.8213L129.655 74.3328L130.078 74.0905L130.52 73.8751C131.287 73.4657 132.09 73.1308 132.92 72.8751C133.302 72.743 133.709 72.7021 134.109 72.7559C134.239 72.769 134.368 72.7934 134.494 72.829C134.786 72.9674 133.944 73.5174 132.378 74.2674C130.014 75.4551 127.743 76.8179 125.582 78.3443C123.339 79.9018 121.189 81.5893 119.144 83.3982C116.064 86.1078 113.163 89.0139 110.459 92.0982L110.436 92.0867Z" fill="#231F20"/>
<path d="M49.3433 90.3632C52.3842 93.5641 55.1396 97.0248 57.5779 100.706C58.4779 102.036 59.3625 103.398 60.1933 104.748C61.6548 107.167 63.0394 109.636 64.324 112.152C65.6087 114.667 66.8125 117.217 67.9894 119.779C69.0394 122.048 70.0894 124.329 71.1471 126.567C71.4856 127.286 71.8394 127.998 72.1664 128.74C72.4933 129.482 72.7933 130.221 73.0933 130.956C73.6549 132.424 74.3061 133.856 75.0433 135.244C75.5356 136.067 75.3087 136.106 74.6587 135.521C74.2221 135.107 73.8349 134.643 73.5048 134.14C73.0495 133.433 72.6631 132.683 72.351 131.902L71.424 129.652C71.1164 128.913 70.774 128.206 70.424 127.459L68.374 123.029C67.0202 120.067 65.6817 117.102 64.2548 114.163C62.493 110.59 60.5243 107.123 58.3587 103.779C56.0359 100.056 53.4171 96.5269 50.5279 93.2248C49.6394 92.2094 48.7048 91.2363 47.7548 90.2748C46.8048 89.3132 45.8087 88.4017 44.8125 87.4863C41.8278 84.6861 38.6522 82.0965 35.3087 79.7363C34.0125 78.8401 32.6702 78.044 31.324 77.2325C29.9779 76.4209 28.6317 75.6478 27.2664 74.9248C26.6548 74.6209 26.0548 74.3401 25.4279 74.0709C24.274 73.5671 23.5048 73.3017 22.9548 73.0748C22.5619 72.9411 22.1969 72.7364 21.8779 72.4709C21.7646 72.3855 21.659 72.2903 21.5625 72.1863C21.4625 72.0401 21.6779 71.9709 22.1702 71.9748C22.9114 72.0196 23.6427 72.1671 24.3433 72.4132C27.0933 73.3132 29.6394 74.8094 32.1317 76.3363C33.3702 77.1055 34.6433 77.8748 35.8702 78.7325C37.0971 79.5901 38.3048 80.4748 39.4817 81.4017C41.2279 82.7786 42.9164 84.2286 44.5664 85.7171C46.2164 87.2055 47.8433 88.7132 49.4048 90.3325L49.3433 90.3632Z" fill="#231F20"/>
<path d="M47.5701 109.248C49.3335 110.6 50.9838 112.094 52.5047 113.714C52.7893 114.002 53.0624 114.298 53.3355 114.594C53.6086 114.891 53.8893 115.179 54.1432 115.494C55.0663 116.575 55.924 117.71 56.7586 118.852C57.5932 119.994 58.3701 121.179 59.1278 122.371C59.797 123.433 60.4701 124.498 61.1009 125.571C61.9086 126.944 62.7278 128.341 63.3817 129.764C63.5817 130.148 63.4778 130.229 63.0855 129.964C62.8378 129.78 62.6086 129.572 62.4009 129.344C62.1219 129.033 61.8758 128.694 61.6663 128.333C60.847 126.937 59.9932 125.567 59.1509 124.191C58.3086 122.814 57.4317 121.452 56.524 120.106C55.3874 118.484 54.1409 116.942 52.7932 115.491C51.342 113.86 49.7668 112.344 48.0817 110.956C47.0445 110.106 45.9566 109.32 44.824 108.602C43.1084 107.515 41.2699 106.636 39.347 105.983C38.6092 105.74 37.8579 105.539 37.097 105.383C36.7124 105.302 36.3278 105.26 35.9432 105.198C35.5613 105.13 35.1762 105.081 34.7893 105.052C34.4509 105.025 34.1201 105.006 33.7817 104.971C33.3347 104.953 32.8891 104.909 32.447 104.841C32.2209 104.792 32.0138 104.678 31.8509 104.514C31.7875 104.463 31.7272 104.409 31.6701 104.352C31.6086 104.267 31.7086 104.202 31.9432 104.102C32.2966 103.979 32.6691 103.921 33.0432 103.929C36.04 103.932 39.0019 104.573 41.7317 105.81C43.7963 106.731 45.7498 107.883 47.5547 109.244L47.5701 109.248Z" fill="#231F20"/>
<path d="M56.0471 109.971C55.7899 109.371 55.6003 108.744 55.4817 108.102C55.4509 107.867 55.3855 107.636 55.3701 107.398C55.321 106.569 55.4093 105.737 55.6317 104.936C55.7202 104.602 55.7817 104.256 55.8394 103.913C55.9086 103.472 56.022 103.039 56.1778 102.621C56.2355 102.494 56.3701 102.54 56.5009 102.683C56.6611 102.861 56.7489 103.093 56.7471 103.333C56.7471 103.559 56.7201 103.79 56.6932 104.017C56.6663 104.244 56.6086 104.463 56.5586 104.686C56.5086 104.909 56.4625 105.117 56.4125 105.336C56.3625 105.556 56.3086 105.752 56.2701 105.963C56.1778 106.482 56.1778 107.014 56.2701 107.533C56.3381 108.114 56.4816 108.684 56.6971 109.229C56.7587 109.399 56.8293 109.566 56.9086 109.729C56.9827 109.897 57.0661 110.062 57.1586 110.221C57.6114 111.111 58.244 111.896 59.0163 112.529C59.0855 112.59 59.1548 112.656 59.2202 112.725C59.4663 112.979 59.5009 113.109 59.4048 113.306C59.3853 113.353 59.3635 113.399 59.3394 113.444C59.2509 113.583 59.0548 113.571 58.8201 113.425C58.1188 112.954 57.5099 112.358 57.024 111.667C56.6354 111.143 56.3004 110.581 56.024 109.99L56.0471 109.971Z" fill="#231F20"/>
<path d="M89.4008 114.991C89.7061 114.252 89.9517 113.491 90.1354 112.714C90.2123 112.433 90.22 112.141 90.2893 111.86C90.4944 110.847 90.5372 109.809 90.4162 108.783C90.3657 108.324 90.2821 107.869 90.1662 107.421C90.02 106.844 89.8316 106.268 89.7123 105.694C89.6739 105.51 89.8085 105.491 89.997 105.591C90.2517 105.745 90.4489 105.979 90.5585 106.256C91.0569 107.43 91.3107 108.693 91.3046 109.968C91.3173 110.752 91.2724 111.536 91.17 112.314C91.0242 113.155 90.8067 113.982 90.52 114.787C90.347 115.279 90.1354 115.764 89.9508 116.241C89.6393 116.964 89.2854 117.671 88.9431 118.368C88.6662 118.902 88.4508 119.46 88.1739 119.987C88.1123 120.102 88.0585 120.221 87.9893 120.333C87.9375 120.423 87.8797 120.509 87.8162 120.591C87.7622 120.644 87.7015 120.691 87.6354 120.729C87.5411 120.787 87.4303 120.813 87.32 120.802C87.27 120.802 87.2162 120.802 87.1739 120.802C87.0431 120.771 87.0239 120.525 87.097 120.16C87.4816 119.16 87.9431 118.183 88.4123 117.198C88.77 116.471 89.1047 115.733 89.3893 114.979L89.4008 114.991Z" fill="#231F20"/>
<path d="M92.028 126.698C91.6073 126.482 91.1978 126.244 90.8011 125.987C90.6445 125.902 90.4929 125.808 90.3472 125.706C90.1027 125.514 89.8738 125.303 89.6626 125.075C89.4421 124.85 89.2485 124.599 89.0857 124.329L88.6665 123.656C88.4833 123.392 88.3164 123.117 88.1665 122.833C88.1241 122.741 88.2242 122.667 88.3857 122.648C88.4809 122.636 88.5775 122.645 88.6687 122.675C88.7598 122.705 88.8431 122.755 88.9126 122.821C89.1511 123.091 89.3472 123.371 89.5357 123.629C89.7242 123.887 89.8703 124.152 90.0511 124.398C90.316 124.681 90.6236 124.921 90.9626 125.11C91.3342 125.351 91.7194 125.571 92.1165 125.767C92.3729 125.896 92.6229 126.015 92.8665 126.125C93.2511 126.294 93.6357 126.467 94.0434 126.61C94.3588 126.717 94.6818 126.783 94.9972 126.891C95.0703 126.914 95.1395 126.929 95.2088 126.956C95.4626 127.064 95.5088 127.175 95.4588 127.402C95.4588 127.452 95.4395 127.506 95.4242 127.556C95.3906 127.636 95.3309 127.703 95.2548 127.744C95.1787 127.786 95.0906 127.801 95.0049 127.787C94.7144 127.743 94.4268 127.683 94.1434 127.606C93.8588 127.525 93.578 127.41 93.2934 127.298C92.8703 127.133 92.4472 126.941 92.0203 126.741L92.028 126.698Z" fill="#231F20"/>
<path d="M92.4893 130.086C92.7008 129.856 92.9085 129.617 93.1085 129.371C93.1816 129.283 93.2354 129.179 93.3124 129.09C93.5816 128.783 93.8508 128.471 94.0816 128.14C94.1874 127.994 94.2813 127.84 94.3624 127.679C94.4498 127.463 94.5705 127.261 94.7201 127.083C94.8277 126.975 95.2701 127.413 95.1547 127.671C94.9493 128.116 94.6798 128.528 94.3547 128.894C94.1702 129.128 93.9994 129.372 93.8431 129.625C93.6431 129.886 93.4316 130.14 93.2201 130.394L92.8354 130.852C92.6393 131.086 92.4124 131.298 92.2124 131.529C92.0124 131.76 91.9316 131.913 91.7701 132.09C91.7348 132.129 91.6976 132.167 91.6585 132.202C91.5008 132.325 91.4201 132.329 91.2739 132.233C91.2428 132.212 91.2132 132.189 91.1854 132.163C91.1428 132.119 91.1166 132.061 91.111 132C91.1054 131.938 91.1208 131.877 91.1547 131.825L91.297 131.548L91.4739 131.294C91.5931 131.133 91.7201 130.963 91.8585 130.802C92.0431 130.556 92.2624 130.325 92.4624 130.079L92.4893 130.086Z" fill="#231F20"/>
<path d="M140.117 65.7249L139.732 64.2634L139.636 63.898C139.628 63.8742 139.621 63.8497 139.617 63.8249V63.7826L139.594 63.6519L139.563 63.4942L139.544 63.4057V63.4326C139.509 63.5057 139.474 63.5942 139.432 63.7019L139.409 63.7634L139.367 63.8903L139.201 64.4172L138.867 65.4672L138.39 66.9134L135.959 67.4903L134.886 67.7442L134.347 67.8711L134.078 67.9365L133.947 67.9711H133.882H133.855L133.836 67.9096C133.823 67.8814 133.814 67.8517 133.809 67.8211C133.809 67.7749 133.778 67.7288 133.759 67.6826L133.732 67.6172C133.732 67.6172 133.732 67.6172 133.732 67.5903L133.79 67.1826L135.882 67.5172L136.974 67.6788L138.309 67.8634C138.44 68.348 138.574 68.8249 138.694 69.298C139.078 70.7134 139.536 72.1172 139.805 73.5634C139.974 74.4672 138.72 73.598 138.267 71.9672L137.786 70.1711L137.555 69.2711L137.44 68.8249H137.37L136.84 68.7403L135.77 68.5672L133.636 68.1826H133.59C133.535 68.1723 133.483 68.1528 133.436 68.1249C133.371 68.0869 133.314 68.0374 133.267 67.9788C133.182 67.8691 133.14 67.7325 133.147 67.5942C133.153 67.4762 133.193 67.3624 133.263 67.2672C133.298 67.2234 133.34 67.1845 133.386 67.1519C133.422 67.1278 133.459 67.106 133.497 67.0865H133.524H133.551H133.574H133.609H133.674L133.797 67.0596L134.036 67.0057L134.517 66.9057C135.07 66.7865 135.628 66.6557 136.19 66.5211L137.617 66.1596C137.797 65.5826 137.982 65.0057 138.167 64.4249L138.77 62.598L138.967 62.0172C139.011 61.8504 139.083 61.6919 139.178 61.548C139.314 61.4966 139.443 61.4295 139.563 61.348L139.601 61.3211C139.601 61.2326 139.601 61.5249 139.601 61.1211L139.624 61.1519L139.709 61.2788L139.886 61.5365L140.055 61.7942L140.101 61.8596C140.101 61.8596 140.101 61.8596 140.12 61.898V61.9711L140.205 62.2672L140.732 64.1672L141.286 66.2057L142.478 66.5403L143.924 66.948L144.67 67.1711C144.846 67.2331 145.015 67.313 145.174 67.4096C145.294 67.4826 145.382 67.5519 145.474 67.6134C145.523 67.6407 145.566 67.6773 145.601 67.7211L145.401 67.8096L144.594 68.1749L142.828 68.5596L141.92 68.7749L141.494 68.8826L141.27 68.9442C141.247 69.0749 141.109 69.6134 141.013 70.0057L140.701 71.2557C140.624 71.5634 140.555 71.8711 140.474 72.1788C140.163 73.3326 139.99 73.6711 139.655 73.8442C139.585 73.8886 139.51 73.9247 139.432 73.9519C139.197 74.0057 139.163 73.4903 139.34 72.6365C139.486 71.9519 139.644 71.2621 139.813 70.5672C139.897 70.2211 139.986 69.8711 140.074 69.5211L140.209 68.9942C140.294 68.6903 140.374 68.3865 140.459 68.0826L142.313 67.648L142.405 67.6288H142.447L142.37 67.6057L142.063 67.5211L140.463 67.0826L140.078 65.7596L140.117 65.7249Z" fill="#231F20"/>
<path d="M130.178 45.5906C128.255 45.4637 126.332 45.2445 124.447 45.0137C123.755 44.9291 123.062 44.8868 122.374 44.806L121.362 44.6983L120.924 44.4714L120.812 44.4137C120.791 44.4084 120.772 44.3973 120.757 44.3816C120.742 44.366 120.732 44.3464 120.728 44.3252C120.702 44.2471 120.692 44.1649 120.697 44.0829C120.767 43.6687 120.927 43.2748 121.166 42.9291C121.301 42.6868 121.351 42.6137 121.435 42.4829L121.67 42.1252L122.147 41.4214C122.789 40.4868 123.432 39.5599 124.07 38.6406C124.709 37.7214 125.309 36.8483 125.901 35.9483C126.67 34.7945 127.416 33.6406 128.262 32.5483C128.505 32.2098 128.605 32.3022 128.589 32.7175C128.556 33.1707 128.466 33.6179 128.32 34.0483C128.247 34.2287 128.164 34.4046 128.07 34.5752C127.72 35.1983 127.37 35.8175 126.997 36.4214C126.624 37.0252 126.228 37.6137 125.843 38.2022C125.459 38.7906 125.051 39.3752 124.635 39.9522C124.22 40.5291 123.793 41.106 123.37 41.6675C122.985 42.1714 122.639 42.6945 122.305 43.2291L122.189 43.4175C122.162 43.4637 122.135 43.506 122.112 43.5522L122.085 43.6252C122.085 43.6252 122.085 43.6522 122.085 43.6637C122.085 43.6752 122.109 43.6637 122.12 43.6637H122.278L123.274 43.7714C125.197 43.9791 127.085 44.1829 128.985 44.3137C130.159 44.3906 131.328 44.4406 132.497 44.4329H133.582H133.859C133.878 44.4329 133.912 44.4329 133.92 44.4329C133.922 44.4112 133.922 44.3893 133.92 44.3675L133.878 44.2406L133.778 43.9829L133.647 43.6714C133.385 43.0637 133.109 42.4637 132.824 41.8714C132.232 40.6291 131.543 39.4598 130.901 38.2598L130.47 37.4906C129.962 36.4945 129.874 36.1675 130.032 35.7983C130.062 35.7137 130.074 35.6214 130.101 35.556C130.182 35.3406 130.724 35.6175 131.185 36.3252C132.598 38.4577 133.799 40.7221 134.774 43.0868L134.889 43.356C134.959 43.5137 135.024 43.6752 135.085 43.8368C135.224 44.1277 135.318 44.4374 135.366 44.756C135.374 44.8186 135.374 44.8819 135.366 44.9445C135.366 44.9983 135.366 45.0637 135.309 45.0945C135.269 45.1313 135.228 45.166 135.185 45.1983L135.151 45.2252H135.132L135.228 45.2868L135.151 45.3291L134.551 45.6675L133.639 45.7022H133.009C132.693 45.7022 132.382 45.7022 132.07 45.7022C131.447 45.7022 130.824 45.6675 130.205 45.6368L130.178 45.5906Z" fill="#231F20"/>
<path d="M127.193 40.8172C127.226 41.067 127.345 41.2976 127.53 41.4689C127.715 41.6403 127.953 41.7417 128.205 41.7557C128.414 41.7424 128.616 41.6738 128.789 41.5568C128.963 41.4399 129.102 41.2789 129.193 41.0903C129.304 40.9104 129.366 40.7052 129.374 40.4944C129.382 40.2836 129.336 40.0743 129.24 39.8865C128.943 39.3788 128.351 39.3288 127.832 39.4403C127.648 39.4924 127.492 39.6149 127.398 39.7812C127.303 39.9474 127.278 40.1442 127.328 40.3288C127.384 40.5105 127.507 40.6641 127.672 40.7578C127.837 40.8515 128.032 40.8783 128.217 40.8326C128.24 40.8326 128.378 40.8057 128.24 40.8326C128.101 40.8596 128.22 40.8326 128.24 40.8326H128.32C128.378 40.8326 128.124 40.798 128.22 40.8326C128.317 40.8672 128.055 40.7442 128.167 40.8096C128.167 40.8096 128.005 40.6788 128.067 40.7365C127.932 40.6096 127.959 40.5826 127.993 40.648C128.028 40.7134 127.913 40.448 127.94 40.5288C127.967 40.6096 127.94 40.6442 127.94 40.4865C127.94 40.3288 127.909 40.6134 127.94 40.4134C127.97 40.2134 127.94 40.3942 127.94 40.4326C127.92 40.548 128.043 40.248 127.959 40.3826C127.94 40.4095 127.923 40.4377 127.909 40.4672C127.874 40.5326 128.001 40.3672 127.974 40.3788C127.947 40.3903 127.951 40.4096 127.936 40.4172C127.832 40.5057 128.105 40.3134 127.993 40.3788C127.882 40.4442 128.186 40.3172 128.067 40.3442C128.14 40.3275 128.216 40.3275 128.29 40.3442C128.436 40.3672 128.374 40.3442 128.34 40.3442C128.305 40.3442 128.536 40.4326 128.467 40.3942C128.609 40.4749 128.613 40.5172 128.555 40.4557C128.497 40.3942 128.682 40.6172 128.628 40.5442C128.574 40.4288 128.574 40.4711 128.628 40.5442C128.628 40.5711 128.682 40.6596 128.628 40.5442L128.605 40.4365C128.553 40.2525 128.43 40.0965 128.264 40.0022C128.098 39.9079 127.901 39.8829 127.717 39.9326C127.535 39.9881 127.381 40.1111 127.288 40.2764C127.194 40.4417 127.167 40.6367 127.213 40.8211L127.193 40.8172Z" fill="#231F20"/>
<path d="M110.547 27.3979C110.213 27.8117 109.911 28.2501 109.643 28.7094C109.547 28.8787 109.474 29.0594 109.382 29.2325L109.251 29.4633L109.059 29.8479C109 29.9723 108.921 30.0855 108.824 30.1825C108.728 30.2479 108.67 30.3517 108.524 30.3556C108.395 30.3657 108.266 30.3483 108.145 30.3046C108.023 30.2608 107.913 30.1917 107.82 30.1017C107.633 29.9387 107.467 29.7541 107.324 29.5517L106.774 28.7364C106.532 28.3977 106.349 28.0206 106.232 27.621C106.197 27.4941 106.328 27.4479 106.509 27.471C106.728 27.4949 106.934 27.5909 107.093 27.7441C107.352 28.044 107.594 28.3573 107.82 28.6825L107.993 28.9133L108.07 29.0248C108.093 29.0525 108.114 29.0821 108.132 29.1133C108.135 29.1693 108.155 29.223 108.189 29.2671C108.212 29.3056 108.27 29.3402 108.289 29.3056C108.315 29.2768 108.335 29.2444 108.351 29.2094L108.451 28.9864C108.505 28.8671 108.562 28.7479 108.624 28.6364C108.895 28.1254 109.202 27.6344 109.543 27.1671C109.751 26.8787 109.974 26.6017 110.209 26.3325C110.568 25.9238 110.954 25.5384 111.362 25.1787C111.665 24.8882 111.987 24.6196 112.328 24.3748C112.398 24.3146 112.477 24.2653 112.562 24.2287C112.678 24.1596 112.813 24.1299 112.947 24.1441C113.037 24.1732 113.119 24.2233 113.186 24.2902C113.216 24.321 113.251 24.3441 113.274 24.371C113.289 24.4015 113.297 24.4351 113.297 24.4691C113.297 24.5031 113.289 24.5366 113.274 24.5671C113.252 24.6753 113.199 24.7744 113.12 24.8517C112.643 25.3787 112.105 25.7556 111.609 26.2479C111.234 26.6044 110.888 26.9902 110.574 27.4017L110.547 27.3979Z" fill="#231F20"/>
<path d="M18.9046 65.2789L14.5392 69.2674C13.9431 69.8136 14.8277 70.6943 15.4238 70.152L19.7892 66.1636C20.3854 65.6213 19.4969 64.7366 18.9046 65.2789Z" fill="#231F20"/>
<path d="M14.428 76.0482L9.66266 77.4597C8.89343 77.6905 9.22035 78.8944 9.99343 78.6674L14.7627 77.2521C15.5319 77.0251 15.2011 75.8174 14.428 76.0482Z" fill="#231F20"/>
<path d="M14.6779 66.1441L18.3971 70.221C18.9432 70.8133 19.824 69.9287 19.2817 69.3364L15.5586 65.2595C15.0163 64.6633 14.1356 65.5518 14.6779 66.1441Z" fill="#231F20"/>
<path d="M10.7585 98.9519C10.9431 98.6173 11.1431 98.2827 11.3008 97.9443C11.3623 97.8212 11.4008 97.6866 11.4662 97.5596C11.6969 97.125 11.9354 96.6943 12.1469 96.2558C12.2364 96.0595 12.3098 95.8563 12.3662 95.6481C12.4088 95.3775 12.5 95.1169 12.6354 94.8789C12.6892 94.8096 12.9123 94.8789 13.1123 95.0096C13.3123 95.1404 13.4969 95.3519 13.4354 95.5096C13.2675 96.0722 13.0159 96.6064 12.6892 97.0942C12.5166 97.4018 12.3675 97.7219 12.2431 98.0519C12.0739 98.4019 11.8969 98.7442 11.72 99.0904L11.3931 99.7289C11.2354 100.052 11.0623 100.367 10.9239 100.698C10.8292 100.962 10.7483 101.23 10.6816 101.502C10.6623 101.56 10.6508 101.621 10.6277 101.679C10.6181 101.722 10.5985 101.761 10.5704 101.795C10.5423 101.828 10.5065 101.854 10.4662 101.871C10.3727 101.892 10.2751 101.886 10.1854 101.852L10.0392 101.81C9.96306 101.777 9.89751 101.724 9.84996 101.656C9.8024 101.588 9.77472 101.508 9.77002 101.425C9.84949 100.924 10.0065 100.439 10.2354 99.9866C10.3931 99.6366 10.57 99.2981 10.7392 98.9519H10.7585Z" fill="#231F20"/>
<path d="M15.0781 100.879L13.9704 101.163C13.8358 101.198 13.7088 101.256 13.5858 101.286C13.0973 101.398 12.605 101.49 12.1088 101.582C11.8896 101.625 11.6742 101.682 11.4588 101.744C11.1876 101.85 10.8953 101.893 10.605 101.867C10.5088 101.867 10.505 101.644 10.5511 101.432C10.5973 101.221 10.6934 100.998 10.8358 100.967C11.3606 100.827 11.8937 100.719 12.4319 100.644C12.7695 100.574 13.0993 100.471 13.4165 100.336C13.7781 100.217 14.1511 100.121 14.5242 100.013L15.2127 99.8171C15.5627 99.7171 15.9204 99.6363 16.2627 99.5248C16.5358 99.4401 16.7858 99.3017 17.0627 99.2055C17.1207 99.1781 17.1813 99.1562 17.2435 99.1401C17.4781 99.094 17.5665 99.1402 17.6281 99.4132C17.6495 99.4711 17.6675 99.5301 17.6819 99.5901C17.7067 99.6768 17.7038 99.769 17.6734 99.8539C17.6431 99.9388 17.5868 100.012 17.5127 100.063C17.0914 100.303 16.6381 100.482 16.1665 100.594L15.0896 100.902L15.0781 100.879Z" fill="#231F20"/>
<path d="M19.3663 94.1329L19.4547 93.8868L19.4778 93.8252V93.7945V93.7752C19.4965 93.7496 19.5132 93.7226 19.5278 93.6944C19.5278 93.6675 19.5817 93.6021 19.5663 93.5906H19.4778L19.3547 93.6291L19.2778 93.6521L19.0893 93.7021C18.1855 93.9137 17.2817 94.0868 16.397 94.2714C16.0124 94.356 15.6278 94.4675 15.2432 94.5868C14.7652 94.764 14.2772 94.913 13.7817 95.0329C13.624 95.0637 13.5624 94.8637 13.6163 94.6214C13.6459 94.4812 13.7094 94.3504 13.8013 94.2404C13.8931 94.1305 14.0105 94.0447 14.1432 93.9906C15.1605 93.637 16.2086 93.3795 17.274 93.2214C17.5944 93.1723 17.9116 93.1042 18.224 93.0175L19.2201 92.7406C19.4701 92.6675 19.7086 92.6021 19.9893 92.506L20.2817 92.4521C20.3381 92.4624 20.3934 92.4779 20.447 92.4983L20.5278 92.5214H20.5701L20.524 92.5714C20.5509 92.6175 20.5932 92.6444 20.6086 92.7098C20.6329 92.8847 20.6144 93.0629 20.5547 93.2291C20.497 93.4329 20.4317 93.6406 20.3663 93.8445L19.9201 95.156C19.7047 95.7906 19.474 96.4252 19.2817 97.0791C19.1317 97.5714 19.0317 98.0752 18.897 98.5752C18.8701 98.6829 18.8509 98.7945 18.8201 98.9021C18.7009 99.3098 18.597 99.4175 18.3393 99.4214C18.2805 99.4271 18.2213 99.4271 18.1624 99.4214C17.974 99.3983 17.8816 99.1868 17.9278 98.8791C18.0911 97.9436 18.3291 97.0227 18.6393 96.1252L19.3201 94.0868L19.3663 94.1329Z" fill="#231F20"/>
<path d="M16.3473 100.206C16.732 100.087 17.0781 99.9635 17.432 99.8212L17.7012 99.7135L17.832 99.6596L17.9243 99.6212C17.9243 99.6212 17.9666 99.6212 17.9743 99.5904V99.5519L18.032 99.4212C18.1396 99.1596 18.2204 98.8827 18.3243 98.6173C18.7012 97.6789 19.0768 96.7404 19.4512 95.8019C19.6127 95.3827 19.7512 94.9519 19.8781 94.525C20.0168 93.9743 20.1955 93.4344 20.4127 92.9096C20.4127 92.875 20.455 92.8481 20.482 92.8519H20.5127H20.5704H20.4973C20.5018 92.8633 20.5099 92.8727 20.5204 92.8789C20.5204 92.8789 20.555 92.8789 20.5743 92.8789C20.6627 92.8365 20.7589 92.9058 20.8358 93.0135C20.9282 93.1345 20.9922 93.2748 21.0228 93.424C21.0534 93.5732 21.05 93.7273 21.0127 93.875C20.6844 95.006 20.2769 96.1126 19.7935 97.1866C19.4935 97.8327 19.2935 98.5365 19.0243 99.2135L18.8012 99.775C18.7539 99.9083 18.6946 100.037 18.6243 100.16C18.5473 100.294 18.3743 100.344 18.2396 100.41C17.855 100.575 17.4704 100.717 17.1089 100.86C16.6435 101.025 16.1704 101.175 15.7012 101.321C14.9858 101.54 14.2589 101.706 13.5435 101.913C12.9896 102.063 12.4512 102.244 11.8896 102.387C11.7666 102.417 11.6512 102.456 11.505 102.479C11.0396 102.571 10.8743 102.521 10.7358 102.294C10.7051 102.244 10.6781 102.191 10.655 102.137C10.5896 101.956 10.7589 101.783 11.0743 101.683C12.0243 101.379 13.0281 101.133 14.0396 100.852C14.7858 100.648 15.5358 100.433 16.2704 100.179L16.3473 100.206Z" fill="#231F20"/>
<path d="M18.2393 103.398L19.3547 103.071L19.9162 102.914H19.9816H20.0162C20.0162 102.914 20.0393 102.879 20.0547 102.864C20.1547 102.652 20.2547 102.356 20.3662 102.094C20.7508 101.194 21.1739 100.287 21.5623 99.3752C21.7354 98.9714 21.8854 98.556 22.0239 98.1406C22.1763 97.6062 22.3691 97.0842 22.6008 96.5791C22.6354 96.5021 22.6931 96.5252 22.77 96.5252C22.823 96.535 22.8733 96.5558 22.9177 96.5863C22.9621 96.6168 22.9996 96.6563 23.0277 96.7021C23.1162 96.8229 23.1757 96.9623 23.2017 97.1097C23.2277 97.2571 23.2195 97.4084 23.1777 97.5521C22.8214 98.6503 22.3856 99.7211 21.8739 100.756C21.5585 101.379 21.3393 102.064 21.0585 102.718L20.7931 103.31C20.7665 103.383 20.726 103.451 20.6739 103.51C20.6739 103.541 20.6123 103.544 20.6008 103.591L20.5008 103.641C20.4301 103.673 20.3567 103.698 20.2816 103.718L20.12 103.764L19.0085 104.094L17.6354 104.518L15.547 105.156C15.0123 105.325 14.4931 105.541 13.947 105.687C13.8284 105.728 13.7077 105.762 13.5854 105.791C13.1277 105.894 12.9623 105.841 12.8162 105.618C12.7855 105.567 12.7585 105.514 12.7354 105.46C12.67 105.279 12.8354 105.106 13.12 105.002C14.0277 104.687 14.9931 104.391 15.9777 104.083L18.2316 103.398H18.2393Z" fill="#231F20"/>
<path d="M20.2277 106.029L21.3008 105.74L21.8393 105.594L22.1085 105.521H22.197H22.2585H22.3047C22.3053 105.507 22.3053 105.493 22.3047 105.479V105.433L22.37 105.267C22.7354 104.406 23.097 103.521 23.4431 102.64C23.5931 102.256 23.7124 101.844 23.8277 101.44C23.9307 100.92 24.0907 100.414 24.3047 99.9288C24.3072 99.9213 24.3113 99.9144 24.3166 99.9085C24.3219 99.9027 24.3284 99.898 24.3356 99.8947C24.3428 99.8915 24.3506 99.8898 24.3585 99.8897C24.3664 99.8896 24.3743 99.8911 24.3816 99.8941C24.4201 99.8941 24.4624 99.8941 24.5124 99.8941C24.5798 99.8953 24.6463 99.9102 24.7079 99.938C24.7694 99.9658 24.8245 100.006 24.87 100.056C24.9934 100.158 25.0883 100.29 25.1456 100.44C25.2028 100.589 25.2206 100.751 25.197 100.91C24.9211 101.983 24.5437 103.027 24.07 104.029C23.9213 104.333 23.7929 104.646 23.6854 104.967L23.52 105.456L23.4316 105.698L23.3085 106.021C23.2732 106.14 23.2096 106.249 23.1232 106.338C23.0368 106.427 22.9302 106.494 22.8124 106.533L21.0124 107.044L19.6893 107.429C19.0239 107.625 18.3431 107.813 17.6777 108.006C17.1624 108.163 16.67 108.39 16.1393 108.54C16.0239 108.575 15.9124 108.621 15.7931 108.648C15.3508 108.752 15.1854 108.679 15.0547 108.379C15.0209 108.312 14.9926 108.242 14.97 108.171C14.9452 108.044 14.9717 107.912 15.0438 107.805C15.1159 107.698 15.2277 107.623 15.3547 107.598C16.2047 107.244 17.12 106.967 18.047 106.683L20.17 106.052L20.2277 106.029Z" fill="#231F20"/>
<path d="M11.9393 103.487C12.0431 103.314 12.147 103.144 12.2393 102.967C12.2739 102.902 12.2816 102.825 12.32 102.764C12.447 102.537 12.5893 102.314 12.7047 102.079C12.7518 101.974 12.7841 101.862 12.8008 101.748C12.8277 101.602 12.8008 101.44 12.947 101.333C13.0931 101.225 13.8816 101.648 13.8393 101.814C13.7705 102.116 13.6278 102.396 13.4239 102.629C13.3195 102.789 13.2403 102.964 13.1893 103.148C13.1008 103.337 13.0047 103.533 12.9047 103.706C12.847 103.821 12.7854 103.937 12.7239 104.048C12.63 104.218 12.5453 104.392 12.47 104.571C12.4301 104.722 12.4044 104.877 12.3931 105.033C12.3931 105.064 12.3931 105.102 12.3931 105.137C12.3884 105.163 12.3738 105.186 12.3523 105.202C12.3309 105.218 12.3042 105.225 12.2777 105.221C12.1843 105.213 12.093 105.189 12.0085 105.148L11.8662 105.09C11.7197 105.03 11.5997 104.92 11.5277 104.779C11.4984 104.514 11.548 104.246 11.67 104.01C11.747 103.829 11.847 103.66 11.9316 103.479L11.9393 103.487Z" fill="#231F20"/>
<path d="M17.1358 104.113C16.7512 104.209 16.3666 104.306 15.982 104.409C15.8397 104.448 15.7051 104.509 15.5589 104.544C15.0512 104.656 14.532 104.756 14.0204 104.852C13.7897 104.898 13.5627 104.956 13.3397 105.021C13.0533 105.132 12.7457 105.176 12.4397 105.152C12.3435 105.132 12.3358 104.917 12.3858 104.694C12.4358 104.471 12.532 104.24 12.682 104.206C13.2334 104.058 13.7934 103.945 14.3589 103.867C14.7119 103.792 15.0571 103.684 15.3897 103.544C15.7743 103.421 16.1589 103.317 16.5435 103.202L17.2704 103.013C17.655 102.906 18.0089 102.821 18.3704 102.702C18.655 102.617 18.9204 102.467 19.2089 102.367C19.2716 102.341 19.3358 102.319 19.4012 102.302C19.6474 102.252 19.7397 102.302 19.8204 102.586C19.8424 102.648 19.8604 102.711 19.8743 102.775C19.8999 102.865 19.897 102.961 19.866 103.05C19.8351 103.139 19.7775 103.216 19.7012 103.271C19.2575 103.521 18.7811 103.709 18.2858 103.829L17.155 104.152L17.1358 104.113Z" fill="#231F20"/>
<path d="M21.2664 98.221L21.851 96.6633C21.878 96.6094 21.851 96.5671 21.901 96.5094L21.9395 96.4287C21.9395 96.4018 21.978 96.3441 21.9395 96.3595H21.8087H21.7087H21.651C21.6229 96.357 21.5946 96.357 21.5664 96.3595L20.978 96.4864C20.6472 96.5556 20.3241 96.6479 20.0049 96.7441C19.6049 96.8998 19.1857 97.0007 18.7587 97.0441C18.4895 97.0441 18.6049 96.171 19.078 96.0287C19.4933 95.9056 19.9126 95.7941 20.3318 95.6979C20.5433 95.6479 20.7549 95.6056 20.9664 95.5633L21.2857 95.5018C21.3138 95.5049 21.3422 95.5049 21.3703 95.5018L21.5164 95.4671L21.7972 95.4056C21.9587 95.3633 22.1164 95.3248 22.2818 95.2748L22.5241 95.2248C22.5828 95.2167 22.6423 95.2167 22.701 95.2248H22.7818L22.8318 95.2518L22.8818 95.2787H22.9087C22.9087 95.2787 22.8087 95.3902 22.8549 95.3364C23.0087 95.4056 23.028 95.6902 22.9203 96.0479C22.851 96.2825 22.7741 96.521 22.701 96.7479L22.5434 97.2095L22.2433 98.0479L21.8587 99.0748C21.678 99.5941 21.4741 100.109 21.3241 100.633C21.201 101.04 21.1357 101.456 21.0433 101.871C21.0203 101.959 21.0087 102.052 20.9857 102.144C20.8895 102.475 20.7933 102.559 20.528 102.529C20.4678 102.533 20.4074 102.533 20.3472 102.529C20.151 102.498 20.0433 102.309 20.0703 102.056C20.1705 101.282 20.3536 100.521 20.6164 99.7864C20.7972 99.2248 21.001 98.671 21.1895 98.1133L21.2664 98.221Z" fill="#231F20"/>
<path d="M14.1626 106.117C14.2664 105.948 14.3703 105.775 14.4664 105.598C14.501 105.533 14.5049 105.46 14.5433 105.394C14.6703 105.171 14.8126 104.944 14.928 104.71C14.9773 104.607 15.0097 104.496 15.0241 104.383C15.051 104.237 15.0241 104.075 15.1741 103.964C15.3241 103.852 16.1049 104.283 16.0664 104.448C15.9955 104.753 15.8502 105.036 15.6433 105.271C15.5402 105.43 15.4623 105.604 15.4126 105.787C15.3241 105.975 15.2241 106.171 15.128 106.348C15.0664 106.46 15.0049 106.575 14.9472 106.69C14.8498 106.859 14.7637 107.034 14.6895 107.214C14.6514 107.364 14.6257 107.517 14.6126 107.671C14.6166 107.706 14.6166 107.741 14.6126 107.775C14.6087 107.802 14.5945 107.826 14.5729 107.843C14.5514 107.859 14.5242 107.867 14.4972 107.864C14.405 107.856 14.315 107.831 14.2318 107.79L14.0857 107.733C13.9387 107.671 13.8187 107.56 13.7472 107.417C13.7193 107.152 13.7701 106.885 13.8933 106.648C13.9703 106.471 14.0664 106.298 14.151 106.121L14.1626 106.117Z" fill="#231F20"/>
<path d="M19.3624 106.748C18.9778 106.84 18.5932 106.94 18.2086 107.044C18.0663 107.079 17.9317 107.144 17.7894 107.175C17.2778 107.29 16.7586 107.387 16.2509 107.483C16.024 107.529 15.7932 107.587 15.5701 107.656C15.284 107.767 14.9759 107.811 14.6701 107.783C14.574 107.783 14.5663 107.548 14.6163 107.325C14.6663 107.102 14.7663 106.871 14.9163 106.84C15.4662 106.691 16.025 106.577 16.5894 106.498C16.944 106.426 17.2906 106.32 17.624 106.179C18.0086 106.052 18.3932 105.952 18.7778 105.837L19.5009 105.633C19.8663 105.525 20.2432 105.444 20.6048 105.325C20.8855 105.237 21.1509 105.09 21.4394 104.99C21.5013 104.962 21.5656 104.939 21.6317 104.921C21.8778 104.875 21.9701 104.921 22.0509 105.21C22.0701 105.271 22.0932 105.333 22.1086 105.394C22.1327 105.485 22.1287 105.581 22.0971 105.67C22.0655 105.758 22.0078 105.835 21.9317 105.89C21.4893 106.141 21.0142 106.329 20.5201 106.448L19.3663 106.771L19.3624 106.748Z" fill="#231F20"/>
<path d="M23.4896 100.852L24.0742 99.294C24.1012 99.244 24.0973 99.2017 24.1242 99.144L24.1665 99.0594C24.1665 99.0363 24.205 98.9786 24.1665 98.994H24.0358H23.9358H23.8819H23.7935L23.205 99.1209C22.8742 99.194 22.5511 99.2863 22.2319 99.3824C21.8326 99.536 21.415 99.6368 20.9896 99.6824C20.7165 99.6824 20.8358 98.8094 21.305 98.6632C21.7742 98.5171 22.1396 98.4286 22.5627 98.3324L23.1935 98.1978L23.5127 98.1401H23.6012L23.7435 98.1055L24.0242 98.0401C24.1858 98.0017 24.3435 97.9594 24.5088 97.9094L24.7512 97.8594C24.8099 97.8529 24.8693 97.8529 24.9281 97.8594H25.0088L25.0627 97.8863L25.1127 97.9132H25.1358L25.0819 97.9709C25.2358 98.0363 25.255 98.3248 25.1473 98.6824C25.0819 98.9132 25.005 99.1555 24.9319 99.3824L24.7704 99.844L24.4704 100.679L24.0858 101.706C23.9012 102.229 23.7012 102.744 23.5473 103.267C23.4281 103.675 23.3588 104.09 23.2665 104.502C23.2665 104.594 23.2358 104.686 23.2088 104.775C23.1127 105.109 23.0165 105.194 22.7512 105.179C22.691 105.182 22.6306 105.182 22.5704 105.179C22.3742 105.144 22.2665 104.959 22.2935 104.702C22.3941 103.928 22.5772 103.167 22.8396 102.432C23.0204 101.875 23.2242 101.321 23.4165 100.763L23.4896 100.852Z" fill="#231F20"/>
<path d="M64.8781 136.813L63.8743 136.363L63.2358 136.067C63.1281 136.021 63.0435 135.967 62.9512 135.917C62.8589 135.867 62.9089 135.86 62.8858 135.833C62.8627 135.806 62.8512 135.779 62.8627 135.752C62.8772 135.665 62.8862 135.578 62.8897 135.49V135.371H62.6089V135.344L62.6397 135.286L62.7743 135.06L62.8397 134.948C62.8397 134.948 62.8743 134.948 62.905 134.921L63.0012 134.894L63.1858 134.836L64.1935 134.529L64.4435 134.452L64.5704 134.413L64.6397 134.39L64.8935 134.294C65.2358 134.167 65.5781 134.044 65.9204 133.91C66.5127 133.679 67.0743 133.406 67.682 133.16C69.7589 132.286 71.8204 131.348 73.8666 130.386C74.7743 129.96 75.6781 129.506 76.5589 129.056C77.6923 128.445 78.861 127.901 80.0589 127.429C80.4435 127.29 80.4435 127.467 80.2166 127.763C79.8313 128.202 79.3668 128.563 78.8473 128.829C76.5397 130.025 74.1897 131.19 71.7704 132.256C70.3243 132.89 68.8589 133.64 67.3704 134.29C66.8473 134.521 66.3166 134.736 65.7858 134.952L64.9781 135.256C64.9372 135.274 64.8947 135.288 64.8512 135.298L64.7704 135.325L64.605 135.375C64.482 135.417 64.3127 135.44 64.2204 135.486C64.3281 135.544 64.4473 135.602 64.5704 135.66L64.932 135.829L65.682 136.163L67.182 136.821C68.6973 137.483 70.2127 138.16 71.7281 138.794C72.905 139.286 74.082 139.717 75.255 140.19C75.5127 140.294 75.7666 140.39 76.0243 140.502C76.9781 140.921 77.2512 141.125 77.3474 141.444C77.3757 141.515 77.3963 141.588 77.4089 141.663C77.4089 141.883 76.9666 141.852 76.255 141.602C74.1127 140.879 71.9358 139.933 69.7435 138.998L64.855 136.867L64.8781 136.813Z" fill="#231F20"/>
<path d="M68.1509 156.425C68.8894 156.729 69.6432 157.029 70.3894 157.313C70.6625 157.413 70.9471 157.49 71.2202 157.59C72.1855 157.944 73.1663 158.279 74.1548 158.61L75.474 159.036C76.044 159.193 76.5988 159.4 77.1317 159.656C77.2971 159.74 77.224 159.867 77.0317 159.952C76.7664 160.063 76.4725 160.086 76.1932 160.017L74.4663 159.552C73.8932 159.394 73.3317 159.167 72.7625 158.967C72.0855 158.706 71.3471 158.536 70.6394 158.298C69.8702 158.036 69.1009 157.748 68.3317 157.463L66.924 156.913C66.2163 156.633 65.5163 156.321 64.8163 156.025C64.274 155.794 63.7202 155.61 63.1778 155.363C63.0625 155.306 62.9432 155.26 62.8278 155.19C62.3971 154.96 62.324 154.775 62.3625 154.529C62.3664 154.471 62.3767 154.415 62.3932 154.36C62.4509 154.19 62.6971 154.16 63.0278 154.26L63.7548 154.521L64.4702 154.829L65.9278 155.467C66.6586 155.783 67.4009 156.098 68.1509 156.39V156.425Z" fill="#231F20"/>
<path d="M90.124 155.806C90.124 155.806 98.2432 154.652 100.043 152.759C100.786 151.99 99.0971 150.836 97.2432 151.19V152.04L90.124 155.806Z" fill="#231F20"/>
<path d="M52.9816 84.871L54.197 85.1133C54.357 85.1529 54.5261 85.1294 54.6692 85.0478C54.8124 84.9662 54.9187 84.8327 54.9662 84.6748C55.0079 84.5153 54.9859 84.3458 54.9048 84.2022C54.8236 84.0586 54.6898 83.9522 54.5316 83.9056L53.3162 83.6633C53.1562 83.6238 52.9872 83.6472 52.844 83.7288C52.7008 83.8104 52.5945 83.9439 52.547 84.1018C52.5053 84.2613 52.5273 84.4308 52.6085 84.5744C52.6896 84.718 52.8234 84.8244 52.9816 84.871Z" fill="#231F20"/>
<path d="M86.1701 83.8595L87.1393 82.8864C87.2545 82.7679 87.3189 82.6093 87.3189 82.4441C87.3189 82.2789 87.2545 82.1202 87.1393 82.0018C87.0204 81.8875 86.8619 81.8237 86.697 81.8237C86.5321 81.8237 86.3736 81.8875 86.2547 82.0018L85.2855 82.9748C85.1704 83.0933 85.106 83.252 85.106 83.4171C85.106 83.5823 85.1704 83.741 85.2855 83.8595C85.4044 83.9737 85.5629 84.0375 85.7278 84.0375C85.8927 84.0375 86.0512 83.9737 86.1701 83.8595Z" fill="#231F20"/>
<path d="M78.5434 92.1633V93.2556C78.5558 93.4129 78.627 93.5597 78.7428 93.6669C78.8587 93.774 79.0107 93.8334 79.1684 93.8334C79.3262 93.8334 79.4782 93.774 79.594 93.6669C79.7099 93.5597 79.7811 93.4129 79.7934 93.2556V92.1633C79.8002 92.0771 79.7891 91.9904 79.7607 91.9087C79.7324 91.8271 79.6874 91.7521 79.6287 91.6886C79.5701 91.6251 79.4989 91.5745 79.4196 91.5398C79.3404 91.5052 79.2549 91.4873 79.1684 91.4873C79.082 91.4873 78.9964 91.5052 78.9172 91.5398C78.838 91.5745 78.7668 91.6251 78.7081 91.6886C78.6494 91.7521 78.6045 91.8271 78.5761 91.9087C78.5478 91.9904 78.5367 92.0771 78.5434 92.1633Z" fill="#231F20"/>
<path d="M66.2511 97.0981C66.4485 96.8425 66.6942 96.6282 66.9742 96.4673C67.1066 96.3784 67.2002 96.2424 67.2358 96.087C67.2715 95.9316 67.2466 95.7685 67.1663 95.6307C67.0859 95.493 66.9561 95.3911 66.8032 95.3457C66.6503 95.3004 66.4859 95.315 66.3434 95.3865C65.9726 95.6039 65.6421 95.8836 65.3665 96.2134C65.2523 96.3324 65.1885 96.4909 65.1885 96.6558C65.1885 96.8206 65.2523 96.9791 65.3665 97.0981C65.4845 97.2141 65.6433 97.2791 65.8088 97.2791C65.9743 97.2791 66.1331 97.2141 66.2511 97.0981Z" fill="#231F20"/>
<path d="M65.4856 84.7097L65.6087 84.8289C65.6666 84.887 65.7353 84.9331 65.8109 84.9646C65.8866 84.9962 65.9677 85.0125 66.0497 85.0127C66.1316 85.0128 66.2128 84.9969 66.2886 84.9657C66.3644 84.9345 66.4333 84.8886 66.4914 84.8308C66.5495 84.773 66.5956 84.7043 66.6272 84.6286C66.6587 84.553 66.675 84.4718 66.6752 84.3899C66.6754 84.3079 66.6594 84.2267 66.6282 84.1509C66.597 84.0751 66.5512 84.0062 66.4933 83.9481L66.3703 83.825C66.2518 83.7099 66.0931 83.6455 65.928 83.6455C65.7628 83.6455 65.6041 83.7099 65.4856 83.825C65.3714 83.9439 65.3076 84.1025 65.3076 84.2674C65.3076 84.4322 65.3714 84.5907 65.4856 84.7097Z" fill="#231F20"/>
<path d="M58.2009 73.8404L58.3201 73.9596C58.4398 74.0643 58.5948 74.1195 58.7537 74.1142C58.9126 74.1089 59.0636 74.0434 59.176 73.9309C59.2885 73.8185 59.354 73.6676 59.3593 73.5086C59.3646 73.3497 59.3094 73.1947 59.2047 73.075L59.0816 72.9558C58.9643 72.839 58.8054 72.7736 58.6399 72.7739C58.4744 72.7743 58.3157 72.8404 58.1989 72.9577C58.0821 73.075 58.0167 73.2339 58.0171 73.3994C58.0175 73.565 58.0836 73.7236 58.2009 73.8404Z" fill="#231F20"/>
<path d="M80.0969 105.844C80.3387 105.595 80.5179 105.292 80.62 104.96C80.6627 104.8 80.6411 104.63 80.5599 104.486C80.4786 104.342 80.3441 104.236 80.1854 104.19C80.0253 104.15 79.8558 104.173 79.7124 104.255C79.569 104.336 79.4628 104.471 79.4161 104.629C79.4161 104.652 79.3892 104.721 79.4161 104.66C79.3943 104.709 79.3686 104.757 79.3392 104.802C79.3392 104.802 79.2738 104.902 79.2969 104.875C79.32 104.848 79.2161 104.956 79.2161 104.96C79.101 105.078 79.0366 105.237 79.0366 105.402C79.0366 105.567 79.101 105.726 79.2161 105.844C79.3351 105.959 79.4936 106.022 79.6585 106.022C79.8233 106.022 79.9818 105.959 80.1008 105.844H80.0969Z" fill="#231F20"/>
<path d="M48.3626 101.56L47.8742 102.044C47.7695 102.164 47.7143 102.319 47.7196 102.478C47.7249 102.637 47.7904 102.788 47.9029 102.9C48.0153 103.013 48.1663 103.078 48.3252 103.084C48.4841 103.089 48.6391 103.034 48.7588 102.929L49.2473 102.441C49.3051 102.382 49.3509 102.314 49.3821 102.238C49.4133 102.162 49.4293 102.081 49.4291 101.999C49.4289 101.917 49.4126 101.836 49.3811 101.76C49.3496 101.684 49.3034 101.616 49.2453 101.558C49.1873 101.5 49.1184 101.454 49.0426 101.423C48.9668 101.392 48.8856 101.376 48.8036 101.376C48.7216 101.376 48.6405 101.392 48.5648 101.424C48.4892 101.456 48.4205 101.502 48.3626 101.56Z" fill="#231F20"/>
<path d="M95.6316 100.613L96.1162 101.344C96.2032 101.484 96.3407 101.586 96.5004 101.627C96.6601 101.669 96.8297 101.647 96.9739 101.567C97.1154 101.482 97.2179 101.345 97.2596 101.186C97.3013 101.026 97.2788 100.857 97.197 100.713L96.7124 99.9825C96.6254 99.8423 96.4878 99.7409 96.3282 99.6994C96.1685 99.6579 95.9989 99.6794 95.8547 99.7595C95.714 99.845 95.612 99.9819 95.5704 100.141C95.5288 100.301 95.5507 100.47 95.6316 100.613Z" fill="#231F20"/>
<path d="M73.5162 75.4172C72.3459 75.7287 71.1113 75.7033 69.9547 75.3441C69.5454 75.2372 69.1444 75.1009 68.7547 74.9364C67.4325 74.3235 66.2027 73.5286 65.1008 72.5749C64.6085 72.1672 64.1201 71.7518 63.6547 71.3249C63.0427 70.7892 62.4813 70.1982 61.9778 69.5595C61.6739 69.1556 62.4316 69.3479 63.097 69.9441C64.2695 71.0607 65.5229 72.0892 66.847 73.021C67.662 73.5673 68.5452 74.0044 69.4739 74.321C70.4593 74.7047 71.5247 74.8369 72.5739 74.7056C73.2069 74.606 73.8113 74.3726 74.347 74.021C75.1575 73.4372 75.8341 72.6872 76.3316 71.821C76.7301 71.1505 77.0723 70.4481 77.3547 69.721C77.4162 69.5595 77.4816 69.4018 77.5431 69.2441C77.7893 68.6518 77.947 68.5018 78.2393 68.4749C78.3058 68.4674 78.3729 68.4674 78.4393 68.4749C78.6432 68.4749 78.7047 68.8056 78.5778 69.2787C78.123 70.7225 77.4202 72.0761 76.5008 73.2787C76.1324 73.7694 75.7019 74.2103 75.2201 74.5902C74.712 74.9667 74.1436 75.2541 73.5393 75.4402L73.5162 75.4172Z" fill="#231F20"/>
<path d="M123.532 45.725L122.182 45.5557L121.509 45.4711L120.524 45.3557L120.139 45.1557C120.066 45.1557 120.039 45.048 120.024 44.9904C120.012 44.9216 120.012 44.8514 120.024 44.7827C120.112 44.429 120.266 44.0951 120.478 43.798C120.747 43.3673 121.001 42.9404 121.282 42.5288C122.247 41.0673 123.274 39.6557 124.285 38.2365C124.739 37.6096 125.17 36.9634 125.589 36.3134C126.135 35.4942 126.662 34.6596 127.259 33.8865C127.432 33.6442 127.501 33.7134 127.497 34.0096C127.489 34.2063 127.463 34.402 127.42 34.5942C127.372 34.856 127.281 35.108 127.151 35.3404C126.905 35.7865 126.659 36.2327 126.382 36.6634C126.105 37.0942 125.832 37.5134 125.551 37.9327C124.989 38.7711 124.397 39.5865 123.766 40.3904C123.035 41.3596 122.32 42.4019 121.647 43.4365L121.343 43.9057L121.105 44.2904C121.066 44.351 121.031 44.4139 121.001 44.4788C120.997 44.4965 120.997 44.5149 121.001 44.5327C121.001 44.5327 121.032 44.5327 121.047 44.5327H121.151L121.37 44.5596L121.828 44.6096L122.739 44.7057C123.574 44.7942 124.409 44.8865 125.243 44.9634C126.509 45.0827 127.778 45.1942 129.035 45.2288C130.016 45.2596 130.959 45.1942 131.935 45.1596L132.566 45.1211C133.359 45.1211 133.612 45.1519 133.797 45.3865C133.84 45.4294 133.88 45.4757 133.916 45.525C134.005 45.6557 133.689 45.8788 133.101 45.9711C132.21 46.1128 131.31 46.1899 130.409 46.2019C129.493 46.2019 128.566 46.1673 127.643 46.1019C126.27 46.0057 124.897 45.8519 123.535 45.7173L123.532 45.725Z" fill="#231F20"/>
<path d="M138.713 71.1325C138.713 70.894 138.69 70.6555 138.667 70.4248C138.667 70.3363 138.632 70.2555 138.624 70.1709C138.615 69.8691 138.584 69.5683 138.532 69.2709C138.509 69.1382 138.469 69.0089 138.413 68.8863C138.332 68.7397 138.27 68.5833 138.228 68.4209C138.209 68.3132 138.659 68.2132 138.782 68.4209C138.976 68.7456 139.096 69.1096 139.132 69.4863C139.151 69.7132 139.24 69.9248 139.274 70.144C139.309 70.3632 139.34 70.6286 139.367 70.8709L139.413 71.3132C139.435 71.5354 139.47 71.7563 139.517 71.9748C139.565 72.139 139.631 72.2976 139.713 72.4478C139.713 72.4825 139.751 72.5132 139.763 72.5478C139.801 72.6748 139.763 72.7325 139.582 72.8094L139.463 72.8632C139.405 72.8916 139.341 72.9009 139.278 72.8899C139.215 72.8788 139.157 72.8479 139.113 72.8017C138.924 72.5234 138.809 72.2018 138.778 71.8671C138.74 71.6286 138.72 71.3825 138.694 71.144L138.713 71.1325Z" fill="#231F20"/>
<path d="M137.393 68.0712C137.242 68.0177 137.088 67.9728 136.932 67.9366C136.874 67.9366 136.812 67.9366 136.755 67.9366C136.551 67.8904 136.339 67.825 136.124 67.7827C136.028 67.7712 135.931 67.7712 135.835 67.7827C135.707 67.8154 135.572 67.8046 135.451 67.7519C135.378 67.7058 135.489 67.1289 135.628 67.1096C135.886 67.0719 136.149 67.0943 136.397 67.175C136.553 67.2071 136.711 67.2238 136.87 67.225C137.047 67.2519 137.22 67.2866 137.393 67.3289L137.716 67.4135C137.878 67.4558 138.035 67.5173 138.197 67.5558C138.359 67.5943 138.462 67.5827 138.582 67.6173C138.612 67.6173 138.647 67.6173 138.67 67.6442C138.762 67.7096 138.759 67.7866 138.697 67.9404L138.659 68.0404C138.609 68.1392 138.526 68.217 138.424 68.2596C138.228 68.3321 138.012 68.3321 137.816 68.2596C137.674 68.2212 137.532 68.1712 137.378 68.1366L137.393 68.0712Z" fill="#231F20"/>
<path d="M128.151 158.013C128.112 157.079 128.109 156.152 128.151 155.213C128.151 154.861 128.171 154.51 128.209 154.16C128.239 153.99 128.27 153.844 128.301 153.702L128.397 153.271L128.593 152.402C128.728 151.825 128.866 151.248 129.012 150.675C129.147 150.167 129.251 149.648 129.397 149.137C129.559 148.484 129.787 147.85 130.078 147.244C130.174 147.056 130.278 147.129 130.339 147.34C130.414 147.642 130.414 147.958 130.339 148.26C130.066 149.563 129.797 150.867 129.478 152.19C129.382 152.592 129.309 152.999 129.259 153.41L129.174 154.033C129.174 154.225 129.139 154.417 129.132 154.613C129.098 155.511 129.112 156.41 129.174 157.306C129.212 157.856 129.251 158.46 129.332 158.948C129.398 159.287 129.594 159.586 129.878 159.783C130.186 159.998 130.545 160.131 130.92 160.167C131.512 160.201 132.101 160.068 132.62 159.783C132.732 159.721 132.832 159.644 132.947 159.594C133.355 159.36 133.501 159.313 133.774 159.46C133.837 159.49 133.899 159.523 133.959 159.56C134.139 159.679 134.093 159.975 133.77 160.298C133.257 160.782 132.609 161.1 131.912 161.21C131.159 161.356 130.379 161.262 129.682 160.94C129.082 160.673 128.607 160.186 128.355 159.579C128.299 159.421 128.256 159.259 128.224 159.094C128.201 158.956 128.189 158.844 128.174 158.71L128.12 157.994L128.151 158.013Z" fill="#231F20"/>
<path d="M34.5088 160.033C34.1781 160.775 33.8281 161.51 33.4435 162.233C33.3011 162.498 33.1819 162.771 33.0242 163.025C32.5046 163.938 31.917 164.811 31.2665 165.636C30.969 166.01 30.641 166.359 30.2858 166.679C30.1742 166.783 30.0396 166.871 29.9011 166.971C29.7662 167.059 29.6263 167.138 29.4819 167.21C29.329 167.278 29.1672 167.325 29.0011 167.348L28.7473 167.375L28.4973 167.344C28.2819 167.306 28.3588 167.148 28.5165 166.983C28.684 166.807 28.8773 166.658 29.0896 166.54C29.5493 166.301 29.953 165.966 30.2742 165.56C30.6358 165.144 30.9742 164.679 31.3319 164.213C31.7345 163.612 32.098 162.985 32.4204 162.336C32.805 161.64 33.1435 160.921 33.4627 160.186C33.6588 159.733 33.8473 159.279 34.0396 158.817C34.3204 158.121 34.6012 157.421 34.8512 156.713C35.055 156.167 35.1973 155.613 35.405 155.071C35.4511 154.952 35.4896 154.833 35.5435 154.717C35.5968 154.553 35.6877 154.402 35.8088 154.279C35.8749 154.207 35.9629 154.16 36.0588 154.144C36.0966 154.133 36.1352 154.125 36.1742 154.121C36.2819 154.121 36.3088 154.34 36.2704 154.694C36.0485 155.739 35.7542 156.767 35.3896 157.771C35.1204 158.54 34.8242 159.31 34.5165 160.052L34.5088 160.033Z" fill="#231F20"/>
<path d="M33.2123 167.517C32.6585 167.537 32.1046 167.567 31.5469 167.606C31.3431 167.606 31.1431 167.664 30.9354 167.675C30.2162 167.714 29.4854 167.74 28.7585 167.764C28.4354 167.764 28.1085 167.802 27.7854 167.817C27.3628 167.874 26.9333 167.849 26.52 167.744C26.3931 167.706 26.4392 167.529 26.5662 167.36C26.6274 167.268 26.7075 167.191 26.801 167.134C26.8946 167.076 26.9994 167.039 27.1085 167.025C27.8777 167.006 28.7008 166.944 29.5354 166.952C30.0506 166.926 30.5641 166.874 31.0739 166.794C31.6393 166.737 32.2046 166.69 32.77 166.652C33.12 166.629 33.4739 166.61 33.8239 166.594C34.3546 166.567 34.8931 166.575 35.4277 166.567C35.8431 166.567 36.2546 166.521 36.6854 166.567C36.7789 166.562 36.8727 166.562 36.9662 166.567C37.0984 166.576 37.2234 166.631 37.32 166.721C37.3511 166.757 37.3747 166.799 37.3892 166.844C37.3951 166.901 37.3951 166.957 37.3892 167.014C37.3892 167.067 37.3892 167.114 37.3892 167.156C37.3567 167.247 37.2983 167.327 37.2211 167.386C37.1439 167.445 37.0513 167.48 36.9546 167.487C36.2854 167.487 35.5892 167.487 34.8585 167.487C34.3162 167.487 33.7662 167.506 33.2123 167.548V167.517Z" fill="#231F20"/>
<path d="M132.92 160.844C132.763 160.964 132.597 161.098 132.413 161.229C132.197 161.39 131.955 161.511 131.697 161.587C131.549 161.62 131.395 161.62 131.247 161.587C131.139 161.561 131.033 161.525 130.932 161.479C130.747 161.394 130.593 161.306 130.44 161.225C130.238 161.105 130.024 161.008 129.801 160.937C129.766 160.937 129.747 160.917 129.728 160.937C128.851 161.125 127.943 161.233 127.066 161.352C126.643 161.41 126.216 161.487 125.805 161.575C125.27 161.683 124.751 161.825 124.22 161.91C124.055 161.933 124.032 161.798 124.128 161.621C124.271 161.384 124.497 161.208 124.763 161.129C125.85 160.83 126.962 160.63 128.086 160.533C128.582 160.47 129.073 160.365 129.551 160.217C129.692 160.187 129.837 160.187 129.978 160.217C130.089 160.24 130.197 160.275 130.301 160.321C130.566 160.433 130.786 160.564 131.005 160.671C131.16 160.766 131.333 160.826 131.513 160.848C131.7 160.779 131.875 160.677 132.028 160.548C132.397 160.222 132.802 159.939 133.236 159.706C133.289 159.684 133.345 159.666 133.401 159.652L133.532 159.621L133.786 159.567L134.297 159.444C134.636 159.355 134.974 159.258 135.313 159.156C135.832 158.998 136.336 158.771 136.878 158.66C136.994 158.625 137.112 158.597 137.232 158.575C137.682 158.51 137.843 158.598 137.955 158.741C137.984 158.772 138.01 158.807 138.032 158.844C138.086 158.956 137.92 159.087 137.624 159.229C136.736 159.579 135.816 159.864 134.816 160.148C134.432 160.248 134.07 160.344 133.69 160.425C133.631 160.433 133.575 160.449 133.52 160.471C133.46 160.497 133.402 160.528 133.347 160.564C133.22 160.648 133.078 160.756 132.936 160.871L132.92 160.844Z" fill="#231F20"/>
<path d="M63.7856 43.398C63.6904 43.6702 63.5276 43.9137 63.3126 44.1057C63.1072 44.2828 62.8616 44.407 62.5972 44.4673C62.185 44.5535 61.7594 44.5535 61.3472 44.4673C61.0565 44.4283 60.7728 44.348 60.5049 44.2288C59.6729 43.7948 58.9589 43.1653 58.4241 42.3942C58.1856 42.0788 57.9433 41.7711 57.7318 41.4404C57.4285 41.0339 57.203 40.5749 57.0664 40.0865C57.0318 39.9327 57.1856 39.898 57.3856 39.9519C57.624 40.0121 57.8369 40.1468 57.9933 40.3365C58.2587 40.7211 58.5626 41.075 58.8587 41.4288C59.1549 41.7827 59.4587 42.1288 59.7703 42.4634C60.1382 42.861 60.6055 43.1531 61.1241 43.3096C61.601 43.4827 62.3433 43.4904 62.5626 43.2557C62.6515 43.138 62.7142 43.0027 62.7467 42.8587C62.7792 42.7148 62.7807 42.5656 62.751 42.4211C62.6815 41.8291 62.5314 41.2494 62.3049 40.698C62.1318 40.2519 61.8703 39.848 61.6664 39.3904C61.6146 39.291 61.5697 39.1882 61.5318 39.0827C61.46 38.9351 61.449 38.7652 61.501 38.6096C61.5283 38.5498 61.5676 38.4964 61.6166 38.4527C61.6656 38.409 61.7232 38.376 61.7856 38.3557C61.8503 38.3263 61.9172 38.3019 61.9856 38.2827C62.0991 38.2675 62.2146 38.2848 62.3187 38.3324C62.4228 38.3801 62.5113 38.4561 62.5741 38.5519C63.0362 39.2996 63.3971 40.1054 63.6472 40.9481C63.7587 41.3062 63.841 41.6728 63.8933 42.0442C63.9682 42.4961 63.9392 42.959 63.8087 43.398H63.7856Z" fill="#231F20"/>
<path d="M71.27 40.9327C71.0472 41.3304 70.7165 41.6571 70.3161 41.875C70.1225 41.9769 69.9153 42.0507 69.7008 42.0943C69.6007 42.1166 69.4991 42.132 69.3969 42.1404H69.2469C69.1778 42.146 69.1083 42.146 69.0392 42.1404C68.7066 42.1133 68.3875 41.9963 68.1161 41.802C67.4273 41.236 66.8785 40.5186 66.5123 39.7058C66.3431 39.3712 66.17 39.0404 66.0238 38.7019C65.8046 38.2771 65.6651 37.8156 65.6123 37.3404C65.6123 37.1904 65.7508 37.1789 65.9354 37.2558C66.1526 37.3445 66.333 37.5046 66.4469 37.7096C66.8379 38.4925 67.2812 39.248 67.7738 39.9712C68.0521 40.3827 68.4272 40.7195 68.8661 40.952L68.9392 40.9904H69.0008C69.0309 41.0047 69.0636 41.0126 69.0969 41.0135H69.1623H69.2546C69.3144 41.0064 69.3735 40.9948 69.4315 40.9789C69.6516 40.9297 69.8507 40.8126 70.0008 40.6443C70.2014 40.3982 70.3341 40.1038 70.3854 39.7904C70.4917 39.2454 70.5072 38.6866 70.4315 38.1366C70.3533 37.6981 70.2467 37.2651 70.1123 36.8404C70.0784 36.7456 70.054 36.6477 70.0392 36.5481C69.9969 36.1635 70.0738 36.0212 70.3623 35.9135C70.4258 35.8853 70.4914 35.8622 70.5585 35.8443C70.6717 35.8277 70.7872 35.8494 70.8868 35.9058C70.9864 35.9622 71.0644 36.0502 71.1085 36.1558C71.3156 36.5265 71.4672 36.9257 71.5585 37.3404C71.6718 37.7815 71.73 38.235 71.7315 38.6904C71.771 39.4641 71.6191 40.2356 71.2892 40.9366L71.27 40.9327Z" fill="#231F20"/>
<path d="M65.1354 39.3329C64.6426 38.2252 64.4186 37.0167 64.4816 35.806C64.504 35.5771 64.54 35.3498 64.5893 35.1252C64.6338 34.8981 64.7021 34.6764 64.7931 34.4636C64.9514 34.0958 65.1556 33.7495 65.4008 33.4329C65.5196 33.2726 65.648 33.1198 65.7854 32.9752C65.9316 32.8406 66.0739 32.7021 66.2277 32.5906C66.8324 32.1183 67.5125 31.7516 68.2393 31.506C68.8698 31.2867 69.5224 31.1371 70.1854 31.0598C70.6141 31.0065 71.0472 30.9975 71.4778 31.0329C71.914 31.0886 72.3356 31.227 72.7201 31.4406C72.9624 31.579 72.8239 31.7598 72.547 31.906C72.2149 32.079 71.8481 32.1749 71.4739 32.1867C70.7471 32.1207 70.0143 32.174 69.3047 32.3444C68.5759 32.5086 67.875 32.7781 67.2239 33.1444C66.8373 33.3705 66.5031 33.6759 66.2431 34.0406C65.9815 34.4072 65.7838 34.8156 65.6585 35.2483C65.4158 36.2495 65.4884 37.3013 65.8662 38.2598C66.082 38.8951 66.339 39.5156 66.6354 40.1175C67.0668 41.0522 67.5696 41.9523 68.1393 42.8098C68.6008 43.4423 69.1155 44.0342 69.6777 44.579L70.0239 44.9636C70.18 45.1286 70.3098 45.3168 70.4085 45.5213C70.456 45.6504 70.4679 45.7899 70.4431 45.9252C70.437 45.9782 70.428 46.0308 70.4162 46.0829C70.3931 46.156 70.3124 46.1675 70.1701 46.1406C69.9713 46.1051 69.7832 46.0249 69.6201 45.906C69.3094 45.6944 69.0126 45.4632 68.7316 45.2136C68.4594 44.9477 68.2026 44.6665 67.9624 44.3713C67.4719 43.7658 67.0295 43.1228 66.6393 42.4483C66.3431 41.9521 66.0777 41.4329 65.8316 40.9329C65.5854 40.4329 65.3278 39.9059 65.1008 39.3636L65.1354 39.3329Z" fill="#231F20"/>
<path d="M54.5779 37.7713C55.7856 36.3213 57.5202 35.379 59.4433 35.7482C60.2125 35.8982 60.5663 34.6944 59.7779 34.5444C57.4163 34.0867 55.2086 35.0751 53.6933 36.8867C53.1817 37.502 54.0779 38.3905 54.5779 37.7713Z" fill="#231F20"/>
<path d="M69.347 50.2556C69.3133 50.5391 69.3478 50.8266 69.4475 51.0941C69.5471 51.3617 69.7091 51.6016 69.9201 51.794C70.009 51.8778 70.1203 51.9341 70.2405 51.9561C70.3607 51.9781 70.4847 51.965 70.5976 51.9183C70.7105 51.8716 70.8075 51.7933 70.877 51.6928C70.9465 51.5923 70.9855 51.4739 70.9893 51.3517C71.0085 51.1072 71.0085 50.8616 70.9893 50.6171C70.9845 50.453 70.9174 50.2969 70.8017 50.1805C70.686 50.064 70.5303 49.996 70.3662 49.9902C70.2003 49.9912 70.0414 50.0576 69.924 50.1749C69.8067 50.2923 69.7403 50.4512 69.7393 50.6171C69.7585 50.8616 69.7585 51.1072 69.7393 51.3517L70.8047 50.9094C70.7854 50.8902 70.6393 50.7287 70.6931 50.8056C70.6739 50.7748 70.5931 50.5863 70.6239 50.6787C70.5736 50.5473 70.5642 50.4039 70.597 50.2671C70.595 50.1018 70.5281 49.9439 70.4109 49.8274C70.2937 49.7109 70.1354 49.645 69.9701 49.644C69.806 49.6479 69.6498 49.7148 69.5338 49.8309C69.4178 49.9469 69.3509 50.1031 69.347 50.2671V50.2556Z" fill="#231F20"/>
<path d="M94.1664 152.806C94.6721 152.565 95.1452 152.262 95.5741 151.902C95.7482 151.755 95.8875 151.571 95.9818 151.363C96.0518 151.113 96.0918 150.854 96.1011 150.594C96.1357 150.16 96.1318 149.721 96.1549 149.283C96.2241 147.744 96.2818 146.163 96.2972 144.602C96.2972 143.91 96.278 143.213 96.2626 142.529C96.2434 141.644 96.2049 140.76 96.2357 139.875C96.2357 139.602 96.3741 139.629 96.5203 139.875C96.7348 140.225 96.8664 140.62 96.9049 141.029C97.0838 142.838 97.1263 144.659 97.0318 146.475C96.9857 147.563 97.0318 148.702 96.9934 149.825C96.9934 150.133 96.9626 150.444 96.9434 150.756C96.9434 150.913 96.9164 151.067 96.8972 151.237L96.8511 151.502C96.8241 151.594 96.7895 151.69 96.7549 151.783C96.5987 152.105 96.3758 152.391 96.1011 152.621C95.8602 152.835 95.603 153.029 95.3318 153.202C94.6714 153.597 93.9853 153.948 93.278 154.252C92.2318 154.729 91.1626 155.148 90.1472 155.637C89.3743 156.014 88.6242 156.436 87.9011 156.902L87.4434 157.217C86.8741 157.602 86.6741 157.69 86.4049 157.602C86.3408 157.587 86.2778 157.568 86.2165 157.544C86.0434 157.456 86.1588 157.121 86.5665 156.74C87.8011 155.64 89.3395 154.91 90.8588 154.275C91.9895 153.798 93.128 153.344 94.178 152.806H94.1664Z" fill="#231F20"/>
</svg>
