<svg width="25" height="24" viewBox="0 0 25 24" fill="none" xmlns="http://www.w3.org/2000/svg">
<path fill-rule="evenodd" clip-rule="evenodd" d="M24.02 12.2729C24.02 11.422 23.9436 10.6038 23.8018 9.81836H12.5V14.4602H18.9582C18.68 15.9602 17.8345 17.2311 16.5636 18.082V21.0929H20.4418C22.7109 19.0038 24.02 15.9274 24.02 12.2729Z" fill="#4285F4"/>
<path fill-rule="evenodd" clip-rule="evenodd" d="M12.4995 24.0003C15.7395 24.0003 18.4559 22.9257 20.4413 21.093L16.5632 18.0821C15.4886 18.8021 14.1141 19.2275 12.4995 19.2275C9.37406 19.2275 6.72861 17.1166 5.78497 14.2803H1.77588V17.3894C3.75042 21.3112 7.80861 24.0003 12.4995 24.0003Z" fill="#34A853"/>
<path fill-rule="evenodd" clip-rule="evenodd" d="M5.78545 14.2804C5.54545 13.5604 5.40909 12.7913 5.40909 12.0004C5.40909 11.2095 5.54545 10.4404 5.78545 9.72042V6.61133H1.77636C0.963636 8.23133 0.5 10.0641 0.5 12.0004C0.5 13.9368 0.963636 15.7695 1.77636 17.3895L5.78545 14.2804Z" fill="#FBBC05"/>
<path fill-rule="evenodd" clip-rule="evenodd" d="M12.4995 4.77273C14.2613 4.77273 15.8432 5.37818 17.0868 6.56727L20.5286 3.12545C18.4504 1.18909 15.7341 0 12.4995 0C7.80861 0 3.75042 2.68909 1.77588 6.61091L5.78497 9.72C6.72861 6.88364 9.37406 4.77273 12.4995 4.77273Z" fill="#EA4335"/>
</svg>
