<svg width="25" height="24" viewBox="0 0 25 24" fill="none" xmlns="http://www.w3.org/2000/svg">
<g clip-path="url(#clip0_1552_13108)">
<path d="M19.5 0H5.5C2.739 0 0.5 2.239 0.5 5V19C0.5 21.761 2.739 24 5.5 24H19.5C22.262 24 24.5 21.761 24.5 19V5C24.5 2.239 22.262 0 19.5 0ZM8.5 19H5.5V8H8.5V19ZM7 6.732C6.034 6.732 5.25 5.942 5.25 4.968C5.25 3.994 6.034 3.204 7 3.204C7.966 3.204 8.75 3.994 8.75 4.968C8.75 5.942 7.967 6.732 7 6.732ZM20.5 19H17.5V13.396C17.5 10.028 13.5 10.283 13.5 13.396V19H10.5V8H13.5V9.765C14.896 7.179 20.5 6.988 20.5 12.241V19Z" fill="#007AB5"/>
</g>
<defs>
<clipPath id="clip0_1552_13108">
<rect width="24" height="24" fill="white" transform="translate(0.5)"/>
</clipPath>
</defs>
</svg>
