<svg width="172" height="57" viewBox="0 0 172 57" fill="none" xmlns="http://www.w3.org/2000/svg">
<g clip-path="url(#clip0_1089_13739)">
<path d="M0.6547 20.7283C0.444605 21.8381 -0.0130699 25.9939 4.05998 29.1206C9.04036 32.2842 10.9405 28.3008 11.1554 27.6579C11.3941 26.9434 11.5648 24.6303 8.15343 22.351C4.95545 20.2141 2.0272 18.5659 0.914834 20.0966C0.779362 20.283 0.697591 20.5021 0.6547 20.7283Z" fill="#FFC916"/>
<path d="M4.36066 28.6931C5.99522 29.7269 7.41201 30.0429 8.5725 29.6322C10.0855 29.097 10.6539 27.5087 10.6591 27.4929C10.6909 27.3981 11.3946 25.1442 7.86236 22.7843C5.11456 20.9484 2.19085 19.2297 1.33844 20.4026C1.25789 20.5136 1.2007 20.6556 1.16862 20.825C0.959046 21.933 0.570414 25.7703 4.36066 28.6931ZM7.52691 30.8507C6.38612 30.8507 5.1313 30.4195 3.77902 29.5605L3.74084 29.5339C-0.540909 26.2469 -0.0971814 21.8889 0.140635 20.6316V20.6314C0.201659 20.3098 0.319521 20.0269 0.491258 19.7904C1.93019 17.8108 5.20906 19.7558 8.4447 21.9176C12.5608 24.6678 11.7569 27.508 11.6516 27.8227C11.412 28.5394 10.5333 30.0455 8.92225 30.6154C8.4787 30.7722 8.01318 30.8507 7.52691 30.8507Z" fill="#0449D1"/>
<path d="M4.86728 27.397H1.92822C1.63931 27.397 1.40516 27.1635 1.40516 26.8754C1.40516 26.5873 1.63931 26.3538 1.92822 26.3538H4.34422V24.1994C4.34422 23.9113 4.57837 23.6778 4.86728 23.6778H7.03029V21.905C7.03029 21.6169 7.26445 21.3834 7.55335 21.3834C7.84208 21.3834 8.07641 21.6169 8.07641 21.905V24.1994C8.07641 24.4875 7.84208 24.721 7.55335 24.721H5.39033V26.8754C5.39033 27.1635 5.15618 27.397 4.86728 27.397Z" fill="#0449D1"/>
<path d="M33.2944 42.8298C33.9085 39.9384 35.967 35.4986 39.0254 30.4812C40.0828 28.7463 40.8055 25.9147 40.8611 23.9753C40.8651 23.8382 40.8672 23.7005 40.8674 23.5624C40.8761 15.675 34.7626 9.23482 26.8632 8.83857C18.3609 8.4119 11.3331 15.1603 11.3331 23.5455C11.3331 23.6921 11.3352 23.8382 11.3396 23.9837C11.4001 26.05 12.2502 28.6399 13.1926 30.4812C14.8477 33.7147 18.6082 41.1558 18.933 42.8298C22.0835 44.8025 31.048 44.7897 33.2944 42.8298Z" fill="#FFC916"/>
<path d="M19.3898 42.4937C22.4174 44.1875 30.5816 44.2162 32.8226 42.54C33.4973 39.5701 35.5348 35.2035 38.5783 30.2103C39.5238 28.659 40.2805 25.9721 40.3384 23.9604C40.3422 23.8277 40.3442 23.6951 40.3443 23.5617C40.3529 15.9784 34.4197 9.7399 26.8369 9.35947C22.8882 9.16091 19.141 10.5434 16.2861 13.2505C13.4294 15.9596 11.8562 19.6157 11.8562 23.5455C11.8562 23.6871 11.8583 23.8279 11.8623 23.9686C11.9257 26.1343 12.8697 28.7029 13.6585 30.2442C16.0204 34.8586 18.8739 40.6201 19.3898 42.4937ZM26.405 44.818C23.4034 44.818 20.3043 44.3042 18.6551 43.2716C18.5323 43.1947 18.4471 43.0708 18.4197 42.9289C18.2033 41.8147 16.1283 37.3642 12.7269 30.7184C11.8884 29.0805 10.8852 26.3379 10.8167 23.9988C10.8123 23.8484 10.8101 23.6971 10.8101 23.5455C10.8101 19.3273 12.4988 15.4025 15.5652 12.4945C18.6299 9.58828 22.6521 8.10517 26.8896 8.31764C35.0301 8.72589 41.3995 15.4227 41.3905 23.5629C41.3903 23.706 41.3882 23.8486 41.384 23.9905C41.331 25.8347 40.643 28.8313 39.4722 30.7523C36.4699 35.678 34.4047 40.1195 33.8061 42.9379C33.7826 43.0482 33.724 43.1482 33.6389 43.2224C32.4218 44.2842 29.4639 44.818 26.405 44.818Z" fill="#0449D1"/>
<path d="M19.9523 45.9831C20.7273 46.3872 25.6625 48.7112 32.1343 46.1556C32.3223 45.9162 32.8607 45.1072 32.8451 43.7181C31.4517 44.3961 29.1537 44.7942 26.4331 44.8074C23.5621 44.824 20.99 44.3934 19.3499 43.6437C19.3086 44.7697 19.7804 45.6883 19.9523 45.9831ZM26.0539 48.3996C22.0501 48.3996 19.47 46.916 19.3135 46.8236C19.2469 46.7843 19.1897 46.7306 19.1464 46.6668C19.0964 46.5929 17.9275 44.834 18.4236 42.7114C18.4621 42.5468 18.5784 42.411 18.7353 42.347C18.8924 42.2832 19.0706 42.299 19.2136 42.3896C22.2605 44.3203 30.955 44.0659 32.963 42.4263C33.1082 42.3075 33.3065 42.2757 33.4819 42.3428C33.6571 42.4101 33.783 42.5659 33.8114 42.7511C34.2278 45.4688 32.8821 46.8951 32.8247 46.9544C32.7737 47.0071 32.7123 47.0484 32.6443 47.0759C30.1962 48.0623 27.9631 48.3996 26.0539 48.3996Z" fill="#0449D1"/>
<path d="M20.5215 49.044C22.7867 50.5751 29.4897 50.6907 31.4453 49.2349C31.5889 49.0236 32.1155 48.1845 32.0675 47.3096C28.1758 48.7931 23.4833 48.7275 19.9753 47.1479C19.9096 48.1614 20.3836 48.863 20.5215 49.044ZM26.3857 51.3232C23.8527 51.3232 21.2287 50.8282 19.8576 49.8542C19.8243 49.8305 19.7941 49.8031 19.7671 49.7725C19.7153 49.7134 18.5036 48.2989 19.0758 46.2356C19.118 46.0833 19.2271 45.9583 19.3727 45.8959C19.5181 45.8333 19.6841 45.8397 19.8243 45.9136C23.2911 47.7411 28.2808 47.8215 32.2406 46.1134C32.3723 46.0565 32.5215 46.0562 32.6535 46.1123C32.7853 46.1685 32.8885 46.2761 32.9384 46.4102C33.5767 48.1209 32.2999 49.8408 32.2454 49.9133C32.219 49.9481 32.1883 49.9796 32.1542 50.0068C31.0484 50.8889 28.7569 51.3232 26.3857 51.3232Z" fill="#0449D1"/>
<path d="M20.6163 50.2863C20.6467 51.0025 20.9244 51.6314 21.3885 51.9662C23.3863 53.4066 28.7063 53.5478 30.5699 52.2098C31.0541 51.8623 31.3781 51.1364 31.4112 50.4537C30.9559 50.6643 30.2744 50.9027 29.2958 51.0776C27.7691 51.3507 23.491 51.6778 20.6163 50.2863ZM26.3839 54.1714C24.2411 54.1714 22.0216 53.71 20.7757 52.8116C19.814 52.118 19.3711 50.7514 19.6476 49.33C19.6809 49.1586 19.7981 49.0151 19.9595 48.948C20.1208 48.8806 20.3054 48.8985 20.4512 48.9951C22.7005 50.4901 26.9565 50.4362 29.1111 50.0507C30.8632 49.7376 31.4684 49.22 31.4741 49.2147C31.6045 49.0909 31.786 49.0463 31.9607 49.0906C32.1353 49.1351 32.2709 49.2695 32.3258 49.4408C32.7268 50.6935 32.2134 52.3155 31.181 53.0566C30.1377 53.8056 28.2913 54.1714 26.3839 54.1714Z" fill="#0449D1"/>
<path d="M24.0592 53.9839C24.097 54.4451 24.321 54.8096 24.7289 55.0712C25.4953 55.5626 26.7214 55.5499 27.4618 55.0422C27.8191 54.7972 28.0138 54.4717 28.0436 54.071C26.7555 54.2283 25.4423 54.1995 24.0592 53.9839ZM26.074 56.4771C25.394 56.4773 24.7133 56.3015 24.1631 55.9486C23.2629 55.3712 22.8603 54.3984 23.0584 53.2795C23.0828 53.142 23.1614 53.0199 23.2767 52.9406C23.3919 52.8613 23.5342 52.8314 23.6719 52.8579C25.3523 53.1787 26.9098 53.2124 28.433 52.9613C28.7107 52.9158 28.9731 53.0959 29.0305 53.3696C29.2467 54.4053 28.891 55.3284 28.0545 55.902C27.4958 56.2848 26.7853 56.4771 26.074 56.4771Z" fill="#0449D1"/>
<path d="M42.9283 45.0187C43.6864 44.1796 46.2441 40.8671 44.3954 36.0844C41.7908 30.7995 38.0909 33.217 37.572 33.6548C36.9954 34.1411 35.6436 36.0286 37.369 39.7442C38.9865 43.2277 40.6284 46.1541 42.3768 45.4233C42.5897 45.3345 42.7738 45.1898 42.9283 45.0187Z" fill="#FFC916"/>
<path d="M40.195 33.2448C38.9088 33.2448 37.9211 34.0436 37.9101 34.0528C37.8336 34.1175 36.0572 35.6778 37.8438 39.5252C39.2336 42.518 40.8357 45.5028 42.1748 44.9423C42.3012 44.8896 42.4241 44.7978 42.5399 44.6695C43.2967 43.8319 45.6296 40.7558 43.9158 36.2936C43.0585 34.5631 42.013 33.5585 40.8078 33.3074C40.5981 33.2638 40.393 33.2448 40.195 33.2448ZM41.8097 46.066C39.9045 46.066 38.3411 43.0784 36.8947 39.9635C34.8125 35.4799 36.9803 33.4708 37.2343 33.2565C37.8126 32.7684 39.3482 31.938 41.0218 32.2863C42.5632 32.6072 43.8564 33.8078 44.865 35.8542L44.8837 35.8967C46.8274 40.925 44.176 44.4173 43.3169 45.3679C43.0973 45.6113 42.849 45.7918 42.5791 45.9045C42.3165 46.0142 42.0599 46.066 41.8097 46.066Z" fill="#0449D1"/>
<path d="M37.6487 40.9581C37.556 40.9581 37.4622 40.9336 37.3773 40.882C37.1306 40.7323 37.0523 40.4113 37.2024 40.1651L38.3988 38.2054C38.5491 37.9594 38.8708 37.8811 39.1177 38.0312L40.9651 39.1527L42.0885 37.3122C42.1606 37.1942 42.2769 37.1093 42.4117 37.0767C42.5463 37.044 42.6887 37.066 42.8073 37.138L45.3178 38.662C45.5645 38.8119 45.6428 39.1327 45.4927 39.3789C45.3424 39.6249 45.0209 39.7033 44.7738 39.5531L42.71 38.3004L41.5867 40.1406C41.4365 40.3866 41.1147 40.465 40.868 40.315L39.0204 39.1935L38.096 40.7078C37.9974 40.8689 37.8252 40.9581 37.6487 40.9581Z" fill="#0449D1"/>
<path d="M31.1417 33.0423C30.9005 33.0423 30.6362 33.255 30.4254 33.6288C30.1963 34.0348 29.9883 35.058 29.8087 36.3692C30.8883 35.9741 31.6572 35.3807 31.7714 34.5912C31.8945 33.7416 31.6117 33.1795 31.2689 33.0632C31.2276 33.0493 31.1851 33.0423 31.1417 33.0423ZM21.0329 33.0385C21.0015 33.0385 20.971 33.0429 20.9413 33.0519C20.6174 33.1494 20.3091 33.7345 20.3756 34.627C20.4301 35.3574 21.1622 35.9844 22.3391 36.4038C22.1585 35.0756 21.9489 34.0384 21.7179 33.6288C21.5068 33.2545 21.2524 33.0385 21.0329 33.0385ZM22.98 44.1587C22.8936 42.2227 22.7189 39.6654 22.4788 37.5343C20.7984 37.0476 19.4403 36.1501 19.3324 34.7044C19.2339 33.3836 19.7589 32.3182 20.6388 32.0532C21.2131 31.8798 22.038 32.0688 22.6296 33.1173C22.9614 33.7053 23.226 35.0985 23.4318 36.7056C24.0676 36.8384 24.7809 36.9228 25.5502 36.9494C26.6186 36.9859 27.7304 36.8965 28.7145 36.682C28.9197 35.085 29.1835 33.7025 29.5135 33.1173C30.125 32.0332 30.995 31.8685 31.606 32.0756C32.3588 32.331 33.022 33.2539 32.8069 34.7402C32.6094 36.1033 31.3331 37.0048 29.6673 37.5077C29.4257 39.6442 29.2499 42.2145 29.1631 44.1587L28.118 44.1123C28.1424 43.5653 28.2858 40.5478 28.5862 37.7697C27.5985 37.9568 26.5365 38.0272 25.5139 37.9919C24.8752 37.97 24.2082 37.9034 23.5585 37.7855C23.8579 40.5591 24.0007 43.5663 24.0251 44.1123L22.98 44.1587Z" fill="#0449D1"/>
<path d="M15.3103 24.1757V19.7077C15.3103 18.5122 16.2796 17.534 17.4643 17.534H34.5167C35.7014 17.534 36.6706 18.5122 36.6706 19.7077V24.4052C36.6706 26.2786 35.685 28.0324 34.0545 28.9284C29.9139 31.2035 22.6124 31.405 18.2107 29.0892C16.4086 28.1411 15.3103 26.2265 15.3103 24.1757Z" fill="#0449D1"/>
<path d="M23.2312 22.2092C23.2312 23.3521 22.302 24.2786 21.156 24.2786C20.0098 24.2786 19.0809 23.3521 19.0809 22.2092C19.0809 21.0664 20.0098 20.1398 21.156 20.1398C22.302 20.1398 23.2312 21.0664 23.2312 22.2092Z" fill="#FFC916"/>
<path d="M33.0556 22.2092C33.0556 23.3521 32.1264 24.2786 30.9804 24.2786C29.8342 24.2786 28.9053 23.3521 28.9053 22.2092C28.9053 21.0664 29.8342 20.1398 30.9804 20.1398C32.1264 20.1398 33.0556 21.0664 33.0556 22.2092Z" fill="#FFC916"/>
<path d="M28.3138 25.8406C28.3138 25.8406 27.9338 28.5989 25.9904 28.5989C24.0328 28.5989 23.6672 25.8406 23.6672 25.8406H28.3138Z" fill="#FFC916"/>
<path d="M20.843 18.2121C20.7262 18.2121 20.6085 18.1731 20.5111 18.0933C20.2881 17.9104 20.2558 17.5816 20.4394 17.3591L21.5289 16.038L19.4266 14.9564C19.1797 14.8293 19.0754 14.5318 19.1893 14.2791L20.1535 12.1383L17.5795 12.0213C17.2908 12.0081 17.0676 11.7641 17.0807 11.4764C17.0939 11.1886 17.3429 10.9678 17.6271 10.9789L20.9696 11.1312C21.1426 11.1391 21.3005 11.2319 21.3912 11.379C21.482 11.5261 21.4937 11.7085 21.4229 11.866L20.3467 14.2558L22.5841 15.407C22.7246 15.4792 22.8247 15.611 22.8566 15.7654C22.8884 15.9196 22.8486 16.0801 22.7482 16.2018L21.2474 18.0219C21.144 18.1472 20.994 18.2121 20.843 18.2121Z" fill="#0449D1"/>
<path d="M31.4752 18.2121C31.324 18.2121 31.1743 18.1473 31.0709 18.0219L29.57 16.2018C29.4696 16.0801 29.4299 15.9196 29.4616 15.7654C29.4935 15.611 29.5936 15.4792 29.7341 15.4071L31.9716 14.2559L30.8953 11.866C30.8245 11.7085 30.8362 11.5261 30.927 11.379C31.0177 11.2319 31.1757 11.1391 31.3486 11.1313L34.6911 10.9789C34.9758 10.9675 35.2243 11.1885 35.2375 11.4764C35.2506 11.7641 35.0275 12.0081 34.7387 12.0213L32.1648 12.1383L33.1289 14.2792C33.2428 14.5318 33.1385 14.8293 32.8916 14.9564L30.7893 16.038L31.8788 17.3591C32.0624 17.5817 32.0302 17.9104 31.8072 18.0934C31.7097 18.1732 31.592 18.2121 31.4752 18.2121Z" fill="#0449D1"/>
<path d="M16.1702 43.7561C11.2075 41.4975 7.55881 37.5763 5.29797 32.7354C5.29797 32.7354 7.74312 33.5746 11.1167 32.0121C11.263 32.8173 15.0367 39.7223 15.9606 42.3524C16.2058 43.0509 16.1702 43.7561 16.1702 43.7561Z" fill="#FFC916"/>
<path d="M8.93809 19.777C10.7873 12.2134 17.7657 6.18937 26.0477 6.18937C35.7439 6.18937 43.3443 14.0346 43.3443 23.4093C43.3443 25.8301 42.8376 28.1488 41.9188 30.2568C43.7209 31.0557 45.0931 32.4265 46.1207 34.256C47.9503 30.9869 48.9862 27.2318 48.9862 23.2683C48.9862 10.9717 38.7088 0.5 25.9905 0.5C15.5145 0.5 6.8408 7.84879 4.04872 17.2597C5.53507 17.7434 7.23117 18.6781 8.93809 19.777Z" fill="#FFC916"/>
</g>
<path d="M59.172 22.716V27.528H65.244V30.012H59.172V34.92H66.876V37.5H55.932V20.148H66.876V22.716H59.172ZM79.4783 25.188V37.5H77.6663C77.2743 37.5 77.0263 37.32 76.9223 36.96L76.7183 35.976C76.2143 36.488 75.6583 36.904 75.0503 37.224C74.4423 37.536 73.7263 37.692 72.9023 37.692C72.2303 37.692 71.6343 37.58 71.1143 37.356C70.6023 37.124 70.1703 36.8 69.8183 36.384C69.4663 35.968 69.1983 35.476 69.0143 34.908C68.8383 34.332 68.7503 33.7 68.7503 33.012V25.188H71.7143V33.012C71.7143 33.764 71.8863 34.348 72.2303 34.764C72.5823 35.172 73.1063 35.376 73.8023 35.376C74.3143 35.376 74.7943 35.264 75.2423 35.04C75.6903 34.808 76.1143 34.492 76.5143 34.092V25.188H79.4783ZM85.2131 27.324C85.5971 26.588 86.0531 26.012 86.5811 25.596C87.1091 25.172 87.7331 24.96 88.4531 24.96C89.0211 24.96 89.4771 25.084 89.8211 25.332L89.6291 27.552C89.5891 27.696 89.5291 27.8 89.4491 27.864C89.3771 27.92 89.2771 27.948 89.1491 27.948C89.0291 27.948 88.8491 27.928 88.6091 27.888C88.3771 27.848 88.1491 27.828 87.9251 27.828C87.5971 27.828 87.3051 27.876 87.0491 27.972C86.7931 28.068 86.5611 28.208 86.3531 28.392C86.1531 28.568 85.9731 28.784 85.8131 29.04C85.6611 29.296 85.5171 29.588 85.3811 29.916V37.5H82.4171V25.188H84.1571C84.4611 25.188 84.6731 25.244 84.7931 25.356C84.9131 25.46 84.9931 25.652 85.0331 25.932L85.2131 27.324ZM98.9507 29.928C98.9507 29.544 98.8947 29.184 98.7827 28.848C98.6787 28.504 98.5187 28.204 98.3027 27.948C98.0867 27.692 97.8107 27.492 97.4747 27.348C97.1467 27.196 96.7627 27.12 96.3227 27.12C95.4667 27.12 94.7907 27.364 94.2947 27.852C93.8067 28.34 93.4947 29.032 93.3587 29.928H98.9507ZM93.2987 31.716C93.3467 32.348 93.4587 32.896 93.6347 33.36C93.8107 33.816 94.0427 34.196 94.3307 34.5C94.6187 34.796 94.9587 35.02 95.3507 35.172C95.7507 35.316 96.1907 35.388 96.6707 35.388C97.1507 35.388 97.5627 35.332 97.9067 35.22C98.2587 35.108 98.5627 34.984 98.8187 34.848C99.0827 34.712 99.3107 34.588 99.5027 34.476C99.7027 34.364 99.8947 34.308 100.079 34.308C100.327 34.308 100.511 34.4 100.631 34.584L101.483 35.664C101.155 36.048 100.787 36.372 100.379 36.636C99.9707 36.892 99.5427 37.1 99.0947 37.26C98.6547 37.412 98.2027 37.52 97.7387 37.584C97.2827 37.648 96.8387 37.68 96.4067 37.68C95.5507 37.68 94.7547 37.54 94.0187 37.26C93.2827 36.972 92.6427 36.552 92.0987 36C91.5547 35.44 91.1267 34.752 90.8147 33.936C90.5027 33.112 90.3467 32.16 90.3467 31.08C90.3467 30.24 90.4827 29.452 90.7547 28.716C91.0267 27.972 91.4147 27.328 91.9187 26.784C92.4307 26.232 93.0507 25.796 93.7787 25.476C94.5147 25.156 95.3427 24.996 96.2627 24.996C97.0387 24.996 97.7547 25.12 98.4107 25.368C99.0667 25.616 99.6307 25.98 100.103 26.46C100.575 26.932 100.943 27.516 101.207 28.212C101.479 28.9 101.615 29.688 101.615 30.576C101.615 31.024 101.567 31.328 101.471 31.488C101.375 31.64 101.191 31.716 100.919 31.716H93.2987ZM106.803 19.668V29.88H107.355C107.555 29.88 107.711 29.856 107.823 29.808C107.943 29.752 108.063 29.644 108.183 29.484L111.243 25.704C111.371 25.536 111.511 25.408 111.663 25.32C111.823 25.232 112.027 25.188 112.275 25.188H114.987L111.159 29.76C110.887 30.12 110.591 30.396 110.271 30.588C110.439 30.708 110.587 30.848 110.715 31.008C110.851 31.168 110.979 31.34 111.099 31.524L115.203 37.5H112.527C112.295 37.5 112.095 37.464 111.927 37.392C111.759 37.312 111.619 37.172 111.507 36.972L108.363 32.304C108.251 32.12 108.135 32 108.015 31.944C107.895 31.888 107.715 31.86 107.475 31.86H106.803V37.5H103.839V19.668H106.803ZM123.163 32.244C122.307 32.284 121.587 32.36 121.003 32.472C120.419 32.576 119.951 32.712 119.599 32.88C119.247 33.048 118.995 33.244 118.843 33.468C118.691 33.692 118.615 33.936 118.615 34.2C118.615 34.72 118.767 35.092 119.071 35.316C119.383 35.54 119.787 35.652 120.283 35.652C120.891 35.652 121.415 35.544 121.855 35.328C122.303 35.104 122.739 34.768 123.163 34.32V32.244ZM116.371 26.904C117.787 25.608 119.491 24.96 121.483 24.96C122.203 24.96 122.847 25.08 123.415 25.32C123.983 25.552 124.463 25.88 124.855 26.304C125.247 26.72 125.543 27.22 125.743 27.804C125.951 28.388 126.055 29.028 126.055 29.724V37.5H124.711C124.431 37.5 124.215 37.46 124.063 37.38C123.911 37.292 123.791 37.12 123.703 36.864L123.439 35.976C123.127 36.256 122.823 36.504 122.527 36.72C122.231 36.928 121.923 37.104 121.603 37.248C121.283 37.392 120.939 37.5 120.571 37.572C120.211 37.652 119.811 37.692 119.371 37.692C118.851 37.692 118.371 37.624 117.931 37.488C117.491 37.344 117.111 37.132 116.791 36.852C116.471 36.572 116.223 36.224 116.047 35.808C115.871 35.392 115.783 34.908 115.783 34.356C115.783 34.044 115.835 33.736 115.939 33.432C116.043 33.12 116.211 32.824 116.443 32.544C116.683 32.264 116.991 32 117.367 31.752C117.743 31.504 118.203 31.288 118.747 31.104C119.299 30.92 119.939 30.772 120.667 30.66C121.395 30.54 122.227 30.468 123.163 30.444V29.724C123.163 28.9 122.987 28.292 122.635 27.9C122.283 27.5 121.775 27.3 121.111 27.3C120.631 27.3 120.231 27.356 119.911 27.468C119.599 27.58 119.323 27.708 119.083 27.852C118.843 27.988 118.623 28.112 118.423 28.224C118.231 28.336 118.015 28.392 117.775 28.392C117.567 28.392 117.391 28.34 117.247 28.236C117.103 28.124 116.987 27.996 116.899 27.852L116.371 26.904ZM131.919 25.188V37.5H128.943V25.188H131.919ZM132.327 21.6C132.327 21.856 132.275 22.096 132.171 22.32C132.067 22.544 131.927 22.74 131.751 22.908C131.583 23.076 131.383 23.212 131.151 23.316C130.919 23.412 130.671 23.46 130.407 23.46C130.151 23.46 129.907 23.412 129.675 23.316C129.451 23.212 129.255 23.076 129.087 22.908C128.919 22.74 128.783 22.544 128.679 22.32C128.583 22.096 128.535 21.856 128.535 21.6C128.535 21.336 128.583 21.088 128.679 20.856C128.783 20.624 128.919 20.424 129.087 20.256C129.255 20.088 129.451 19.956 129.675 19.86C129.907 19.756 130.151 19.704 130.407 19.704C130.671 19.704 130.919 19.756 131.151 19.86C131.383 19.956 131.583 20.088 131.751 20.256C131.927 20.424 132.067 20.624 132.171 20.856C132.275 21.088 132.327 21.336 132.327 21.6Z" fill="#0449D1"/>
<defs>
<clipPath id="clip0_1089_13739">
<rect width="49" height="56" fill="white" transform="translate(0 0.5)"/>
</clipPath>
</defs>
</svg>
