<svg width="32" height="32" viewBox="0 0 32 32" fill="none" xmlns="http://www.w3.org/2000/svg">
<mask id="mask0_1812_40777" style="mask-type:alpha" maskUnits="userSpaceOnUse" x="0" y="0" width="32" height="32">
<circle cx="15.9475" cy="15.9475" r="15.9475" fill="#D9D9D9"/>
</mask>
<g mask="url(#mask0_1812_40777)">
<path d="M24.6902 29.1138C24.617 29.166 24.5333 29.2183 24.4601 29.2706C24.3764 29.3229 24.3032 29.3752 24.2196 29.417C24.1464 29.4589 24.0836 29.5007 24.0104 29.5425C24 29.553 23.9895 29.553 23.9791 29.5634C23.7385 29.7098 23.4876 29.8458 23.2366 29.9713C23.1634 30.0131 23.0797 30.0549 23.0065 30.0863C23.0065 30.0863 22.996 30.0968 22.9856 30.0968C22.9019 30.1386 22.8183 30.1804 22.7346 30.2223C22.5673 30.3059 22.3895 30.3791 22.2222 30.4523C22.1385 30.4942 22.0444 30.5255 21.9608 30.5569C21.8771 30.5883 21.783 30.6301 21.6993 30.6615C21.6157 30.6928 21.5215 30.7347 21.4379 30.766C21.4379 30.766 21.4379 30.766 21.4274 30.766C21.3438 30.7974 21.2496 30.8288 21.166 30.8602C20.9777 30.9229 20.7791 30.9857 20.5908 31.0484C20.5281 31.0693 20.4549 31.0902 20.3921 31.1111C20.1934 31.1739 19.9947 31.2262 19.796 31.268C19.7228 31.2889 19.6496 31.2994 19.566 31.3203C19.3777 31.3621 19.1791 31.404 18.9908 31.4458C18.949 31.4562 18.9176 31.4562 18.8758 31.4667C18.813 31.4772 18.7398 31.4876 18.6771 31.4981C18.583 31.5085 18.4993 31.5294 18.4052 31.5399C18.3634 31.5504 18.3215 31.5504 18.2797 31.5608C18.2274 31.5713 18.1647 31.5817 18.1019 31.5817C17.9346 31.6026 17.7568 31.6236 17.5895 31.6445C17.5372 31.6549 17.4745 31.6549 17.4222 31.6654H17.4117C17.3385 31.6758 17.2653 31.6758 17.1921 31.6863C17.1189 31.6968 17.0457 31.6968 16.9725 31.6968C16.9307 31.6968 16.8784 31.7072 16.8366 31.7072C16.7529 31.7072 16.6797 31.7177 16.6065 31.7177C16.5019 31.7177 16.4078 31.7281 16.3032 31.7281C16.1987 31.7281 16.1045 31.7281 16 31.7281C15.9268 31.7281 15.8536 31.7281 15.7804 31.7281C11.3673 31.6654 7.40389 29.7935 4.56991 26.8236C4.56991 26.8236 4.56991 26.8131 4.55945 26.8131C4.24572 26.5308 4.51762 25.0249 5.78298 24.0732C7.37252 22.8706 11.1791 22.1177 11.1791 22.1177C11.1791 22.1177 12.6536 21.8772 18.1228 23.017C21.3228 23.6863 23.7594 24.6589 25.1189 27.2942C25.4013 27.8379 25.6836 28.6745 24.6902 29.1138Z" fill="white"/>
<path d="M18.1543 22.902C20.1621 23.3098 22.3059 23.749 23.9582 25.0772C24.5124 25.5268 24.8784 26.1856 25.1817 26.8236C25.3281 27.1373 25.4745 27.4615 25.5896 27.8066C25.6523 28.0366 25.7464 28.2981 25.6941 28.57C25.6837 28.6432 25.6209 28.7373 25.5686 28.7896C25.3281 29.0301 25.0667 29.1765 24.8052 29.3647C23.268 30.4314 21.5007 31.1843 19.6706 31.5817C15.5922 32.4706 11.1791 31.7804 7.59217 29.6366C6.40002 28.9151 5.30198 28.0366 4.3608 27.0013C4.25623 26.8758 4.25623 26.6667 4.25623 26.5307C4.26668 26.217 4.35034 25.9138 4.45492 25.6314C4.7059 24.983 5.03008 24.3347 5.58433 23.885C5.98172 23.6131 6.41047 23.383 6.84969 23.1948C8.23008 22.6092 9.68368 22.2013 11.1791 22.034C11.3046 22.0236 11.3255 22.2013 11.2 22.2222C9.76734 22.5151 8.34511 22.9543 7.01701 23.5504C6.53596 23.7909 6.02355 24 5.63662 24.3765C5.2706 24.7739 5.00917 25.2654 4.80002 25.7673C4.66407 26.0706 4.56995 26.5517 4.61178 26.7922C5.2706 27.5765 6.04446 28.2667 6.88106 28.8628C11.4615 32.0628 18.4157 32.2719 23.2889 29.6053C23.7281 29.3647 24.1569 29.0928 24.5647 28.8105C24.7634 28.6745 24.9726 28.5595 25.1294 28.4026C25.1399 28.3922 25.1294 28.4026 25.1294 28.4131C25.1294 28.4236 25.119 28.434 25.119 28.434C25.1294 28.3085 25.0876 28.1412 25.0353 27.9739C24.8471 27.3673 24.5438 26.7294 24.2196 26.1752C23.7072 25.349 22.8392 24.8262 21.9608 24.4079C21.3543 24.1255 20.7164 23.9059 20.068 23.6968C19.4196 23.4876 18.7608 23.3098 18.102 23.153C17.9347 23.1111 17.9869 22.8706 18.1543 22.902Z" fill="black"/>
<path d="M28.1623 35.5974H1.71521C1.71521 35.5974 3.27338 32.3137 3.96358 28.5699C4.44462 25.9765 4.80018 24.4601 6.1492 23.6235C7.10083 23.0379 9.14005 22.4314 10.0185 22.1177C10.6146 21.9085 10.74 22.0863 11.1688 21.9713C11.1688 22.0235 11.1793 22.0654 11.1793 22.1177C11.1793 22.1177 12.3087 25.4745 15.2472 26.6667C17.642 27.6392 19.0642 26.9909 19.2838 25.9137C19.4198 25.2235 18.991 24.0941 18.7714 23.7281C18.6459 23.6235 18.5623 23.4667 18.5204 23.3098L18.4368 22.9647C18.6355 22.9229 18.8237 22.8706 19.0119 22.8079C19.0747 22.7869 19.127 22.766 19.1897 22.7451C20.3923 23.0588 22.9649 24.0732 24.1048 25.119C24.5544 25.5373 25.6211 27.6288 26.3113 30.6614C27.1061 34.102 28.1623 35.5974 28.1623 35.5974Z" fill="black"/>
<path d="M28.4027 35.7228C20.5282 35.7751 9.47459 35.9006 1.72557 35.8692C1.53733 35.8692 1.40139 35.6601 1.48505 35.4928C2.41576 33.4431 3.14779 31.2575 3.61838 29.0509C3.67067 28.7686 3.7857 28.2143 3.83799 27.932C4.07851 26.7817 4.26675 25.6418 4.88374 24.5856C5.09289 24.2405 5.36478 23.9163 5.68897 23.6549C6.00269 23.4039 6.36871 23.2156 6.73472 23.0483C7.90596 22.5464 9.08766 22.149 10.2903 21.783C10.5726 21.7202 10.855 21.7934 11.1269 21.7307C11.2837 21.6888 11.4511 21.8039 11.4615 21.9712L11.472 22.1176L11.1896 21.8562C11.3047 21.8562 11.4092 21.9294 11.4406 22.0339C11.5243 22.2745 11.6393 22.5254 11.7543 22.766C12.1099 23.4875 12.5491 24.1673 13.0824 24.7634C13.7831 25.5581 14.6615 26.1856 15.6654 26.5411C16.6798 26.9176 18.489 27.2418 18.9909 26.0287C19.0746 25.8091 19.0641 25.579 19.0328 25.3385C18.9596 24.847 18.7922 24.3241 18.5517 23.8849L18.604 23.9477C18.4367 23.7281 18.3739 23.4666 18.3948 23.2156V22.996V22.9647C18.3948 22.9438 18.4158 22.9228 18.4367 22.9228C18.5622 22.881 18.6772 22.8287 18.8027 22.7869C18.9177 22.7346 19.0328 22.6823 19.1478 22.6196C19.1792 22.5987 19.2105 22.6091 19.2419 22.6196C19.9321 22.7973 20.5909 23.0379 21.2498 23.3098C22.2328 23.7176 23.2053 24.1777 24.0524 24.8366C24.3556 25.0562 24.5752 25.3804 24.753 25.7045C25.1086 26.332 25.3909 26.9803 25.6419 27.6392C26.0811 28.7895 26.4053 29.9817 26.6877 31.1843C27.0432 32.5124 27.472 33.83 28.1308 35.0431C28.204 35.1686 28.2772 35.2941 28.3504 35.4196L28.3713 35.4405V35.4509C28.4341 35.5032 28.4445 35.6496 28.4027 35.7228ZM27.9216 35.4719C27.8694 35.5241 27.8798 35.6705 27.9216 35.7228V35.7124L27.9007 35.681C27.1687 34.4784 26.7086 33.1294 26.3321 31.7803C26.1439 31.1215 26.0079 30.4104 25.8197 29.7411C25.4537 28.4235 25.004 27.0954 24.3452 25.8928C24.2301 25.6941 24.1047 25.4745 23.9478 25.3176C23.6445 25.0353 23.289 24.8052 22.9334 24.5856C22.3478 24.2405 21.7203 23.9372 21.0824 23.6758C20.4445 23.4143 19.7962 23.1738 19.1373 22.996L19.2942 22.9856C19.0118 23.0065 18.7399 23.017 18.4681 23.0065L18.5099 22.9437C18.5726 23.0483 18.6458 23.2261 18.7086 23.3202C18.7818 23.4143 18.8654 23.4875 18.9596 23.5294C18.9805 23.5503 19.0014 23.5712 19.0118 23.5921C19.3883 24.3137 19.7648 25.3908 19.4929 26.196C18.8654 27.7751 16.7635 27.5241 15.4772 27.0326C14.4001 26.6666 13.4275 25.966 12.6746 25.1085C11.9216 24.2509 11.3256 23.2679 10.9282 22.2013L11.1792 22.379C11.0328 22.379 10.9177 22.2745 10.9073 22.1281L10.8968 21.9921L11.2315 22.2326C11.1269 22.264 11.0014 22.2745 10.8864 22.2849C10.5935 22.2745 10.3948 22.264 10.123 22.3686C9.7674 22.4941 9.40139 22.6196 9.03537 22.7346C8.3138 22.9751 7.60269 23.2261 6.92295 23.5294C5.37524 24.1464 4.92557 25.3803 4.57001 26.9176C4.40269 27.6287 4.26675 28.4339 4.12034 29.1555C3.63929 31.4143 2.90727 33.6 1.95563 35.7124L1.71511 35.3254C9.29681 35.3254 20.2354 35.3987 27.9216 35.4719Z" fill="black"/>
<path d="M14.3477 27.7647C10.7399 26.1438 9.3386 23.247 9.61049 22.4627C9.61049 22.4627 9.61049 22.4523 9.62095 22.4418C9.80919 22.0549 10.1125 21.7411 10.4889 21.5215C10.6981 21.3961 10.9281 21.281 11.1164 21.2183C13.9713 20.5072 17.7569 21.7098 19.0327 22.8078C19.4928 23.3621 19.9634 23.9163 20.1412 25.3804C20.3922 27.4928 18.0811 29.4483 14.3477 27.7647Z" fill="white"/>
<path d="M14.2955 27.8797C12.4864 27.064 10.7922 25.7882 9.83015 24.0209C9.64192 23.6549 9.4746 23.2784 9.42231 22.8496C9.41185 22.7032 9.4014 22.5255 9.4746 22.3791C9.69421 21.9398 10.0916 21.5947 10.5308 21.3856C10.8654 21.2078 11.2315 21.0823 11.5975 20.9673C12.1204 20.8732 12.6432 20.8418 13.1766 20.8523C14.923 20.9046 16.6589 21.3647 18.2066 22.1699C18.3217 22.2327 18.4367 22.2954 18.5517 22.3686C18.5936 22.3895 18.6249 22.4209 18.6772 22.4104C18.7295 22.4 18.7713 22.4209 18.8132 22.4418C18.9387 22.515 19.0432 22.6091 19.1583 22.7137C19.4406 23.0588 19.723 23.4248 19.9112 23.8431C20.0994 24.2614 20.204 24.7111 20.2668 25.1503C20.4341 26.0496 20.1308 27.0536 19.4302 27.6706C18.0079 28.9464 15.8746 28.6013 14.2955 27.8797ZM14.3896 27.6601C15.5609 28.1725 16.8994 28.4967 18.1439 28.0993C19.1478 27.7961 19.9739 26.8862 20.0053 25.8196C20.0158 25.1921 19.8694 24.5333 19.6184 23.9581C19.4824 23.6026 19.106 23.1529 18.9177 22.9229C18.8027 22.8287 18.6772 22.7555 18.5726 22.6614C18.5622 22.6405 18.5517 22.6196 18.5413 22.5987C18.5204 22.5464 18.4785 22.5359 18.4471 22.5046C18.3426 22.4418 18.2275 22.3791 18.1125 22.3163C17.2027 21.8457 16.1988 21.5738 15.1949 21.3751C14.0236 21.1555 12.821 21.0928 11.6393 21.2601C11.472 21.281 11.2942 21.2601 11.1269 21.3019C11.0014 21.3542 10.7713 21.4588 10.6249 21.5634C10.2485 21.783 9.9661 22.1072 9.76741 22.4941L9.75695 22.5046C9.75695 22.515 9.74649 22.5359 9.74649 22.5464C9.69421 22.9856 9.90336 23.4353 10.1021 23.8431C10.2798 24.1778 10.489 24.5019 10.7295 24.8157C11.6916 26.0601 12.9779 27.0222 14.3896 27.6601Z" fill="black"/>
<path d="M19.1371 25.6836C18.9175 26.7608 17.4953 27.4091 15.1005 26.4366C12.6116 25.4327 11.5345 23.0379 11.2626 22.3268C12.7371 19.566 11.7122 17.6523 11.7122 17.6523C15.1109 17.3595 18.0809 21.3333 18.0809 21.3333L18.541 23.2993C18.5828 23.4666 18.6665 23.613 18.792 23.7176C19.0116 24.1046 19.273 24.9934 19.1371 25.6836Z" fill="white"/>
<path d="M11.2103 22.3582C11.409 22.0549 11.5345 21.6993 11.6182 21.3542C11.775 20.6327 11.8273 19.9006 11.8378 19.1686V18.8967C11.8064 18.6248 11.7123 18.3425 11.6077 18.0915C11.4718 17.7569 11.9633 17.5477 12.1201 17.8823C12.1411 17.9242 12.1411 17.9974 12.1411 18.0392C12.1724 19.4614 12.2352 21.2915 11.3358 22.4732C11.2731 22.5359 11.1476 22.4418 11.2103 22.3582Z" fill="black"/>
<path d="M18.1959 21.3124C18.3528 21.4065 18.4051 21.532 18.426 21.6575C18.4888 21.9085 18.4678 22.1804 18.5306 22.4418C18.5829 22.6928 18.7397 22.9333 18.7816 23.1948C18.8339 23.4667 18.9907 24.0418 19.0535 24.3242C19.0744 24.3869 19.0325 24.4601 18.9593 24.4706C18.9175 24.481 18.8861 24.4706 18.8548 24.4497C18.7188 24.3346 18.6561 24.2196 18.5724 24.0732C18.4365 23.8222 18.3424 23.5921 18.2587 23.3098C18.1855 23.0588 18.2169 22.7869 18.1541 22.5255C18.1018 22.2745 17.9554 22.034 17.9031 21.7725C17.8718 21.6471 17.8613 21.5111 17.9554 21.3542C18.0182 21.2915 18.1227 21.2706 18.1959 21.3124Z" fill="black"/>
<path d="M18.9489 24.0732C16.9515 23.9686 15.3201 23.3411 13.7306 20.5071C15.0692 21.6888 16.6482 22.1385 18.311 22.3477L18.5306 23.3098C18.5724 23.4771 18.8234 23.9686 18.9489 24.0732Z" fill="black"/>
<path d="M18.8652 23.6863C19.2208 24.3556 19.4299 25.1922 19.2103 25.9346C19.043 26.4575 18.562 26.8444 18.0391 26.9909C16.826 27.315 15.4247 26.8026 14.3476 26.2275C13.0195 25.485 12.0365 24.2405 11.409 22.881C11.3672 22.7765 11.5136 22.6928 11.5763 22.7974C11.7959 23.2366 12.0469 23.6654 12.3293 24.0523C12.6116 24.4497 12.9358 24.8157 13.3018 25.1399C14.3685 26.102 15.8116 26.698 17.2548 26.698C18.7397 26.6562 19.3044 25.8719 18.9593 24.4288C18.907 24.1987 18.8234 23.9582 18.7084 23.7595C18.6456 23.6758 18.8025 23.5817 18.8652 23.6863Z" fill="black"/>
<path d="M22.9124 11.1268C23.1006 12.0052 23.1947 12.7163 22.6823 15.0588C22.1804 17.3908 23.1529 19.7438 20.6849 21.8876C19.0222 23.3307 16.115 23.6026 13.7934 22.0235C13.0091 21.4902 12.8 19.0013 12.183 18.0497C11.9215 17.6523 11.7647 18.2902 11.1686 17.6314C10.3425 16.732 9.34899 14.9229 9.84049 11.7229C10.6353 6.53593 14.7451 5.9294 17.7882 6.50456C20.8418 7.07972 22.4104 8.81567 22.9124 11.1268Z" fill="white"/>
<path d="M11.681 18.5516C11.4405 18.1542 11.1372 17.8091 10.8548 17.4431C10.4365 16.8784 10.1228 16.2301 9.91366 15.5608C9.01431 12.6954 9.49536 8.96209 12.1516 7.17385C14.6091 5.5111 19.3045 6.01307 21.4588 8.02091C22.5359 8.99346 23.132 10.4052 23.2575 11.8274C23.3202 12.7791 23.0901 13.6993 22.8914 14.6196C22.6614 15.519 22.6091 16.4183 22.6091 17.349C22.5986 18.2797 22.5568 19.2523 22.2012 20.1307C21.6575 21.4693 20.5176 22.5569 19.1476 23.017C17.349 23.6444 15.2261 23.2889 13.7516 22.0863C13.6888 22.034 13.7516 21.9503 13.8248 21.9817C15.7594 23.0797 18.3006 23.268 20.1829 22.0026C21.3019 21.2497 22.0758 20.0575 22.2535 18.719C22.3999 17.8091 22.3581 16.8889 22.4418 15.9686C22.4731 15.5608 22.5882 14.9961 22.6718 14.5882C22.7973 13.9085 22.881 13.2288 22.8705 12.549C22.8601 11.8797 22.7137 11.2209 22.515 10.583C21.8248 8.31372 19.8483 6.97516 17.5686 6.60914C14.1594 6.01307 11.179 7.27843 10.2901 10.8235C9.9032 12.5595 9.59993 14.4732 10.332 16.1569C10.5934 16.7948 11.0222 17.3386 11.5137 17.8091L11.9947 18.3216C12.2039 18.5307 11.8483 18.8026 11.681 18.5516Z" fill="black"/>
<path d="M12.9149 15.2262C12.9149 15.2262 12.5907 13.6575 11.0639 13.8458C9.7463 14.0131 9.28617 17.1713 12.277 18.0497" fill="white"/>
<path d="M12.1411 16.6797C11.9006 16.5437 11.7332 16.3137 11.7228 16.0313C11.7332 15.8222 11.7646 15.5817 11.7123 15.3725C11.6809 15.1738 11.4718 15.1215 11.3149 15.132C11.1476 15.1634 11.043 15.3725 11.0117 15.5398C11.0117 15.5503 11.0012 15.5817 11.0012 15.5921C10.9908 15.6444 10.9071 15.6444 10.8862 15.5921C10.7502 15.1843 11.0535 14.7346 11.4927 14.7869C12.1097 14.8287 12.1934 15.4771 12.0783 15.9686C12.0156 16.1777 12.0993 16.366 12.2143 16.5437L12.2352 16.5751C12.2875 16.6379 12.2038 16.7215 12.1411 16.6797Z" fill="black"/>
<path d="M20.5071 14.1176C20.664 14.8601 20.9568 15.5503 21.3228 16.1987C21.647 16.9935 20.8104 17.7464 20.0679 17.715C19.9843 17.715 19.9738 17.6 20.047 17.5791C20.5176 17.4327 20.9463 17.119 21.0195 16.6379C21.0509 16.4915 21.0091 16.366 20.9359 16.2405C20.5908 15.5922 20.3816 14.8497 20.4339 14.1176C20.4339 14.0654 20.5071 14.0654 20.5071 14.1176Z" fill="black"/>
<path d="M12.8627 15.2366C12.6222 14.6196 12.0993 14.034 11.3987 14.0444C11.3359 14.034 11.2314 14.0549 11.1686 14.0549C10.9908 14.0653 10.8444 14.1281 10.7085 14.2536C10.0392 14.9228 10.1542 16.1045 10.698 16.847C10.8863 17.1085 11.1268 17.3385 11.3987 17.5268C11.6706 17.715 11.9739 17.8614 12.298 17.9869C12.3712 18.0078 12.3399 18.1228 12.2667 18.1124C11.566 17.966 10.8967 17.6209 10.4366 17.0457C9.72549 16.1882 9.57908 14.7555 10.4261 13.9189C10.6144 13.7516 10.8758 13.6261 11.1373 13.6261C11.2209 13.6261 11.3464 13.6052 11.4301 13.6261C11.8693 13.647 12.2876 13.8666 12.5595 14.2117C12.8 14.5045 12.9359 14.8601 12.9778 15.2157C12.9778 15.2784 12.8837 15.2993 12.8627 15.2366Z" fill="black"/>
<path d="M19.7124 18.7608C19.0431 19.3987 17.7778 18.8863 17.4431 18.1124C17.4013 18.0183 17.5059 17.9346 17.5895 17.9765C17.7673 18.0706 17.9242 18.1647 18.0915 18.2379C18.5725 18.4575 19.0745 18.6353 19.6078 18.583C19.7124 18.5621 19.7856 18.6876 19.7124 18.7608Z" fill="black"/>
<path d="M16.6067 15.1843C16.3557 15.1739 16.1674 14.9647 16.1884 14.7137L16.1988 14.4209C16.2093 14.1699 16.4184 13.9817 16.6694 14.0026C16.9204 14.0131 17.1086 14.2222 17.0877 14.4732L17.0772 14.766C17.0668 15.0065 16.8576 15.1948 16.6067 15.1843Z" fill="black"/>
<path d="M21.0092 15.3412C20.7791 15.3307 20.6013 15.132 20.6118 14.902L20.6222 14.6301C20.6327 14.4 20.8314 14.2222 21.0614 14.2327C21.2915 14.2431 21.4693 14.4418 21.4588 14.6719L21.4484 14.9438C21.4379 15.1739 21.2392 15.3516 21.0092 15.3412Z" fill="black"/>
<path d="M17.5478 14.6196C17.2027 14.3896 16.8262 14.2327 16.4079 14.3164C16.2719 14.3373 16.136 14.3791 16.0523 14.4732C16.021 14.515 15.9478 14.5046 15.9478 14.4418C15.9582 14.2327 16.136 14.0967 16.3033 14.0131C16.6275 13.8458 17.0772 13.8771 17.37 14.0967C17.4746 14.1595 17.8301 14.5464 17.6419 14.6301C17.6 14.651 17.5791 14.6405 17.5478 14.6196Z" fill="black"/>
<path d="M20.5387 14.6719C20.5387 14.2327 21.0825 14.0758 21.4171 14.2327C21.6054 14.3163 21.7413 14.4836 21.7936 14.6823C21.8145 14.7451 21.7204 14.7974 21.6786 14.7451C21.5008 14.5359 21.1975 14.4314 20.957 14.5568C20.8838 14.5987 20.8733 14.63 20.8524 14.6719C20.8524 14.881 20.5492 14.8706 20.5387 14.6719Z" fill="black"/>
<path d="M18.0498 12.8941C18.2694 12.9673 18.489 12.7686 18.4471 12.5281C18.4262 12.4026 18.3739 12.2771 18.2694 12.183C17.9556 11.9007 16.6589 11.6497 15.8746 12.0157C15.1844 12.3503 17.0458 12.5595 18.0498 12.8941Z" fill="black"/>
<path d="M21.1766 13.0614C20.9988 13.1242 20.8106 12.936 20.842 12.7163C20.8524 12.6013 20.8942 12.4863 20.9779 12.4026C21.2289 12.1516 22.0864 11.9529 22.6302 12.3399C23.1008 12.6641 21.9923 12.7582 21.1766 13.0614Z" fill="black"/>
<path d="M20.8419 10.1438C21.0615 10.2588 21.2497 10.1543 21.3647 9.9242C22.5778 9.73597 22.8602 12.1621 22.902 12.3085C23.0379 12.8628 23.77 12.9673 24.0419 12.4758C24.7843 11.1164 25.2654 9.20263 23.1634 8.01048C23.4249 7.62355 23.2366 5.69936 21.051 5.22878C20.2667 5.06146 19.2419 5.79348 17.9556 5.51113C12.9255 4.39217 7.70722 5.45884 8.11507 12.0994C8.20918 13.553 8.3033 15.1216 5.83533 16.1673C2.96997 17.3804 3.11637 20.549 5.13467 21.1974C5.97128 21.4693 3.21049 23.3517 4.82095 25.0249C5.65755 25.9033 7.15298 24.1255 8.66932 25.0876C10.9595 26.5412 12.0994 25.8824 12.5491 25.3072C13.4693 24.136 12.3294 21.783 12.3294 21.783C12.3294 21.783 12.7791 21.0615 12.9255 20.6745C13.6366 18.7713 11.9425 17.9137 11.9425 17.9137C9.32814 16.9098 9.79873 13.9922 11.0745 13.8249C12.4131 13.6575 12.8314 14.8497 12.9046 15.1425C12.9046 15.1425 14.0863 16.7739 16.366 13.051C18.6249 9.33858 19.8484 9.61048 20.8419 10.1438Z" fill="black"/>
<path d="M18.2693 16.4706C18.2693 16.4706 17.2863 17.0876 16.1778 17.0771C15.0693 17.0667 14.9333 16.1987 14.9229 15.7281C14.9229 15.7281 15.0693 16.4078 15.7385 16.6588C16.3974 16.9098 18.2693 16.4706 18.2693 16.4706Z" fill="black"/>
<path d="M21.4274 16.3555C21.4274 16.3555 21.6679 16.6483 21.9921 16.8575C22.2117 17.0039 22.5045 16.847 22.5045 16.5856C22.5045 16.5856 21.898 16.617 21.4274 16.3555Z" fill="black"/>
<path d="M18.6352 13.6784C18.0705 13.6261 16.6483 13.5111 16.1045 13.4588L15.6862 13.4274C15.3411 13.4065 15.0692 13.6993 15.0065 14.034C14.9856 14.1385 14.9856 14.3163 14.9856 14.4209V14.8496C14.9856 15.1111 14.9751 15.383 15.0692 15.634C15.2365 16.2196 15.7699 16.6902 16.3973 16.617C16.4601 16.6065 16.847 16.5647 16.9202 16.5542L17.7673 16.4601C18.0391 16.4392 18.2901 16.366 18.5307 16.2196C18.8653 16.0209 19.1895 15.7176 19.1686 15.2889L19.1895 14.8706C19.2104 14.3477 19.3568 13.7307 18.6352 13.6784ZM18.6666 13.3333C19.1581 13.3751 19.4927 13.8876 19.4614 14.3581C19.4614 14.4209 19.4405 14.8183 19.43 14.8915C19.43 14.9751 19.4091 15.3516 19.3986 15.4248C19.3463 16.1359 18.5516 16.6379 17.9032 16.732C17.5686 16.7738 16.8679 16.8679 16.5333 16.9098C16.4496 16.9202 16.3346 16.9307 16.2509 16.9412C16.2091 16.9412 16.115 16.9307 16.0731 16.9307C15.1842 16.8157 14.6195 15.9059 14.6405 15.0588C14.6405 14.9229 14.6405 14.5673 14.6405 14.4209C14.6405 14.3477 14.6405 14.1595 14.6509 14.0863C14.6823 13.7202 14.881 13.3647 15.2156 13.166C15.362 13.0823 15.5398 13.0405 15.7176 13.051L16.1463 13.0928C16.6692 13.1555 18.1123 13.2915 18.6666 13.3333Z" fill="black"/>
<path d="M21.0928 13.5006C21.3229 13.4692 22.4523 13.3437 22.6614 13.3228C22.7137 13.3228 22.8497 13.3019 22.8915 13.3019C23.3412 13.2392 23.5503 13.7307 23.5922 14.0967C23.6131 14.4209 23.5922 14.7346 23.6026 15.0483C23.6026 15.2679 23.5817 15.4875 23.5294 15.6967C23.3935 16.2614 22.9961 16.8575 22.3373 16.6692C22.1804 16.6379 21.8667 16.596 21.7203 16.5647L21.5634 16.5333C21.2601 16.481 21.0092 16.2718 20.8418 16.0418C20.5281 15.6758 20.5909 15.1843 20.5595 14.745C20.5177 14.3058 20.5281 13.6261 21.0928 13.5006ZM21.1347 13.8039C20.8105 13.9503 20.8941 14.4418 20.8941 14.7346L20.915 15.362C20.9255 15.7594 21.2392 16.1568 21.6157 16.2614C21.7098 16.2823 21.9713 16.3346 22.0758 16.3555L22.3791 16.4182C23.132 16.6588 23.4248 15.613 23.4144 15.0379C23.383 14.5568 23.5294 13.9816 23.1843 13.5947C23.1007 13.5111 23.017 13.4901 22.9229 13.5111C22.8706 13.5215 22.7347 13.5424 22.6928 13.5529C22.4837 13.5947 21.3543 13.7725 21.1347 13.8039Z" fill="black"/>
<path d="M14.8078 14.4732C14.7241 14.6614 14.6509 14.6405 14.5045 14.6405L14.2013 14.63C13.8143 14.6091 13.3856 14.5778 12.9986 14.5255C12.7895 14.4941 12.5699 14.4627 12.3607 14.4104C12.2771 14.3895 12.2248 14.3059 12.2457 14.2222C12.2666 14.149 12.3294 14.0967 12.4026 14.1072L13.0091 14.1385L13.6156 14.1595C13.8143 14.1699 14.3267 14.1804 14.5254 14.1908C14.63 14.1908 14.7241 14.2013 14.8287 14.1699C14.8705 14.1595 14.9124 14.1804 14.9228 14.2222C14.9333 14.2431 14.9228 14.2536 14.9228 14.2745L14.8078 14.4732Z" fill="black"/>
<path d="M19.2626 14.2535C19.6391 14.0444 20.6326 13.7516 20.8208 14.3163C20.9045 14.4627 20.6849 14.5986 20.5908 14.4522C20.5908 14.4731 20.5385 14.4522 20.5176 14.4522C20.1202 14.4209 19.7123 14.4836 19.3149 14.515C19.1476 14.5359 19.1162 14.3163 19.2626 14.2535Z" fill="black"/>
<path d="M30.1386 8.81566C36.4863 21.0405 25.3281 34.834 12.0262 31.4666C6.05491 29.9817 1.25491 24.8052 0.261449 18.7294C-0.867963 12.6849 1.86145 6.19082 6.96472 2.77122C13.9608 -2.03924 23.6549 -0.439241 28.6641 6.44181C28.6954 6.47318 28.685 6.52547 28.6431 6.55684C28.6118 6.58821 28.5595 6.57775 28.5281 6.53592C27.8379 5.64703 27.0536 4.84181 26.1961 4.12024C24.7843 2.91762 23.132 1.97645 21.3856 1.33854C12.4967 -1.88238 2.73988 3.47187 0.794782 12.7686C-1.4013 23.1843 7.45622 32.7738 18.0183 31.3412C26.1647 30.3163 32.2196 22.7974 31.5503 14.6196C31.4039 12.6431 30.8811 10.6876 30.0131 8.88886C29.9922 8.85749 30.0131 8.81566 30.0445 8.79475C30.0758 8.77383 30.1177 8.78429 30.1386 8.81566Z" fill="black"/>
</g>
</svg>
