<svg width="24" height="24" viewBox="0 0 24 24" fill="none" xmlns="http://www.w3.org/2000/svg">
<mask id="mask0_1812_41439" style="mask-type:alpha" maskUnits="userSpaceOnUse" x="0" y="0" width="24" height="24">
<circle cx="11.9607" cy="11.9607" r="11.9607" fill="#D9D9D9"/>
</mask>
<g mask="url(#mask0_1812_41439)">
<path d="M18.5176 21.8353C18.4627 21.8745 18.3999 21.9137 18.345 21.9529C18.2823 21.9921 18.2274 22.0314 18.1647 22.0627C18.1098 22.0941 18.0627 22.1255 18.0078 22.1568C17.9999 22.1647 17.9921 22.1647 17.9843 22.1725C17.8039 22.2823 17.6156 22.3843 17.4274 22.4784C17.3725 22.5098 17.3098 22.5412 17.2548 22.5647C17.2548 22.5647 17.247 22.5725 17.2392 22.5725C17.1764 22.6039 17.1137 22.6353 17.0509 22.6666C16.9254 22.7294 16.7921 22.7843 16.6666 22.8392C16.6039 22.8706 16.5333 22.8941 16.4705 22.9176C16.4078 22.9412 16.3372 22.9725 16.2745 22.9961C16.2117 23.0196 16.1411 23.051 16.0784 23.0745C16.0784 23.0745 16.0784 23.0745 16.0705 23.0745C16.0078 23.098 15.9372 23.1215 15.8745 23.1451C15.7333 23.1921 15.5843 23.2392 15.4431 23.2863C15.396 23.3019 15.3411 23.3176 15.2941 23.3333C15.145 23.3804 14.996 23.4196 14.847 23.451C14.7921 23.4666 14.7372 23.4745 14.6745 23.4902C14.5333 23.5215 14.3843 23.5529 14.2431 23.5843C14.2117 23.5921 14.1882 23.5921 14.1568 23.6C14.1098 23.6078 14.0549 23.6157 14.0078 23.6235C13.9372 23.6314 13.8745 23.647 13.8039 23.6549C13.7725 23.6627 13.7411 23.6627 13.7098 23.6706C13.6705 23.6784 13.6235 23.6863 13.5764 23.6863C13.4509 23.7019 13.3176 23.7176 13.1921 23.7333C13.1529 23.7412 13.1058 23.7412 13.0666 23.749H13.0588C13.0039 23.7568 12.949 23.7568 12.8941 23.7647C12.8392 23.7725 12.7843 23.7725 12.7294 23.7725C12.698 23.7725 12.6588 23.7804 12.6274 23.7804C12.5647 23.7804 12.5098 23.7882 12.4549 23.7882C12.3764 23.7882 12.3058 23.7961 12.2274 23.7961C12.149 23.7961 12.0784 23.7961 11.9999 23.7961C11.945 23.7961 11.8901 23.7961 11.8352 23.7961C8.52544 23.749 5.55289 22.3451 3.4274 20.1176C3.4274 20.1176 3.4274 20.1098 3.41956 20.1098C3.18426 19.898 3.38818 18.7686 4.3372 18.0549C5.52936 17.1529 8.38426 16.5882 8.38426 16.5882C8.38426 16.5882 9.49014 16.4078 13.5921 17.2627C15.9921 17.7647 17.8196 18.4941 18.8392 20.4706C19.0509 20.8784 19.2627 21.5059 18.5176 21.8353Z" fill="white"/>
<path d="M13.6157 17.1765C15.1216 17.4823 16.7294 17.8118 17.9686 18.8078C18.3843 19.1451 18.6588 19.6392 18.8863 20.1176C18.9961 20.3529 19.1059 20.5961 19.1921 20.8549C19.2392 21.0274 19.3098 21.2235 19.2706 21.4274C19.2627 21.4823 19.2157 21.5529 19.1765 21.5921C18.9961 21.7725 18.8 21.8823 18.6039 22.0235C17.451 22.8235 16.1255 23.3882 14.7529 23.6863C11.6941 24.3529 8.38429 23.8353 5.6941 22.2274C4.79998 21.6863 3.97645 21.0274 3.27057 20.251C3.19214 20.1569 3.19214 20 3.19214 19.898C3.19998 19.6627 3.26273 19.4353 3.34116 19.2235C3.52939 18.7372 3.77253 18.251 4.18822 17.9137C4.48626 17.7098 4.80782 17.5372 5.13724 17.3961C6.17253 16.9569 7.26273 16.651 8.38429 16.5255C8.47841 16.5176 8.4941 16.651 8.39998 16.6667C7.32547 16.8863 6.25881 17.2157 5.26273 17.6627C4.90194 17.8431 4.51763 18 4.22743 18.2823C3.95292 18.5804 3.75684 18.949 3.59998 19.3255C3.49802 19.5529 3.42743 19.9137 3.45881 20.0941C3.95292 20.6823 4.53332 21.2 5.16077 21.647C8.59606 24.047 13.8117 24.2039 17.4666 22.2039C17.7961 22.0235 18.1176 21.8196 18.4235 21.6078C18.5725 21.5059 18.7294 21.4196 18.847 21.3019C18.8549 21.2941 18.847 21.302 18.847 21.3098C18.847 21.3176 18.8392 21.3255 18.8392 21.3255C18.847 21.2314 18.8157 21.1059 18.7765 20.9804C18.6353 20.5255 18.4078 20.047 18.1647 19.6314C17.7804 19.0118 17.1294 18.6196 16.4706 18.3059C16.0157 18.0941 15.5372 17.9294 15.051 17.7725C14.5647 17.6157 14.0706 17.4823 13.5765 17.3647C13.451 17.3333 13.4902 17.1529 13.6157 17.1765Z" fill="black"/>
<path d="M7.20776 15.1922C7.20776 15.1922 7.93718 15.0196 8.24306 14.9961L8.33718 15.851C8.33718 15.8432 7.21561 15.4118 7.20776 15.1922Z" fill="black"/>
<path d="M19.6235 26.698H1.28625C1.28625 26.698 2.45488 24.1961 2.86273 21.3725C3.14508 19.4039 3.48233 18.3451 4.52547 17.7176C5.70194 17.0118 7.59998 16.6902 8.36861 16.4863C8.36861 16.5255 8.37645 16.5569 8.37645 16.5961C8.37645 16.5961 9.22351 19.1137 11.4274 20.0078C13.2235 20.7372 14.2902 20.251 14.4549 19.4431C14.5568 18.9255 14.2353 18.0784 14.0706 17.8039C13.9765 17.7255 13.9137 17.6078 13.8823 17.4902L13.8196 17.2314C14.0157 17.1921 14.2039 17.1372 14.3843 17.0667C15.3961 17.3333 17.349 17.8431 18.5412 19.3569C18.8392 19.7333 19.7725 21.7333 19.6 25.1137C19.5372 26.8706 19.6235 26.698 19.6235 26.698Z" fill="black"/>
<path d="M5.16862 26.698L4.81567 23.7882" stroke="white" stroke-width="3" stroke-miterlimit="10" stroke-linecap="round" stroke-linejoin="round"/>
<path d="M18.8706 22.8C18.8706 22.8 18.6353 23.3725 18.7059 23.9451C18.7765 24.5176 18.9804 25.3568 18.6902 26.698" stroke="white" stroke-width="3" stroke-miterlimit="10" stroke-linecap="round" stroke-linejoin="round"/>
<path d="M10.8392 21.4667C6.50194 20.2118 5.41174 17.6628 5.41174 17.6628C5.41174 17.6628 6.0941 17.2392 6.41566 16.8C6.61174 16.5334 8.37645 16.2275 8.37645 16.2275C8.40782 16.5647 8.37645 16.2275 8.39998 16.5961C8.39998 16.5961 9.24704 19.1138 11.451 20.0079C13.247 20.7373 14.3137 20.251 14.4784 19.4432C14.5804 18.9255 14.2588 18.0785 14.0941 17.8039C14 17.7255 13.9372 17.6079 13.9059 17.4902L13.8431 17.2314C14.2902 17.1373 14.7137 16.9647 15.0823 16.7373C15.098 16.7608 15.1059 16.7843 15.1137 16.8079C15.2784 17.2079 15.7804 17.5687 15.7804 17.5687C16.8235 20.0471 15.2549 22.7451 10.8392 21.4667Z" fill="black"/>
<path d="M16.0941 17.4588C16.0941 17.4588 16.4549 17.2863 16.8157 17.3255C17.1765 17.3647 18.8941 18.753 19.0588 19.0431C19.2314 19.3333 19.2235 20.2588 19.0196 20.3765C18.8157 20.4941 18.698 20.2353 18.698 20.2353C18.698 20.2353 18.8471 19.3882 18.6824 19.2314C18.5176 19.0745 16.9255 17.7412 16.8706 17.7333C16.8157 17.7255 16.5176 17.9765 16.5176 17.9765L16.0941 17.4588Z" fill="black"/>
<path d="M6.58819 16.9804C6.58819 16.9804 5.7725 16.5647 5.46662 16.5647C5.16074 16.5647 3.38034 17.6627 3.13721 18.2353C2.89407 18.8078 3.22348 19.9608 3.22348 19.9608L3.65485 19.4667C3.65485 19.4667 3.53721 18.6039 3.6627 18.2902C3.78819 17.9765 5.2078 17.051 5.33329 17.0745C5.45878 17.0902 6.15682 17.5372 6.15682 17.5372L6.58819 16.9804Z" fill="black"/>
<path d="M8.43921 18.4941C9.19215 19.9373 10.698 21.8588 13.2157 22.7608C15.4823 23.5765 15.3412 20.8392 15.0118 19.2C12.7529 19.6941 10.4863 19.7334 8.43921 18.4941Z" fill="white"/>
<path d="M15.0118 19.2078C14.9255 18.7765 14.8235 18.4235 14.7529 18.2275C14.5961 17.8039 14.3608 17.4275 14.149 17.1451C14.0471 17.1765 13.9451 17.2 13.8431 17.2235L13.9059 17.4824C13.9373 17.6078 14 17.7176 14.0941 17.7961C14.1098 17.8275 14.1333 17.8667 14.1569 17.9137C12.3765 18.6039 10.2745 17.6941 10.2745 17.6941C9.63921 17.6627 9.68627 18.2902 9.98431 19.0353C8.8549 17.9608 8.39215 16.5961 8.39215 16.5961C8.37647 16.3608 8.36078 16.1333 8.33725 15.9059C8.33725 15.9059 7.75686 16.2275 7.85882 16.949C7.90588 17.2549 8.08627 17.8275 8.43921 18.4941C10.4863 19.7333 12.7529 19.6941 15.0118 19.2078Z" fill="white"/>
<path d="M14.9804 19.1843C14.9568 19.1451 14.949 19.1216 14.9333 19.0745C14.8392 18.7686 14.7372 18.4471 14.5961 18.1647C14.4314 17.8353 14.2196 17.5373 13.9843 17.2628L14.2039 17.3334L13.8823 17.4196L14.0392 17.1765C14.0549 17.2471 14.0941 17.4118 14.1098 17.4745C14.1333 17.5687 14.2039 17.6314 14.2588 17.702C14.251 17.7647 14.2431 17.8275 14.2274 17.8824C14.2431 17.9294 14.2274 17.9843 14.1804 18.0079C13.9529 18.1177 13.7019 18.2039 13.451 18.2588C12.5255 18.4471 11.5843 18.2353 10.698 17.9765C10.5255 17.9216 10.3686 17.8824 10.1804 17.8981L10.251 17.9137C10.2039 17.9137 10.149 17.9137 10.1019 17.9294C9.86665 18 9.97646 18.4079 10.0235 18.6039C10.0627 18.7294 10.1019 18.8549 10.1568 18.9804C10.2039 19.0824 10.149 19.2 10.047 19.2471C9.96861 19.2785 9.89018 19.2549 9.83528 19.2C9.65489 19.0196 9.48234 18.8392 9.32548 18.6432C8.84704 18.0471 8.47057 17.3961 8.19606 16.6824L8.3843 16.8157C8.2745 16.8157 8.18822 16.7294 8.18038 16.6275L8.12548 15.9451L8.42352 16.102C8.07057 16.3137 7.96861 16.753 8.08626 17.1294C8.20391 17.5686 8.39214 18.0079 8.60391 18.4157L8.52548 18.3373C10.4314 19.6157 12.8078 19.7177 14.9804 19.1843ZM15.0431 19.2236C14.7843 19.4118 14.3372 19.5686 14.0078 19.6392C13.2314 19.8118 12.4157 19.7098 11.6392 19.5843C11.3961 19.5451 11.0431 19.4981 10.7921 19.4588L10.3765 19.3726C9.81959 19.2392 9.27057 19.0588 8.73724 18.8392L8.54116 18.753L8.33724 18.6667C8.31371 18.6588 8.29018 18.6353 8.2745 18.6118C8.01567 18.1098 7.78038 17.5843 7.67057 17.0196C7.56861 16.5255 7.80391 15.9843 8.24312 15.7255C8.36861 15.6549 8.53332 15.7412 8.54116 15.8824L8.59606 16.5726C8.59606 16.5726 8.39214 16.3843 8.39999 16.3843C8.48626 16.3843 8.56469 16.4392 8.58822 16.5177C8.83136 17.1765 9.19999 17.8118 9.64704 18.3608C9.79606 18.549 9.96077 18.7137 10.1255 18.8863L9.80391 19.1059C9.64704 18.6824 9.43528 18.1412 9.71763 17.7177C9.85097 17.5451 10.0784 17.4824 10.2902 17.4902L10.3608 17.5059C10.4706 17.6471 10.6274 17.7098 10.7765 17.7569C11.5451 18.0079 12.3765 18.0549 13.1843 17.9922C13.5059 17.9608 13.8196 17.8981 14.1333 17.8196L14.0863 17.9451C14.0314 17.9216 13.9843 17.9059 13.9294 17.8981L13.9686 17.9451C13.8196 17.8196 13.7255 17.6079 13.6941 17.4196L13.6549 17.2628C13.6314 17.153 13.7019 17.0432 13.8118 17.0196L14.1019 16.949H14.1176C14.1961 16.9255 14.2823 16.9647 14.3216 17.0275C14.6353 17.5137 14.8706 18.0628 14.9725 18.6353C15.0039 18.7687 15.0196 18.9177 15.0431 19.0588C15.0353 19.1059 15.0431 19.1765 15.0431 19.2236Z" fill="black"/>
<path d="M7.20776 15.1922C7.20776 15.1922 9.14502 15.2549 10.6195 15.6471C10.7607 15.6863 10.7607 16.5961 10.7764 16.7451C10.8313 17.2785 9.71757 18.1883 9.84306 18.6667C10.0078 19.2863 14.4548 22.7687 14.494 23.1765C14.5333 23.5844 11.2705 23.4824 9.33325 21.1608C7.38816 18.8393 7.53718 18.4157 7.53718 18.4157C7.53718 18.4157 7.20776 16.1883 7.20776 15.1922Z" fill="black"/>
<path d="M15.9058 16.0314L16.4078 16.2431C16.5647 16.3059 16.6431 16.4863 16.5882 16.651C16.3607 17.3412 15.796 19.0588 15.7725 19.6549C15.7411 20.4078 14.1882 25.2471 14.1882 25.2471C14.1882 25.2471 13.2392 24 13.9372 22.7686C14.4862 21.7961 14.5176 19.7176 14.4627 19.4431C14.3921 19.0824 14.0941 18.2353 13.9294 17.702C13.8431 17.4118 13.8274 17.2314 13.8274 17.2314C13.8274 17.2314 14.9098 17.051 15.9058 16.0314Z" fill="black"/>
<path d="M10.0706 17.3176C10.1962 17.3176 10.298 17.2018 10.298 17.0588C10.298 16.9159 10.1962 16.8 10.0706 16.8C9.94497 16.8 9.84314 16.9159 9.84314 17.0588C9.84314 17.2018 9.94497 17.3176 10.0706 17.3176Z" fill="white"/>
<path d="M14.1098 22.5412C14.0471 22.9647 13.9843 23.3961 14.0157 23.8274C14.1176 24.4627 14.1569 25.098 14.2118 25.7333C14.2196 25.8902 13.9922 25.9059 13.9765 25.749C13.9529 25.1137 13.9373 24.4706 13.8588 23.8353C13.8431 23.3882 13.9216 22.949 14.0078 22.5176C14.0235 22.4627 14.1176 22.4784 14.1098 22.5412Z" fill="white"/>
<path d="M16.2823 17.8196C16.1411 18.5176 15.9842 19.2235 15.7254 19.8902C15.3332 20.7216 14.7999 21.4745 14.345 22.2588C14.3058 22.3294 14.196 22.2745 14.2274 22.2039C14.6038 21.3176 15.1529 20.5255 15.5215 19.647C15.5529 19.5529 15.7254 19.0353 15.7568 18.9333C15.8823 18.549 16.0156 18.1647 16.1646 17.7882C16.196 17.7176 16.298 17.7412 16.2823 17.8196Z" fill="black"/>
<path d="M15.2 22.4235C15.3429 22.4235 15.4588 22.3077 15.4588 22.1647C15.4588 22.0218 15.3429 21.9059 15.2 21.9059C15.057 21.9059 14.9412 22.0218 14.9412 22.1647C14.9412 22.3077 15.057 22.4235 15.2 22.4235Z" fill="white"/>
<path d="M14.3529 19.2628C14.1882 20.0706 13.1215 20.5569 11.3255 19.8275C9.45879 19.0745 8.65094 17.2784 8.44702 16.7451C9.5529 14.6745 8.78428 13.2392 8.78428 13.2392C11.3333 13.0196 13.5607 16 13.5607 16L13.9058 17.4745C13.9372 17.6 14 17.7098 14.0941 17.7882C14.2588 18.0784 14.4549 18.7451 14.3529 19.2628Z" fill="white"/>
<path d="M8.40785 16.7687C8.55686 16.5412 8.65098 16.2745 8.71373 16.0157C8.83137 15.4745 8.87059 14.9255 8.87843 14.3765V14.1726C8.8549 13.9687 8.78432 13.7569 8.70588 13.5687C8.60392 13.3177 8.97255 13.1608 9.0902 13.4118C9.10588 13.4432 9.10588 13.4981 9.10588 13.5295C9.12941 14.5961 9.17647 15.9687 8.50196 16.8549C8.4549 16.902 8.36079 16.8314 8.40785 16.7687Z" fill="black"/>
<path d="M13.6471 15.9843C13.7647 16.0549 13.8039 16.149 13.8196 16.2432C13.8667 16.4314 13.851 16.6353 13.8981 16.8314C13.9373 17.0196 14.0549 17.2 14.0863 17.3961C14.1255 17.6 14.2432 18.0314 14.2902 18.2432C14.3059 18.2902 14.2745 18.3451 14.2196 18.353C14.1883 18.3608 14.1647 18.353 14.1412 18.3373C14.0392 18.251 13.9922 18.1647 13.9294 18.0549C13.8275 17.8667 13.7569 17.6941 13.6941 17.4824C13.6392 17.2941 13.6628 17.0902 13.6157 16.8941C13.5765 16.7059 13.4667 16.5255 13.4275 16.3294C13.4039 16.2353 13.3961 16.1334 13.4667 16.0157C13.5137 15.9687 13.5922 15.953 13.6471 15.9843Z" fill="black"/>
<path d="M14.2118 18.0549C12.7138 17.9765 11.4903 17.5059 10.2981 15.3804C11.302 16.2667 12.4863 16.604 13.7334 16.7608L13.8981 17.4824C13.9295 17.6079 14.1177 17.9765 14.2118 18.0549Z" fill="black"/>
<path d="M14.1491 17.7647C14.4158 18.2667 14.5726 18.8941 14.4079 19.451C14.2824 19.8432 13.9216 20.1333 13.5295 20.2432C12.6197 20.4863 11.5687 20.102 10.7609 19.6706C9.76478 19.1137 9.02753 18.1804 8.55694 17.1608C8.52557 17.0824 8.63537 17.0196 8.68243 17.0981C8.84714 17.4275 9.03537 17.749 9.24714 18.0392C9.4589 18.3373 9.70204 18.6118 9.97655 18.8549C10.7765 19.5765 11.8589 20.0235 12.9413 20.0235C14.055 19.9922 14.4785 19.4039 14.2197 18.3216C14.1805 18.149 14.1177 17.9686 14.0314 17.8196C13.9844 17.7569 14.102 17.6863 14.1491 17.7647Z" fill="black"/>
<path d="M17.1844 8.34512C17.3255 9.00394 17.3961 9.53728 17.0118 11.2941C16.6353 13.0432 17.3647 14.8079 15.5138 16.4157C14.2667 17.4981 12.0863 17.702 10.3451 16.5177C9.7569 16.1177 9.60004 14.251 9.1373 13.5373C8.94122 13.2392 8.82357 13.7177 8.37651 13.2236C7.7569 12.549 7.0118 11.1922 7.38043 8.79218C7.97651 4.90198 11.0589 4.44708 13.3412 4.87845C15.6314 5.30982 16.8079 6.61179 17.1844 8.34512Z" fill="white"/>
<path d="M8.76083 13.9138C8.58043 13.6157 8.35298 13.3569 8.14122 13.0824C7.82749 12.6589 7.5922 12.1726 7.43534 11.6706C6.76083 9.5216 7.12161 6.72159 9.11377 5.38042C10.9569 4.13336 14.4785 4.50983 16.0942 6.01571C16.902 6.74512 17.3491 7.80395 17.4432 8.87062C17.4902 9.58434 17.3177 10.2745 17.1687 10.9647C16.9961 11.6392 16.9569 12.3138 16.9569 13.0118C16.9491 13.7098 16.9177 14.4392 16.651 15.0981C16.2432 16.102 15.3883 16.9177 14.3608 17.2628C13.0118 17.7334 11.4197 17.4667 10.3138 16.5647C10.2667 16.5255 10.3138 16.4628 10.3687 16.4863C11.8197 17.3098 13.7255 17.451 15.1373 16.502C15.9765 15.9373 16.5569 15.0432 16.6902 14.0392C16.8 13.3569 16.7687 12.6667 16.8314 11.9765C16.8549 11.6706 16.9412 11.2471 17.004 10.9412C17.0981 10.4314 17.1608 9.9216 17.153 9.41179C17.1451 8.90983 17.0353 8.41571 16.8863 7.93728C16.3687 6.23532 14.8863 5.2314 13.1765 4.95689C10.6197 4.50983 8.38436 5.45885 7.71769 8.11767C7.42749 9.41963 7.20004 10.8549 7.74906 12.1177C7.94514 12.5961 8.26671 13.0039 8.63534 13.3569L8.99612 13.7412C9.15298 13.8981 8.88632 14.102 8.76083 13.9138Z" fill="black"/>
<path d="M9.68626 11.4196C9.68626 11.4196 9.44312 10.2431 8.29802 10.3843C7.30979 10.5098 6.96469 12.8784 9.20783 13.5373" fill="white"/>
<path d="M9.1059 12.5098C8.92551 12.4079 8.80002 12.2353 8.79218 12.0236C8.80002 11.8667 8.82355 11.6863 8.78433 11.5294C8.7608 11.3804 8.60394 11.3412 8.48629 11.349C8.3608 11.3726 8.28237 11.5294 8.25884 11.6549C8.25884 11.6628 8.251 11.6863 8.251 11.6941C8.24316 11.7334 8.18041 11.7334 8.16473 11.6941C8.06276 11.3883 8.29022 11.051 8.61963 11.0902C9.08237 11.1216 9.14512 11.6079 9.05884 11.9765C9.01178 12.1334 9.07453 12.2745 9.1608 12.4079L9.17649 12.4314C9.21571 12.4785 9.15296 12.5412 9.1059 12.5098Z" fill="black"/>
<path d="M15.3803 10.5882C15.498 11.1451 15.7176 11.6628 15.9921 12.149C16.2352 12.7451 15.6078 13.3098 15.0509 13.2863C14.9882 13.2863 14.9803 13.2 15.0352 13.1843C15.3882 13.0745 15.7098 12.8392 15.7647 12.4784C15.7882 12.3686 15.7568 12.2745 15.7019 12.1804C15.4431 11.6941 15.2862 11.1373 15.3254 10.5882C15.3254 10.549 15.3803 10.549 15.3803 10.5882Z" fill="black"/>
<path d="M9.64715 11.4275C9.46676 10.9647 9.0746 10.5255 8.54911 10.5333C8.50205 10.5255 8.42362 10.5412 8.37656 10.5412C8.24323 10.549 8.13342 10.5961 8.03146 10.6902C7.5295 11.1922 7.61578 12.0784 8.02362 12.6353C8.16479 12.8314 8.34519 13.0039 8.54911 13.1451C8.75303 13.2863 8.98048 13.3961 9.22362 13.4902C9.27852 13.5059 9.25499 13.5922 9.20009 13.5843C8.6746 13.4745 8.17264 13.2157 7.82754 12.7843C7.29421 12.1412 7.1844 11.0667 7.8197 10.4392C7.96087 10.3137 8.15695 10.2196 8.35303 10.2196C8.41577 10.2196 8.50989 10.2039 8.57264 10.2196C8.90205 10.2353 9.21577 10.4 9.4197 10.6588C9.60009 10.8784 9.70205 11.1451 9.73342 11.4118C9.73342 11.4588 9.66283 11.4745 9.64715 11.4275Z" fill="black"/>
<path d="M14.7843 14.0706C14.2823 14.549 13.3333 14.1647 13.0823 13.5843C13.051 13.5137 13.1294 13.451 13.1921 13.4824C13.3255 13.5529 13.4431 13.6235 13.5686 13.6784C13.9294 13.8431 14.3059 13.9765 14.7059 13.9373C14.7843 13.9216 14.8392 14.0157 14.7843 14.0706Z" fill="black"/>
<path d="M12.4549 11.3882C12.2667 11.3804 12.1255 11.2235 12.1412 11.0353L12.149 10.8156C12.1569 10.6274 12.3138 10.4862 12.502 10.5019C12.6902 10.5098 12.8314 10.6666 12.8157 10.8549L12.8079 11.0745C12.8 11.2549 12.6432 11.396 12.4549 11.3882Z" fill="black"/>
<path d="M15.7569 11.5059C15.5843 11.4981 15.451 11.349 15.4588 11.1765L15.4667 10.9726C15.4745 10.8 15.6235 10.6667 15.7961 10.6745C15.9686 10.6824 16.102 10.8314 16.0941 11.0039L16.0863 11.2079C16.0784 11.3804 15.9294 11.5137 15.7569 11.5059Z" fill="black"/>
<path d="M13.1607 10.9647C12.9019 10.7921 12.6195 10.6745 12.3058 10.7372C12.2038 10.7529 12.1019 10.7843 12.0391 10.8549C12.0156 10.8863 11.9607 10.8784 11.9607 10.8314C11.9685 10.6745 12.1019 10.5725 12.2274 10.5098C12.4705 10.3843 12.8078 10.4078 13.0274 10.5725C13.1058 10.6196 13.3725 10.9098 13.2313 10.9725C13.1999 10.9882 13.1842 10.9804 13.1607 10.9647Z" fill="black"/>
<path d="M15.4039 11.0039C15.4039 10.6745 15.8118 10.5569 16.0628 10.6745C16.2039 10.7372 16.3059 10.8627 16.3451 11.0118C16.3608 11.0588 16.2902 11.098 16.2588 11.0588C16.1255 10.9019 15.898 10.8235 15.7177 10.9176C15.6628 10.949 15.6549 10.9725 15.6392 11.0039C15.6392 11.1608 15.4118 11.1529 15.4039 11.0039Z" fill="black"/>
<path d="M13.5372 9.67057C13.7019 9.72548 13.8666 9.57646 13.8353 9.39606C13.8196 9.30195 13.7804 9.20783 13.7019 9.13724C13.4666 8.92548 12.4941 8.73724 11.9059 9.01175C11.3882 9.26273 12.7843 9.41959 13.5372 9.67057Z" fill="black"/>
<path d="M15.8824 9.79607C15.749 9.84313 15.6078 9.70195 15.6314 9.53724C15.6392 9.45097 15.6706 9.3647 15.7333 9.30195C15.9216 9.11371 16.5647 8.9647 16.9725 9.25489C17.3255 9.49803 16.4941 9.56862 15.8824 9.79607Z" fill="black"/>
<path d="M18.5333 6.72941C18.2745 5.08235 17.1059 4.06274 15.2627 4.39216C15.0823 3.95294 14.698 3.33333 13.9059 3.21569C13.2706 3.12157 13.098 3.45098 13.0823 3.80392C12.7608 3.61569 12.3059 3.45098 11.7098 3.53725C11.2157 3.60784 11.0431 3.80392 11.0039 4.01569C10.0863 4.07843 9.11372 4.30588 8.21176 4.83137C5.88234 6.18823 6.43136 9.47451 7.16862 11.2549C7.18431 11.3255 7.20783 11.4039 7.22352 11.4745C7.00391 11.3569 6.12548 10.9804 4.92548 11.5059C3.66274 12.0627 4.32156 13.6549 5.1294 13.5373C5.1294 13.5373 3.60783 14.1255 4.17254 15.3804C4.62744 16.3922 6.00783 15.8039 6.00783 15.8039C6.00783 15.8039 5.35685 16.8471 6.31372 17.3176C7.28627 17.7961 7.78038 16.4471 7.78038 16.4471C7.78038 16.4471 8.00784 17.5529 9.00391 17.3804C10.2353 17.1686 9.60783 15.702 9.60783 15.702C9.60783 15.702 10.2745 16.1412 10.5725 15.3804C10.8314 14.7216 10.0471 14.0784 9.65489 13.8196C9.32548 13.6 9.10587 13.5373 8.95685 13.451C6.99607 12.698 7.34901 10.5098 8.30587 10.3843C9.3098 10.2588 9.62352 11.1529 9.67842 11.3725C9.84313 11.1765 9.89019 10.3922 9.98431 9.58431C13.0118 10.0392 14.8549 8.15686 15.5137 7.31765C15.7725 7.45098 16.4235 7.83529 16.8627 8.47059C17.4196 9.27843 18.4235 9.09019 18.5647 7.59216C18.5961 7.38039 18.5882 7.09804 18.5333 6.72941Z" fill="black"/>
<path d="M11.0981 12.9412C11.3177 12.8236 11.5295 12.6981 11.7726 12.6353C11.7961 12.6353 11.8118 12.6275 11.8589 12.6432C12.0236 12.7687 11.5451 13.0824 11.4589 13.1608C11.4824 13.1294 11.4746 13.0745 11.4353 13.0589C11.4275 13.0589 11.4275 13.051 11.4197 13.051C11.404 13.051 11.404 13.051 11.404 13.051C11.6 12.9804 11.7961 12.902 11.9844 12.8079C12.0942 12.7608 12.2432 12.6589 12.3608 12.651C12.4079 12.651 12.4628 12.6981 12.455 12.7451C12.4471 12.8079 12.4314 12.8314 12.4157 12.8706C12.4001 12.902 12.3687 12.949 12.3608 12.9804C12.3608 12.9883 12.353 12.9726 12.353 12.9726C12.353 12.9804 12.4 12.9804 12.4079 12.9726C12.5334 12.9569 12.6667 12.9098 12.7922 12.8628C12.8157 12.8549 12.8314 12.8863 12.8079 12.902C12.6746 12.9883 12.5334 13.0824 12.3608 13.0981C12.251 13.1059 12.1961 13.004 12.2353 12.9098C12.251 12.8549 12.2902 12.7922 12.3059 12.7451C12.3059 12.7608 12.3216 12.7843 12.3373 12.7922C12.353 12.8 12.3608 12.7922 12.353 12.8C12.2746 12.8236 12.1177 12.9098 12.0471 12.9412C11.8432 13.0353 11.6471 13.1216 11.4275 13.1843C11.4118 13.1843 11.4118 13.1922 11.3883 13.1843C11.3255 13.1765 11.3099 13.0981 11.3569 13.0589C11.451 12.9804 11.5608 12.9177 11.6471 12.8392C11.6942 12.8 11.7491 12.7451 11.7804 12.6981C11.7804 12.7059 11.7883 12.7216 11.7961 12.7294C11.7255 12.7373 11.5844 12.7765 11.4981 12.8157C11.3726 12.8628 11.2393 12.9177 11.1138 12.9726C11.0981 12.9883 11.0746 12.949 11.0981 12.9412Z" fill="black"/>
<path d="M16.1804 12.9412C16.251 12.8628 16.549 12.4863 16.6275 12.6824C16.6275 12.6981 16.6275 12.7137 16.6275 12.7216C16.5961 12.8785 16.4941 13.0118 16.4157 13.1451C16.4314 13.1059 16.4 13.051 16.3608 13.0432C16.3451 13.0432 16.3373 13.0432 16.3294 13.0432C16.3216 13.0432 16.3294 13.0432 16.3373 13.0353C16.4941 12.9334 16.6118 12.8079 16.7686 12.6981C16.8 12.6824 16.8392 12.6588 16.8784 12.6824C16.9177 12.7137 16.9098 12.7608 16.8941 12.7922C16.8784 12.8314 16.8628 12.8628 16.8471 12.902C16.8392 12.9098 16.8314 12.9177 16.8157 12.9098C16.8079 12.9098 16.8079 12.902 16.8079 12.8941C16.8079 12.8785 16.8079 12.7765 16.8079 12.7608C16.8 12.7451 16.8079 12.753 16.8079 12.7608C16.8079 12.7687 16.8235 12.7843 16.8392 12.7843C16.8471 12.7843 16.8628 12.7843 16.8628 12.7843C16.7294 12.9412 16.5726 13.0902 16.3922 13.1922C16.3373 13.2157 16.2745 13.1687 16.2824 13.1059C16.2824 13.0981 16.2902 13.0824 16.2981 13.0745C16.353 12.9961 16.4157 12.9177 16.4628 12.8392C16.4863 12.8 16.5177 12.7451 16.5255 12.7059C16.5255 12.7216 16.5569 12.7451 16.5647 12.7373C16.4392 12.7843 16.3294 12.8863 16.2196 12.9647C16.1883 12.9883 16.1647 12.9569 16.1804 12.9412Z" fill="black"/>
<path d="M22.6039 6.61176C27.3647 15.7804 18.9961 26.1255 9.01959 23.6C4.54115 22.4863 0.941154 18.6039 0.196056 14.0471C-0.651003 9.51372 1.39606 4.64313 5.22351 2.07843C10.4706 -1.52942 17.7412 -0.329415 21.498 4.83137C21.5215 4.8549 21.5137 4.89411 21.4823 4.91764C21.4588 4.94117 21.4196 4.93333 21.3961 4.90196C20.8784 4.23529 20.2902 3.63137 19.647 3.09019C18.5882 2.18823 17.349 1.48235 16.0392 1.00392C9.37253 -1.41177 2.05488 2.60392 0.596056 9.57647C-1.051 17.3882 5.59213 24.5804 13.5137 23.5059C19.6235 22.7373 24.1647 17.098 23.6627 10.9647C23.5529 9.48235 23.1608 8.01568 22.5098 6.66666C22.4941 6.64313 22.5098 6.61176 22.5333 6.59608C22.5568 6.58039 22.5882 6.58823 22.6039 6.61176Z" fill="black"/>
</g>
</svg>
