<svg width="48" height="48" viewBox="0 0 48 48" fill="none" xmlns="http://www.w3.org/2000/svg">
<mask id="mask0_1812_39370" style="mask-type:alpha" maskUnits="userSpaceOnUse" x="0" y="0" width="48" height="48">
<circle cx="23.9213" cy="23.9213" r="23.9213" fill="#D9D9D9"/>
</mask>
<g mask="url(#mask0_1812_39370)">
<path d="M37.0354 43.6705C36.9256 43.749 36.8001 43.8274 36.6903 43.9058C36.5648 43.9843 36.455 44.0627 36.3296 44.1254C36.2197 44.1882 36.1256 44.2509 36.0158 44.3137C36.0001 44.3294 35.9845 44.3294 35.9688 44.3451C35.608 44.5647 35.2315 44.7686 34.855 44.9568C34.7452 45.0196 34.6197 45.0823 34.5099 45.1294C34.5099 45.1294 34.4943 45.1451 34.4786 45.1451C34.3531 45.2078 34.2276 45.2705 34.1021 45.3333C33.8511 45.4588 33.5845 45.5686 33.3335 45.6784C33.208 45.7411 33.0668 45.7882 32.9413 45.8353C32.8158 45.8823 32.6747 45.9451 32.5492 45.9921C32.4237 46.0392 32.2825 46.1019 32.157 46.149C32.157 46.149 32.157 46.149 32.1413 46.149C32.0158 46.196 31.8746 46.2431 31.7492 46.2902C31.4668 46.3843 31.1688 46.4784 30.8864 46.5725C30.7923 46.6039 30.6825 46.6353 30.5884 46.6666C30.2903 46.7607 29.9923 46.8392 29.6943 46.9019C29.5845 46.9333 29.4747 46.949 29.3492 46.9803C29.0668 47.0431 28.7688 47.1058 28.4864 47.1686C28.4237 47.1843 28.3766 47.1843 28.3139 47.2C28.2197 47.2156 28.1099 47.2313 28.0158 47.247C27.8747 47.2627 27.7492 47.2941 27.608 47.3098C27.5452 47.3254 27.4825 47.3254 27.4197 47.3411C27.3413 47.3568 27.2472 47.3725 27.1531 47.3725C26.9021 47.4039 26.6354 47.4353 26.3845 47.4666C26.306 47.4823 26.2119 47.4823 26.1335 47.498H26.1178C26.008 47.5137 25.8982 47.5137 25.7884 47.5294C25.6786 47.5451 25.5688 47.5451 25.459 47.5451C25.3962 47.5451 25.3178 47.5607 25.255 47.5607C25.1296 47.5607 25.0197 47.5764 24.9099 47.5764C24.7531 47.5764 24.6119 47.5921 24.455 47.5921C24.2982 47.5921 24.157 47.5921 24.0001 47.5921C23.8903 47.5921 23.7805 47.5921 23.6707 47.5921C17.0511 47.498 11.106 44.6902 6.85504 40.2353C6.85504 40.2353 6.85504 40.2196 6.83936 40.2196C6.36877 39.796 6.77661 37.5372 8.67465 36.1098C11.059 34.3058 16.7688 33.1764 16.7688 33.1764C16.7688 33.1764 18.9805 32.8156 27.1845 34.5254C31.9845 35.5294 35.6394 36.9882 37.6786 40.9411C38.1021 41.7568 38.5256 43.0117 37.0354 43.6705Z" fill="white"/>
<path d="M27.2315 34.3529C30.2432 34.9647 33.4589 35.6235 35.9373 37.6157C36.7687 38.2902 37.3177 39.2784 37.7726 40.2353C37.9922 40.7059 38.2118 41.1921 38.3844 41.7098C38.4785 42.0549 38.6197 42.447 38.5413 42.8549C38.5256 42.9647 38.4315 43.1059 38.353 43.1843C37.9922 43.5451 37.6001 43.7647 37.2079 44.047C34.902 45.647 32.2511 46.7764 29.506 47.3725C23.3883 48.7059 16.7687 47.6706 11.3883 44.4549C9.60009 43.3725 7.95303 42.0549 6.54126 40.5019C6.3844 40.3137 6.3844 40 6.3844 39.7961C6.40009 39.3255 6.52558 38.8706 6.68244 38.447C7.05891 37.4745 7.54518 36.5019 8.37656 35.8274C8.97263 35.4196 9.61577 35.0745 10.2746 34.7921C12.3452 33.9137 14.5256 33.3019 16.7687 33.051C16.9569 33.0353 16.9883 33.3019 16.8001 33.3333C14.6511 33.7725 12.5177 34.4313 10.5256 35.3255C9.80401 35.6863 9.03538 36 8.45499 36.5647C7.90597 37.1608 7.51381 37.898 7.20009 38.651C6.99616 39.1059 6.85499 39.8274 6.91773 40.1882C7.90597 41.3647 9.06675 42.4 10.3217 43.2941C17.1922 48.0941 27.6236 48.4078 34.9334 44.4078C35.5922 44.047 36.2354 43.6392 36.8471 43.2157C37.1452 43.0117 37.4589 42.8392 37.6942 42.6039C37.7099 42.5882 37.6942 42.6039 37.6942 42.6196C37.6942 42.6353 37.6785 42.651 37.6785 42.651C37.6942 42.4627 37.6315 42.2117 37.553 41.9608C37.2707 41.051 36.8158 40.0941 36.3295 39.2627C35.5609 38.0235 34.2589 37.2392 32.9413 36.6117C32.0315 36.1882 31.0746 35.8588 30.102 35.5451C29.1295 35.2314 28.1413 34.9647 27.153 34.7294C26.902 34.6666 26.9805 34.3059 27.2315 34.3529Z" fill="black"/>
<path d="M14.4158 30.3843C14.4158 30.3843 15.8746 30.0392 16.4864 29.9921L16.6746 31.7019C16.6746 31.6862 14.4315 30.8235 14.4158 30.3843Z" fill="black"/>
<path d="M39.2471 53.3961H2.57263C2.57263 53.3961 4.90989 48.3921 5.72557 42.7451C6.29028 38.8078 6.96479 36.6902 9.05106 35.4353C11.404 34.0235 15.2001 33.3804 16.7373 32.9725C16.7373 33.051 16.753 33.1137 16.753 33.1921C16.753 33.1921 18.4471 38.2274 22.855 40.0157C26.4471 41.4745 28.5805 40.5019 28.9099 38.8863C29.1138 37.851 28.4707 36.1568 28.1413 35.6078C27.953 35.451 27.8275 35.2157 27.7648 34.9804L27.6393 34.4627C28.0315 34.3843 28.4079 34.2745 28.7687 34.1333C30.7922 34.6667 34.6981 35.6863 37.0824 38.7137C37.6785 39.4667 39.5452 43.4667 39.2001 50.2274C39.0746 53.7412 39.2471 53.3961 39.2471 53.3961Z" fill="black"/>
<path d="M10.3374 53.3961L9.63147 47.5765" stroke="white" stroke-width="3" stroke-miterlimit="10" stroke-linecap="round" stroke-linejoin="round"/>
<path d="M37.7413 45.6C37.7413 45.6 37.2707 46.7451 37.4119 47.8902C37.553 49.0353 37.9609 50.7137 37.3805 53.396" stroke="white" stroke-width="3" stroke-miterlimit="10" stroke-linecap="round" stroke-linejoin="round"/>
<path d="M21.6785 42.9333C13.004 40.4235 10.8236 35.3255 10.8236 35.3255C10.8236 35.3255 12.1883 34.4784 12.8315 33.6C13.2236 33.0667 16.753 32.4549 16.753 32.4549C16.8158 33.1294 16.753 32.4549 16.8001 33.1922C16.8001 33.1922 18.4942 38.2274 22.902 40.0157C26.4942 41.4745 28.6275 40.502 28.9569 38.8863C29.1609 37.851 28.5177 36.1569 28.1883 35.6078C28.0001 35.451 27.8746 35.2157 27.8118 34.9804L27.6864 34.4627C28.5805 34.2745 29.4275 33.9294 30.1648 33.4745C30.1962 33.5216 30.2118 33.5686 30.2275 33.6157C30.5569 34.4157 31.5609 35.1372 31.5609 35.1372C33.6471 40.0941 30.5099 45.4902 21.6785 42.9333Z" fill="black"/>
<path d="M32.1884 34.9176C32.1884 34.9176 32.9099 34.5725 33.6315 34.6509C34.3531 34.7294 37.7884 37.5058 38.1178 38.0862C38.4629 38.6666 38.4472 40.5176 38.0393 40.7529C37.6315 40.9882 37.3962 40.4705 37.3962 40.4705C37.3962 40.4705 37.6942 38.7764 37.3648 38.4627C37.0354 38.149 33.8511 35.4823 33.7413 35.4666C33.6315 35.4509 33.0354 35.9529 33.0354 35.9529L32.1884 34.9176Z" fill="black"/>
<path d="M13.1765 33.9608C13.1765 33.9608 11.5451 33.1294 10.9334 33.1294C10.3216 33.1294 6.76081 35.3255 6.27454 36.4706C5.78826 37.6157 6.44709 39.9216 6.44709 39.9216L7.30983 38.9333C7.30983 38.9333 7.07454 37.2078 7.32552 36.5804C7.5765 35.9529 10.4157 34.1019 10.6667 34.149C10.9177 34.1804 12.3138 35.0745 12.3138 35.0745L13.1765 33.9608Z" fill="black"/>
<path d="M16.8785 36.9882C18.3844 39.8745 21.3962 43.7176 26.4315 45.5216C30.9648 47.1529 30.6825 41.6784 30.0236 38.4C25.506 39.3882 20.9727 39.4667 16.8785 36.9882Z" fill="white"/>
<path d="M30.0235 38.4157C29.851 37.5529 29.647 36.8471 29.5059 36.4549C29.1921 35.6078 28.7216 34.8549 28.298 34.2902C28.0941 34.3529 27.8902 34.4 27.6863 34.4471L27.8118 34.9647C27.8745 35.2157 28 35.4353 28.1882 35.5922C28.2196 35.6549 28.2667 35.7333 28.3137 35.8275C24.7529 37.2078 20.549 35.3882 20.549 35.3882C19.2784 35.3255 19.3725 36.5804 19.9686 38.0706C17.7098 35.9216 16.7843 33.1922 16.7843 33.1922C16.7529 32.7216 16.7216 32.2667 16.6745 31.8118C16.6745 31.8118 15.5137 32.4549 15.7176 33.898C15.8118 34.5098 16.1725 35.6549 16.8784 36.9882C20.9725 39.4667 25.5059 39.3882 30.0235 38.4157Z" fill="white"/>
<path d="M29.9608 38.3686C29.9137 38.2902 29.898 38.2431 29.8666 38.149C29.6784 37.5372 29.4745 36.8941 29.1921 36.3294C28.8627 35.6706 28.4392 35.0745 27.9686 34.5255L28.4078 34.6667L27.7647 34.8392L28.0784 34.3529C28.1098 34.4941 28.1882 34.8235 28.2196 34.949C28.2666 35.1372 28.4078 35.2627 28.5176 35.4039C28.5019 35.5294 28.4862 35.6549 28.4549 35.7647C28.4862 35.8588 28.4549 35.9686 28.3608 36.0157C27.9059 36.2353 27.4039 36.4078 26.9019 36.5176C25.051 36.8941 23.1686 36.4706 21.396 35.9529C21.051 35.8431 20.7372 35.7647 20.3608 35.7961L20.5019 35.8274C20.4078 35.8274 20.298 35.8274 20.2039 35.8588C19.7333 36 19.9529 36.8157 20.047 37.2078C20.1255 37.4588 20.2039 37.7098 20.3137 37.9608C20.4078 38.1647 20.298 38.4 20.0941 38.4941C19.9372 38.5568 19.7804 38.5098 19.6706 38.4C19.3098 38.0392 18.9647 37.6784 18.651 37.2863C17.6941 36.0941 16.9411 34.7921 16.3921 33.3647L16.7686 33.6314C16.549 33.6314 16.3764 33.4588 16.3608 33.2549L16.251 31.8902L16.847 32.2039C16.1411 32.6274 15.9372 33.5059 16.1725 34.2588C16.4078 35.1372 16.7843 36.0157 17.2078 36.8314L17.051 36.6745C20.8627 39.2314 25.6157 39.4353 29.9608 38.3686ZM30.0862 38.447C29.5686 38.8235 28.6745 39.1372 28.0157 39.2784C26.4627 39.6235 24.8313 39.4196 23.2784 39.1686C22.7921 39.0902 22.0862 38.9961 21.5843 38.9176L20.7529 38.7451C19.6392 38.4784 18.5411 38.1176 17.4745 37.6784L17.0823 37.5059L16.6745 37.3333C16.6274 37.3176 16.5804 37.2706 16.549 37.2235C16.0313 36.2196 15.5608 35.1686 15.3411 34.0392C15.1372 33.051 15.6078 31.9686 16.4862 31.451C16.7372 31.3098 17.0666 31.4823 17.0823 31.7647L17.1921 33.1451C17.1921 33.1451 16.7843 32.7686 16.8 32.7686C16.9725 32.7686 17.1294 32.8784 17.1764 33.0353C17.6627 34.3529 18.4 35.6235 19.2941 36.7216C19.5921 37.098 19.9215 37.4274 20.251 37.7725L19.6078 38.2117C19.2941 37.3647 18.8706 36.2823 19.4353 35.4353C19.7019 35.0902 20.1568 34.9647 20.5804 34.9804L20.7215 35.0117C20.9411 35.2941 21.2549 35.4196 21.5529 35.5137C23.0902 36.0157 24.7529 36.1098 26.3686 35.9843C27.0117 35.9216 27.6392 35.7961 28.2666 35.6392L28.1725 35.8902C28.0627 35.8431 27.9686 35.8117 27.8588 35.7961L27.9372 35.8902C27.6392 35.6392 27.451 35.2157 27.3882 34.8392L27.3098 34.5255C27.2627 34.3059 27.4039 34.0863 27.6235 34.0392L28.2039 33.898H28.2353C28.3921 33.851 28.5647 33.9294 28.6431 34.0549C29.2706 35.0274 29.7411 36.1255 29.9451 37.2706C30.0078 37.5372 30.0392 37.8353 30.0862 38.1176C30.0706 38.2117 30.0862 38.3529 30.0862 38.447Z" fill="black"/>
<path d="M14.4158 30.3843C14.4158 30.3843 18.2903 30.5098 21.2393 31.2941C21.5217 31.3725 21.5217 33.1921 21.553 33.4902C21.6628 34.5568 19.4354 36.3764 19.6864 37.3333C20.0158 38.5725 28.9099 45.5372 28.9883 46.3529C29.0668 47.1686 22.5413 46.9647 18.6668 42.3215C14.7766 37.6784 15.0746 36.8313 15.0746 36.8313C15.0746 36.8313 14.4158 32.3764 14.4158 30.3843Z" fill="black"/>
<path d="M31.8118 32.0627L32.8157 32.4863C33.1294 32.6118 33.2863 32.9725 33.1765 33.302C32.7216 34.6824 31.5922 38.1176 31.5451 39.3098C31.4824 40.8157 28.3765 50.4941 28.3765 50.4941C28.3765 50.4941 26.4785 48 27.8745 45.5373C28.9726 43.5922 29.0353 39.4353 28.9255 38.8863C28.7843 38.1647 28.1883 36.4706 27.8589 35.4039C27.6863 34.8235 27.6549 34.4627 27.6549 34.4627C27.6549 34.4627 29.8196 34.102 31.8118 32.0627Z" fill="black"/>
<path d="M20.1412 34.6353C20.3924 34.6353 20.5961 34.4035 20.5961 34.1176C20.5961 33.8317 20.3924 33.6 20.1412 33.6C19.8899 33.6 19.6863 33.8317 19.6863 34.1176C19.6863 34.4035 19.8899 34.6353 20.1412 34.6353Z" fill="white"/>
<path d="M28.2197 45.0823C28.0942 45.9294 27.9688 46.7921 28.0315 47.6549C28.2354 48.9255 28.3138 50.1961 28.4237 51.4666C28.4393 51.7804 27.9844 51.8117 27.9531 51.498C27.906 50.2274 27.8746 48.9412 27.7178 47.6706C27.6864 46.7764 27.8433 45.898 28.0158 45.0353C28.0472 44.9255 28.2354 44.9568 28.2197 45.0823Z" fill="white"/>
<path d="M32.5648 35.6392C32.2824 37.0353 31.9687 38.447 31.4511 39.7804C30.6667 41.4431 29.6001 42.949 28.6903 44.5176C28.6118 44.6588 28.3922 44.549 28.455 44.4078C29.2079 42.6353 30.306 41.0509 31.0432 39.2941C31.106 39.1058 31.4511 38.0706 31.5138 37.8666C31.7648 37.098 32.0314 36.3294 32.3295 35.5764C32.3922 35.4353 32.5962 35.4823 32.5648 35.6392Z" fill="black"/>
<path d="M30.4 44.8471C30.6859 44.8471 30.9176 44.6153 30.9176 44.3294C30.9176 44.0435 30.6859 43.8118 30.4 43.8118C30.1141 43.8118 29.8823 44.0435 29.8823 44.3294C29.8823 44.6153 30.1141 44.8471 30.4 44.8471Z" fill="white"/>
<path d="M28.7058 38.5255C28.3764 40.1412 26.2431 41.1137 22.6509 39.6549C18.9176 38.149 17.3019 34.5569 16.894 33.4902C19.1058 29.349 17.5686 26.4785 17.5686 26.4785C22.6666 26.0392 27.1215 32 27.1215 32L27.8117 34.949C27.8744 35.2 27.9999 35.4196 28.1882 35.5765C28.5176 36.1569 28.9097 37.4902 28.7058 38.5255Z" fill="white"/>
<path d="M16.8157 33.5373C17.1137 33.0824 17.302 32.549 17.4275 32.0314C17.6627 30.949 17.7412 29.851 17.7569 28.753V28.3451C17.7098 27.9373 17.5686 27.5137 17.4118 27.1373C17.2078 26.6353 17.9451 26.3216 18.1804 26.8235C18.2118 26.8863 18.2118 26.9961 18.2118 27.0588C18.2588 29.1922 18.3529 31.9373 17.0039 33.7098C16.9098 33.8039 16.7216 33.6628 16.8157 33.5373Z" fill="black"/>
<path d="M27.294 31.9687C27.5293 32.1099 27.6078 32.2981 27.6391 32.4863C27.7333 32.8628 27.7019 33.2706 27.796 33.6628C27.8744 34.0393 28.1097 34.4001 28.1725 34.7922C28.2509 35.2001 28.4862 36.0628 28.5803 36.4863C28.6117 36.5804 28.5489 36.6902 28.4391 36.7059C28.3764 36.7216 28.3293 36.7059 28.2823 36.6746C28.0784 36.502 27.9842 36.3295 27.8587 36.1099C27.6548 35.7334 27.5136 35.3883 27.3882 34.9648C27.2784 34.5883 27.3254 34.1804 27.2313 33.7883C27.1529 33.4118 26.9333 33.051 26.8548 32.6589C26.8078 32.4706 26.7921 32.2667 26.9333 32.0314C27.0274 31.9373 27.1842 31.9059 27.294 31.9687Z" fill="black"/>
<path d="M28.4235 36.1098C25.4274 35.953 22.9804 35.0118 20.5961 30.7608C22.6039 32.5334 24.9725 33.2079 27.4667 33.5216L27.7961 34.9647C27.8588 35.2157 28.2353 35.953 28.4235 36.1098Z" fill="black"/>
<path d="M28.2981 35.5294C28.8314 36.5334 29.1451 37.7883 28.8157 38.902C28.5647 39.6863 27.8432 40.2667 27.0589 40.4863C25.2392 40.9726 23.1373 40.204 21.5216 39.3412C19.5294 38.2275 18.0549 36.3608 17.1138 34.3216C17.051 34.1647 17.2706 34.0392 17.3647 34.1961C17.6942 34.8549 18.0706 35.4981 18.4942 36.0785C18.9177 36.6745 19.404 37.2236 19.953 37.7098C21.553 39.153 23.7177 40.0471 25.8824 40.0471C28.1098 39.9843 28.9569 38.8079 28.4392 36.6432C28.3608 36.2981 28.2353 35.9373 28.0628 35.6392C27.9687 35.5138 28.204 35.3726 28.2981 35.5294Z" fill="black"/>
<path d="M34.3686 16.6902C34.6509 18.0078 34.7921 19.0745 34.0235 22.5882C33.2705 26.0863 34.7294 29.6157 31.0274 32.8314C28.5333 34.9961 24.1725 35.4039 20.6902 33.0353C19.5137 32.2353 19.2 28.5019 18.2745 27.0745C17.8823 26.4784 17.647 27.4353 16.7529 26.447C15.5137 25.098 14.0235 22.3843 14.7607 17.5843C15.9529 9.8039 22.1176 8.8941 26.6823 9.75684C31.2627 10.6196 33.6156 13.2235 34.3686 16.6902Z" fill="white"/>
<path d="M17.5215 27.8274C17.1607 27.2314 16.7058 26.7137 16.2823 26.1647C15.6549 25.3176 15.1843 24.3451 14.8706 23.3412C13.5215 19.0431 14.2431 13.4431 18.2274 10.7608C21.9137 8.26666 28.9568 9.0196 32.1882 12.0314C33.8039 13.4902 34.698 15.6078 34.8862 17.7412C34.9804 19.1686 34.6353 20.549 34.3372 21.9294C33.9921 23.2784 33.9137 24.6274 33.9137 26.0235C33.898 27.4196 33.8353 28.8784 33.3019 30.1961C32.4862 32.2039 30.7764 33.8353 28.7215 34.5255C26.0235 35.4667 22.8392 34.9333 20.6274 33.1294C20.5333 33.051 20.6274 32.9255 20.7372 32.9725C23.6392 34.6196 27.4509 34.902 30.2745 33.0039C31.9529 31.8745 33.1137 30.0863 33.3804 28.0784C33.6 26.7137 33.5372 25.3333 33.6627 23.9529C33.7098 23.3412 33.8823 22.4941 34.0078 21.8823C34.196 20.8627 34.3215 19.8431 34.3058 18.8235C34.2902 17.8196 34.0706 16.8314 33.7725 15.8745C32.7372 12.4706 29.7725 10.4627 26.3529 9.91372C21.2392 9.0196 16.7686 10.9176 15.4353 16.2353C14.8549 18.8392 14.4 21.7098 15.498 24.2353C15.8902 25.1921 16.5333 26.0078 17.2706 26.7137L17.9921 27.4823C18.3058 27.7961 17.7725 28.2039 17.5215 27.8274Z" fill="black"/>
<path d="M19.3724 22.8392C19.3724 22.8392 18.8861 20.4862 16.5959 20.7686C14.6195 21.0196 13.9293 25.7568 18.4155 27.0745" fill="white"/>
<path d="M18.2117 25.0196C17.8509 24.8157 17.5999 24.4706 17.5842 24.047C17.5999 23.7333 17.647 23.3725 17.5685 23.0588C17.5215 22.7608 17.2078 22.6823 16.9725 22.698C16.7215 22.7451 16.5646 23.0588 16.5176 23.3098C16.5176 23.3255 16.5019 23.3725 16.5019 23.3882C16.4862 23.4667 16.3607 23.4667 16.3293 23.3882C16.1254 22.7765 16.5803 22.1019 17.2391 22.1804C18.1646 22.2431 18.2901 23.2157 18.1176 23.9529C18.0234 24.2667 18.1489 24.549 18.3215 24.8157L18.3529 24.8627C18.4313 24.9569 18.3058 25.0823 18.2117 25.0196Z" fill="black"/>
<path d="M30.7607 21.1764C30.996 22.2902 31.4352 23.3255 31.9842 24.298C32.4705 25.4902 31.2156 26.6196 30.1019 26.5725C29.9764 26.5725 29.9607 26.4 30.0705 26.3686C30.7764 26.149 31.4195 25.6784 31.5293 24.9568C31.5764 24.7372 31.5136 24.549 31.4038 24.3608C30.8862 23.3882 30.5725 22.2745 30.6509 21.1764C30.6509 21.098 30.7607 21.098 30.7607 21.1764Z" fill="black"/>
<path d="M19.2941 22.8549C18.9333 21.9294 18.149 21.051 17.098 21.0667C17.0039 21.051 16.847 21.0824 16.7529 21.0824C16.4862 21.0981 16.2666 21.1922 16.0627 21.3804C15.0588 22.3843 15.2313 24.1569 16.047 25.2706C16.3293 25.6628 16.6901 26.0079 17.098 26.2902C17.5058 26.5726 17.9607 26.7922 18.447 26.9804C18.5568 27.0118 18.5097 27.1843 18.3999 27.1686C17.349 26.949 16.345 26.4314 15.6548 25.5686C14.5882 24.2824 14.3686 22.1334 15.6391 20.8785C15.9215 20.6275 16.3137 20.4392 16.7058 20.4392C16.8313 20.4392 17.0195 20.4079 17.145 20.4392C17.8039 20.4706 18.4313 20.8 18.8391 21.3177C19.1999 21.7569 19.4039 22.2902 19.4666 22.8235C19.4666 22.9177 19.3254 22.949 19.2941 22.8549Z" fill="black"/>
<path d="M29.5686 28.1412C28.5647 29.098 26.6666 28.3294 26.1647 27.1686C26.1019 27.0275 26.2588 26.902 26.3843 26.9647C26.6509 27.1059 26.8862 27.2471 27.1372 27.3569C27.8588 27.6863 28.6117 27.953 29.4117 27.8745C29.5686 27.8431 29.6784 28.0314 29.5686 28.1412Z" fill="black"/>
<path d="M24.9099 22.7765C24.5334 22.7608 24.251 22.4471 24.2824 22.0706L24.2981 21.6314C24.3138 21.2549 24.6275 20.9726 25.004 21.004C25.3804 21.0197 25.6628 21.3334 25.6314 21.7098L25.6157 22.1491C25.6001 22.5098 25.2863 22.7922 24.9099 22.7765Z" fill="black"/>
<path d="M31.5137 23.0118C31.1686 22.9961 30.902 22.6981 30.9177 22.353L30.9333 21.9451C30.949 21.6 31.2471 21.3334 31.5922 21.349C31.9373 21.3647 32.2039 21.6628 32.1882 22.0079L32.1726 22.4157C32.1569 22.7608 31.8588 23.0275 31.5137 23.0118Z" fill="black"/>
<path d="M26.3216 21.9294C25.804 21.5843 25.2393 21.349 24.6118 21.4745C24.4079 21.5059 24.204 21.5686 24.0785 21.7098C24.0314 21.7726 23.9216 21.7569 23.9216 21.6628C23.9373 21.349 24.204 21.1451 24.455 21.0196C24.9412 20.7686 25.6157 20.8157 26.055 21.1451C26.2118 21.2392 26.7452 21.8196 26.4628 21.9451C26.4001 21.9765 26.3687 21.9608 26.3216 21.9294Z" fill="black"/>
<path d="M30.8079 22.0079C30.8079 21.3491 31.6235 21.1138 32.1255 21.3491C32.4079 21.4745 32.6118 21.7255 32.6902 22.0236C32.7216 22.1177 32.5804 22.1961 32.5177 22.1177C32.251 21.804 31.7961 21.6471 31.4353 21.8353C31.3255 21.8981 31.3098 21.9451 31.2784 22.0079C31.2784 22.3216 30.8235 22.3059 30.8079 22.0079Z" fill="black"/>
<path d="M27.0746 19.3412C27.404 19.451 27.7334 19.153 27.6706 18.7922C27.6393 18.604 27.5608 18.4157 27.404 18.2745C26.9334 17.851 24.9883 17.4745 23.8118 18.0236C22.7765 18.5255 25.5687 18.8392 27.0746 19.3412Z" fill="black"/>
<path d="M31.7648 19.5922C31.4982 19.6863 31.2158 19.404 31.2629 19.0745C31.2786 18.902 31.3413 18.7295 31.4668 18.604C31.8433 18.2275 33.1295 17.9295 33.9452 18.5098C34.6511 18.9961 32.9884 19.1373 31.7648 19.5922Z" fill="black"/>
<path d="M37.0666 13.4588C36.549 10.1647 34.2117 8.12549 30.5255 8.78431C30.1647 7.90588 29.3961 6.66666 27.8117 6.43137C26.5412 6.24314 26.1961 6.90196 26.1647 7.60784C25.5216 7.23137 24.6117 6.90196 23.4196 7.07451C22.4314 7.21568 22.0863 7.60784 22.0078 8.03137C20.1725 8.15686 18.2274 8.61176 16.4235 9.66274C11.7647 12.3765 12.8627 18.949 14.3372 22.5098C14.3686 22.651 14.4157 22.8078 14.447 22.949C14.0078 22.7137 12.251 21.9608 9.85096 23.0118C7.32547 24.1255 8.64312 27.3098 10.2588 27.0745C10.2588 27.0745 7.21567 28.251 8.34508 30.7608C9.25489 32.7843 12.0157 31.6078 12.0157 31.6078C12.0157 31.6078 10.7137 33.6941 12.6274 34.6353C14.5725 35.5922 15.5608 32.8941 15.5608 32.8941C15.5608 32.8941 16.0157 35.1059 18.0078 34.7608C20.4706 34.3373 19.2157 31.4039 19.2157 31.4039C19.2157 31.4039 20.549 32.2824 21.1451 30.7608C21.6627 29.4431 20.0941 28.1569 19.3098 27.6392C18.651 27.2 18.2117 27.0745 17.9137 26.902C13.9921 25.3961 14.698 21.0196 16.6117 20.7686C18.6196 20.5176 19.247 22.3059 19.3568 22.7451C19.6863 22.3529 19.7804 20.7843 19.9686 19.1686C26.0235 20.0784 29.7098 16.3137 31.0274 14.6353C31.5451 14.902 32.847 15.6706 33.7255 16.9412C34.8392 18.5569 36.847 18.1804 37.1294 15.1843C37.1921 14.7608 37.1765 14.1961 37.0666 13.4588Z" fill="black"/>
<path d="M22.1961 25.8823C22.6353 25.6471 23.0588 25.3961 23.5451 25.2706C23.5921 25.2706 23.6235 25.2549 23.7176 25.2863C24.047 25.5373 23.0902 26.1647 22.9176 26.3216C22.9647 26.2588 22.949 26.149 22.8706 26.1176C22.8549 26.1176 22.8549 26.102 22.8392 26.102C22.8078 26.102 22.8078 26.102 22.8078 26.102C23.2 25.9608 23.5921 25.8039 23.9686 25.6157C24.1882 25.5216 24.4863 25.3176 24.7215 25.302C24.8157 25.302 24.9255 25.3961 24.9098 25.4902C24.8941 25.6157 24.8627 25.6627 24.8314 25.7412C24.8 25.8039 24.7372 25.898 24.7215 25.9608C24.7215 25.9765 24.7059 25.9451 24.7059 25.9451C24.7059 25.9608 24.8 25.9608 24.8157 25.9451C25.0666 25.9137 25.3333 25.8196 25.5843 25.7255C25.6314 25.7098 25.6627 25.7725 25.6157 25.8039C25.349 25.9765 25.0666 26.1647 24.7215 26.1961C24.5019 26.2118 24.3921 26.0078 24.4706 25.8196C24.5019 25.7098 24.5804 25.5843 24.6117 25.4902C24.6117 25.5216 24.6431 25.5686 24.6745 25.5843C24.7059 25.6 24.7215 25.5843 24.7059 25.6C24.549 25.6471 24.2353 25.8196 24.0941 25.8823C23.6863 26.0706 23.2941 26.2431 22.8549 26.3686C22.8235 26.3686 22.8235 26.3843 22.7764 26.3686C22.651 26.3529 22.6196 26.1961 22.7137 26.1176C22.9019 25.9608 23.1215 25.8353 23.2941 25.6784C23.3882 25.6 23.498 25.4902 23.5608 25.3961C23.5608 25.4118 23.5764 25.4431 23.5921 25.4588C23.451 25.4745 23.1686 25.5529 22.9961 25.6314C22.7451 25.7255 22.4784 25.8353 22.2274 25.9451C22.1961 25.9765 22.149 25.898 22.1961 25.8823Z" fill="black"/>
<path d="M32.3608 25.8823C32.502 25.7255 33.0981 24.9725 33.2549 25.3647C33.2549 25.3961 33.2549 25.4274 33.2549 25.4431C33.1922 25.7569 32.9883 26.0235 32.8314 26.2902C32.8628 26.2118 32.8 26.1019 32.7216 26.0863C32.6902 26.0863 32.6745 26.0863 32.6589 26.0863C32.6432 26.0863 32.6589 26.0863 32.6745 26.0706C32.9883 25.8667 33.2236 25.6157 33.5373 25.3961C33.6 25.3647 33.6785 25.3176 33.7569 25.3647C33.8353 25.4274 33.8196 25.5216 33.7883 25.5843C33.7569 25.6627 33.7255 25.7255 33.6942 25.8039C33.6785 25.8196 33.6628 25.8353 33.6314 25.8196C33.6157 25.8196 33.6157 25.8039 33.6157 25.7882C33.6157 25.7568 33.6157 25.5529 33.6157 25.5216C33.6 25.4902 33.6157 25.5059 33.6157 25.5216C33.6157 25.5372 33.6471 25.5686 33.6785 25.5686C33.6942 25.5686 33.7255 25.5686 33.7255 25.5686C33.4589 25.8823 33.1451 26.1804 32.7843 26.3843C32.6745 26.4314 32.5491 26.3372 32.5647 26.2118C32.5647 26.1961 32.5804 26.1647 32.5961 26.149C32.7059 25.9921 32.8314 25.8353 32.9255 25.6784C32.9726 25.6 33.0353 25.4902 33.051 25.4118C33.051 25.4431 33.1138 25.4902 33.1294 25.4745C32.8785 25.5686 32.6589 25.7725 32.4392 25.9294C32.3765 25.9765 32.3294 25.9137 32.3608 25.8823Z" fill="black"/>
<path d="M45.2078 13.2235C54.7294 31.5608 37.9921 52.251 18.0392 47.2C9.08231 44.9725 1.88231 37.2078 0.392112 28.0941C-1.30201 19.0274 2.79211 9.28627 10.447 4.15686C20.9411 -3.05883 35.4823 -0.658831 42.996 9.66274C43.0431 9.7098 43.0274 9.78823 42.9647 9.83529C42.9176 9.88235 42.8392 9.86666 42.7921 9.80392C41.7568 8.47058 40.5803 7.26274 39.2941 6.18039C37.1764 4.37646 34.698 2.9647 32.0784 2.00784C18.7451 -2.82354 4.10976 5.20784 1.19211 19.1529C-2.10201 34.7765 11.1843 49.1608 27.0274 47.0118C39.247 45.4745 48.3294 34.1961 47.3254 21.9294C47.1058 18.9647 46.3215 16.0314 45.0196 13.3333C44.9882 13.2863 45.0196 13.2235 45.0666 13.1922C45.1137 13.1608 45.1764 13.1765 45.2078 13.2235Z" fill="black"/>
</g>
</svg>
