<svg width="32" height="32" viewBox="0 0 32 32" fill="none" xmlns="http://www.w3.org/2000/svg">
<mask id="mask0_1812_40841" style="mask-type:alpha" maskUnits="userSpaceOnUse" x="0" y="0" width="32" height="32">
<circle cx="15.9475" cy="15.9475" r="15.9475" fill="#D9D9D9"/>
</mask>
<g mask="url(#mask0_1812_40841)">
<path d="M24.6902 29.1138C24.617 29.166 24.5333 29.2183 24.4601 29.2706C24.3764 29.3229 24.3032 29.3752 24.2196 29.417C24.1464 29.4589 24.0836 29.5007 24.0104 29.5425C24 29.553 23.9895 29.553 23.9791 29.5634C23.7385 29.7098 23.4876 29.8458 23.2366 29.9713C23.1634 30.0131 23.0797 30.0549 23.0065 30.0863C23.0065 30.0863 22.996 30.0968 22.9856 30.0968C22.9019 30.1386 22.8183 30.1804 22.7346 30.2223C22.5673 30.3059 22.3895 30.3791 22.2222 30.4523C22.1385 30.4942 22.0444 30.5255 21.9608 30.5569C21.8771 30.5883 21.783 30.6301 21.6993 30.6615C21.6157 30.6928 21.5215 30.7347 21.4379 30.766C21.4379 30.766 21.4379 30.766 21.4274 30.766C21.3438 30.7974 21.2496 30.8288 21.166 30.8602C20.9777 30.9229 20.7791 30.9857 20.5908 31.0484C20.5281 31.0693 20.4549 31.0902 20.3921 31.1111C20.1934 31.1739 19.9947 31.2262 19.796 31.268C19.7228 31.2889 19.6496 31.2994 19.566 31.3203C19.3777 31.3621 19.1791 31.404 18.9908 31.4458C18.949 31.4562 18.9176 31.4562 18.8758 31.4667C18.813 31.4772 18.7398 31.4876 18.6771 31.4981C18.583 31.5085 18.4993 31.5294 18.4052 31.5399C18.3634 31.5504 18.3215 31.5504 18.2797 31.5608C18.2274 31.5713 18.1647 31.5817 18.1019 31.5817C17.9346 31.6026 17.7568 31.6236 17.5895 31.6445C17.5372 31.6549 17.4745 31.6549 17.4222 31.6654H17.4117C17.3385 31.6758 17.2653 31.6758 17.1921 31.6863C17.1189 31.6968 17.0457 31.6968 16.9725 31.6968C16.9307 31.6968 16.8784 31.7072 16.8366 31.7072C16.7529 31.7072 16.6797 31.7177 16.6065 31.7177C16.5019 31.7177 16.4078 31.7281 16.3032 31.7281C16.1987 31.7281 16.1045 31.7281 16 31.7281C15.9268 31.7281 15.8536 31.7281 15.7804 31.7281C11.3673 31.6654 7.40389 29.7935 4.56991 26.8236C4.56991 26.8236 4.56991 26.8131 4.55945 26.8131C4.24572 26.5308 4.51762 25.0249 5.78298 24.0732C7.37252 22.8706 11.1791 22.1177 11.1791 22.1177C11.1791 22.1177 12.6536 21.8772 18.1228 23.017C21.3228 23.6863 23.7594 24.6589 25.1189 27.2942C25.4013 27.8379 25.6836 28.6745 24.6902 29.1138Z" fill="white"/>
<path d="M18.1543 22.902C20.1621 23.3098 22.3059 23.749 23.9582 25.0772C24.5124 25.5268 24.8784 26.1856 25.1817 26.8236C25.3281 27.1373 25.4745 27.4615 25.5896 27.8066C25.6523 28.0366 25.7464 28.2981 25.6941 28.57C25.6837 28.6432 25.6209 28.7373 25.5686 28.7896C25.3281 29.0301 25.0667 29.1765 24.8052 29.3647C23.268 30.4314 21.5007 31.1843 19.6706 31.5817C15.5922 32.4706 11.1791 31.7804 7.59217 29.6366C6.40002 28.9151 5.30198 28.0366 4.3608 27.0013C4.25623 26.8758 4.25623 26.6667 4.25623 26.5307C4.26668 26.217 4.35034 25.9138 4.45492 25.6314C4.7059 24.983 5.03008 24.3347 5.58433 23.885C5.98172 23.6131 6.41047 23.383 6.84969 23.1948C8.23008 22.6092 9.68368 22.2013 11.1791 22.034C11.3046 22.0236 11.3255 22.2013 11.2 22.2222C9.76734 22.5151 8.34511 22.9543 7.01701 23.5504C6.53596 23.7909 6.02355 24 5.63662 24.3765C5.2706 24.7739 5.00917 25.2654 4.80002 25.7673C4.66407 26.0706 4.56995 26.5517 4.61178 26.7922C5.2706 27.5765 6.04446 28.2667 6.88106 28.8628C11.4615 32.0628 18.4157 32.2719 23.2889 29.6053C23.7281 29.3647 24.1569 29.0928 24.5647 28.8105C24.7634 28.6745 24.9726 28.5595 25.1294 28.4026C25.1399 28.3922 25.1294 28.4026 25.1294 28.4131C25.1294 28.4236 25.119 28.434 25.119 28.434C25.1294 28.3085 25.0876 28.1412 25.0353 27.9739C24.8471 27.3673 24.5438 26.7294 24.2196 26.1752C23.7072 25.349 22.8392 24.8262 21.9608 24.4079C21.3543 24.1255 20.7164 23.9059 20.068 23.6968C19.4196 23.4876 18.7608 23.3098 18.102 23.153C17.9347 23.1111 17.9869 22.8706 18.1543 22.902Z" fill="black"/>
<path d="M9.61047 20.2562C9.61047 20.2562 10.583 20.0261 10.9909 19.9948L11.1164 21.1346C11.1164 21.1242 9.62093 20.549 9.61047 20.2562Z" fill="black"/>
<path d="M26.1648 35.5974H1.71509C1.71509 35.5974 3.27326 32.2614 3.81705 28.4967C4.19352 25.8719 4.64319 24.4601 6.03404 23.6235C7.60267 22.6823 10.1334 22.2536 11.1582 21.9817C11.1582 22.034 11.1687 22.0758 11.1687 22.1281C11.1687 22.1281 12.2981 25.485 15.2367 26.6771C17.6314 27.6497 19.0537 27.0013 19.2733 25.9242C19.4092 25.234 18.9804 24.1046 18.7608 23.7386C18.6353 23.634 18.5517 23.4771 18.5099 23.3203L18.4262 22.9752C18.6876 22.9229 18.9386 22.8497 19.1791 22.7555C20.5282 23.1111 23.1321 23.7908 24.7216 25.8091C25.119 26.3111 26.3635 28.9778 26.1334 33.485C26.0497 35.8274 26.1648 35.5974 26.1648 35.5974Z" fill="black"/>
<path d="M6.89161 35.5974L6.42102 31.7177" stroke="white" stroke-width="3" stroke-miterlimit="10" stroke-linecap="round" stroke-linejoin="round"/>
<path d="M25.1609 30.4C25.1609 30.4 24.8472 31.1634 24.9413 31.9268C25.0354 32.6902 25.3073 33.8091 24.9204 35.5973" stroke="white" stroke-width="3" stroke-miterlimit="10" stroke-linecap="round" stroke-linejoin="round"/>
<path d="M14.4523 28.6222C8.66929 26.949 7.2157 23.5503 7.2157 23.5503C7.2157 23.5503 8.1255 22.9856 8.55426 22.4C8.8157 22.0444 11.1686 21.6366 11.1686 21.6366C11.2105 22.0863 11.1686 21.6366 11.2 22.1281C11.2 22.1281 12.3294 25.485 15.268 26.6771C17.6628 27.6497 19.085 27.0013 19.3046 25.9242C19.4405 25.234 19.0118 24.1046 18.7922 23.7386C18.6667 23.634 18.583 23.4771 18.5412 23.3203L18.4575 22.9752C19.0536 22.8497 19.6183 22.6196 20.1098 22.3163C20.1307 22.3477 20.1412 22.3791 20.1516 22.4105C20.3713 22.9438 21.0405 23.4248 21.0405 23.4248C22.4314 26.7294 20.3399 30.3268 14.4523 28.6222Z" fill="black"/>
<path d="M21.4589 23.2784C21.4589 23.2784 21.9399 23.0483 22.421 23.1006C22.902 23.1529 25.1922 25.0039 25.4118 25.3908C25.6419 25.7778 25.6314 27.0117 25.3595 27.1686C25.0876 27.3255 24.9308 26.9804 24.9308 26.9804C24.9308 26.9804 25.1294 25.851 24.9098 25.6418C24.6902 25.4327 22.5674 23.6549 22.4942 23.6444C22.421 23.634 22.0236 23.9686 22.0236 23.9686L21.4589 23.2784Z" fill="black"/>
<path d="M8.78433 22.6405C8.78433 22.6405 7.69675 22.0862 7.28891 22.0862C6.88106 22.0862 4.50721 23.5503 4.18302 24.3137C3.85884 25.0771 4.29806 26.6143 4.29806 26.6143L4.87322 25.9555C4.87322 25.9555 4.71636 24.8052 4.88368 24.3869C5.051 23.9686 6.94381 22.7346 7.11113 22.766C7.27845 22.7869 8.20917 23.383 8.20917 23.383L8.78433 22.6405Z" fill="black"/>
<path d="M11.2523 24.6588C12.2562 26.583 14.2641 29.1451 17.6209 30.3477C20.6432 31.4353 20.4549 27.7856 20.0157 25.6C17.004 26.2588 13.9817 26.3111 11.2523 24.6588Z" fill="white"/>
<path d="M20.0158 25.6104C19.9008 25.0353 19.7648 24.5647 19.6707 24.3032C19.4616 23.7385 19.1478 23.2366 18.8655 22.8601C18.7295 22.9019 18.5936 22.9333 18.4576 22.9647L18.5413 23.3098C18.5831 23.4771 18.6668 23.6235 18.7923 23.7281C18.8132 23.7699 18.8446 23.8222 18.8759 23.8849C16.5021 24.8052 13.6995 23.5921 13.6995 23.5921C12.8524 23.5503 12.9151 24.3869 13.3125 25.3804C11.8067 23.9477 11.1897 22.1281 11.1897 22.1281C11.1687 21.8144 11.1478 21.5111 11.1165 21.2078C11.1165 21.2078 10.3426 21.6366 10.4785 22.5987C10.5413 23.0065 10.7818 23.7699 11.2524 24.6588C13.9818 26.3111 17.004 26.2588 20.0158 25.6104Z" fill="white"/>
<path d="M19.9739 25.5791C19.9425 25.5268 19.9321 25.4954 19.9112 25.4326C19.7857 25.0248 19.6497 24.596 19.4615 24.2196C19.2419 23.7804 18.9595 23.383 18.6458 23.017L18.9386 23.1111L18.5099 23.2261L18.719 22.9019C18.7399 22.996 18.7922 23.2157 18.8131 23.2993C18.8445 23.4248 18.9386 23.5085 19.0118 23.6026C19.0014 23.6862 18.9909 23.7699 18.97 23.8431C18.9909 23.9059 18.97 23.9791 18.9073 24.0104C18.604 24.1568 18.2693 24.2719 17.9347 24.3451C16.7007 24.596 15.4458 24.3137 14.2641 23.9686C14.034 23.8954 13.8249 23.8431 13.5739 23.864L13.668 23.8849C13.6053 23.8849 13.5321 23.8849 13.4693 23.9059C13.1556 24 13.302 24.5438 13.3648 24.8052C13.4171 24.9725 13.4693 25.1398 13.5425 25.3072C13.6053 25.4431 13.5321 25.6 13.3961 25.6627C13.2916 25.7045 13.187 25.6732 13.1138 25.6C12.8733 25.3594 12.6432 25.1189 12.434 24.8575C11.7961 24.0627 11.2942 23.1947 10.9282 22.2431L11.1791 22.4209C11.0327 22.4209 10.9177 22.3059 10.9073 22.1699L10.834 21.2601L11.2314 21.4693C10.7608 21.7516 10.6249 22.3372 10.7818 22.8392C10.9386 23.4248 11.1896 24.0104 11.472 24.5542L11.3674 24.4496C13.9086 26.1542 17.0772 26.2902 19.9739 25.5791ZM20.0576 25.6313C19.7125 25.8823 19.1164 26.0915 18.6772 26.1856C17.6419 26.4157 16.5543 26.2797 15.519 26.1124C15.1948 26.0601 14.7242 25.9974 14.3896 25.9451L13.8354 25.83C13.0929 25.6523 12.3608 25.4117 11.6497 25.1189L11.3883 25.0039L11.1164 24.8889C11.085 24.8784 11.0537 24.847 11.0327 24.8157C10.6876 24.1464 10.3739 23.4457 10.2275 22.6928C10.0916 22.034 10.4053 21.3124 10.9909 20.9673C11.1582 20.8732 11.3778 20.9882 11.3883 21.1764L11.4615 22.0967C11.4615 22.0967 11.1896 21.8457 11.2001 21.8457C11.3151 21.8457 11.4197 21.9189 11.451 22.0235C11.7752 22.9019 12.2667 23.749 12.8628 24.481C13.0615 24.732 13.2811 24.9516 13.5007 25.1817L13.072 25.4745C12.8628 24.9098 12.5805 24.1882 12.9569 23.6235C13.1347 23.3934 13.438 23.3098 13.7203 23.3202L13.8144 23.3411C13.9608 23.5294 14.17 23.613 14.3687 23.6758C15.3935 24.0104 16.502 24.0732 17.5791 23.9895C18.0079 23.9477 18.4262 23.864 18.8445 23.7594L18.7818 23.9268C18.7086 23.8954 18.6458 23.8745 18.5726 23.864L18.6249 23.9268C18.4262 23.7594 18.3007 23.4771 18.2589 23.2261L18.2066 23.017C18.1752 22.8706 18.2693 22.7242 18.4157 22.6928L18.8027 22.5987H18.8236C18.9282 22.5673 19.0432 22.6196 19.0955 22.7032C19.5138 23.3516 19.8275 24.0836 19.9635 24.847C20.0053 25.0248 20.0262 25.2235 20.0576 25.4117C20.0471 25.4745 20.0576 25.5686 20.0576 25.6313Z" fill="black"/>
<path d="M9.61047 20.2562C9.61047 20.2562 12.1935 20.3398 14.1595 20.8627C14.3477 20.915 14.3477 22.1281 14.3686 22.3268C14.4418 23.0379 12.9569 24.2509 13.1242 24.8888C13.3438 25.715 19.2732 30.3581 19.3255 30.9019C19.3778 31.4457 15.0275 31.3098 12.4445 28.2143C9.851 25.1189 10.0497 24.5542 10.0497 24.5542C10.0497 24.5542 9.61047 21.5843 9.61047 20.2562Z" fill="black"/>
<path d="M21.2079 21.3751L21.8772 21.6575C22.0863 21.7411 22.1909 21.9817 22.1177 22.2013C21.8144 23.1215 21.0615 25.4117 21.0301 26.2065C20.9883 27.2104 18.9177 33.6627 18.9177 33.6627C18.9177 33.6627 17.6524 32 18.5831 30.3581C19.3151 29.0614 19.3569 26.2902 19.2837 25.9241C19.1896 25.4431 18.7922 24.3137 18.5726 23.6026C18.4576 23.2156 18.4367 22.9751 18.4367 22.9751C18.4367 22.9751 19.8798 22.7346 21.2079 21.3751Z" fill="black"/>
<path d="M13.4274 23.0902C13.5949 23.0902 13.7307 22.9357 13.7307 22.7451C13.7307 22.5545 13.5949 22.4 13.4274 22.4C13.2599 22.4 13.1241 22.5545 13.1241 22.7451C13.1241 22.9357 13.2599 23.0902 13.4274 23.0902Z" fill="white"/>
<path d="M18.8132 30.0549C18.7295 30.6196 18.6458 31.1948 18.6877 31.7699C18.8236 32.617 18.8759 33.464 18.9491 34.3111C18.9596 34.5202 18.6563 34.5412 18.6354 34.332C18.604 33.485 18.5831 32.6274 18.4785 31.7804C18.4576 31.1843 18.5622 30.5987 18.6772 30.0235C18.6981 29.9503 18.8236 29.9712 18.8132 30.0549Z" fill="white"/>
<path d="M21.7098 23.7594C21.5216 24.6901 21.3124 25.6313 20.9673 26.5202C20.4445 27.6287 19.7333 28.6326 19.1268 29.6784C19.0745 29.7725 18.9281 29.6993 18.9699 29.6052C19.4719 28.4235 20.2039 27.3673 20.6954 26.196C20.7373 26.0705 20.9673 25.3803 21.0092 25.2444C21.1765 24.732 21.3543 24.2195 21.5529 23.7176C21.5948 23.6235 21.7307 23.6548 21.7098 23.7594Z" fill="black"/>
<path d="M20.2667 29.898C20.4573 29.898 20.6118 29.7435 20.6118 29.5529C20.6118 29.3623 20.4573 29.2078 20.2667 29.2078C20.0761 29.2078 19.9216 29.3623 19.9216 29.5529C19.9216 29.7435 20.0761 29.898 20.2667 29.898Z" fill="white"/>
<path d="M19.1371 25.6836C18.9175 26.7608 17.4953 27.4091 15.1005 26.4366C12.6116 25.4327 11.5345 23.0379 11.2626 22.3268C12.7371 19.566 11.7122 17.6523 11.7122 17.6523C15.1109 17.3595 18.0809 21.3333 18.0809 21.3333L18.541 23.2993C18.5828 23.4666 18.6665 23.613 18.792 23.7176C19.0116 24.1046 19.273 24.9934 19.1371 25.6836Z" fill="white"/>
<path d="M11.2103 22.3582C11.409 22.0549 11.5345 21.6993 11.6182 21.3542C11.775 20.6327 11.8273 19.9006 11.8378 19.1686V18.8967C11.8064 18.6248 11.7123 18.3425 11.6077 18.0915C11.4718 17.7569 11.9633 17.5477 12.1201 17.8823C12.1411 17.9242 12.1411 17.9974 12.1411 18.0392C12.1724 19.4614 12.2352 21.2915 11.3358 22.4732C11.2731 22.5359 11.1476 22.4418 11.2103 22.3582Z" fill="black"/>
<path d="M18.1959 21.3124C18.3528 21.4065 18.4051 21.532 18.426 21.6575C18.4888 21.9085 18.4678 22.1804 18.5306 22.4418C18.5829 22.6928 18.7397 22.9333 18.7816 23.1948C18.8339 23.4667 18.9907 24.0418 19.0535 24.3242C19.0744 24.3869 19.0325 24.4601 18.9593 24.4706C18.9175 24.481 18.8861 24.4706 18.8548 24.4497C18.7188 24.3346 18.6561 24.2196 18.5724 24.0732C18.4365 23.8222 18.3424 23.5921 18.2587 23.3098C18.1855 23.0588 18.2169 22.7869 18.1541 22.5255C18.1018 22.2745 17.9554 22.034 17.9031 21.7725C17.8718 21.6471 17.8613 21.5111 17.9554 21.3542C18.0182 21.2915 18.1227 21.2706 18.1959 21.3124Z" fill="black"/>
<path d="M18.9489 24.0732C16.9515 23.9686 15.3201 23.3411 13.7306 20.5071C15.0692 21.6888 16.6482 22.1385 18.311 22.3477L18.5306 23.3098C18.5724 23.4771 18.8234 23.9686 18.9489 24.0732Z" fill="black"/>
<path d="M18.8652 23.6863C19.2208 24.3556 19.4299 25.1922 19.2103 25.9346C19.043 26.4575 18.562 26.8444 18.0391 26.9909C16.826 27.315 15.4247 26.8026 14.3476 26.2275C13.0195 25.485 12.0365 24.2405 11.409 22.881C11.3672 22.7765 11.5136 22.6928 11.5763 22.7974C11.7959 23.2366 12.0469 23.6654 12.3293 24.0523C12.6116 24.4497 12.9358 24.8157 13.3018 25.1399C14.3685 26.102 15.8116 26.698 17.2548 26.698C18.7397 26.6562 19.3044 25.8719 18.9593 24.4288C18.907 24.1987 18.8234 23.9582 18.7084 23.7595C18.6456 23.6758 18.8025 23.5817 18.8652 23.6863Z" fill="black"/>
<path d="M22.9124 11.1268C23.1006 12.0052 23.1947 12.7163 22.6823 15.0588C22.1804 17.3908 23.1529 19.7438 20.6849 21.8876C19.0222 23.3307 16.115 23.6026 13.7934 22.0235C13.0091 21.4902 12.8 19.0013 12.183 18.0497C11.9215 17.6523 11.7647 18.2902 11.1686 17.6314C10.3425 16.732 9.34899 14.9229 9.84049 11.7229C10.6353 6.53593 14.7451 5.9294 17.7882 6.50456C20.8418 7.07972 22.4104 8.81567 22.9124 11.1268Z" fill="white"/>
<path d="M11.681 18.5516C11.4405 18.1542 11.1372 17.8091 10.8548 17.4431C10.4365 16.8784 10.1228 16.2301 9.91366 15.5608C9.01431 12.6954 9.49536 8.96209 12.1516 7.17385C14.6091 5.5111 19.3045 6.01307 21.4588 8.02091C22.5359 8.99346 23.132 10.4052 23.2575 11.8274C23.3202 12.7791 23.0901 13.6993 22.8914 14.6196C22.6614 15.519 22.6091 16.4183 22.6091 17.349C22.5986 18.2797 22.5568 19.2523 22.2012 20.1307C21.6575 21.4693 20.5176 22.5569 19.1476 23.017C17.349 23.6444 15.2261 23.2889 13.7516 22.0863C13.6888 22.034 13.7516 21.9503 13.8248 21.9817C15.7594 23.0797 18.3006 23.268 20.1829 22.0026C21.3019 21.2497 22.0758 20.0575 22.2535 18.719C22.3999 17.8091 22.3581 16.8889 22.4418 15.9686C22.4731 15.5608 22.5882 14.9961 22.6718 14.5882C22.7973 13.9085 22.881 13.2288 22.8705 12.549C22.8601 11.8797 22.7137 11.2209 22.515 10.583C21.8248 8.31372 19.8483 6.97516 17.5686 6.60914C14.1594 6.01307 11.179 7.27843 10.2901 10.8235C9.9032 12.5595 9.59993 14.4732 10.332 16.1569C10.5934 16.7948 11.0222 17.3386 11.5137 17.8091L11.9947 18.3216C12.2039 18.5307 11.8483 18.8026 11.681 18.5516Z" fill="black"/>
<path d="M12.9149 15.2262C12.9149 15.2262 12.5907 13.6575 11.0639 13.8458C9.7463 14.0131 9.28617 17.1713 12.277 18.0497" fill="white"/>
<path d="M12.1411 16.6797C11.9006 16.5437 11.7332 16.3137 11.7228 16.0313C11.7332 15.8222 11.7646 15.5817 11.7123 15.3725C11.6809 15.1738 11.4718 15.1215 11.3149 15.132C11.1476 15.1634 11.043 15.3725 11.0117 15.5398C11.0117 15.5503 11.0012 15.5817 11.0012 15.5921C10.9908 15.6444 10.9071 15.6444 10.8862 15.5921C10.7502 15.1843 11.0535 14.7346 11.4927 14.7869C12.1097 14.8287 12.1934 15.4771 12.0783 15.9686C12.0156 16.1777 12.0993 16.366 12.2143 16.5437L12.2352 16.5751C12.2875 16.6379 12.2038 16.7215 12.1411 16.6797Z" fill="black"/>
<path d="M20.5071 14.1176C20.664 14.8601 20.9568 15.5503 21.3228 16.1987C21.647 16.9935 20.8104 17.7464 20.0679 17.715C19.9843 17.715 19.9738 17.6 20.047 17.5791C20.5176 17.4327 20.9463 17.119 21.0195 16.6379C21.0509 16.4915 21.0091 16.366 20.9359 16.2405C20.5908 15.5922 20.3816 14.8497 20.4339 14.1176C20.4339 14.0654 20.5071 14.0654 20.5071 14.1176Z" fill="black"/>
<path d="M12.8627 15.2366C12.6222 14.6196 12.0993 14.034 11.3987 14.0444C11.3359 14.034 11.2314 14.0549 11.1686 14.0549C10.9908 14.0653 10.8444 14.1281 10.7085 14.2536C10.0392 14.9228 10.1542 16.1045 10.698 16.847C10.8863 17.1085 11.1268 17.3385 11.3987 17.5268C11.6706 17.715 11.9739 17.8614 12.298 17.9869C12.3712 18.0078 12.3399 18.1228 12.2667 18.1124C11.566 17.966 10.8967 17.6209 10.4366 17.0457C9.72549 16.1882 9.57908 14.7555 10.4261 13.9189C10.6144 13.7516 10.8758 13.6261 11.1373 13.6261C11.2209 13.6261 11.3464 13.6052 11.4301 13.6261C11.8693 13.647 12.2876 13.8666 12.5595 14.2117C12.8 14.5045 12.9359 14.8601 12.9778 15.2157C12.9778 15.2784 12.8837 15.2993 12.8627 15.2366Z" fill="black"/>
<path d="M19.7124 18.7608C19.0431 19.3987 17.7778 18.8863 17.4431 18.1124C17.4013 18.0183 17.5059 17.9346 17.5895 17.9765C17.7673 18.0706 17.9242 18.1647 18.0915 18.2379C18.5725 18.4575 19.0745 18.6353 19.6078 18.583C19.7124 18.5621 19.7856 18.6876 19.7124 18.7608Z" fill="black"/>
<path d="M16.6067 15.1843C16.3557 15.1739 16.1674 14.9647 16.1884 14.7137L16.1988 14.4209C16.2093 14.1699 16.4184 13.9817 16.6694 14.0026C16.9204 14.0131 17.1086 14.2222 17.0877 14.4732L17.0772 14.766C17.0668 15.0065 16.8576 15.1948 16.6067 15.1843Z" fill="black"/>
<path d="M21.0092 15.3412C20.7791 15.3307 20.6013 15.132 20.6118 14.902L20.6222 14.6301C20.6327 14.4 20.8314 14.2222 21.0614 14.2327C21.2915 14.2431 21.4693 14.4418 21.4588 14.6719L21.4484 14.9438C21.4379 15.1739 21.2392 15.3516 21.0092 15.3412Z" fill="black"/>
<path d="M17.5478 14.6196C17.2027 14.3896 16.8262 14.2327 16.4079 14.3164C16.2719 14.3373 16.136 14.3791 16.0523 14.4732C16.021 14.515 15.9478 14.5046 15.9478 14.4418C15.9582 14.2327 16.136 14.0967 16.3033 14.0131C16.6275 13.8458 17.0772 13.8771 17.37 14.0967C17.4746 14.1595 17.8301 14.5464 17.6419 14.6301C17.6 14.651 17.5791 14.6405 17.5478 14.6196Z" fill="black"/>
<path d="M20.5387 14.6719C20.5387 14.2327 21.0825 14.0758 21.4171 14.2327C21.6054 14.3163 21.7413 14.4836 21.7936 14.6823C21.8145 14.7451 21.7204 14.7974 21.6786 14.7451C21.5008 14.5359 21.1975 14.4314 20.957 14.5568C20.8838 14.5987 20.8733 14.63 20.8524 14.6719C20.8524 14.881 20.5492 14.8706 20.5387 14.6719Z" fill="black"/>
<path d="M18.0498 12.8941C18.2694 12.9673 18.489 12.7686 18.4471 12.5281C18.4262 12.4026 18.3739 12.2771 18.2694 12.183C17.9556 11.9007 16.6589 11.6497 15.8746 12.0157C15.1844 12.3503 17.0458 12.5595 18.0498 12.8941Z" fill="black"/>
<path d="M21.1766 13.0614C20.9988 13.1242 20.8106 12.936 20.842 12.7163C20.8524 12.6013 20.8942 12.4863 20.9779 12.4026C21.2289 12.1516 22.0864 11.9529 22.6302 12.3399C23.1008 12.6641 21.9923 12.7582 21.1766 13.0614Z" fill="black"/>
<path d="M24.7111 8.97255C24.366 6.77647 22.8079 5.41699 20.3504 5.85621C20.1098 5.27059 19.5974 4.44444 18.5412 4.28758C17.6941 4.16209 17.4641 4.60131 17.4432 5.07189C17.0144 4.82091 16.4079 4.60131 15.6131 4.71634C14.9543 4.81046 14.7242 5.07189 14.6719 5.35425C13.4484 5.43791 12.1517 5.74117 10.949 6.44183C7.84317 8.25098 8.57519 12.6327 9.5582 15.0065C9.57911 15.1007 9.61049 15.2052 9.6314 15.2993C9.33859 15.1425 8.16735 14.6405 6.56735 15.3412C4.88369 16.0837 5.76212 18.2065 6.83925 18.0497C6.83925 18.0497 4.81049 18.834 5.56343 20.5072C6.16996 21.8562 8.01049 21.0719 8.01049 21.0719C8.01049 21.0719 7.14251 22.4627 8.41833 23.0902C9.71506 23.7281 10.3739 21.9294 10.3739 21.9294C10.3739 21.9294 10.6772 23.4039 12.0053 23.1739C13.6471 22.8915 12.8105 20.9359 12.8105 20.9359C12.8105 20.9359 13.6994 21.5216 14.0968 20.5072C14.4419 19.6288 13.3961 18.7712 12.8732 18.4261C12.434 18.1333 12.1412 18.0497 11.9425 17.9346C9.32813 16.9307 9.79872 14.0131 11.0745 13.8457C12.4131 13.6784 12.8314 14.8706 12.9046 15.1634C13.1242 14.902 13.187 13.8562 13.3124 12.7791C17.349 13.3856 19.8066 10.8758 20.685 9.75686C21.0301 9.93464 21.8981 10.4471 22.4837 11.2941C23.2262 12.3712 24.5647 12.1203 24.753 10.1229C24.7948 9.84052 24.7843 9.46405 24.7111 8.97255Z" fill="black"/>
<path d="M14.7973 17.2549C15.0901 17.0981 15.3725 16.9308 15.6967 16.8471C15.728 16.8471 15.749 16.8366 15.8117 16.8576C16.0313 17.0249 15.3934 17.4432 15.2784 17.5478C15.3097 17.5059 15.2993 17.4327 15.247 17.4118C15.2365 17.4118 15.2365 17.4013 15.2261 17.4013C15.2052 17.4013 15.2052 17.4013 15.2052 17.4013C15.4666 17.3072 15.728 17.2027 15.979 17.0772C16.1254 17.0144 16.3241 16.8785 16.481 16.868C16.5437 16.868 16.6169 16.9308 16.6065 16.9935C16.596 17.0772 16.5751 17.1085 16.5542 17.1608C16.5333 17.2027 16.4914 17.2654 16.481 17.3072C16.481 17.3177 16.4705 17.2968 16.4705 17.2968C16.4705 17.3072 16.5333 17.3072 16.5437 17.2968C16.7111 17.2759 16.8888 17.2131 17.0562 17.1504C17.0875 17.1399 17.1084 17.1817 17.0771 17.2027C16.8993 17.3177 16.7111 17.4432 16.481 17.4641C16.3346 17.4745 16.2614 17.3386 16.3137 17.2131C16.3346 17.1399 16.3869 17.0562 16.4078 16.9935C16.4078 17.0144 16.4287 17.0458 16.4496 17.0562C16.4705 17.0667 16.481 17.0562 16.4705 17.0667C16.366 17.0981 16.1568 17.2131 16.0627 17.2549C15.7908 17.3804 15.5294 17.4955 15.2365 17.5791C15.2156 17.5791 15.2156 17.5896 15.1843 17.5791C15.1006 17.5687 15.0797 17.4641 15.1424 17.4118C15.2679 17.3072 15.4143 17.2236 15.5294 17.119C15.5921 17.0667 15.6653 16.9935 15.7071 16.9308C15.7071 16.9412 15.7176 16.9621 15.728 16.9726C15.6339 16.983 15.4457 17.0353 15.3307 17.0876C15.1633 17.1504 14.9856 17.2236 14.8182 17.2968C14.7973 17.3177 14.766 17.2654 14.7973 17.2549Z" fill="black"/>
<path d="M21.5738 17.2549C21.6679 17.1503 22.0653 16.6484 22.1699 16.9098C22.1699 16.9307 22.1699 16.9516 22.1699 16.9621C22.128 17.1713 21.9921 17.349 21.8875 17.5268C21.9084 17.4745 21.8666 17.4013 21.8143 17.3909C21.7934 17.3909 21.7829 17.3909 21.7725 17.3909C21.762 17.3909 21.7725 17.3909 21.7829 17.3804C21.9921 17.2445 22.149 17.0771 22.3581 16.9307C22.3999 16.9098 22.4522 16.8784 22.5045 16.9098C22.5568 16.9516 22.5463 17.0144 22.5254 17.0562C22.5045 17.1085 22.4836 17.1503 22.4627 17.2026C22.4522 17.2131 22.4418 17.2235 22.4209 17.2131C22.4104 17.2131 22.4104 17.2026 22.4104 17.1922C22.4104 17.1713 22.4104 17.0353 22.4104 17.0144C22.3999 16.9935 22.4104 17.0039 22.4104 17.0144C22.4104 17.0248 22.4313 17.0458 22.4522 17.0458C22.4627 17.0458 22.4836 17.0458 22.4836 17.0458C22.3058 17.2549 22.0967 17.4536 21.8561 17.5896C21.7829 17.6209 21.6993 17.5582 21.7097 17.4745C21.7097 17.4641 21.7202 17.4431 21.7307 17.4327C21.8039 17.3281 21.8875 17.2235 21.9503 17.119C21.9816 17.0667 22.0235 16.9935 22.0339 16.9412C22.0339 16.9621 22.0758 16.9935 22.0862 16.983C21.9189 17.0458 21.7725 17.1817 21.6261 17.2863C21.5843 17.3177 21.5529 17.2758 21.5738 17.2549Z" fill="black"/>
<path d="M30.1386 8.81566C36.4863 21.0405 25.3281 34.834 12.0262 31.4666C6.05491 29.9817 1.25491 24.8052 0.261449 18.7294C-0.867963 12.6849 1.86145 6.19082 6.96472 2.77122C13.9608 -2.03924 23.6549 -0.439241 28.6641 6.44181C28.6954 6.47318 28.685 6.52547 28.6431 6.55684C28.6118 6.58821 28.5595 6.57775 28.5281 6.53592C27.8379 5.64703 27.0536 4.84181 26.1961 4.12024C24.7843 2.91762 23.132 1.97645 21.3856 1.33854C12.4967 -1.88238 2.73988 3.47187 0.794782 12.7686C-1.4013 23.1843 7.45622 32.7738 18.0183 31.3412C26.1647 30.3163 32.2196 22.7974 31.5503 14.6196C31.4039 12.6431 30.8811 10.6876 30.0131 8.88886C29.9922 8.85749 30.0131 8.81566 30.0445 8.79475C30.0758 8.77383 30.1177 8.78429 30.1386 8.81566Z" fill="black"/>
</g>
</svg>
