<svg width="48" height="48" viewBox="0 0 48 48" fill="none" xmlns="http://www.w3.org/2000/svg">
<mask id="mask0_1812_39368" style="mask-type:alpha" maskUnits="userSpaceOnUse" x="0" y="0" width="48" height="48">
<circle cx="23.9213" cy="23.9213" r="23.9213" fill="#D9D9D9"/>
</mask>
<g mask="url(#mask0_1812_39368)">
<path d="M37.0354 43.6705C36.9256 43.749 36.8001 43.8274 36.6903 43.9058C36.5648 43.9843 36.455 44.0627 36.3296 44.1254C36.2197 44.1882 36.1256 44.2509 36.0158 44.3137C36.0001 44.3294 35.9845 44.3294 35.9688 44.3451C35.608 44.5647 35.2315 44.7686 34.855 44.9568C34.7452 45.0196 34.6197 45.0823 34.5099 45.1294C34.5099 45.1294 34.4943 45.1451 34.4786 45.1451C34.3531 45.2078 34.2276 45.2705 34.1021 45.3333C33.8511 45.4588 33.5845 45.5686 33.3335 45.6784C33.208 45.7411 33.0668 45.7882 32.9413 45.8353C32.8158 45.8823 32.6747 45.9451 32.5492 45.9921C32.4237 46.0392 32.2825 46.1019 32.157 46.149C32.157 46.149 32.157 46.149 32.1413 46.149C32.0158 46.196 31.8746 46.2431 31.7492 46.2902C31.4668 46.3843 31.1688 46.4784 30.8864 46.5725C30.7923 46.6039 30.6825 46.6353 30.5884 46.6666C30.2903 46.7607 29.9923 46.8392 29.6943 46.9019C29.5845 46.9333 29.4747 46.949 29.3492 46.9803C29.0668 47.0431 28.7688 47.1058 28.4864 47.1686C28.4237 47.1843 28.3766 47.1843 28.3139 47.2C28.2197 47.2156 28.1099 47.2313 28.0158 47.247C27.8747 47.2627 27.7492 47.2941 27.608 47.3098C27.5452 47.3254 27.4825 47.3254 27.4197 47.3411C27.3413 47.3568 27.2472 47.3725 27.1531 47.3725C26.9021 47.4039 26.6354 47.4353 26.3845 47.4666C26.306 47.4823 26.2119 47.4823 26.1335 47.498H26.1178C26.008 47.5137 25.8982 47.5137 25.7884 47.5294C25.6786 47.5451 25.5688 47.5451 25.459 47.5451C25.3962 47.5451 25.3178 47.5607 25.255 47.5607C25.1296 47.5607 25.0197 47.5764 24.9099 47.5764C24.7531 47.5764 24.6119 47.5921 24.455 47.5921C24.2982 47.5921 24.157 47.5921 24.0001 47.5921C23.8903 47.5921 23.7805 47.5921 23.6707 47.5921C17.0511 47.498 11.106 44.6902 6.85504 40.2353C6.85504 40.2353 6.85504 40.2196 6.83936 40.2196C6.36877 39.796 6.77661 37.5372 8.67465 36.1098C11.059 34.3058 16.7688 33.1764 16.7688 33.1764C16.7688 33.1764 18.9805 32.8156 27.1845 34.5254C31.9845 35.5294 35.6394 36.9882 37.6786 40.9411C38.1021 41.7568 38.5256 43.0117 37.0354 43.6705Z" fill="white"/>
<path d="M27.2315 34.3529C30.2432 34.9647 33.4589 35.6235 35.9373 37.6157C36.7687 38.2902 37.3177 39.2784 37.7726 40.2353C37.9922 40.7059 38.2118 41.1921 38.3844 41.7098C38.4785 42.0549 38.6197 42.447 38.5413 42.8549C38.5256 42.9647 38.4315 43.1059 38.353 43.1843C37.9922 43.5451 37.6001 43.7647 37.2079 44.047C34.902 45.647 32.2511 46.7764 29.506 47.3725C23.3883 48.7059 16.7687 47.6706 11.3883 44.4549C9.60009 43.3725 7.95303 42.0549 6.54126 40.5019C6.3844 40.3137 6.3844 40 6.3844 39.7961C6.40009 39.3255 6.52558 38.8706 6.68244 38.447C7.05891 37.4745 7.54518 36.5019 8.37656 35.8274C8.97263 35.4196 9.61577 35.0745 10.2746 34.7921C12.3452 33.9137 14.5256 33.3019 16.7687 33.051C16.9569 33.0353 16.9883 33.3019 16.8001 33.3333C14.6511 33.7725 12.5177 34.4313 10.5256 35.3255C9.80401 35.6863 9.03538 36 8.45499 36.5647C7.90597 37.1608 7.51381 37.898 7.20009 38.651C6.99616 39.1059 6.85499 39.8274 6.91773 40.1882C7.90597 41.3647 9.06675 42.4 10.3217 43.2941C17.1922 48.0941 27.6236 48.4078 34.9334 44.4078C35.5922 44.047 36.2354 43.6392 36.8471 43.2157C37.1452 43.0117 37.4589 42.8392 37.6942 42.6039C37.7099 42.5882 37.6942 42.6039 37.6942 42.6196C37.6942 42.6353 37.6785 42.651 37.6785 42.651C37.6942 42.4627 37.6315 42.2117 37.553 41.9608C37.2707 41.051 36.8158 40.0941 36.3295 39.2627C35.5609 38.0235 34.2589 37.2392 32.9413 36.6117C32.0315 36.1882 31.0746 35.8588 30.102 35.5451C29.1295 35.2314 28.1413 34.9647 27.153 34.7294C26.902 34.6666 26.9805 34.3059 27.2315 34.3529Z" fill="black"/>
<path d="M42.2432 53.3961H2.57263C2.57263 53.3961 4.90989 48.4706 5.94518 42.8549C6.66675 38.9648 7.20008 36.6902 9.22361 35.4353C10.6511 34.5569 13.7099 33.6471 15.0275 33.1765C15.9217 32.8628 16.1099 33.1295 16.753 32.9569C16.753 33.0353 16.7687 33.0981 16.7687 33.1765C16.7687 33.1765 18.4628 38.2118 22.8707 40C26.4628 41.4589 28.5962 40.4863 28.9256 38.8706C29.1295 37.8353 28.4864 36.1412 28.1569 35.5922C27.9687 35.4353 27.8432 35.2 27.7805 34.9648L27.655 34.4471C27.953 34.3844 28.2354 34.3059 28.5177 34.2118C28.6118 34.1804 28.6903 34.1491 28.7844 34.1177C30.5883 34.5883 34.4471 36.1098 36.1569 37.6785C36.8315 38.3059 38.4315 41.4432 39.4668 45.9922C40.6589 51.153 42.2432 53.3961 42.2432 53.3961Z" fill="black"/>
<path d="M42.604 53.5843C30.7922 53.6627 14.2118 53.851 2.58829 53.8039C2.30594 53.8039 2.10202 53.4902 2.22751 53.2392C3.62359 50.1647 4.72163 46.8863 5.42751 43.5765C5.50594 43.1529 5.67849 42.3216 5.75692 41.898C6.1177 40.1725 6.40006 38.4627 7.32555 36.8784C7.63927 36.3608 8.04712 35.8745 8.53339 35.4824C9.00398 35.1059 9.553 34.8235 10.102 34.5725C11.8589 33.8196 13.6314 33.2235 15.4354 32.6745C15.8589 32.5804 16.2824 32.6902 16.6903 32.5961C16.9255 32.5333 17.1765 32.7059 17.1922 32.9569L17.2079 33.1765L16.7844 32.7843C16.9569 32.7843 17.1138 32.8941 17.1608 33.051C17.2863 33.4118 17.4589 33.7882 17.6314 34.149C18.1648 35.2314 18.8236 36.251 19.6236 37.1451C20.6746 38.3373 21.9922 39.2784 23.4981 39.8118C25.0197 40.3765 27.7334 40.8627 28.4863 39.0431C28.6118 38.7137 28.5961 38.3686 28.5491 38.0078C28.4393 37.2706 28.1883 36.4863 27.8275 35.8274L27.9059 35.9216C27.655 35.5922 27.5608 35.2 27.5922 34.8235V34.4941V34.4471C27.5922 34.4157 27.6236 34.3843 27.655 34.3843C27.8432 34.3216 28.0157 34.2431 28.204 34.1804C28.3765 34.102 28.5491 34.0235 28.7216 33.9294C28.7687 33.898 28.8157 33.9137 28.8628 33.9294C29.8981 34.1961 30.8863 34.5569 31.8746 34.9647C33.3491 35.5765 34.8079 36.2667 36.0785 37.2549C36.5334 37.5843 36.8628 38.0706 37.1295 38.5569C37.6628 39.498 38.0863 40.4706 38.4628 41.4588C39.1216 43.1843 39.6079 44.9725 40.0314 46.7765C40.5648 48.7686 41.2079 50.7451 42.1961 52.5647C42.3059 52.7529 42.4157 52.9412 42.5255 53.1294L42.5569 53.1608V53.1765C42.651 53.2549 42.6667 53.4745 42.604 53.5843ZM41.8824 53.2078C41.804 53.2863 41.8197 53.5059 41.8824 53.5843V53.5686L41.851 53.5216C40.753 51.7176 40.0628 49.6941 39.4981 47.6706C39.2157 46.6824 39.0118 45.6157 38.7295 44.6118C38.1804 42.6353 37.5059 40.6431 36.5177 38.8392C36.3452 38.5412 36.1569 38.2118 35.9216 37.9765C35.4667 37.5529 34.9334 37.2078 34.4001 36.8784C33.5216 36.3608 32.5804 35.9059 31.6236 35.5137C30.6667 35.1216 29.6942 34.7608 28.7059 34.4941L28.9412 34.4784C28.5177 34.5098 28.1099 34.5255 27.702 34.5098L27.7648 34.4157C27.8589 34.5725 27.9687 34.8392 28.0628 34.9804C28.1726 35.1216 28.2981 35.2314 28.4393 35.2941C28.4706 35.3255 28.502 35.3569 28.5177 35.3882C29.0824 36.4706 29.6471 38.0863 29.2393 39.2941C28.2981 41.6627 25.1452 41.2863 23.2157 40.549C21.6001 40 20.1412 38.949 19.0118 37.6627C17.8824 36.3765 16.9883 34.902 16.3922 33.302L16.7687 33.5686C16.5491 33.5686 16.3765 33.4118 16.3608 33.1922L16.3452 32.9882L16.8471 33.349C16.6903 33.3961 16.502 33.4118 16.3295 33.4275C15.8903 33.4118 15.5922 33.3961 15.1844 33.5529C14.651 33.7412 14.102 33.9294 13.553 34.102C12.4706 34.4627 11.404 34.8392 10.3844 35.2941C8.0628 36.2196 7.38829 38.0706 6.85496 40.3765C6.60398 41.4431 6.40006 42.651 6.18045 43.7333C5.45888 47.1216 4.36084 50.4 2.93339 53.5686L2.57261 52.9882C13.9452 52.9882 30.353 53.098 41.8824 53.2078Z" fill="black"/>
<path d="M21.5216 41.6471C16.1099 39.2157 14.0079 34.8706 14.4157 33.6941C14.4157 33.6941 14.4157 33.6785 14.4314 33.6628C14.7138 33.0824 15.1687 32.6118 15.7334 32.2824C16.0471 32.0941 16.3922 31.9216 16.6746 31.8275C20.9569 30.7608 26.6353 32.5647 28.5491 34.2118C29.2393 35.0432 29.9452 35.8745 30.2118 38.0706C30.5883 41.2392 27.1216 44.1726 21.5216 41.6471Z" fill="white"/>
<path d="M21.4432 41.8196C18.7295 40.5961 16.1883 38.6824 14.7452 36.0314C14.4628 35.4824 14.2118 34.9177 14.1334 34.2745C14.1177 34.0549 14.102 33.7883 14.2118 33.5687C14.5412 32.9098 15.1373 32.3922 15.7962 32.0785C16.2981 31.8118 16.8471 31.6236 17.3962 31.451C18.1805 31.3098 18.9648 31.2628 19.7648 31.2785C22.3844 31.3569 24.9883 32.0471 27.3099 33.2549C27.4824 33.349 27.655 33.4432 27.8275 33.553C27.8903 33.5843 27.9373 33.6314 28.0158 33.6157C28.0942 33.6 28.1569 33.6314 28.2197 33.6628C28.4079 33.7726 28.5648 33.9138 28.7373 34.0706C29.1609 34.5883 29.5844 35.1373 29.8667 35.7647C30.1491 36.3922 30.306 37.0667 30.4001 37.7255C30.6511 39.0745 30.1962 40.5804 29.1452 41.5059C27.0118 43.4196 23.8118 42.902 21.4432 41.8196ZM21.5844 41.4902C23.3413 42.2588 25.3491 42.7451 27.2158 42.149C28.7216 41.6941 29.9609 40.3294 30.0079 38.7294C30.0236 37.7883 29.804 36.8 29.4275 35.9373C29.2236 35.4039 28.6589 34.7294 28.3765 34.3843C28.204 34.2432 28.0158 34.1334 27.8589 33.9922C27.8432 33.9608 27.8275 33.9294 27.8118 33.8981C27.7805 33.8196 27.7177 33.8039 27.6707 33.7569C27.5138 33.6628 27.3412 33.5687 27.1687 33.4745C25.804 32.7687 24.2981 32.3608 22.7922 32.0628C21.0354 31.7334 19.2314 31.6392 17.4589 31.8902C17.2079 31.9216 16.9413 31.8902 16.6903 31.953C16.502 32.0314 16.1569 32.1883 15.9373 32.3451C15.3726 32.6745 14.9491 33.1608 14.6511 33.7412L14.6354 33.7569C14.6354 33.7726 14.6197 33.8039 14.6197 33.8196C14.5412 34.4785 14.855 35.153 15.153 35.7647C15.4197 36.2667 15.7334 36.753 16.0942 37.2236C17.5373 39.0902 19.4667 40.5334 21.5844 41.4902Z" fill="black"/>
<path d="M28.7058 38.5255C28.3764 40.1412 26.2431 41.1137 22.6509 39.6549C18.9176 38.149 17.3019 34.5569 16.894 33.4902C19.1058 29.349 17.5686 26.4785 17.5686 26.4785C22.6666 26.0392 27.1215 32 27.1215 32L27.8117 34.949C27.8744 35.2 27.9999 35.4196 28.1882 35.5765C28.5176 36.1569 28.9097 37.4902 28.7058 38.5255Z" fill="white"/>
<path d="M16.8157 33.5373C17.1137 33.0824 17.302 32.549 17.4275 32.0314C17.6627 30.949 17.7412 29.851 17.7569 28.753V28.3451C17.7098 27.9373 17.5686 27.5137 17.4118 27.1373C17.2078 26.6353 17.9451 26.3216 18.1804 26.8235C18.2118 26.8863 18.2118 26.9961 18.2118 27.0588C18.2588 29.1922 18.3529 31.9373 17.0039 33.7098C16.9098 33.8039 16.7216 33.6628 16.8157 33.5373Z" fill="black"/>
<path d="M27.294 31.9687C27.5293 32.1099 27.6078 32.2981 27.6391 32.4863C27.7333 32.8628 27.7019 33.2706 27.796 33.6628C27.8744 34.0393 28.1097 34.4001 28.1725 34.7922C28.2509 35.2001 28.4862 36.0628 28.5803 36.4863C28.6117 36.5804 28.5489 36.6902 28.4391 36.7059C28.3764 36.7216 28.3293 36.7059 28.2823 36.6746C28.0784 36.502 27.9842 36.3295 27.8587 36.1099C27.6548 35.7334 27.5136 35.3883 27.3882 34.9648C27.2784 34.5883 27.3254 34.1804 27.2313 33.7883C27.1529 33.4118 26.9333 33.051 26.8548 32.6589C26.8078 32.4706 26.7921 32.2667 26.9333 32.0314C27.0274 31.9373 27.1842 31.9059 27.294 31.9687Z" fill="black"/>
<path d="M28.4235 36.1098C25.4274 35.953 22.9804 35.0118 20.5961 30.7608C22.6039 32.5334 24.9725 33.2079 27.4667 33.5216L27.7961 34.9647C27.8588 35.2157 28.2353 35.953 28.4235 36.1098Z" fill="black"/>
<path d="M28.2981 35.5294C28.8314 36.5334 29.1451 37.7883 28.8157 38.902C28.5647 39.6863 27.8432 40.2667 27.0589 40.4863C25.2392 40.9726 23.1373 40.204 21.5216 39.3412C19.5294 38.2275 18.0549 36.3608 17.1138 34.3216C17.051 34.1647 17.2706 34.0392 17.3647 34.1961C17.6942 34.8549 18.0706 35.4981 18.4942 36.0785C18.9177 36.6745 19.404 37.2236 19.953 37.7098C21.553 39.153 23.7177 40.0471 25.8824 40.0471C28.1098 39.9843 28.9569 38.8079 28.4392 36.6432C28.3608 36.2981 28.2353 35.9373 28.0628 35.6392C27.9687 35.5138 28.204 35.3726 28.2981 35.5294Z" fill="black"/>
<path d="M34.3686 16.6902C34.6509 18.0078 34.7921 19.0745 34.0235 22.5882C33.2705 26.0863 34.7294 29.6157 31.0274 32.8314C28.5333 34.9961 24.1725 35.4039 20.6902 33.0353C19.5137 32.2353 19.2 28.5019 18.2745 27.0745C17.8823 26.4784 17.647 27.4353 16.7529 26.447C15.5137 25.098 14.0235 22.3843 14.7607 17.5843C15.9529 9.8039 22.1176 8.8941 26.6823 9.75684C31.2627 10.6196 33.6156 13.2235 34.3686 16.6902Z" fill="white"/>
<path d="M17.5215 27.8274C17.1607 27.2314 16.7058 26.7137 16.2823 26.1647C15.6549 25.3176 15.1843 24.3451 14.8706 23.3412C13.5215 19.0431 14.2431 13.4431 18.2274 10.7608C21.9137 8.26666 28.9568 9.0196 32.1882 12.0314C33.8039 13.4902 34.698 15.6078 34.8862 17.7412C34.9804 19.1686 34.6353 20.549 34.3372 21.9294C33.9921 23.2784 33.9137 24.6274 33.9137 26.0235C33.898 27.4196 33.8353 28.8784 33.3019 30.1961C32.4862 32.2039 30.7764 33.8353 28.7215 34.5255C26.0235 35.4667 22.8392 34.9333 20.6274 33.1294C20.5333 33.051 20.6274 32.9255 20.7372 32.9725C23.6392 34.6196 27.4509 34.902 30.2745 33.0039C31.9529 31.8745 33.1137 30.0863 33.3804 28.0784C33.6 26.7137 33.5372 25.3333 33.6627 23.9529C33.7098 23.3412 33.8823 22.4941 34.0078 21.8823C34.196 20.8627 34.3215 19.8431 34.3058 18.8235C34.2902 17.8196 34.0706 16.8314 33.7725 15.8745C32.7372 12.4706 29.7725 10.4627 26.3529 9.91372C21.2392 9.0196 16.7686 10.9176 15.4353 16.2353C14.8549 18.8392 14.4 21.7098 15.498 24.2353C15.8902 25.1921 16.5333 26.0078 17.2706 26.7137L17.9921 27.4823C18.3058 27.7961 17.7725 28.2039 17.5215 27.8274Z" fill="black"/>
<path d="M19.3724 22.8392C19.3724 22.8392 18.8861 20.4862 16.5959 20.7686C14.6195 21.0196 13.9293 25.7568 18.4155 27.0745" fill="white"/>
<path d="M18.2117 25.0196C17.8509 24.8157 17.5999 24.4706 17.5842 24.047C17.5999 23.7333 17.647 23.3725 17.5685 23.0588C17.5215 22.7608 17.2078 22.6823 16.9725 22.698C16.7215 22.7451 16.5646 23.0588 16.5176 23.3098C16.5176 23.3255 16.5019 23.3725 16.5019 23.3882C16.4862 23.4667 16.3607 23.4667 16.3293 23.3882C16.1254 22.7765 16.5803 22.1019 17.2391 22.1804C18.1646 22.2431 18.2901 23.2157 18.1176 23.9529C18.0234 24.2667 18.1489 24.549 18.3215 24.8157L18.3529 24.8627C18.4313 24.9569 18.3058 25.0823 18.2117 25.0196Z" fill="black"/>
<path d="M30.7607 21.1764C30.996 22.2902 31.4352 23.3255 31.9842 24.298C32.4705 25.4902 31.2156 26.6196 30.1019 26.5725C29.9764 26.5725 29.9607 26.4 30.0705 26.3686C30.7764 26.149 31.4195 25.6784 31.5293 24.9568C31.5764 24.7372 31.5136 24.549 31.4038 24.3608C30.8862 23.3882 30.5725 22.2745 30.6509 21.1764C30.6509 21.098 30.7607 21.098 30.7607 21.1764Z" fill="black"/>
<path d="M19.2941 22.8549C18.9333 21.9294 18.149 21.051 17.098 21.0667C17.0039 21.051 16.847 21.0824 16.7529 21.0824C16.4862 21.0981 16.2666 21.1922 16.0627 21.3804C15.0588 22.3843 15.2313 24.1569 16.047 25.2706C16.3293 25.6628 16.6901 26.0079 17.098 26.2902C17.5058 26.5726 17.9607 26.7922 18.447 26.9804C18.5568 27.0118 18.5097 27.1843 18.3999 27.1686C17.349 26.949 16.345 26.4314 15.6548 25.5686C14.5882 24.2824 14.3686 22.1334 15.6391 20.8785C15.9215 20.6275 16.3137 20.4392 16.7058 20.4392C16.8313 20.4392 17.0195 20.4079 17.145 20.4392C17.8039 20.4706 18.4313 20.8 18.8391 21.3177C19.1999 21.7569 19.4039 22.2902 19.4666 22.8235C19.4666 22.9177 19.3254 22.949 19.2941 22.8549Z" fill="black"/>
<path d="M29.5686 28.1412C28.5647 29.098 26.6666 28.3294 26.1647 27.1686C26.1019 27.0275 26.2588 26.902 26.3843 26.9647C26.6509 27.1059 26.8862 27.2471 27.1372 27.3569C27.8588 27.6863 28.6117 27.953 29.4117 27.8745C29.5686 27.8431 29.6784 28.0314 29.5686 28.1412Z" fill="black"/>
<path d="M24.9099 22.7765C24.5334 22.7608 24.251 22.4471 24.2824 22.0706L24.2981 21.6314C24.3138 21.2549 24.6275 20.9726 25.004 21.004C25.3804 21.0197 25.6628 21.3334 25.6314 21.7098L25.6157 22.1491C25.6001 22.5098 25.2863 22.7922 24.9099 22.7765Z" fill="black"/>
<path d="M31.5137 23.0118C31.1686 22.9961 30.902 22.6981 30.9177 22.353L30.9333 21.9451C30.949 21.6 31.2471 21.3334 31.5922 21.349C31.9373 21.3647 32.2039 21.6628 32.1882 22.0079L32.1726 22.4157C32.1569 22.7608 31.8588 23.0275 31.5137 23.0118Z" fill="black"/>
<path d="M26.3216 21.9294C25.804 21.5843 25.2393 21.349 24.6118 21.4745C24.4079 21.5059 24.204 21.5686 24.0785 21.7098C24.0314 21.7726 23.9216 21.7569 23.9216 21.6628C23.9373 21.349 24.204 21.1451 24.455 21.0196C24.9412 20.7686 25.6157 20.8157 26.055 21.1451C26.2118 21.2392 26.7452 21.8196 26.4628 21.9451C26.4001 21.9765 26.3687 21.9608 26.3216 21.9294Z" fill="black"/>
<path d="M30.8079 22.0079C30.8079 21.3491 31.6235 21.1138 32.1255 21.3491C32.4079 21.4745 32.6118 21.7255 32.6902 22.0236C32.7216 22.1177 32.5804 22.1961 32.5177 22.1177C32.251 21.804 31.7961 21.6471 31.4353 21.8353C31.3255 21.8981 31.3098 21.9451 31.2784 22.0079C31.2784 22.3216 30.8235 22.3059 30.8079 22.0079Z" fill="black"/>
<path d="M27.0746 19.3412C27.404 19.451 27.7334 19.153 27.6706 18.7922C27.6393 18.604 27.5608 18.4157 27.404 18.2745C26.9334 17.851 24.9883 17.4745 23.8118 18.0236C22.7765 18.5255 25.5687 18.8392 27.0746 19.3412Z" fill="black"/>
<path d="M31.7648 19.5922C31.4982 19.6863 31.2158 19.404 31.2629 19.0745C31.2786 18.902 31.3413 18.7295 31.4668 18.604C31.8433 18.2275 33.1295 17.9295 33.9452 18.5098C34.6511 18.9961 32.9884 19.1373 31.7648 19.5922Z" fill="black"/>
<path d="M31.2628 15.2157C31.5922 15.3882 31.8746 15.2314 32.0471 14.8863C33.8667 14.6039 34.2902 18.2431 34.353 18.4627C34.5569 19.2941 35.655 19.451 36.0628 18.7137C37.1765 16.6745 37.8981 13.8039 34.7451 12.0157C35.1373 11.4353 34.855 8.54902 31.5765 7.84313C30.4001 7.59215 28.8628 8.69019 26.9334 8.26666C19.3883 6.58823 11.5608 8.18823 12.1726 18.149C12.3138 20.3294 12.455 22.6824 8.75299 24.251C4.45495 26.0706 4.67456 30.8235 7.70201 31.7961C8.95691 32.2039 4.81574 35.0274 7.23142 37.5373C8.48633 38.8549 10.7295 36.1882 13.004 37.6314C16.4393 39.8118 18.1491 38.8235 18.8236 37.9608C20.204 36.2039 18.4942 32.6745 18.4942 32.6745C18.4942 32.6745 19.1687 31.5922 19.3883 31.0118C20.455 28.1569 17.9138 26.8706 17.9138 26.8706C13.9922 25.3647 14.6981 20.9882 16.6118 20.7373C18.6197 20.4863 19.2471 22.2745 19.3569 22.7137C19.3569 22.7137 21.1295 25.1608 24.5491 19.5765C27.9373 14.0078 29.7726 14.4157 31.2628 15.2157Z" fill="black"/>
<path d="M27.404 24.7059C27.404 24.7059 25.9295 25.6314 24.2668 25.6157C22.604 25.6 22.4001 24.298 22.3844 23.5922C22.3844 23.5922 22.604 24.6118 23.6079 24.9882C24.5962 25.3647 27.404 24.7059 27.404 24.7059Z" fill="black"/>
<path d="M32.1411 24.5333C32.1411 24.5333 32.5019 24.9725 32.9882 25.2863C33.3176 25.5059 33.7568 25.2706 33.7568 24.8784C33.7568 24.8784 32.847 24.9255 32.1411 24.5333Z" fill="black"/>
<path d="M27.9528 20.5176C27.1058 20.4392 24.9724 20.2667 24.1568 20.1882L23.5293 20.1412C23.0117 20.1098 22.6038 20.549 22.5097 21.051C22.4783 21.2078 22.4783 21.4745 22.4783 21.6314V22.2745C22.4783 22.6667 22.4626 23.0745 22.6038 23.451C22.8548 24.3294 23.6548 25.0353 24.596 24.9255C24.6901 24.9098 25.2705 24.8471 25.3803 24.8314L26.6509 24.6902C27.0587 24.6588 27.4352 24.549 27.796 24.3294C28.2979 24.0314 28.7842 23.5765 28.7528 22.9333L28.7842 22.3059C28.8156 21.5216 29.0352 20.5961 27.9528 20.5176ZM27.9999 20C28.7372 20.0627 29.2391 20.8314 29.1921 21.5373C29.1921 21.6314 29.1607 22.2274 29.145 22.3372C29.145 22.4627 29.1136 23.0274 29.0979 23.1372C29.0195 24.2039 27.8273 24.9569 26.8548 25.098C26.3528 25.1608 25.3019 25.302 24.7999 25.3647C24.6744 25.3804 24.5019 25.3961 24.3764 25.4118C24.3136 25.4118 24.1724 25.3961 24.1097 25.3961C22.7764 25.2235 21.9293 23.8588 21.9607 22.5882C21.9607 22.3843 21.9607 21.851 21.9607 21.6314C21.9607 21.5216 21.9607 21.2392 21.9764 21.1294C22.0234 20.5804 22.3215 20.0471 22.8234 19.749C23.043 19.6235 23.3097 19.5608 23.5764 19.5765L24.2195 19.6392C25.0038 19.7333 27.1685 19.9372 27.9999 20Z" fill="black"/>
<path d="M31.6392 20.251C31.9843 20.2039 33.6784 20.0157 33.9922 19.9843C34.0706 19.9843 34.2745 19.9529 34.3373 19.9529C35.0118 19.8588 35.3255 20.5961 35.3883 21.1451C35.4196 21.6314 35.3883 22.102 35.4039 22.5726C35.4039 22.902 35.3726 23.2314 35.2941 23.5451C35.0902 24.3922 34.4941 25.2863 33.5059 25.0039C33.2706 24.9569 32.8 24.8941 32.5804 24.8471L32.3451 24.8C31.8902 24.7216 31.5137 24.4079 31.2628 24.0628C30.7922 23.5137 30.8863 22.7765 30.8392 22.1177C30.7765 21.4588 30.7922 20.4392 31.6392 20.251ZM31.702 20.7059C31.2157 20.9255 31.3412 21.6628 31.3412 22.102L31.3726 23.0431C31.3883 23.6392 31.8588 24.2353 32.4235 24.3922C32.5647 24.4235 32.9569 24.502 33.1137 24.5333L33.5686 24.6275C34.6981 24.9882 35.1373 23.4196 35.1216 22.5569C35.0745 21.8353 35.2941 20.9726 34.7765 20.3922C34.651 20.2667 34.5255 20.2353 34.3843 20.2667C34.3059 20.2824 34.102 20.3137 34.0392 20.3294C33.7255 20.3922 32.0314 20.6588 31.702 20.7059Z" fill="black"/>
<path d="M22.2118 21.7098C22.0863 21.9921 21.9765 21.9608 21.7568 21.9608L21.3019 21.9451C20.7216 21.9137 20.0784 21.8666 19.498 21.7882C19.1843 21.7411 18.8549 21.6941 18.5412 21.6157C18.4157 21.5843 18.3372 21.4588 18.3686 21.3333C18.4 21.2235 18.4941 21.1451 18.6039 21.1608L19.5137 21.2078L20.4235 21.2392C20.7216 21.2549 21.4902 21.2706 21.7882 21.2862C21.9451 21.2862 22.0863 21.3019 22.2431 21.2549C22.3059 21.2392 22.3686 21.2706 22.3843 21.3333C22.4 21.3647 22.3843 21.3804 22.3843 21.4117L22.2118 21.7098Z" fill="black"/>
<path d="M28.8942 21.3804C29.4589 21.0666 30.9491 20.6274 31.2314 21.4745C31.3569 21.6941 31.0275 21.898 30.8863 21.6784C30.8863 21.7098 30.8079 21.6784 30.7765 21.6784C30.1804 21.6314 29.5687 21.7255 28.9726 21.7725C28.7216 21.8039 28.6746 21.4745 28.8942 21.3804Z" fill="black"/>
<path d="M45.2078 13.2235C54.7294 31.5608 37.9921 52.251 18.0392 47.2C9.08231 44.9725 1.88231 37.2078 0.392112 28.0941C-1.30201 19.0274 2.79211 9.28627 10.447 4.15686C20.9411 -3.05883 35.4823 -0.658831 42.996 9.66274C43.0431 9.7098 43.0274 9.78823 42.9647 9.83529C42.9176 9.88235 42.8392 9.86666 42.7921 9.80392C41.7568 8.47058 40.5803 7.26274 39.2941 6.18039C37.1764 4.37646 34.698 2.9647 32.0784 2.00784C18.7451 -2.82354 4.10976 5.20784 1.19211 19.1529C-2.10201 34.7765 11.1843 49.1608 27.0274 47.0118C39.247 45.4745 48.3294 34.1961 47.3254 21.9294C47.1058 18.9647 46.3215 16.0314 45.0196 13.3333C44.9882 13.2863 45.0196 13.2235 45.0666 13.1922C45.1137 13.1608 45.1764 13.1765 45.2078 13.2235Z" fill="black"/>
</g>
</svg>
