<svg width="24" height="24" viewBox="0 0 24 24" fill="none" xmlns="http://www.w3.org/2000/svg">
<mask id="mask0_1812_41375" style="mask-type:alpha" maskUnits="userSpaceOnUse" x="0" y="0" width="24" height="24">
<circle cx="11.9607" cy="11.9607" r="11.9607" fill="#D9D9D9"/>
</mask>
<g mask="url(#mask0_1812_41375)">
<path d="M18.5176 21.8353C18.4627 21.8745 18.3999 21.9137 18.345 21.9529C18.2823 21.9921 18.2274 22.0314 18.1647 22.0627C18.1098 22.0941 18.0627 22.1255 18.0078 22.1568C17.9999 22.1647 17.9921 22.1647 17.9843 22.1725C17.8039 22.2823 17.6156 22.3843 17.4274 22.4784C17.3725 22.5098 17.3098 22.5412 17.2548 22.5647C17.2548 22.5647 17.247 22.5725 17.2392 22.5725C17.1764 22.6039 17.1137 22.6353 17.0509 22.6666C16.9254 22.7294 16.7921 22.7843 16.6666 22.8392C16.6039 22.8706 16.5333 22.8941 16.4705 22.9176C16.4078 22.9412 16.3372 22.9725 16.2745 22.9961C16.2117 23.0196 16.1411 23.051 16.0784 23.0745C16.0784 23.0745 16.0784 23.0745 16.0705 23.0745C16.0078 23.098 15.9372 23.1215 15.8745 23.1451C15.7333 23.1921 15.5843 23.2392 15.4431 23.2863C15.396 23.3019 15.3411 23.3176 15.2941 23.3333C15.145 23.3804 14.996 23.4196 14.847 23.451C14.7921 23.4666 14.7372 23.4745 14.6745 23.4902C14.5333 23.5215 14.3843 23.5529 14.2431 23.5843C14.2117 23.5921 14.1882 23.5921 14.1568 23.6C14.1098 23.6078 14.0549 23.6157 14.0078 23.6235C13.9372 23.6314 13.8745 23.647 13.8039 23.6549C13.7725 23.6627 13.7411 23.6627 13.7098 23.6706C13.6705 23.6784 13.6235 23.6863 13.5764 23.6863C13.4509 23.7019 13.3176 23.7176 13.1921 23.7333C13.1529 23.7412 13.1058 23.7412 13.0666 23.749H13.0588C13.0039 23.7568 12.949 23.7568 12.8941 23.7647C12.8392 23.7725 12.7843 23.7725 12.7294 23.7725C12.698 23.7725 12.6588 23.7804 12.6274 23.7804C12.5647 23.7804 12.5098 23.7882 12.4549 23.7882C12.3764 23.7882 12.3058 23.7961 12.2274 23.7961C12.149 23.7961 12.0784 23.7961 11.9999 23.7961C11.945 23.7961 11.8901 23.7961 11.8352 23.7961C8.52544 23.749 5.55289 22.3451 3.4274 20.1176C3.4274 20.1176 3.4274 20.1098 3.41956 20.1098C3.18426 19.898 3.38818 18.7686 4.3372 18.0549C5.52936 17.1529 8.38426 16.5882 8.38426 16.5882C8.38426 16.5882 9.49014 16.4078 13.5921 17.2627C15.9921 17.7647 17.8196 18.4941 18.8392 20.4706C19.0509 20.8784 19.2627 21.5059 18.5176 21.8353Z" fill="white"/>
<path d="M13.6157 17.1765C15.1216 17.4823 16.7294 17.8118 17.9686 18.8078C18.3843 19.1451 18.6588 19.6392 18.8863 20.1176C18.9961 20.3529 19.1059 20.5961 19.1921 20.8549C19.2392 21.0274 19.3098 21.2235 19.2706 21.4274C19.2627 21.4823 19.2157 21.5529 19.1765 21.5921C18.9961 21.7725 18.8 21.8823 18.6039 22.0235C17.451 22.8235 16.1255 23.3882 14.7529 23.6863C11.6941 24.3529 8.38429 23.8353 5.6941 22.2274C4.79998 21.6863 3.97645 21.0274 3.27057 20.251C3.19214 20.1569 3.19214 20 3.19214 19.898C3.19998 19.6627 3.26273 19.4353 3.34116 19.2235C3.52939 18.7372 3.77253 18.251 4.18822 17.9137C4.48626 17.7098 4.80782 17.5372 5.13724 17.3961C6.17253 16.9569 7.26273 16.651 8.38429 16.5255C8.47841 16.5176 8.4941 16.651 8.39998 16.6667C7.32547 16.8863 6.25881 17.2157 5.26273 17.6627C4.90194 17.8431 4.51763 18 4.22743 18.2823C3.95292 18.5804 3.75684 18.949 3.59998 19.3255C3.49802 19.5529 3.42743 19.9137 3.45881 20.0941C3.95292 20.6823 4.53332 21.2 5.16077 21.647C8.59606 24.047 13.8117 24.2039 17.4666 22.2039C17.7961 22.0235 18.1176 21.8196 18.4235 21.6078C18.5725 21.5059 18.7294 21.4196 18.847 21.3019C18.8549 21.2941 18.847 21.302 18.847 21.3098C18.847 21.3176 18.8392 21.3255 18.8392 21.3255C18.847 21.2314 18.8157 21.1059 18.7765 20.9804C18.6353 20.5255 18.4078 20.047 18.1647 19.6314C17.7804 19.0118 17.1294 18.6196 16.4706 18.3059C16.0157 18.0941 15.5372 17.9294 15.051 17.7725C14.5647 17.6157 14.0706 17.4823 13.5765 17.3647C13.451 17.3333 13.4902 17.1529 13.6157 17.1765Z" fill="black"/>
<path d="M21.1217 26.6981H1.28638C1.28638 26.6981 2.455 24.2353 2.97265 21.4275C3.33344 19.4824 3.6001 18.3451 4.61187 17.7177C5.32559 17.2785 6.855 16.8236 7.51383 16.5883C7.96089 16.4314 8.055 16.5647 8.37657 16.4785C8.37657 16.5177 8.38442 16.549 8.38442 16.5883C8.38442 16.5883 9.23148 19.1059 11.4354 20C13.2315 20.7294 14.2981 20.2432 14.4628 19.4353C14.5648 18.9177 14.2432 18.0706 14.0785 17.7961C13.9844 17.7177 13.9217 17.6 13.8903 17.4824L13.8276 17.2236C13.9766 17.1922 14.1177 17.153 14.2589 17.1059C14.306 17.0902 14.3452 17.0745 14.3923 17.0588C15.2942 17.2941 17.2236 18.0549 18.0785 18.8392C18.4158 19.153 19.2158 20.7216 19.7334 22.9961C20.3295 25.5765 21.1217 26.6981 21.1217 26.6981Z" fill="black"/>
<path d="M21.302 26.7922C15.3961 26.8314 7.10591 26.9255 1.29415 26.902C1.15297 26.902 1.05101 26.7451 1.11375 26.6196C1.81179 25.0824 2.36081 23.4431 2.71375 21.7882C2.75297 21.5765 2.83924 21.1608 2.87846 20.949C3.05885 20.0863 3.20003 19.2314 3.66277 18.4392C3.81964 18.1804 4.02356 17.9373 4.2667 17.7412C4.50199 17.5529 4.7765 17.4118 5.05101 17.2863C5.92944 16.9098 6.81571 16.6118 7.71768 16.3373C7.92944 16.2902 8.1412 16.3451 8.34513 16.298C8.46277 16.2667 8.58826 16.3529 8.59611 16.4784L8.60395 16.5882L8.39219 16.3922C8.47846 16.3922 8.55689 16.4471 8.58042 16.5255C8.64317 16.7059 8.72944 16.8941 8.81571 17.0745C9.08238 17.6157 9.41179 18.1255 9.81179 18.5725C10.3373 19.1686 10.9961 19.6392 11.749 19.9059C12.5098 20.1882 13.8667 20.4314 14.2432 19.5216C14.3059 19.3569 14.2981 19.1843 14.2745 19.0039C14.2196 18.6353 14.0941 18.2431 13.9138 17.9137L13.953 17.9608C13.8275 17.7961 13.7804 17.6 13.7961 17.4118V17.2471V17.2235C13.7961 17.2078 13.8118 17.1922 13.8275 17.1922C13.9216 17.1608 14.0079 17.1216 14.102 17.0902C14.1883 17.051 14.2745 17.0118 14.3608 16.9647C14.3843 16.949 14.4079 16.9569 14.4314 16.9647C14.949 17.098 15.4432 17.2784 15.9373 17.4824C16.6745 17.7882 17.4039 18.1333 18.0392 18.6275C18.2667 18.7922 18.4314 19.0353 18.5647 19.2784C18.8314 19.749 19.0432 20.2353 19.2314 20.7294C19.5608 21.5922 19.8039 22.4863 20.0157 23.3882C20.2824 24.3843 20.6039 25.3725 21.0981 26.2824C21.153 26.3765 21.2079 26.4706 21.2628 26.5647L21.2785 26.5804V26.5882C21.3255 26.6274 21.3334 26.7373 21.302 26.7922ZM20.9412 26.6039C20.902 26.6431 20.9098 26.7529 20.9412 26.7922V26.7843L20.9255 26.7608C20.3765 25.8588 20.0314 24.8471 19.749 23.8353C19.6079 23.3412 19.5059 22.8078 19.3647 22.3059C19.0902 21.3176 18.753 20.3216 18.2589 19.4196C18.1726 19.2706 18.0785 19.1059 17.9608 18.9882C17.7334 18.7765 17.4667 18.6039 17.2 18.4392C16.7608 18.1804 16.2902 17.9529 15.8118 17.7569C15.3334 17.5608 14.8471 17.3804 14.353 17.2471L14.4706 17.2392C14.2589 17.2549 14.0549 17.2627 13.851 17.2549L13.8824 17.2078C13.9294 17.2863 13.9843 17.4196 14.0314 17.4902C14.0863 17.5608 14.149 17.6157 14.2196 17.6471C14.2353 17.6627 14.251 17.6784 14.2589 17.6941C14.5412 18.2353 14.8236 19.0431 14.6196 19.6471C14.149 20.8314 12.5726 20.6431 11.6079 20.2745C10.8 20 10.0706 19.4745 9.50591 18.8314C8.9412 18.1882 8.49415 17.451 8.19611 16.651L8.38434 16.7843C8.27454 16.7843 8.18826 16.7059 8.18042 16.5961L8.17258 16.4941L8.42356 16.6745C8.34513 16.698 8.25101 16.7059 8.16473 16.7137C7.94513 16.7059 7.79611 16.698 7.59219 16.7765C7.32552 16.8706 7.05101 16.9647 6.7765 17.051C6.23532 17.2314 5.70199 17.4196 5.19218 17.6471C4.0314 18.1098 3.69415 19.0353 3.42748 20.1882C3.30199 20.7216 3.20003 21.3255 3.09022 21.8667C2.72944 23.5608 2.18042 25.2 1.4667 26.7843L1.2863 26.4941C6.97258 26.4941 15.1765 26.549 20.9412 26.6039Z" fill="black"/>
<path d="M10.7608 20.8235C8.05493 19.6079 7.00395 17.4353 7.20787 16.8471C7.20787 16.8471 7.20787 16.8392 7.21571 16.8314C7.35689 16.5412 7.58434 16.3059 7.86669 16.1412C8.02356 16.0471 8.19611 15.9608 8.33728 15.9137C10.4785 15.3804 13.3177 16.2824 14.2745 17.1059C14.6196 17.5216 14.9726 17.9373 15.1059 19.0353C15.2941 20.6196 13.5608 22.0863 10.7608 20.8235Z" fill="white"/>
<path d="M10.7216 20.9098C9.36474 20.298 8.09415 19.3412 7.37259 18.0157C7.23141 17.7412 7.10592 17.4588 7.0667 17.1372C7.05886 17.0274 7.05102 16.8941 7.10592 16.7843C7.27062 16.4549 7.56866 16.1961 7.89808 16.0392C8.14906 15.9059 8.42357 15.8117 8.69808 15.7255C9.09023 15.6549 9.48239 15.6314 9.88239 15.6392C11.1922 15.6784 12.4942 16.0235 13.6549 16.6274C13.7412 16.6745 13.8275 16.7216 13.9138 16.7765C13.9451 16.7921 13.9687 16.8157 14.0079 16.8078C14.0471 16.8 14.0785 16.8157 14.1098 16.8314C14.204 16.8863 14.2824 16.9568 14.3687 17.0353C14.5804 17.2941 14.7922 17.5686 14.9334 17.8823C15.0745 18.1961 15.153 18.5333 15.2 18.8627C15.3255 19.5372 15.0981 20.2902 14.5726 20.7529C13.5059 21.7098 11.9059 21.451 10.7216 20.9098ZM10.7922 20.7451C11.6706 21.1294 12.6745 21.3725 13.6079 21.0745C14.3608 20.847 14.9804 20.1647 15.004 19.3647C15.0118 18.8941 14.902 18.4 14.7138 17.9686C14.6118 17.7019 14.3294 17.3647 14.1883 17.1921C14.102 17.1216 14.0079 17.0666 13.9294 16.9961C13.9216 16.9804 13.9138 16.9647 13.9059 16.949C13.8902 16.9098 13.8589 16.9019 13.8353 16.8784C13.7569 16.8314 13.6706 16.7843 13.5844 16.7372C12.902 16.3843 12.1491 16.1804 11.3961 16.0314C10.5177 15.8666 9.61572 15.8196 8.72945 15.9451C8.60396 15.9608 8.47063 15.9451 8.34513 15.9765C8.25102 16.0157 8.07847 16.0941 7.96866 16.1725C7.68631 16.3372 7.47455 16.5804 7.32553 16.8706L7.31768 16.8784C7.31768 16.8863 7.30984 16.9019 7.30984 16.9098C7.27062 17.2392 7.42749 17.5765 7.57651 17.8823C7.70984 18.1333 7.8667 18.3765 8.0471 18.6117C8.76866 19.5451 9.73337 20.2666 10.7922 20.7451Z" fill="black"/>
<path d="M14.3529 19.2628C14.1882 20.0706 13.1215 20.5569 11.3255 19.8275C9.45879 19.0745 8.65094 17.2784 8.44702 16.7451C9.5529 14.6745 8.78428 13.2392 8.78428 13.2392C11.3333 13.0196 13.5607 16 13.5607 16L13.9058 17.4745C13.9372 17.6 14 17.7098 14.0941 17.7882C14.2588 18.0784 14.4549 18.7451 14.3529 19.2628Z" fill="white"/>
<path d="M8.40785 16.7687C8.55686 16.5412 8.65098 16.2745 8.71373 16.0157C8.83137 15.4745 8.87059 14.9255 8.87843 14.3765V14.1726C8.8549 13.9687 8.78432 13.7569 8.70588 13.5687C8.60392 13.3177 8.97255 13.1608 9.0902 13.4118C9.10588 13.4432 9.10588 13.4981 9.10588 13.5295C9.12941 14.5961 9.17647 15.9687 8.50196 16.8549C8.4549 16.902 8.36079 16.8314 8.40785 16.7687Z" fill="black"/>
<path d="M13.6471 15.9843C13.7647 16.0549 13.8039 16.149 13.8196 16.2432C13.8667 16.4314 13.851 16.6353 13.8981 16.8314C13.9373 17.0196 14.0549 17.2 14.0863 17.3961C14.1255 17.6 14.2432 18.0314 14.2902 18.2432C14.3059 18.2902 14.2745 18.3451 14.2196 18.353C14.1883 18.3608 14.1647 18.353 14.1412 18.3373C14.0392 18.251 13.9922 18.1647 13.9294 18.0549C13.8275 17.8667 13.7569 17.6941 13.6941 17.4824C13.6392 17.2941 13.6628 17.0902 13.6157 16.8941C13.5765 16.7059 13.4667 16.5255 13.4275 16.3294C13.4039 16.2353 13.3961 16.1334 13.4667 16.0157C13.5137 15.9687 13.5922 15.953 13.6471 15.9843Z" fill="black"/>
<path d="M14.2118 18.0549C12.7138 17.9765 11.4903 17.5059 10.2981 15.3804C11.302 16.2667 12.4863 16.604 13.7334 16.7608L13.8981 17.4824C13.9295 17.6079 14.1177 17.9765 14.2118 18.0549Z" fill="black"/>
<path d="M14.1491 17.7647C14.4158 18.2667 14.5726 18.8941 14.4079 19.451C14.2824 19.8432 13.9216 20.1333 13.5295 20.2432C12.6197 20.4863 11.5687 20.102 10.7609 19.6706C9.76478 19.1137 9.02753 18.1804 8.55694 17.1608C8.52557 17.0824 8.63537 17.0196 8.68243 17.0981C8.84714 17.4275 9.03537 17.749 9.24714 18.0392C9.4589 18.3373 9.70204 18.6118 9.97655 18.8549C10.7765 19.5765 11.8589 20.0235 12.9413 20.0235C14.055 19.9922 14.4785 19.4039 14.2197 18.3216C14.1805 18.149 14.1177 17.9686 14.0314 17.8196C13.9844 17.7569 14.102 17.6863 14.1491 17.7647Z" fill="black"/>
<path d="M17.1844 8.34512C17.3255 9.00394 17.3961 9.53728 17.0118 11.2941C16.6353 13.0432 17.3647 14.8079 15.5138 16.4157C14.2667 17.4981 12.0863 17.702 10.3451 16.5177C9.7569 16.1177 9.60004 14.251 9.1373 13.5373C8.94122 13.2392 8.82357 13.7177 8.37651 13.2236C7.7569 12.549 7.0118 11.1922 7.38043 8.79218C7.97651 4.90198 11.0589 4.44708 13.3412 4.87845C15.6314 5.30982 16.8079 6.61179 17.1844 8.34512Z" fill="white"/>
<path d="M8.76083 13.9138C8.58043 13.6157 8.35298 13.3569 8.14122 13.0824C7.82749 12.6589 7.5922 12.1726 7.43534 11.6706C6.76083 9.5216 7.12161 6.72159 9.11377 5.38042C10.9569 4.13336 14.4785 4.50983 16.0942 6.01571C16.902 6.74512 17.3491 7.80395 17.4432 8.87062C17.4902 9.58434 17.3177 10.2745 17.1687 10.9647C16.9961 11.6392 16.9569 12.3138 16.9569 13.0118C16.9491 13.7098 16.9177 14.4392 16.651 15.0981C16.2432 16.102 15.3883 16.9177 14.3608 17.2628C13.0118 17.7334 11.4197 17.4667 10.3138 16.5647C10.2667 16.5255 10.3138 16.4628 10.3687 16.4863C11.8197 17.3098 13.7255 17.451 15.1373 16.502C15.9765 15.9373 16.5569 15.0432 16.6902 14.0392C16.8 13.3569 16.7687 12.6667 16.8314 11.9765C16.8549 11.6706 16.9412 11.2471 17.004 10.9412C17.0981 10.4314 17.1608 9.9216 17.153 9.41179C17.1451 8.90983 17.0353 8.41571 16.8863 7.93728C16.3687 6.23532 14.8863 5.2314 13.1765 4.95689C10.6197 4.50983 8.38436 5.45885 7.71769 8.11767C7.42749 9.41963 7.20004 10.8549 7.74906 12.1177C7.94514 12.5961 8.26671 13.0039 8.63534 13.3569L8.99612 13.7412C9.15298 13.8981 8.88632 14.102 8.76083 13.9138Z" fill="black"/>
<path d="M9.68626 11.4196C9.68626 11.4196 9.44312 10.2431 8.29802 10.3843C7.30979 10.5098 6.96469 12.8784 9.20783 13.5373" fill="white"/>
<path d="M9.1059 12.5098C8.92551 12.4079 8.80002 12.2353 8.79218 12.0236C8.80002 11.8667 8.82355 11.6863 8.78433 11.5294C8.7608 11.3804 8.60394 11.3412 8.48629 11.349C8.3608 11.3726 8.28237 11.5294 8.25884 11.6549C8.25884 11.6628 8.251 11.6863 8.251 11.6941C8.24316 11.7334 8.18041 11.7334 8.16473 11.6941C8.06276 11.3883 8.29022 11.051 8.61963 11.0902C9.08237 11.1216 9.14512 11.6079 9.05884 11.9765C9.01178 12.1334 9.07453 12.2745 9.1608 12.4079L9.17649 12.4314C9.21571 12.4785 9.15296 12.5412 9.1059 12.5098Z" fill="black"/>
<path d="M15.3803 10.5882C15.498 11.1451 15.7176 11.6628 15.9921 12.149C16.2352 12.7451 15.6078 13.3098 15.0509 13.2863C14.9882 13.2863 14.9803 13.2 15.0352 13.1843C15.3882 13.0745 15.7098 12.8392 15.7647 12.4784C15.7882 12.3686 15.7568 12.2745 15.7019 12.1804C15.4431 11.6941 15.2862 11.1373 15.3254 10.5882C15.3254 10.549 15.3803 10.549 15.3803 10.5882Z" fill="black"/>
<path d="M9.64715 11.4275C9.46676 10.9647 9.0746 10.5255 8.54911 10.5333C8.50205 10.5255 8.42362 10.5412 8.37656 10.5412C8.24323 10.549 8.13342 10.5961 8.03146 10.6902C7.5295 11.1922 7.61578 12.0784 8.02362 12.6353C8.16479 12.8314 8.34519 13.0039 8.54911 13.1451C8.75303 13.2863 8.98048 13.3961 9.22362 13.4902C9.27852 13.5059 9.25499 13.5922 9.20009 13.5843C8.6746 13.4745 8.17264 13.2157 7.82754 12.7843C7.29421 12.1412 7.1844 11.0667 7.8197 10.4392C7.96087 10.3137 8.15695 10.2196 8.35303 10.2196C8.41577 10.2196 8.50989 10.2039 8.57264 10.2196C8.90205 10.2353 9.21577 10.4 9.4197 10.6588C9.60009 10.8784 9.70205 11.1451 9.73342 11.4118C9.73342 11.4588 9.66283 11.4745 9.64715 11.4275Z" fill="black"/>
<path d="M14.7843 14.0706C14.2823 14.549 13.3333 14.1647 13.0823 13.5843C13.051 13.5137 13.1294 13.451 13.1921 13.4824C13.3255 13.5529 13.4431 13.6235 13.5686 13.6784C13.9294 13.8431 14.3059 13.9765 14.7059 13.9373C14.7843 13.9216 14.8392 14.0157 14.7843 14.0706Z" fill="black"/>
<path d="M12.4549 11.3882C12.2667 11.3804 12.1255 11.2235 12.1412 11.0353L12.149 10.8156C12.1569 10.6274 12.3138 10.4862 12.502 10.5019C12.6902 10.5098 12.8314 10.6666 12.8157 10.8549L12.8079 11.0745C12.8 11.2549 12.6432 11.396 12.4549 11.3882Z" fill="black"/>
<path d="M15.7569 11.5059C15.5843 11.4981 15.451 11.349 15.4588 11.1765L15.4667 10.9726C15.4745 10.8 15.6235 10.6667 15.7961 10.6745C15.9686 10.6824 16.102 10.8314 16.0941 11.0039L16.0863 11.2079C16.0784 11.3804 15.9294 11.5137 15.7569 11.5059Z" fill="black"/>
<path d="M13.1607 10.9647C12.9019 10.7921 12.6195 10.6745 12.3058 10.7372C12.2038 10.7529 12.1019 10.7843 12.0391 10.8549C12.0156 10.8863 11.9607 10.8784 11.9607 10.8314C11.9685 10.6745 12.1019 10.5725 12.2274 10.5098C12.4705 10.3843 12.8078 10.4078 13.0274 10.5725C13.1058 10.6196 13.3725 10.9098 13.2313 10.9725C13.1999 10.9882 13.1842 10.9804 13.1607 10.9647Z" fill="black"/>
<path d="M15.4039 11.0039C15.4039 10.6745 15.8118 10.5569 16.0628 10.6745C16.2039 10.7372 16.3059 10.8627 16.3451 11.0118C16.3608 11.0588 16.2902 11.098 16.2588 11.0588C16.1255 10.9019 15.898 10.8235 15.7177 10.9176C15.6628 10.949 15.6549 10.9725 15.6392 11.0039C15.6392 11.1608 15.4118 11.1529 15.4039 11.0039Z" fill="black"/>
<path d="M13.5372 9.67057C13.7019 9.72548 13.8666 9.57646 13.8353 9.39606C13.8196 9.30195 13.7804 9.20783 13.7019 9.13724C13.4666 8.92548 12.4941 8.73724 11.9059 9.01175C11.3882 9.26273 12.7843 9.41959 13.5372 9.67057Z" fill="black"/>
<path d="M15.8824 9.79607C15.749 9.84313 15.6078 9.70195 15.6314 9.53724C15.6392 9.45097 15.6706 9.3647 15.7333 9.30195C15.9216 9.11371 16.5647 8.9647 16.9725 9.25489C17.3255 9.49803 16.4941 9.56862 15.8824 9.79607Z" fill="black"/>
<path d="M15.6313 7.60787C15.796 7.69415 15.9372 7.61572 16.0235 7.44317C16.9333 7.30199 17.1451 9.1216 17.1764 9.2314C17.2784 9.64709 17.8274 9.72552 18.0313 9.35689C18.5882 8.33728 18.949 6.90199 17.3725 6.00787C17.5686 5.71768 17.4274 4.27454 15.7882 3.9216C15.2 3.79611 14.4313 4.34513 13.4666 4.13336C9.69408 3.29415 5.78036 4.09415 6.08624 9.07454C6.15683 10.1647 6.22742 11.3412 4.37643 12.1255C2.22742 13.0353 2.33722 15.4118 3.85094 15.8981C4.4784 16.102 2.40781 17.5138 3.61565 18.7687C4.2431 19.4275 5.36467 18.0941 6.50193 18.8157C8.21957 19.9059 9.07447 19.4118 9.41173 18.9804C10.1019 18.102 9.24702 16.3373 9.24702 16.3373C9.24702 16.3373 9.58428 15.7961 9.69408 15.5059C10.2274 14.0785 8.95683 13.4353 8.95683 13.4353C6.99604 12.6824 7.34898 10.4941 8.30585 10.3687C9.30977 10.2432 9.62349 11.1373 9.6784 11.3569C9.6784 11.3569 10.5647 12.5804 12.2745 9.78826C13.9686 7.00395 14.8862 7.20787 15.6313 7.60787Z" fill="black"/>
<path d="M13.7019 12.3529C13.7019 12.3529 12.9647 12.8157 12.1333 12.8078C11.3019 12.8 11.2 12.149 11.1921 11.7961C11.1921 11.7961 11.3019 12.3059 11.8039 12.4941C12.298 12.6824 13.7019 12.3529 13.7019 12.3529Z" fill="black"/>
<path d="M16.0704 12.2667C16.0704 12.2667 16.2508 12.4863 16.494 12.6431C16.6587 12.7529 16.8783 12.6353 16.8783 12.4392C16.8783 12.4392 16.4234 12.4627 16.0704 12.2667Z" fill="black"/>
<path d="M13.9764 10.2588C13.5528 10.2196 12.4862 10.1333 12.0783 10.0941L11.7646 10.0706C11.5058 10.0549 11.3018 10.2745 11.2548 10.5255C11.2391 10.6039 11.2391 10.7373 11.2391 10.8157V11.1373C11.2391 11.3333 11.2313 11.5373 11.3018 11.7255C11.4273 12.1647 11.8273 12.5176 12.2979 12.4627C12.345 12.4549 12.6352 12.4235 12.6901 12.4157L13.3254 12.3451C13.5293 12.3294 13.7175 12.2745 13.8979 12.1647C14.1489 12.0157 14.392 11.7882 14.3764 11.4667L14.392 11.1529C14.4077 10.7608 14.5175 10.298 13.9764 10.2588ZM13.9999 10C14.3685 10.0314 14.6195 10.4157 14.596 10.7686C14.596 10.8157 14.5803 11.1137 14.5724 11.1686C14.5724 11.2314 14.5568 11.5137 14.5489 11.5686C14.5097 12.102 13.9136 12.4784 13.4273 12.549C13.1764 12.5804 12.6509 12.651 12.3999 12.6824C12.3371 12.6902 12.2509 12.698 12.1881 12.7059C12.1567 12.7059 12.0862 12.698 12.0548 12.698C11.3881 12.6118 10.9646 11.9294 10.9803 11.2941C10.9803 11.1922 10.9803 10.9255 10.9803 10.8157C10.9803 10.7608 10.9803 10.6196 10.9881 10.5647C11.0117 10.2902 11.1607 10.0235 11.4117 9.87451C11.5215 9.81176 11.6548 9.78039 11.7881 9.78823L12.1097 9.8196C12.5018 9.86666 13.5842 9.96862 13.9999 10Z" fill="black"/>
<path d="M15.8196 10.1255C15.9921 10.1019 16.8392 10.0078 16.996 9.99213C17.0352 9.99213 17.1372 9.97644 17.1686 9.97644C17.5058 9.92939 17.6627 10.298 17.6941 10.5725C17.7098 10.8157 17.6941 11.051 17.7019 11.2862C17.7019 11.451 17.6862 11.6157 17.647 11.7725C17.545 12.1961 17.247 12.6431 16.7529 12.5019C16.6352 12.4784 16.3999 12.447 16.2901 12.4235L16.1725 12.4C15.945 12.3608 15.7568 12.2039 15.6313 12.0313C15.396 11.7568 15.4431 11.3882 15.4196 11.0588C15.3882 10.7294 15.396 10.2196 15.8196 10.1255ZM15.8509 10.3529C15.6078 10.4627 15.6705 10.8313 15.6705 11.051L15.6862 11.5215C15.6941 11.8196 15.9294 12.1176 16.2117 12.1961C16.2823 12.2117 16.4784 12.251 16.5568 12.2666L16.7843 12.3137C17.349 12.4941 17.5686 11.7098 17.5607 11.2784C17.5372 10.9176 17.647 10.4862 17.3882 10.1961C17.3254 10.1333 17.2627 10.1176 17.1921 10.1333C17.1529 10.1412 17.0509 10.1568 17.0196 10.1647C16.8627 10.1961 16.0156 10.3294 15.8509 10.3529Z" fill="black"/>
<path d="M11.1058 10.8549C11.0431 10.9961 10.9882 10.9804 10.8784 10.9804L10.6509 10.9726C10.3607 10.9569 10.0391 10.9333 9.74895 10.8941C9.59209 10.8706 9.42738 10.8471 9.27052 10.8079C9.20777 10.7922 9.16856 10.7294 9.18425 10.6667C9.19993 10.6118 9.24699 10.5726 9.30189 10.5804L9.75679 10.6039L10.2117 10.6196C10.3607 10.6275 10.745 10.6353 10.894 10.6432C10.9725 10.6432 11.0431 10.651 11.1215 10.6275C11.1529 10.6196 11.1842 10.6353 11.1921 10.6667C11.1999 10.6824 11.1921 10.6902 11.1921 10.7059L11.1058 10.8549Z" fill="black"/>
<path d="M14.447 10.6902C14.7294 10.5333 15.4745 10.3137 15.6156 10.7372C15.6784 10.847 15.5137 10.949 15.4431 10.8392C15.4431 10.8549 15.4039 10.8392 15.3882 10.8392C15.0902 10.8157 14.7843 10.8627 14.4862 10.8863C14.3607 10.902 14.3372 10.7372 14.447 10.6902Z" fill="black"/>
<path d="M22.6039 6.61176C27.3647 15.7804 18.9961 26.1255 9.01959 23.6C4.54115 22.4863 0.941154 18.6039 0.196056 14.0471C-0.651003 9.51372 1.39606 4.64313 5.22351 2.07843C10.4706 -1.52942 17.7412 -0.329415 21.498 4.83137C21.5215 4.8549 21.5137 4.89411 21.4823 4.91764C21.4588 4.94117 21.4196 4.93333 21.3961 4.90196C20.8784 4.23529 20.2902 3.63137 19.647 3.09019C18.5882 2.18823 17.349 1.48235 16.0392 1.00392C9.37253 -1.41177 2.05488 2.60392 0.596056 9.57647C-1.051 17.3882 5.59213 24.5804 13.5137 23.5059C19.6235 22.7373 24.1647 17.098 23.6627 10.9647C23.5529 9.48235 23.1608 8.01568 22.5098 6.66666C22.4941 6.64313 22.5098 6.61176 22.5333 6.59608C22.5568 6.58039 22.5882 6.58823 22.6039 6.61176Z" fill="black"/>
</g>
</svg>
