<svg width="48" height="48" viewBox="0 0 48 48" fill="none" xmlns="http://www.w3.org/2000/svg">
<mask id="mask0_1812_39520" style="mask-type:alpha" maskUnits="userSpaceOnUse" x="0" y="0" width="48" height="48">
<circle cx="23.9213" cy="23.9213" r="23.9213" fill="#D9D9D9"/>
</mask>
<g mask="url(#mask0_1812_39520)">
<path d="M37.0354 43.6705C36.9256 43.749 36.8001 43.8274 36.6903 43.9058C36.5648 43.9843 36.455 44.0627 36.3296 44.1254C36.2197 44.1882 36.1256 44.2509 36.0158 44.3137C36.0001 44.3294 35.9845 44.3294 35.9688 44.3451C35.608 44.5647 35.2315 44.7686 34.855 44.9568C34.7452 45.0196 34.6197 45.0823 34.5099 45.1294C34.5099 45.1294 34.4943 45.1451 34.4786 45.1451C34.3531 45.2078 34.2276 45.2705 34.1021 45.3333C33.8511 45.4588 33.5845 45.5686 33.3335 45.6784C33.208 45.7411 33.0668 45.7882 32.9413 45.8353C32.8158 45.8823 32.6747 45.9451 32.5492 45.9921C32.4237 46.0392 32.2825 46.1019 32.157 46.149C32.157 46.149 32.157 46.149 32.1413 46.149C32.0158 46.196 31.8746 46.2431 31.7492 46.2902C31.4668 46.3843 31.1688 46.4784 30.8864 46.5725C30.7923 46.6039 30.6825 46.6353 30.5884 46.6666C30.2903 46.7607 29.9923 46.8392 29.6943 46.9019C29.5845 46.9333 29.4747 46.949 29.3492 46.9803C29.0668 47.0431 28.7688 47.1058 28.4864 47.1686C28.4237 47.1843 28.3766 47.1843 28.3139 47.2C28.2197 47.2156 28.1099 47.2313 28.0158 47.247C27.8747 47.2627 27.7492 47.2941 27.608 47.3098C27.5452 47.3254 27.4825 47.3254 27.4197 47.3411C27.3413 47.3568 27.2472 47.3725 27.1531 47.3725C26.9021 47.4039 26.6354 47.4353 26.3845 47.4666C26.306 47.4823 26.2119 47.4823 26.1335 47.498H26.1178C26.008 47.5137 25.8982 47.5137 25.7884 47.5294C25.6786 47.5451 25.5688 47.5451 25.459 47.5451C25.3962 47.5451 25.3178 47.5607 25.255 47.5607C25.1296 47.5607 25.0197 47.5764 24.9099 47.5764C24.7531 47.5764 24.6119 47.5921 24.455 47.5921C24.2982 47.5921 24.157 47.5921 24.0001 47.5921C23.8903 47.5921 23.7805 47.5921 23.6707 47.5921C17.0511 47.498 11.106 44.6902 6.85504 40.2353C6.85504 40.2353 6.85504 40.2196 6.83936 40.2196C6.36877 39.796 6.77661 37.5372 8.67465 36.1098C11.059 34.3058 16.7688 33.1764 16.7688 33.1764C16.7688 33.1764 18.9805 32.8156 27.1845 34.5254C31.9845 35.5294 35.6394 36.9882 37.6786 40.9411C38.1021 41.7568 38.5256 43.0117 37.0354 43.6705Z" fill="white"/>
<path d="M27.2315 34.3529C30.2432 34.9647 33.4589 35.6235 35.9373 37.6157C36.7687 38.2902 37.3177 39.2784 37.7726 40.2353C37.9922 40.7059 38.2118 41.1921 38.3844 41.7098C38.4785 42.0549 38.6197 42.447 38.5413 42.8549C38.5256 42.9647 38.4315 43.1059 38.353 43.1843C37.9922 43.5451 37.6001 43.7647 37.2079 44.047C34.902 45.647 32.2511 46.7764 29.506 47.3725C23.3883 48.7059 16.7687 47.6706 11.3883 44.4549C9.60009 43.3725 7.95303 42.0549 6.54126 40.5019C6.3844 40.3137 6.3844 40 6.3844 39.7961C6.40009 39.3255 6.52558 38.8706 6.68244 38.447C7.05891 37.4745 7.54518 36.5019 8.37656 35.8274C8.97263 35.4196 9.61577 35.0745 10.2746 34.7921C12.3452 33.9137 14.5256 33.3019 16.7687 33.051C16.9569 33.0353 16.9883 33.3019 16.8001 33.3333C14.6511 33.7725 12.5177 34.4313 10.5256 35.3255C9.80401 35.6863 9.03538 36 8.45499 36.5647C7.90597 37.1608 7.51381 37.898 7.20009 38.651C6.99616 39.1059 6.85499 39.8274 6.91773 40.1882C7.90597 41.3647 9.06675 42.4 10.3217 43.2941C17.1922 48.0941 27.6236 48.4078 34.9334 44.4078C35.5922 44.047 36.2354 43.6392 36.8471 43.2157C37.1452 43.0117 37.4589 42.8392 37.6942 42.6039C37.7099 42.5882 37.6942 42.6039 37.6942 42.6196C37.6942 42.6353 37.6785 42.651 37.6785 42.651C37.6942 42.4627 37.6315 42.2117 37.553 41.9608C37.2707 41.051 36.8158 40.0941 36.3295 39.2627C35.5609 38.0235 34.2589 37.2392 32.9413 36.6117C32.0315 36.1882 31.0746 35.8588 30.102 35.5451C29.1295 35.2314 28.1413 34.9647 27.153 34.7294C26.902 34.6666 26.9805 34.3059 27.2315 34.3529Z" fill="black"/>
<path d="M39.1843 45.898C38.8863 43.5765 37.5687 39.6706 36.7687 38.6196C35.8902 37.4745 35.5294 37.1137 32.5961 36.1255C32.4392 35.3412 31.8589 33.3647 31.1687 32.5333C30.1177 30.949 27.2471 30.5882 26.3843 30.7765C26.3843 30.7765 21.7412 29.1451 16.3922 29.1451C14.6981 29.5216 12.7373 30.2902 11.6706 31.9059C10.9491 32.9725 11.7647 33.3176 11.404 34.2902C11.3098 34.5412 9.11376 35.7961 8.21964 36.549C7.8118 36.8784 7.3569 37.7098 7.04317 38.7921C6.41572 41.0039 7.09023 44.0627 6.30592 46.7294C4.80003 51.8745 1.74121 53.4117 1.74121 53.4117H42.2745C42.2432 53.3961 39.8275 50.7921 39.1843 45.898Z" fill="white"/>
<path d="M38.9491 45.9295C38.6353 43.8746 38.0079 41.8353 37.2079 39.9216C36.8157 38.9961 36.2196 38.102 35.3883 37.553C34.9647 37.2863 34.4942 37.0824 34.0079 36.8785C33.5216 36.6902 33.0196 36.5177 32.5334 36.3451C32.4549 36.3138 32.3922 36.251 32.3765 36.1726C32.3138 35.8589 32.2353 35.5608 32.1412 35.2471C31.7334 33.9765 31.2942 32.5648 30.102 31.8275C29.1922 31.2785 28.1098 31.0118 27.0589 30.9648C26.8549 30.9648 26.6353 30.9648 26.4471 30.9961H26.3844C26.3687 30.9961 26.3373 30.9961 26.3216 30.9804C25.5687 30.6197 24.7373 30.4 23.9216 30.1804C21.4745 29.6157 18.9177 29.3804 16.4079 29.3648C14.8706 29.7255 12.7216 30.5726 11.7804 32.1412C11.6236 32.3922 11.5451 32.6432 11.5765 32.9255C11.6079 33.2393 11.7177 33.5844 11.6393 33.9138C11.6079 34.0549 11.5765 34.2118 11.5138 34.3373C11.3883 34.5098 11.1844 34.6197 11.0275 34.7295C10.2118 35.2628 9.38043 35.7334 8.59612 36.2824C8.32945 36.4706 8.07847 36.6432 7.89023 36.9099C7.34121 37.6942 7.0118 38.6353 6.87063 39.5765C6.61965 41.4902 6.87063 43.4353 6.61965 45.3491C6.33729 47.2628 5.60004 49.1138 4.56474 50.7451C3.84318 51.8432 2.96474 52.8628 1.85102 53.5687L1.74121 53.1295H42.2746L42.102 53.5216C41.6314 52.9883 41.2549 52.4079 40.9098 51.7961C39.8432 50.0079 39.2157 47.9844 38.9491 45.9295ZM39.4196 45.8667C39.5922 47.2 39.9216 48.5177 40.4236 49.7726C40.9255 51.0118 41.553 52.2197 42.4314 53.2393C42.5569 53.3804 42.4471 53.6471 42.2589 53.6314H1.72553C1.60004 53.6314 1.49023 53.5216 1.49023 53.3961C1.49023 53.302 1.53729 53.2236 1.61572 53.1922C1.86671 53.051 2.11769 52.8471 2.35298 52.6432C4.40788 50.7922 5.69416 48.0471 6.11769 45.3177C6.47847 42.7608 5.80396 40 6.94906 37.5687C7.21572 37.004 7.54514 36.4079 8.07847 36.0471C9.05102 35.3255 10.1177 34.7922 11.0745 34.0863C11.0902 34.0863 11.0902 34.0706 11.0902 34.0706C11.0745 34.0863 11.0589 34.1177 11.0589 34.1334C11.153 33.9138 11.1844 33.7255 11.153 33.4746C11.1059 33.1608 11.0275 32.7373 11.1373 32.4079C11.1844 32.2197 11.2785 32.0471 11.3726 31.9059C12.502 30.2118 14.4942 29.4589 16.3922 29.0353C16.9255 29.051 17.4745 28.9569 18.0079 28.9569C18.7451 28.9569 19.4981 29.0667 20.2353 29.1608C22.353 29.4902 24.3922 30.0549 26.4785 30.5098L26.3373 30.4942C26.8236 30.4 27.2785 30.4471 27.7491 30.5098C30.7608 30.9648 31.7804 32.2824 32.5961 35.0902C32.6902 35.404 32.7687 35.7177 32.8471 36.0471L32.6902 35.8589C34.1961 36.3922 35.8902 36.8785 36.8471 38.2746C37.1922 38.6981 37.4432 39.2 37.6628 39.702C38.4628 41.7099 39.0902 43.7334 39.4196 45.8667Z" fill="black"/>
<path d="M14.4628 35.5766C15.6236 38.055 17.4275 40.157 19.5765 41.8197C19.655 41.8824 19.5765 42.0079 19.4824 41.9609C17.5687 41.0511 15.953 39.4981 14.9961 37.6158C14.6824 36.9883 14.4157 36.3138 14.3216 35.6079C14.2903 35.5295 14.4157 35.4981 14.4628 35.5766Z" fill="black"/>
<path d="M32.8315 36.0942C32.8786 38.7138 31.8119 41.3961 29.7727 43.0902C29.7256 43.1373 29.6629 43.1216 29.6158 43.0746C29.5688 43.0275 29.5844 42.9647 29.6315 42.9177C30.0864 42.4785 30.5413 42.0236 30.8864 41.4902C31.608 40.4549 32.0472 39.2314 32.2511 37.9922C32.3452 37.3804 32.408 36.7216 32.3609 36.1098C32.3452 35.8118 32.8158 35.7804 32.8315 36.0942Z" fill="black"/>
<path d="M23.5922 42.3216C23.2314 43.5922 22.9334 44.9726 23.106 46.2902C23.153 46.5883 22.6981 46.6667 22.6354 46.353C22.5569 45.6314 22.6511 44.9255 22.7765 44.2353C22.9177 43.5451 23.0903 42.8863 23.3256 42.2275C23.3883 42.0706 23.655 42.149 23.5922 42.3216Z" fill="black"/>
<path d="M28.5804 42.0863C29.0981 43.2 29.4588 44.3608 29.7412 45.5373C29.7726 45.6628 29.6941 45.7883 29.5686 45.8197C29.4432 45.851 29.3177 45.7726 29.2863 45.6471C29.1294 44.7687 28.9255 43.8902 28.6432 43.0275C28.549 42.7451 28.4549 42.4628 28.3451 42.1804C28.2824 42.0393 28.502 41.9295 28.5804 42.0863Z" fill="black"/>
<path d="M11.7333 34.2275C12.3137 37.3961 14.5412 40.0785 17.2235 41.7883C18.1333 42.3686 19.1059 42.8706 20.1098 43.2785C20.1725 43.3098 20.2039 43.3726 20.1725 43.4353C20.1569 43.4981 20.0784 43.5294 20.0314 43.4981C18.9961 43.1216 17.9922 42.651 17.051 42.0863C15.1373 40.9569 13.4588 39.3883 12.3294 37.4745C11.749 36.4863 11.2941 35.451 11.0745 34.3216C11.0431 34.1334 11.1686 33.9608 11.3569 33.9294C11.5294 33.8824 11.7176 34.0236 11.7333 34.2275Z" fill="black"/>
<path d="M22.6509 46.6354C22.2117 46.5883 21.898 46.1805 21.9921 45.7412L22.1646 44.9099C22.2274 44.5805 22.5411 44.3452 22.8705 44.3922C23.1999 44.4236 23.4666 44.706 23.4666 45.0511V45.8981C23.4823 46.3373 23.1058 46.6824 22.6509 46.6354Z" fill="black"/>
<path d="M29.8824 46.0549C29.4589 46.2118 29.004 45.9608 28.8942 45.5216L28.6903 44.6902C28.6118 44.3608 28.7844 44.0314 29.1138 43.9059C29.4275 43.7961 29.7883 43.9373 29.9295 44.2353L30.306 45.004C30.4942 45.4275 30.306 45.9138 29.8824 46.0549Z" fill="black"/>
<path d="M9.44319 53.3961C9.44319 53.3961 9.30201 49.8981 8.83142 48.9569" stroke="black" stroke-width="5.1257" stroke-miterlimit="10" stroke-linecap="round" stroke-linejoin="round"/>
<path d="M37.1294 45.5844C37.1294 45.5844 38.0078 50.5098 37.6627 53.3961" stroke="black" stroke-width="5.1257" stroke-miterlimit="10" stroke-linecap="round" stroke-linejoin="round"/>
<path d="M34.6039 50.3216C34.6039 50.3216 32.2824 50.6667 30.2432 50.5726" stroke="black" stroke-width="5.1257" stroke-miterlimit="10" stroke-linecap="round" stroke-linejoin="round"/>
<path d="M16.6431 33.6628C16.4235 33.0354 16.3294 32.3922 16.3765 31.7334C16.3765 31.6707 16.4235 31.6393 16.4863 31.6393C16.5333 31.6393 16.5804 31.6863 16.5804 31.7334C16.6274 32.3295 16.8 32.9412 17.0823 33.4589C17.2235 33.7726 16.7529 33.9765 16.6431 33.6628Z" fill="black"/>
<path d="M27.2471 34.4942C26.8079 33.506 25.7255 33.004 24.7686 32.6589C24.1726 32.4707 23.5137 32.3295 22.8863 32.2354C21.3647 32.0001 19.2157 31.6393 17.6941 31.4824C17.6785 31.4824 17.6785 31.4511 17.6941 31.4511C18.1334 31.404 18.5726 31.404 19.0118 31.404C20.3294 31.4354 21.6471 31.5765 22.949 31.7805C24.251 31.9844 25.6471 32.3765 26.6353 33.3177C26.949 33.6471 27.2314 34.0236 27.3098 34.4785C27.3255 34.5256 27.2628 34.5412 27.2471 34.4942Z" fill="black"/>
<path d="M28.7059 38.5255C28.3765 40.1412 26.2432 41.1137 22.651 39.6549C18.9177 38.149 17.302 34.5569 16.8942 33.4902C19.1059 29.349 17.5687 26.4785 17.5687 26.4785C22.6667 26.0392 27.1216 32 27.1216 32L27.8118 34.949C27.8746 35.2 28 35.4196 28.1883 35.5765C28.5177 36.1569 28.9099 37.4902 28.7059 38.5255Z" fill="white"/>
<path d="M16.8158 33.5373C17.1139 33.0824 17.3021 32.549 17.4276 32.0314C17.6629 30.949 17.7413 29.851 17.757 28.753V28.3451C17.7099 27.9373 17.5688 27.5137 17.4119 27.1373C17.208 26.6353 17.9452 26.3216 18.1805 26.8235C18.2119 26.8863 18.2119 26.9961 18.2119 27.0588C18.2589 29.1922 18.3531 31.9373 17.004 33.7098C16.9099 33.8039 16.7217 33.6628 16.8158 33.5373Z" fill="black"/>
<path d="M27.2942 31.9687C27.5295 32.1099 27.6079 32.2981 27.6393 32.4863C27.7334 32.8628 27.702 33.2706 27.7961 33.6628C27.8746 34.0393 28.1098 34.4001 28.1726 34.7922C28.251 35.2001 28.4863 36.0628 28.5804 36.4863C28.6118 36.5804 28.5491 36.6902 28.4393 36.7059C28.3765 36.7216 28.3295 36.7059 28.2824 36.6746C28.0785 36.502 27.9844 36.3295 27.8589 36.1099C27.6549 35.7334 27.5138 35.3883 27.3883 34.9648C27.2785 34.5883 27.3255 34.1804 27.2314 33.7883C27.153 33.4118 26.9334 33.051 26.8549 32.6589C26.8079 32.4706 26.7922 32.2667 26.9334 32.0314C27.0275 31.9373 27.1844 31.9059 27.2942 31.9687Z" fill="black"/>
<path d="M28.4236 36.1098C25.4276 35.953 22.9805 35.0118 20.5962 30.7608C22.604 32.5334 24.9727 33.2079 27.4668 33.5216L27.7962 34.9647C27.8589 35.2157 28.2354 35.953 28.4236 36.1098Z" fill="black"/>
<path d="M28.2982 35.5294C28.8315 36.5334 29.1453 37.7883 28.8158 38.902C28.5649 39.6863 27.8433 40.2667 27.059 40.4863C25.2394 40.9726 23.1374 40.204 21.5217 39.3412C19.5296 38.2275 18.0551 36.3608 17.1139 34.3216C17.0511 34.1647 17.2707 34.0392 17.3649 34.1961C17.6943 34.8549 18.0707 35.4981 18.4943 36.0785C18.9178 36.6745 19.4041 37.2236 19.9531 37.7098C21.5531 39.153 23.7178 40.0471 25.8825 40.0471C28.11 39.9843 28.957 38.8079 28.4394 36.6432C28.3609 36.2981 28.2354 35.9373 28.0629 35.6392C27.9688 35.5138 28.2041 35.3726 28.2982 35.5294Z" fill="black"/>
<path d="M34.3688 16.6902C34.6511 18.0079 34.4315 18.8863 34.306 22.5255C34.2433 24.251 33.9766 24.8942 33.8982 26.8236C33.8668 27.702 33.2237 28.9098 32.9884 29.6157C32.6747 30.5726 32.3609 31.8589 31.6394 32.7844C31.2629 33.2549 30.808 33.5373 30.055 33.6628C29.8041 33.7098 29.5531 33.3334 29.3492 33.4118C26.8864 34.4942 24.1884 33.9922 21.7413 31.8589C20.6747 30.9177 19.0747 28.6432 18.4001 27.0746C18.259 26.7451 17.6315 27.4353 16.7374 26.4471C15.4982 25.0981 14.008 22.3844 14.7452 17.5844C15.9374 9.80396 22.1021 8.89416 26.6668 9.7569C31.2629 10.6196 33.6158 13.2236 34.3688 16.6902Z" fill="white"/>
<path d="M17.5217 27.8275C17.1609 27.2314 16.6903 26.6981 16.2668 26.1334C15.6393 25.2706 15.1687 24.2824 14.855 23.2628C13.2393 18.2118 14.7766 11.3569 20.4236 9.72551C22.4942 9.09806 24.6903 9.14512 26.7923 9.53727C29.6158 10.0235 32.4393 11.4667 33.8197 14.0863C34.3217 15.0588 34.6981 16.1098 34.8079 17.1922C34.8707 17.9137 34.7452 18.6353 34.6668 19.3412C34.5726 20.0471 34.557 20.7373 34.5256 21.4432C34.4472 22.4941 34.306 23.5294 34.2589 24.5804C34.1962 25.2863 34.2432 25.9922 34.1334 26.6981C33.8981 28.1098 33.3648 29.4275 32.9256 30.7608C32.5805 31.7804 32.2354 33.0353 31.1844 33.553C30.4315 34.0079 29.5217 34.0236 28.6903 33.9608C28.5648 33.9608 28.4707 33.9294 28.3766 33.9608C26.353 34.353 24.4707 34.0079 22.7766 32.7843C21.9609 32.1412 20.9883 31.5294 20.3766 30.6824C20.3138 30.5883 20.4393 30.4785 20.5177 30.5569C21.004 31.0432 21.5844 31.4196 22.1805 31.7804C22.7923 32.1569 23.3413 32.549 23.953 32.8157C25.255 33.4432 26.7138 33.5373 28.1256 33.2863C28.204 33.2706 28.3609 33.2392 28.4393 33.2549C28.957 33.2863 29.4589 33.3334 29.9609 33.2549C30.5726 33.1608 31.1687 32.8941 31.5138 32.3922C31.8746 31.8902 32.0628 31.2 32.3138 30.5412C32.8001 29.2392 33.3805 27.953 33.6785 26.6039C33.804 26.0236 33.8354 25.1451 33.8825 24.5334C33.9923 23.1373 34.2432 21.7569 34.2432 20.3451C34.2589 19.6392 34.2746 18.9334 34.2589 18.2432C34.0707 14.7294 32.0472 11.7177 28.706 10.4785C24.9883 9.08237 20.0315 9.17649 17.3021 12.4235C15.9844 13.9765 15.3726 16.0157 15.0903 18.0079C14.557 21.1765 14.7609 24.3137 17.2864 26.6196L18.0236 27.3883C18.306 27.7961 17.7726 28.2039 17.5217 27.8275Z" fill="black"/>
<path d="M19.3726 22.8392C19.3726 22.8392 18.8864 20.4863 16.5962 20.7686C14.6197 21.0196 13.9295 25.7569 18.4158 27.0745" fill="white"/>
<path d="M18.2118 25.0196C17.851 24.8157 17.6 24.4706 17.5844 24.047C17.6 23.7333 17.6471 23.3725 17.5687 23.0588C17.5216 22.7608 17.2079 22.6823 16.9726 22.698C16.7216 22.7451 16.5647 23.0588 16.5177 23.3098C16.5177 23.3255 16.502 23.3725 16.502 23.3882C16.4863 23.4667 16.3608 23.4667 16.3295 23.3882C16.1255 22.7765 16.5804 22.1019 17.2393 22.1804C18.1647 22.2431 18.2902 23.2157 18.1177 23.9529C18.0236 24.2667 18.1491 24.549 18.3216 24.8157L18.353 24.8627C18.4314 24.9569 18.3059 25.0823 18.2118 25.0196Z" fill="black"/>
<path d="M30.7609 21.1765C30.9962 22.2902 31.4354 23.3255 31.9845 24.2981C32.4707 25.4902 31.2158 26.6196 30.1021 26.5726C29.9766 26.5726 29.9609 26.4 30.0707 26.3687C30.7766 26.149 31.4198 25.6785 31.5296 24.9569C31.5766 24.7373 31.5139 24.549 31.4041 24.3608C30.8864 23.3883 30.5727 22.2745 30.6511 21.1765C30.6511 21.0981 30.7609 21.0981 30.7609 21.1765Z" fill="black"/>
<path d="M19.2942 22.8549C18.9334 21.9294 18.1491 21.051 17.0981 21.0667C17.004 21.051 16.8471 21.0824 16.753 21.0824C16.4863 21.0981 16.2667 21.1922 16.0628 21.3804C15.0589 22.3843 15.2314 24.1569 16.0471 25.2706C16.3295 25.6628 16.6903 26.0079 17.0981 26.2902C17.5059 26.5726 17.9608 26.7922 18.4471 26.9804C18.5569 27.0118 18.5099 27.1843 18.4001 27.1686C17.3491 26.949 16.3452 26.4314 15.655 25.5686C14.5883 24.2824 14.3687 22.1334 15.6393 20.8785C15.9216 20.6275 16.3138 20.4392 16.7059 20.4392C16.8314 20.4392 17.0197 20.4079 17.1452 20.4392C17.804 20.4706 18.4314 20.8 18.8393 21.3177C19.2001 21.7569 19.404 22.2902 19.4667 22.8235C19.4667 22.9177 19.3255 22.949 19.2942 22.8549Z" fill="black"/>
<path d="M28.0786 33.3804C28.8001 33.2236 29.2237 32.5177 29.1609 31.7961C29.1452 31.6863 29.3178 31.6549 29.3335 31.7647C29.6001 32.6589 29.1139 33.6314 28.2511 33.9765C27.7962 34.149 27.608 33.4589 28.0786 33.3804Z" fill="black"/>
<path d="M29.5686 28.1412C28.5647 29.098 26.6666 28.3294 26.1647 27.1686C26.1019 27.0275 26.2588 26.902 26.3843 26.9647C26.6509 27.1059 26.8862 27.2471 27.1372 27.3569C27.8588 27.6863 28.6117 27.953 29.4117 27.8745C29.5686 27.8431 29.6784 28.0314 29.5686 28.1412Z" fill="black"/>
<path d="M24.9099 22.7765C24.5334 22.7608 24.251 22.4471 24.2824 22.0706L24.2981 21.6314C24.3138 21.2549 24.6275 20.9726 25.004 21.004C25.3804 21.0197 25.6628 21.3334 25.6314 21.7098L25.6157 22.1491C25.6001 22.5098 25.2863 22.7922 24.9099 22.7765Z" fill="black"/>
<path d="M31.5137 23.0118C31.1686 22.9961 30.902 22.6981 30.9177 22.353L30.9333 21.9451C30.949 21.6 31.2471 21.3334 31.5922 21.349C31.9373 21.3647 32.2039 21.6628 32.1882 22.0079L32.1726 22.4157C32.1569 22.7608 31.8588 23.0275 31.5137 23.0118Z" fill="black"/>
<path d="M26.3216 21.9294C25.804 21.5843 25.2393 21.349 24.6118 21.4745C24.4079 21.5059 24.204 21.5686 24.0785 21.7098C24.0314 21.7726 23.9216 21.7569 23.9216 21.6628C23.9373 21.349 24.204 21.1451 24.455 21.0196C24.9412 20.7686 25.6157 20.8157 26.055 21.1451C26.2118 21.2392 26.7452 21.8196 26.4628 21.9451C26.4001 21.9765 26.3687 21.9608 26.3216 21.9294Z" fill="black"/>
<path d="M30.8079 22.0079C30.8079 21.3491 31.6235 21.1138 32.1255 21.3491C32.4079 21.4745 32.6118 21.7255 32.6902 22.0236C32.7216 22.1177 32.5804 22.1961 32.5177 22.1177C32.251 21.804 31.7961 21.6471 31.4353 21.8353C31.3255 21.8981 31.3098 21.9451 31.2784 22.0079C31.2784 22.3216 30.8235 22.3059 30.8079 22.0079Z" fill="black"/>
<path d="M27.0746 19.3412C27.404 19.451 27.7334 19.153 27.6706 18.7922C27.6393 18.604 27.5608 18.4157 27.404 18.2745C26.9334 17.851 24.9883 17.4745 23.8118 18.0236C22.7765 18.5255 25.5687 18.8392 27.0746 19.3412Z" fill="black"/>
<path d="M31.7648 19.5922C31.4982 19.6863 31.2158 19.404 31.2629 19.0745C31.2786 18.902 31.3413 18.7295 31.4668 18.604C31.8433 18.2275 33.1295 17.9295 33.9452 18.5098C34.6511 18.9961 32.9884 19.1373 31.7648 19.5922Z" fill="black"/>
<path d="M36.3922 17.7411C35.953 19.1059 34.902 20.251 34.2275 21.0196C34.3843 20.2823 34.2432 19.8431 34.2745 19.3255C34.3216 18.6196 34.5726 17.8353 34.5255 17.5215C34.4942 17.2392 34.4314 16.9725 34.3687 16.6902C34.2902 16.3451 34.1961 16.0157 34.0863 15.6862C31.6236 18.0862 27.404 15.7176 27.404 15.7176C27.404 15.7176 26.5098 16.4549 24.9412 16.2823C23.2628 16.1098 22.8079 15.0745 22.8079 15.0745C22.353 18.2431 19.3569 17.0353 19.9059 20.1882C20.0628 21.051 20.0628 21.8823 19.3255 22.7451C19.2 22.3059 18.5883 20.5176 16.5804 20.7686C14.6824 21.0039 13.9608 25.396 17.8824 26.9019C17.8353 28.3608 17.9922 30.3372 17.8353 29.8196C16.7373 26.4313 14.5412 26.9647 13.5059 24.4078C13.0196 23.1843 13.0981 22.1019 13.3491 21.3019C13.6 20.5333 13.5843 19.7019 13.3334 18.9333C13.051 18.0392 12.8314 16.6902 13.3491 15.0588C14.2275 12.2666 16.1098 11.6235 16.5961 11.2941C17.0824 10.9647 16.8471 7.95291 20.251 7.01173C22.9647 6.25879 25.004 7.84311 25.6 7.7333C26.1961 7.6235 30.3687 4.8784 33.5843 7.46664C36.6902 9.97644 35.5294 12.9411 35.5294 12.9411C35.5294 12.9411 37.4589 14.4313 36.3922 17.7411Z" fill="black"/>
<path d="M31.8588 30.7146C32.0941 29.4754 32.1725 28.2205 31.9686 26.9812C31.8901 26.5107 31.6078 25.7263 31.1686 26.0714C30.996 26.2126 30.1019 26.495 29.9294 26.5107C29.4274 26.5577 29.0509 26.495 28.6901 26.2126C28.2823 25.8832 28.2823 25.742 28.1882 25.7107C26.5411 25.1616 24.4705 24.6126 23.796 26.8244C23.247 28.6283 21.8666 30.4008 20.847 28.644C20.0627 27.3107 20.1098 24.7695 20 24.2361C19.7333 22.9185 19.3568 22.2754 19.1372 22.4636C19.1372 22.8871 19.2784 27.891 19.2941 28.1577C19.4039 29.5381 19.5764 29.9773 20.2039 30.8714C20.8313 31.7656 23.0274 34.1969 25.8823 34.4008C28.7529 34.6048 30.3372 34.3695 31.9372 32.5342C33.3803 30.8714 33.4274 27.4205 33.4274 27.4205C32.7215 29.5067 32.2352 30.1969 31.8588 30.7146ZM25.396 27.1852C26.2117 26.291 27.4039 27.3263 28.6901 27.4205C29.9607 27.5146 30.4784 26.7146 30.5725 28.1263C30.6039 28.4714 30.6509 29.0518 30.6352 29.444C30.6352 29.4597 30.6352 29.4754 30.6352 29.491C30.5882 29.9303 30.447 30.4165 30.0078 30.6832C29.0823 31.2636 27.5921 31.1224 26.6352 30.9342C25.3019 30.6675 25.0196 30.0558 24.9568 29.7734C24.8627 28.5656 25.0666 27.5459 25.396 27.1852Z" fill="black"/>
<path d="M45.2078 13.2235C54.7294 31.5608 37.9921 52.251 18.0392 47.2C9.08231 44.9725 1.88231 37.2078 0.392112 28.0941C-1.30201 19.0274 2.79211 9.28627 10.447 4.15686C20.9411 -3.05883 35.4823 -0.658831 42.996 9.66274C43.0431 9.7098 43.0274 9.78823 42.9647 9.83529C42.9176 9.88235 42.8392 9.86666 42.7921 9.80392C41.7568 8.47058 40.5803 7.26274 39.2941 6.18039C37.1764 4.37646 34.698 2.9647 32.0784 2.00784C18.7451 -2.82354 4.10976 5.20784 1.19211 19.1529C-2.10201 34.7765 11.1843 49.1608 27.0274 47.0118C39.247 45.4745 48.3294 34.1961 47.3254 21.9294C47.1058 18.9647 46.3215 16.0314 45.0196 13.3333C44.9882 13.2863 45.0196 13.2235 45.0666 13.1922C45.1137 13.1608 45.1764 13.1765 45.2078 13.2235Z" fill="black"/>
</g>
</svg>
