<svg width="32" height="32" viewBox="0 0 32 32" fill="none" xmlns="http://www.w3.org/2000/svg">
<mask id="mask0_1812_40913" style="mask-type:alpha" maskUnits="userSpaceOnUse" x="0" y="0" width="32" height="32">
<circle cx="15.9475" cy="15.9475" r="15.9475" fill="#D9D9D9"/>
</mask>
<g mask="url(#mask0_1812_40913)">
<path d="M24.6902 29.1138C24.617 29.166 24.5333 29.2183 24.4601 29.2706C24.3764 29.3229 24.3032 29.3752 24.2196 29.417C24.1464 29.4589 24.0836 29.5007 24.0104 29.5425C24 29.553 23.9895 29.553 23.9791 29.5634C23.7385 29.7098 23.4876 29.8458 23.2366 29.9713C23.1634 30.0131 23.0797 30.0549 23.0065 30.0863C23.0065 30.0863 22.996 30.0968 22.9856 30.0968C22.9019 30.1386 22.8183 30.1804 22.7346 30.2223C22.5673 30.3059 22.3895 30.3791 22.2222 30.4523C22.1385 30.4942 22.0444 30.5255 21.9608 30.5569C21.8771 30.5883 21.783 30.6301 21.6993 30.6615C21.6157 30.6928 21.5215 30.7347 21.4379 30.766C21.4379 30.766 21.4379 30.766 21.4274 30.766C21.3438 30.7974 21.2496 30.8288 21.166 30.8602C20.9777 30.9229 20.7791 30.9857 20.5908 31.0484C20.5281 31.0693 20.4549 31.0902 20.3921 31.1111C20.1934 31.1739 19.9947 31.2262 19.796 31.268C19.7228 31.2889 19.6496 31.2994 19.566 31.3203C19.3777 31.3621 19.1791 31.404 18.9908 31.4458C18.949 31.4562 18.9176 31.4562 18.8758 31.4667C18.813 31.4772 18.7398 31.4876 18.6771 31.4981C18.583 31.5085 18.4993 31.5294 18.4052 31.5399C18.3634 31.5504 18.3215 31.5504 18.2797 31.5608C18.2274 31.5713 18.1647 31.5817 18.1019 31.5817C17.9346 31.6026 17.7568 31.6236 17.5895 31.6445C17.5372 31.6549 17.4745 31.6549 17.4222 31.6654H17.4117C17.3385 31.6758 17.2653 31.6758 17.1921 31.6863C17.1189 31.6968 17.0457 31.6968 16.9725 31.6968C16.9307 31.6968 16.8784 31.7072 16.8366 31.7072C16.7529 31.7072 16.6797 31.7177 16.6065 31.7177C16.5019 31.7177 16.4078 31.7281 16.3032 31.7281C16.1987 31.7281 16.1045 31.7281 16 31.7281C15.9268 31.7281 15.8536 31.7281 15.7804 31.7281C11.3673 31.6654 7.40389 29.7935 4.56991 26.8236C4.56991 26.8236 4.56991 26.8131 4.55945 26.8131C4.24572 26.5308 4.51762 25.0249 5.78298 24.0732C7.37252 22.8706 11.1791 22.1177 11.1791 22.1177C11.1791 22.1177 12.6536 21.8772 18.1228 23.017C21.3228 23.6863 23.7594 24.6589 25.1189 27.2942C25.4013 27.8379 25.6836 28.6745 24.6902 29.1138Z" fill="white"/>
<path d="M18.1543 22.902C20.1621 23.3098 22.3059 23.749 23.9582 25.0772C24.5124 25.5268 24.8784 26.1856 25.1817 26.8236C25.3281 27.1373 25.4745 27.4615 25.5896 27.8066C25.6523 28.0366 25.7464 28.2981 25.6941 28.57C25.6837 28.6432 25.6209 28.7373 25.5686 28.7896C25.3281 29.0301 25.0667 29.1765 24.8052 29.3647C23.268 30.4314 21.5007 31.1843 19.6706 31.5817C15.5922 32.4706 11.1791 31.7804 7.59217 29.6366C6.40002 28.9151 5.30198 28.0366 4.3608 27.0013C4.25623 26.8758 4.25623 26.6667 4.25623 26.5307C4.26668 26.217 4.35034 25.9138 4.45492 25.6314C4.7059 24.983 5.03008 24.3347 5.58433 23.885C5.98172 23.6131 6.41047 23.383 6.84969 23.1948C8.23008 22.6092 9.68368 22.2013 11.1791 22.034C11.3046 22.0236 11.3255 22.2013 11.2 22.2222C9.76734 22.5151 8.34511 22.9543 7.01701 23.5504C6.53596 23.7909 6.02355 24 5.63662 24.3765C5.2706 24.7739 5.00917 25.2654 4.80002 25.7673C4.66407 26.0706 4.56995 26.5517 4.61178 26.7922C5.2706 27.5765 6.04446 28.2667 6.88106 28.8628C11.4615 32.0628 18.4157 32.2719 23.2889 29.6053C23.7281 29.3647 24.1569 29.0928 24.5647 28.8105C24.7634 28.6745 24.9726 28.5595 25.1294 28.4026C25.1399 28.3922 25.1294 28.4026 25.1294 28.4131C25.1294 28.4236 25.119 28.434 25.119 28.434C25.1294 28.3085 25.0876 28.1412 25.0353 27.9739C24.8471 27.3673 24.5438 26.7294 24.2196 26.1752C23.7072 25.349 22.8392 24.8262 21.9608 24.4079C21.3543 24.1255 20.7164 23.9059 20.068 23.6968C19.4196 23.4876 18.7608 23.3098 18.102 23.153C17.9347 23.1111 17.9869 22.8706 18.1543 22.902Z" fill="black"/>
<path d="M26.1227 30.5987C25.924 29.051 25.0456 26.447 24.5123 25.7464C23.9267 24.983 23.6861 24.7425 21.7306 24.0836C21.626 23.5608 21.2391 22.2431 20.7789 21.6889C20.0783 20.6327 18.1646 20.3921 17.5894 20.5176C17.5894 20.5176 14.494 19.4301 10.928 19.4301C9.79855 19.681 8.49136 20.1935 7.78025 21.2706C7.29921 21.9817 7.843 22.2118 7.60247 22.8601C7.53973 23.0274 6.07568 23.864 5.4796 24.366C5.2077 24.5856 4.90444 25.1399 4.69528 25.8614C4.27698 27.3359 4.72666 29.3752 4.20378 31.1529C3.19986 34.583 1.16064 35.6078 1.16064 35.6078H28.1829C28.1619 35.5974 26.5515 33.8614 26.1227 30.5987Z" fill="white"/>
<path d="M25.966 30.6196C25.7568 29.2497 25.3385 27.8902 24.8052 26.6144C24.5437 25.9974 24.1464 25.4013 23.5921 25.0353C23.3097 24.8575 22.996 24.7216 22.6718 24.5856C22.3477 24.4601 22.013 24.3451 21.6888 24.2301C21.6365 24.2091 21.5947 24.1673 21.5843 24.115C21.5424 23.9059 21.4901 23.7072 21.4274 23.498C21.1555 22.651 20.8627 21.7098 20.0679 21.2183C19.4614 20.8523 18.7398 20.6745 18.0392 20.6431C17.9032 20.6431 17.7568 20.6431 17.6313 20.664H17.5895C17.579 20.664 17.5581 20.664 17.5477 20.6536C17.0457 20.4131 16.4914 20.2667 15.9477 20.1203C14.3163 19.7438 12.6117 19.5869 10.9385 19.5765C9.91367 19.817 8.48099 20.3817 7.85354 21.4274C7.74896 21.5948 7.69668 21.7621 7.71759 21.9503C7.73851 22.1595 7.81171 22.3895 7.75942 22.6091C7.73851 22.7033 7.71759 22.8078 7.67576 22.8915C7.5921 23.0065 7.45615 23.0797 7.35158 23.1529C6.80779 23.5085 6.25354 23.8222 5.73066 24.1882C5.55289 24.3137 5.38556 24.4287 5.26007 24.6065C4.89406 25.1294 4.67445 25.7569 4.58034 26.3843C4.41302 27.6601 4.58034 28.9569 4.41302 30.2327C4.22478 31.5085 3.73328 32.7425 3.04308 33.8301C2.56204 34.5621 1.97641 35.2418 1.23393 35.7124L1.16073 35.4196H28.183L28.0679 35.681C27.7542 35.3255 27.5032 34.9386 27.2731 34.5307C26.562 33.3386 26.1437 31.9895 25.966 30.6196ZM26.2797 30.5778C26.3947 31.4667 26.6143 32.3451 26.949 33.1817C27.2836 34.0078 27.7019 34.8131 28.2875 35.4928C28.3712 35.5869 28.298 35.7647 28.1725 35.7542H1.15027C1.06661 35.7542 0.993408 35.681 0.993408 35.5974C0.993408 35.5346 1.02478 35.4823 1.07707 35.4614C1.24439 35.3673 1.41171 35.2314 1.56857 35.0954C2.93851 33.8614 3.79602 32.0314 4.07838 30.2118C4.3189 28.5072 3.86923 26.6667 4.63262 25.0457C4.8104 24.6693 5.03001 24.2719 5.38557 24.0314C6.03393 23.5503 6.74504 23.1948 7.38295 22.7242C7.39341 22.7242 7.39341 22.7137 7.39341 22.7137C7.38295 22.7242 7.37249 22.7451 7.37249 22.7555C7.43524 22.6091 7.45615 22.4836 7.43524 22.3163C7.40387 22.1072 7.35158 21.8248 7.42478 21.6052C7.45615 21.4797 7.5189 21.3647 7.58164 21.2706C8.33458 20.1412 9.66269 19.6392 10.928 19.3569C11.2836 19.3673 11.6496 19.3046 12.0052 19.3046C12.4967 19.3046 12.9986 19.3778 13.4901 19.4405C14.9019 19.6601 16.2614 20.0366 17.6522 20.3399L17.5581 20.3294C17.8823 20.2667 18.1856 20.298 18.4993 20.3399C20.5071 20.6431 21.1869 21.5216 21.7307 23.3935C21.7934 23.6026 21.8457 23.8118 21.898 24.0314L21.7934 23.9059C22.7973 24.2614 23.9267 24.5856 24.5646 25.5163C24.7947 25.7987 24.962 26.1333 25.1084 26.468C25.6418 27.8065 26.0601 29.1555 26.2797 30.5778Z" fill="black"/>
<path d="M9.64174 23.7177C10.4156 25.37 11.6182 26.7713 13.0509 27.8798C13.1032 27.9216 13.0509 28.0052 12.9881 27.9739C11.7123 27.3673 10.6352 26.332 9.9973 25.0771C9.78815 24.6588 9.61037 24.2092 9.54763 23.7386C9.52671 23.6863 9.61037 23.6654 9.64174 23.7177Z" fill="black"/>
<path d="M21.8876 24.0627C21.919 25.8091 21.2078 27.5974 19.8484 28.7268C19.817 28.7582 19.7752 28.7477 19.7438 28.7163C19.7124 28.685 19.7229 28.6431 19.7543 28.6118C20.0575 28.3189 20.3608 28.0157 20.5909 27.6601C21.0719 26.9699 21.3647 26.1542 21.5007 25.3281C21.5634 24.9202 21.6052 24.481 21.5739 24.0732C21.5634 23.8745 21.8771 23.8536 21.8876 24.0627Z" fill="black"/>
<path d="M15.7281 28.2144C15.4876 29.0615 15.2889 29.9817 15.4039 30.8601C15.4353 31.0588 15.132 31.1111 15.0902 30.902C15.0379 30.4209 15.1006 29.9503 15.1843 29.4902C15.2784 29.0301 15.3934 28.5909 15.5503 28.1516C15.5921 28.0471 15.7699 28.0994 15.7281 28.2144Z" fill="black"/>
<path d="M19.0536 28.0575C19.3987 28.8 19.6392 29.5738 19.8274 30.3581C19.8483 30.4418 19.796 30.5255 19.7124 30.5464C19.6287 30.5673 19.5451 30.515 19.5242 30.4313C19.4196 29.8457 19.2836 29.2601 19.0954 28.6849C19.0326 28.4967 18.9699 28.3085 18.8967 28.1202C18.8549 28.0261 19.0013 27.9529 19.0536 28.0575Z" fill="black"/>
<path d="M7.82218 22.8183C8.20911 24.9307 9.69408 26.7189 11.4823 27.8588C12.0888 28.2457 12.7372 28.5804 13.4065 28.8523C13.4483 28.8732 13.4692 28.915 13.4483 28.9568C13.4379 28.9987 13.3856 29.0196 13.3542 28.9987C12.664 28.7477 11.9947 28.434 11.3673 28.0575C10.0915 27.3045 8.97251 26.2588 8.21957 24.983C7.83264 24.3242 7.52937 23.634 7.38296 22.881C7.36205 22.7555 7.44571 22.6405 7.5712 22.6196C7.68623 22.5882 7.81172 22.6823 7.82218 22.8183Z" fill="black"/>
<path d="M15.1005 31.0902C14.8077 31.0588 14.5986 30.7869 14.6613 30.4941L14.7763 29.9399C14.8182 29.7202 15.0273 29.5634 15.2469 29.5948C15.4665 29.6157 15.6443 29.8039 15.6443 30.034V30.5987C15.6548 30.8915 15.4038 31.1216 15.1005 31.0902Z" fill="black"/>
<path d="M19.9215 30.7032C19.6392 30.8078 19.3359 30.6405 19.2627 30.3477L19.1268 29.7934C19.0745 29.5738 19.1895 29.3542 19.4091 29.2706C19.6183 29.1974 19.8588 29.2915 19.9529 29.4902L20.2039 30.0026C20.3294 30.2849 20.2039 30.6091 19.9215 30.7032Z" fill="black"/>
<path d="M6.29542 35.5974C6.29542 35.5974 6.2013 33.2653 5.88757 32.6379" stroke="black" stroke-width="5.1257" stroke-miterlimit="10" stroke-linecap="round" stroke-linejoin="round"/>
<path d="M24.7529 30.3895C24.7529 30.3895 25.3385 33.6732 25.1085 35.5974" stroke="black" stroke-width="5.1257" stroke-miterlimit="10" stroke-linecap="round" stroke-linejoin="round"/>
<path d="M23.0692 33.5477C23.0692 33.5477 21.5215 33.7778 20.162 33.7151" stroke="black" stroke-width="5.1257" stroke-miterlimit="10" stroke-linecap="round" stroke-linejoin="round"/>
<path d="M11.0953 22.4419C10.9489 22.0236 10.8862 21.5948 10.9176 21.1556C10.9176 21.1138 10.9489 21.0928 10.9908 21.0928C11.0221 21.0928 11.0535 21.1242 11.0535 21.1556C11.0849 21.553 11.1999 21.9608 11.3881 22.3059C11.4823 22.5151 11.1685 22.651 11.0953 22.4419Z" fill="black"/>
<path d="M18.1646 22.9961C17.8717 22.3373 17.1502 22.0026 16.5123 21.7726C16.1149 21.6471 15.6757 21.553 15.2574 21.4902C14.243 21.3334 12.8103 21.0928 11.7959 20.9883C11.7855 20.9883 11.7855 20.9673 11.7959 20.9673C12.0887 20.936 12.3815 20.936 12.6744 20.936C13.5528 20.9569 14.4312 21.051 15.2992 21.187C16.1672 21.3229 17.0979 21.5843 17.7567 22.2118C17.9659 22.4314 18.1541 22.6824 18.2064 22.9856C18.2168 23.017 18.175 23.0275 18.1646 22.9961Z" fill="black"/>
<path d="M19.1373 25.6837C18.9177 26.7608 17.4955 27.4092 15.1007 26.4366C12.6118 25.4327 11.5347 23.0379 11.2628 22.3268C12.7373 19.566 11.7125 17.6523 11.7125 17.6523C15.1112 17.3595 18.0811 21.3334 18.0811 21.3334L18.5412 23.2994C18.5831 23.4667 18.6667 23.6131 18.7922 23.7177C19.0118 24.1046 19.2733 24.9935 19.1373 25.6837Z" fill="white"/>
<path d="M11.2106 22.3582C11.4093 22.055 11.5348 21.6994 11.6184 21.3543C11.7753 20.6327 11.8276 19.9007 11.838 19.1687V18.8968C11.8067 18.6249 11.7125 18.3425 11.608 18.0916C11.472 17.7569 11.9635 17.5478 12.1204 17.8824C12.1413 17.9242 12.1413 17.9974 12.1413 18.0393C12.1727 19.4615 12.2354 21.2916 11.3361 22.4733C11.2733 22.536 11.1478 22.4419 11.2106 22.3582Z" fill="black"/>
<path d="M18.1962 21.3125C18.3531 21.4066 18.4053 21.5321 18.4263 21.6576C18.489 21.9086 18.4681 22.1804 18.5308 22.4419C18.5831 22.6929 18.74 22.9334 18.7818 23.1948C18.8341 23.4667 18.991 24.0419 19.0537 24.3242C19.0746 24.387 19.0328 24.4602 18.9596 24.4706C18.9178 24.4811 18.8864 24.4706 18.855 24.4497C18.7191 24.3347 18.6563 24.2197 18.5727 24.0733C18.4367 23.8223 18.3426 23.5922 18.2589 23.3099C18.1857 23.0589 18.2171 22.787 18.1544 22.5255C18.1021 22.2746 17.9557 22.034 17.9034 21.7726C17.872 21.6471 17.8615 21.5112 17.9557 21.3543C18.0184 21.2916 18.123 21.2706 18.1962 21.3125Z" fill="black"/>
<path d="M18.9491 24.0732C16.9517 23.9686 15.3204 23.3412 13.7308 20.5072C15.0694 21.6889 16.6485 22.1386 18.3112 22.3477L18.5308 23.3098C18.5727 23.4771 18.8236 23.9686 18.9491 24.0732Z" fill="black"/>
<path d="M18.8655 23.6863C19.221 24.3556 19.4302 25.1922 19.2106 25.9347C19.0432 26.4576 18.5622 26.8445 18.0393 26.9909C16.8262 27.3151 15.4249 26.8027 14.3478 26.2275C13.0197 25.485 12.0367 24.2406 11.4093 22.8811C11.3674 22.7765 11.5138 22.6929 11.5766 22.7974C11.7962 23.2367 12.0472 23.6654 12.3295 24.0523C12.6119 24.4497 12.9361 24.8157 13.3021 25.1399C14.3687 26.102 15.8119 26.6981 17.255 26.6981C18.74 26.6563 19.3047 25.872 18.9596 24.4288C18.9073 24.1988 18.8236 23.9582 18.7086 23.7595C18.6459 23.6759 18.8027 23.5818 18.8655 23.6863Z" fill="black"/>
<path d="M22.9125 11.1268C23.1007 12.0052 22.9543 12.5908 22.8706 15.017C22.8288 16.1673 22.651 16.5961 22.5987 17.8823C22.5778 18.468 22.1491 19.2732 21.9922 19.7438C21.7831 20.3817 21.5739 21.2392 21.0929 21.8562C20.8419 22.1699 20.5386 22.3582 20.0367 22.4418C19.8693 22.4732 19.702 22.2222 19.5661 22.2745C17.9242 22.9961 16.1255 22.6614 14.4942 21.2392C13.7831 20.6118 12.7164 19.0954 12.2667 18.0497C12.1726 17.8301 11.7543 18.2902 11.1582 17.6314C10.3321 16.732 9.33862 14.9229 9.83012 11.7229C10.6249 6.53593 14.7347 5.9294 17.7778 6.50456C20.8419 7.07972 22.4105 8.81567 22.9125 11.1268Z" fill="white"/>
<path d="M11.6811 18.5516C11.4406 18.1543 11.1269 17.7987 10.8445 17.4222C10.4262 16.8471 10.1125 16.1882 9.90333 15.5085C8.82621 12.1412 9.85104 7.57125 13.6158 6.48367C14.9961 6.06537 16.4602 6.09674 17.8615 6.35818C19.7439 6.68237 21.6262 7.64446 22.5465 9.39086C22.8811 10.0392 23.1321 10.7399 23.2053 11.4615C23.2471 11.9425 23.1635 12.4235 23.1112 12.8941C23.0484 13.3647 23.038 13.8248 23.0171 14.2954C22.9648 14.9961 22.8707 15.6863 22.8393 16.3869C22.7975 16.8575 22.8288 17.3281 22.7556 17.7987C22.5988 18.7399 22.2432 19.6183 21.9504 20.5072C21.7203 21.1869 21.4903 22.0235 20.7896 22.3686C20.2876 22.6719 19.6811 22.6824 19.1269 22.6405C19.0432 22.6405 18.9805 22.6196 18.9177 22.6405C17.5687 22.902 16.3138 22.6719 15.1844 21.8562C14.6406 21.4275 13.9922 21.0196 13.5844 20.4549C13.5425 20.3922 13.6262 20.319 13.6785 20.3713C14.0027 20.6954 14.3896 20.9464 14.787 21.1869C15.1948 21.4379 15.5608 21.6994 15.9687 21.8771C16.8367 22.2954 17.8092 22.3582 18.7504 22.1909C18.8027 22.1804 18.9073 22.1595 18.9595 22.1699C19.3046 22.1909 19.6393 22.2222 19.9739 22.1699C20.3818 22.1072 20.7792 21.9294 21.0092 21.5948C21.2497 21.2601 21.3752 20.8 21.5425 20.3608C21.8667 19.4928 22.2537 18.6353 22.4524 17.736C22.536 17.349 22.5569 16.7634 22.5883 16.3556C22.6615 15.4248 22.8288 14.5046 22.8288 13.5634C22.8393 13.0928 22.8497 12.6222 22.8393 12.1621C22.7138 9.81962 21.3648 7.81178 19.1373 6.98563C16.6589 6.05492 13.3543 6.11766 11.5347 8.28237C10.6563 9.31766 10.2484 10.6771 10.0602 12.0052C9.70464 14.1177 9.84059 16.2092 11.5242 17.7464L12.0158 18.2588C12.204 18.5307 11.8484 18.8026 11.6811 18.5516Z" fill="black"/>
<path d="M12.9151 15.2262C12.9151 15.2262 12.5909 13.6575 11.0641 13.8458C9.74642 14.0131 9.28629 17.1713 12.2771 18.0497" fill="white"/>
<path d="M12.1412 16.6798C11.9007 16.5438 11.7334 16.3137 11.7229 16.0314C11.7334 15.8222 11.7647 15.5817 11.7124 15.3726C11.6811 15.1739 11.4719 15.1216 11.3151 15.132C11.1477 15.1634 11.0432 15.3726 11.0118 15.5399C11.0118 15.5503 11.0013 15.5817 11.0013 15.5922C10.9909 15.6445 10.9072 15.6445 10.8863 15.5922C10.7504 15.1843 11.0536 14.7347 11.4928 14.7869C12.1098 14.8288 12.1935 15.4771 12.0785 15.9686C12.0157 16.1778 12.0994 16.366 12.2144 16.5438L12.2353 16.5752C12.2876 16.6379 12.2039 16.7216 12.1412 16.6798Z" fill="black"/>
<path d="M20.5073 14.1176C20.6641 14.8601 20.9569 15.5503 21.3229 16.1987C21.6471 16.9935 20.8105 17.7464 20.068 17.715C19.9844 17.715 19.9739 17.6 20.0471 17.5791C20.5177 17.4327 20.9465 17.119 21.0197 16.6379C21.051 16.4915 21.0092 16.366 20.936 16.2405C20.5909 15.5922 20.3818 14.8497 20.434 14.1176C20.434 14.0654 20.5073 14.0654 20.5073 14.1176Z" fill="black"/>
<path d="M12.8627 15.2366C12.6222 14.6196 12.0993 14.034 11.3987 14.0445C11.3359 14.034 11.2314 14.0549 11.1686 14.0549C10.9908 14.0654 10.8444 14.1281 10.7085 14.2536C10.0392 14.9229 10.1542 16.1046 10.698 16.8471C10.8863 17.1085 11.1268 17.3386 11.3987 17.5268C11.6706 17.7151 11.9739 17.8615 12.298 17.987C12.3712 18.0079 12.3399 18.1229 12.2667 18.1125C11.566 17.966 10.8967 17.6209 10.4366 17.0458C9.72549 16.1883 9.57908 14.7556 10.4261 13.919C10.6144 13.7517 10.8758 13.6262 11.1373 13.6262C11.2209 13.6262 11.3464 13.6053 11.4301 13.6262C11.8693 13.6471 12.2876 13.8667 12.5595 14.2118C12.8 14.5046 12.9359 14.8602 12.9778 15.2157C12.9778 15.2785 12.8837 15.2994 12.8627 15.2366Z" fill="black"/>
<path d="M18.719 22.2536C19.2001 22.149 19.4824 21.6784 19.4406 21.1974C19.4301 21.1242 19.5452 21.1033 19.5556 21.1765C19.7334 21.7725 19.4092 22.4209 18.8341 22.651C18.5308 22.766 18.4053 22.3059 18.719 22.2536Z" fill="black"/>
<path d="M19.7124 18.7608C19.0431 19.3987 17.7778 18.8863 17.4431 18.1124C17.4013 18.0183 17.5059 17.9346 17.5895 17.9765C17.7673 18.0706 17.9242 18.1647 18.0915 18.2379C18.5725 18.4575 19.0745 18.6353 19.6078 18.583C19.7124 18.5621 19.7856 18.6876 19.7124 18.7608Z" fill="black"/>
<path d="M16.6067 15.1843C16.3557 15.1739 16.1674 14.9647 16.1884 14.7137L16.1988 14.4209C16.2093 14.1699 16.4184 13.9817 16.6694 14.0026C16.9204 14.0131 17.1086 14.2222 17.0877 14.4732L17.0772 14.766C17.0668 15.0065 16.8576 15.1948 16.6067 15.1843Z" fill="black"/>
<path d="M21.0092 15.3412C20.7791 15.3307 20.6013 15.132 20.6118 14.902L20.6222 14.6301C20.6327 14.4 20.8314 14.2222 21.0614 14.2327C21.2915 14.2431 21.4693 14.4418 21.4588 14.6719L21.4484 14.9438C21.4379 15.1739 21.2392 15.3516 21.0092 15.3412Z" fill="black"/>
<path d="M17.5478 14.6196C17.2027 14.3896 16.8262 14.2327 16.4079 14.3164C16.2719 14.3373 16.136 14.3791 16.0523 14.4732C16.021 14.515 15.9478 14.5046 15.9478 14.4418C15.9582 14.2327 16.136 14.0967 16.3033 14.0131C16.6275 13.8458 17.0772 13.8771 17.37 14.0967C17.4746 14.1595 17.8301 14.5464 17.6419 14.6301C17.6 14.651 17.5791 14.6405 17.5478 14.6196Z" fill="black"/>
<path d="M20.5387 14.6719C20.5387 14.2327 21.0825 14.0758 21.4171 14.2327C21.6054 14.3163 21.7413 14.4836 21.7936 14.6823C21.8145 14.7451 21.7204 14.7974 21.6786 14.7451C21.5008 14.5359 21.1975 14.4314 20.957 14.5568C20.8838 14.5987 20.8733 14.63 20.8524 14.6719C20.8524 14.881 20.5492 14.8706 20.5387 14.6719Z" fill="black"/>
<path d="M18.0498 12.8941C18.2694 12.9673 18.489 12.7686 18.4471 12.5281C18.4262 12.4026 18.3739 12.2771 18.2694 12.183C17.9556 11.9007 16.6589 11.6497 15.8746 12.0157C15.1844 12.3503 17.0458 12.5595 18.0498 12.8941Z" fill="black"/>
<path d="M21.1766 13.0614C20.9988 13.1242 20.8106 12.936 20.842 12.7163C20.8524 12.6013 20.8942 12.4863 20.9779 12.4026C21.2289 12.1516 22.0864 11.9529 22.6302 12.3399C23.1008 12.6641 21.9923 12.7582 21.1766 13.0614Z" fill="black"/>
<path d="M24.2614 11.8275C23.9686 12.7373 23.2679 13.5007 22.8182 14.0131C22.9228 13.5216 22.8287 13.2288 22.8496 12.8837C22.881 12.4131 23.0483 11.8902 23.0169 11.6811C22.996 11.4928 22.9542 11.3151 22.9124 11.1268C22.8601 10.8968 22.7973 10.6771 22.7241 10.4575C21.0823 12.0575 18.2692 10.4785 18.2692 10.4785C18.2692 10.4785 17.6731 10.97 16.6274 10.8549C15.5084 10.7399 15.2052 10.0497 15.2052 10.0497C14.9019 12.1621 12.9045 11.3569 13.2705 13.4588C13.3751 14.034 13.3751 14.5883 12.8836 15.1634C12.7999 14.8706 12.3921 13.6785 11.0535 13.8458C9.78818 14.0026 9.30713 16.9307 11.9215 17.9347C11.8901 18.9072 11.9947 20.2249 11.8901 19.8798C11.1581 17.6209 9.69406 17.9765 9.00386 16.2719C8.67968 15.4562 8.73197 14.7347 8.89929 14.2013C9.06661 13.6889 9.05615 13.1347 8.88883 12.6222C8.70059 12.0262 8.55419 11.1268 8.89929 10.0392C9.48491 8.1778 10.7398 7.74904 11.064 7.52943C11.3882 7.30982 11.2313 5.30198 13.5006 4.67453C15.3097 4.17257 16.6692 5.22878 17.0666 5.15558C17.464 5.08237 20.2457 3.25231 22.3895 4.9778C24.4601 6.651 23.6862 8.62747 23.6862 8.62747C23.6862 8.62747 24.9725 9.62094 24.2614 11.8275Z" fill="black"/>
<path d="M21.2392 20.4763C21.3961 19.6502 21.4484 18.8136 21.3124 17.9875C21.2601 17.6737 21.0719 17.1509 20.7791 17.3809C20.6641 17.475 20.068 17.6633 19.953 17.6737C19.6183 17.7051 19.3673 17.6633 19.1268 17.475C18.8549 17.2554 18.8549 17.1613 18.7922 17.1404C17.6941 16.7744 16.3137 16.4084 15.8641 17.8829C15.498 19.0855 14.5778 20.2672 13.898 19.0959C13.3752 18.2071 13.4065 16.5129 13.3333 16.1574C13.1556 15.279 12.9046 14.8502 12.7582 14.9757C12.7582 15.258 12.8523 18.594 12.8628 18.7718C12.936 19.692 13.051 19.9848 13.4693 20.5809C13.8876 21.177 15.3516 22.7979 17.2549 22.9339C19.1686 23.0698 20.2248 22.9129 21.2915 21.6894C22.2536 20.5809 22.285 18.2803 22.285 18.2803C21.8144 19.6711 21.4902 20.1312 21.2392 20.4763ZM16.9307 18.1234C17.4745 17.5273 18.2693 18.2175 19.1268 18.2803C19.9739 18.343 20.319 17.8097 20.3817 18.7509C20.4026 18.9809 20.434 19.3678 20.4235 19.6293C20.4235 19.6397 20.4235 19.6502 20.4235 19.6607C20.3922 19.9535 20.298 20.2776 20.0052 20.4554C19.3882 20.8424 18.3948 20.7482 17.7569 20.6227C16.868 20.445 16.6797 20.0371 16.6379 19.8489C16.5752 19.0437 16.7111 18.3639 16.9307 18.1234Z" fill="black"/>
<path d="M30.1386 8.81566C36.4863 21.0405 25.3281 34.834 12.0262 31.4666C6.05491 29.9817 1.25491 24.8052 0.261449 18.7294C-0.867963 12.6849 1.86145 6.19082 6.96472 2.77122C13.9608 -2.03924 23.6549 -0.439241 28.6641 6.44181C28.6954 6.47318 28.685 6.52547 28.6431 6.55684C28.6118 6.58821 28.5595 6.57775 28.5281 6.53592C27.8379 5.64703 27.0536 4.84181 26.1961 4.12024C24.7843 2.91762 23.132 1.97645 21.3856 1.33854C12.4967 -1.88238 2.73988 3.47187 0.794782 12.7686C-1.4013 23.1843 7.45622 32.7738 18.0183 31.3412C26.1647 30.3163 32.2196 22.7974 31.5503 14.6196C31.4039 12.6431 30.8811 10.6876 30.0131 8.88886C29.9922 8.85749 30.0131 8.81566 30.0445 8.79475C30.0758 8.77383 30.1177 8.78429 30.1386 8.81566Z" fill="black"/>
</g>
</svg>
