<svg width="24" height="24" viewBox="0 0 24 24" fill="none" xmlns="http://www.w3.org/2000/svg">
<mask id="mask0_1812_41511" style="mask-type:alpha" maskUnits="userSpaceOnUse" x="0" y="0" width="24" height="24">
<circle cx="11.9607" cy="11.9607" r="11.9607" fill="#D9D9D9"/>
</mask>
<g mask="url(#mask0_1812_41511)">
<path d="M18.5176 21.8353C18.4627 21.8745 18.3999 21.9137 18.345 21.9529C18.2823 21.9921 18.2274 22.0314 18.1647 22.0627C18.1098 22.0941 18.0627 22.1255 18.0078 22.1568C17.9999 22.1647 17.9921 22.1647 17.9843 22.1725C17.8039 22.2823 17.6156 22.3843 17.4274 22.4784C17.3725 22.5098 17.3098 22.5412 17.2548 22.5647C17.2548 22.5647 17.247 22.5725 17.2392 22.5725C17.1764 22.6039 17.1137 22.6353 17.0509 22.6666C16.9254 22.7294 16.7921 22.7843 16.6666 22.8392C16.6039 22.8706 16.5333 22.8941 16.4705 22.9176C16.4078 22.9412 16.3372 22.9725 16.2745 22.9961C16.2117 23.0196 16.1411 23.051 16.0784 23.0745C16.0784 23.0745 16.0784 23.0745 16.0705 23.0745C16.0078 23.098 15.9372 23.1215 15.8745 23.1451C15.7333 23.1921 15.5843 23.2392 15.4431 23.2863C15.396 23.3019 15.3411 23.3176 15.2941 23.3333C15.145 23.3804 14.996 23.4196 14.847 23.451C14.7921 23.4666 14.7372 23.4745 14.6745 23.4902C14.5333 23.5215 14.3843 23.5529 14.2431 23.5843C14.2117 23.5921 14.1882 23.5921 14.1568 23.6C14.1098 23.6078 14.0549 23.6157 14.0078 23.6235C13.9372 23.6314 13.8745 23.647 13.8039 23.6549C13.7725 23.6627 13.7411 23.6627 13.7098 23.6706C13.6705 23.6784 13.6235 23.6863 13.5764 23.6863C13.4509 23.7019 13.3176 23.7176 13.1921 23.7333C13.1529 23.7412 13.1058 23.7412 13.0666 23.749H13.0588C13.0039 23.7568 12.949 23.7568 12.8941 23.7647C12.8392 23.7725 12.7843 23.7725 12.7294 23.7725C12.698 23.7725 12.6588 23.7804 12.6274 23.7804C12.5647 23.7804 12.5098 23.7882 12.4549 23.7882C12.3764 23.7882 12.3058 23.7961 12.2274 23.7961C12.149 23.7961 12.0784 23.7961 11.9999 23.7961C11.945 23.7961 11.8901 23.7961 11.8352 23.7961C8.52544 23.749 5.55289 22.3451 3.4274 20.1176C3.4274 20.1176 3.4274 20.1098 3.41956 20.1098C3.18426 19.898 3.38818 18.7686 4.3372 18.0549C5.52936 17.1529 8.38426 16.5882 8.38426 16.5882C8.38426 16.5882 9.49014 16.4078 13.5921 17.2627C15.9921 17.7647 17.8196 18.4941 18.8392 20.4706C19.0509 20.8784 19.2627 21.5059 18.5176 21.8353Z" fill="white"/>
<path d="M13.6157 17.1765C15.1216 17.4823 16.7294 17.8118 17.9686 18.8078C18.3843 19.1451 18.6588 19.6392 18.8863 20.1176C18.9961 20.3529 19.1059 20.5961 19.1921 20.8549C19.2392 21.0274 19.3098 21.2235 19.2706 21.4274C19.2627 21.4823 19.2157 21.5529 19.1765 21.5921C18.9961 21.7725 18.8 21.8823 18.6039 22.0235C17.451 22.8235 16.1255 23.3882 14.7529 23.6863C11.6941 24.3529 8.38429 23.8353 5.6941 22.2274C4.79998 21.6863 3.97645 21.0274 3.27057 20.251C3.19214 20.1569 3.19214 20 3.19214 19.898C3.19998 19.6627 3.26273 19.4353 3.34116 19.2235C3.52939 18.7372 3.77253 18.251 4.18822 17.9137C4.48626 17.7098 4.80782 17.5372 5.13724 17.3961C6.17253 16.9569 7.26273 16.651 8.38429 16.5255C8.47841 16.5176 8.4941 16.651 8.39998 16.6667C7.32547 16.8863 6.25881 17.2157 5.26273 17.6627C4.90194 17.8431 4.51763 18 4.22743 18.2823C3.95292 18.5804 3.75684 18.949 3.59998 19.3255C3.49802 19.5529 3.42743 19.9137 3.45881 20.0941C3.95292 20.6823 4.53332 21.2 5.16077 21.647C8.59606 24.047 13.8117 24.2039 17.4666 22.2039C17.7961 22.0235 18.1176 21.8196 18.4235 21.6078C18.5725 21.5059 18.7294 21.4196 18.847 21.3019C18.8549 21.2941 18.847 21.302 18.847 21.3098C18.847 21.3176 18.8392 21.3255 18.8392 21.3255C18.847 21.2314 18.8157 21.1059 18.7765 20.9804C18.6353 20.5255 18.4078 20.047 18.1647 19.6314C17.7804 19.0118 17.1294 18.6196 16.4706 18.3059C16.0157 18.0941 15.5372 17.9294 15.051 17.7725C14.5647 17.6157 14.0706 17.4823 13.5765 17.3647C13.451 17.3333 13.4902 17.1529 13.6157 17.1765Z" fill="black"/>
<path d="M19.5922 22.949C19.4432 21.7883 18.7843 19.8353 18.3843 19.3098C17.9451 18.7373 17.7647 18.5569 16.2981 18.0628C16.2196 17.6706 15.9294 16.6824 15.5843 16.2667C15.0588 15.4745 13.6235 15.2941 13.1922 15.3883C13.1922 15.3883 10.8706 14.5726 8.1961 14.5726C7.34904 14.7608 6.36864 15.1451 5.83531 15.953C5.47453 16.4863 5.88237 16.6588 5.70198 17.1451C5.65492 17.2706 4.55688 17.8981 4.10982 18.2745C3.9059 18.4392 3.67845 18.8549 3.52159 19.3961C3.20786 20.502 3.54512 22.0314 3.15296 23.3647C2.40002 25.9373 0.870605 26.7059 0.870605 26.7059H21.1373C21.1216 26.6981 19.9137 25.3961 19.5922 22.949Z" fill="white"/>
<path d="M19.4745 22.9647C19.3177 21.9373 19.0039 20.9177 18.6039 19.9608C18.4079 19.4981 18.1098 19.051 17.6941 18.7765C17.4824 18.6432 17.2471 18.5412 17.0039 18.4392C16.7608 18.3451 16.5098 18.2588 16.2667 18.1726C16.2275 18.1569 16.1961 18.1255 16.1883 18.0863C16.1569 17.9294 16.1177 17.7804 16.0706 17.6236C15.8667 16.9883 15.6471 16.2824 15.051 15.9137C14.5961 15.6392 14.0549 15.5059 13.5294 15.4824C13.4275 15.4824 13.3177 15.4824 13.2235 15.4981H13.1922C13.1843 15.4981 13.1686 15.4981 13.1608 15.4902C12.7843 15.3098 12.3686 15.2 11.9608 15.0902C10.7373 14.8079 9.45884 14.6902 8.20394 14.6824C7.43531 14.8628 6.3608 15.2863 5.89022 16.0706C5.81178 16.1961 5.77257 16.3216 5.78825 16.4628C5.80394 16.6196 5.85884 16.7922 5.81963 16.9569C5.80394 17.0275 5.78825 17.1059 5.75688 17.1686C5.69414 17.2549 5.59218 17.3098 5.51374 17.3647C5.1059 17.6314 4.69022 17.8667 4.29806 18.1412C4.16473 18.2353 4.03923 18.3216 3.94512 18.4549C3.67061 18.8471 3.5059 19.3177 3.43531 19.7883C3.30982 20.7451 3.43531 21.7177 3.30982 22.6745C3.16865 23.6314 2.80002 24.5569 2.28237 25.3726C1.92159 25.9216 1.48237 26.4314 0.925509 26.7843L0.870607 26.5647H21.1373L21.051 26.7608C20.8157 26.4941 20.6275 26.2039 20.4549 25.8981C19.9216 25.0039 19.6079 23.9922 19.4745 22.9647ZM19.7098 22.9334C19.7961 23.6 19.9608 24.2588 20.2118 24.8863C20.4628 25.5059 20.7765 26.1098 21.2157 26.6196C21.2785 26.6902 21.2235 26.8236 21.1294 26.8157H0.862764C0.800019 26.8157 0.745117 26.7608 0.745117 26.6981C0.745117 26.651 0.768647 26.6118 0.807862 26.5961C0.933353 26.5255 1.05884 26.4236 1.17649 26.3216C2.20394 25.3961 2.84708 24.0236 3.05884 22.6588C3.23923 21.3804 2.90198 20 3.47453 18.7843C3.60786 18.502 3.77257 18.2039 4.03923 18.0236C4.52551 17.6628 5.05884 17.3961 5.53727 17.0432C5.54512 17.0432 5.54512 17.0353 5.54512 17.0353C5.53727 17.0432 5.52943 17.0588 5.52943 17.0667C5.57649 16.9569 5.59218 16.8628 5.57649 16.7373C5.55296 16.5804 5.51374 16.3687 5.56865 16.2039C5.59218 16.1098 5.63924 16.0236 5.68629 15.953C6.251 15.1059 7.24708 14.7294 8.1961 14.5177C8.46276 14.5255 8.73727 14.4785 9.00394 14.4785C9.37257 14.4785 9.74904 14.5334 10.1177 14.5804C11.1765 14.7451 12.1961 15.0275 13.2392 15.2549L13.1686 15.2471C13.4118 15.2 13.6392 15.2236 13.8745 15.2549C15.3804 15.4824 15.8902 16.1412 16.2981 17.5451C16.3451 17.702 16.3843 17.8588 16.4235 18.0236L16.3451 17.9294C17.0981 18.1961 17.9451 18.4392 18.4235 19.1373C18.5961 19.349 18.7216 19.6 18.8314 19.851C19.2314 20.8549 19.5451 21.8667 19.7098 22.9334Z" fill="black"/>
<path d="M7.2314 17.7883C7.81179 19.0275 8.71375 20.0785 9.78826 20.9098C9.82748 20.9412 9.78826 21.004 9.7412 20.9804C8.78434 20.5255 7.9765 19.7491 7.49807 18.8079C7.3412 18.4942 7.20787 18.1569 7.16081 17.804C7.14513 17.7647 7.20787 17.7491 7.2314 17.7883Z" fill="black"/>
<path d="M16.4158 18.0471C16.4393 19.3569 15.9059 20.6981 14.8863 21.5451C14.8628 21.5687 14.8314 21.5608 14.8079 21.5373C14.7844 21.5138 14.7922 21.4824 14.8158 21.4589C15.0432 21.2393 15.2707 21.0118 15.4432 20.7451C15.804 20.2275 16.0236 19.6157 16.1256 18.9961C16.1726 18.6902 16.204 18.3608 16.1805 18.055C16.1726 17.9059 16.4079 17.8902 16.4158 18.0471Z" fill="black"/>
<path d="M11.7961 21.1608C11.6157 21.7961 11.4667 22.4863 11.553 23.1451C11.5765 23.2941 11.3491 23.3333 11.3177 23.1765C11.2785 22.8157 11.3255 22.4628 11.3883 22.1177C11.4589 21.7726 11.5451 21.4431 11.6628 21.1137C11.6942 21.0353 11.8275 21.0745 11.7961 21.1608Z" fill="black"/>
<path d="M14.2902 21.0432C14.549 21.6 14.7294 22.1804 14.8706 22.7686C14.8863 22.8314 14.8471 22.8941 14.7843 22.9098C14.7216 22.9255 14.6588 22.8863 14.6431 22.8236C14.5647 22.3843 14.4628 21.9451 14.3216 21.5137C14.2745 21.3726 14.2275 21.2314 14.1726 21.0902C14.1412 21.0196 14.251 20.9647 14.2902 21.0432Z" fill="black"/>
<path d="M5.86673 17.1138C6.15692 18.6981 7.27065 20.0393 8.61182 20.8942C9.06673 21.1844 9.553 21.4353 10.055 21.6393C10.0863 21.6549 10.102 21.6863 10.0863 21.7177C10.0785 21.7491 10.0393 21.7647 10.0157 21.7491C9.4981 21.5608 8.99614 21.3255 8.52555 21.0432C7.56869 20.4785 6.72947 19.6942 6.16477 18.7373C5.87457 18.2432 5.64712 17.7255 5.53731 17.1608C5.52163 17.0667 5.58437 16.9804 5.67849 16.9647C5.76477 16.9412 5.85888 17.0118 5.86673 17.1138Z" fill="black"/>
<path d="M11.3255 23.3177C11.1059 23.2942 10.949 23.0902 10.996 22.8706L11.0823 22.4549C11.1137 22.2902 11.2706 22.1726 11.4353 22.1961C11.6 22.2118 11.7333 22.353 11.7333 22.5255V22.9491C11.7411 23.1687 11.5529 23.3412 11.3255 23.3177Z" fill="black"/>
<path d="M14.9412 23.0275C14.7294 23.1059 14.5019 22.9804 14.447 22.7608L14.3451 22.3451C14.3059 22.1804 14.3921 22.0157 14.5568 21.953C14.7137 21.8981 14.8941 21.9687 14.9647 22.1177L15.1529 22.502C15.247 22.7138 15.1529 22.9569 14.9412 23.0275Z" fill="black"/>
<path d="M4.72153 26.6981C4.72153 26.6981 4.65094 24.949 4.41565 24.4785" stroke="black" stroke-width="5.1257" stroke-miterlimit="10" stroke-linecap="round" stroke-linejoin="round"/>
<path d="M18.5647 22.7922C18.5647 22.7922 19.0039 25.2549 18.8314 26.6981" stroke="black" stroke-width="5.1257" stroke-miterlimit="10" stroke-linecap="round" stroke-linejoin="round"/>
<path d="M17.302 25.1608C17.302 25.1608 16.1412 25.3334 15.1216 25.2863" stroke="black" stroke-width="5.1257" stroke-miterlimit="10" stroke-linecap="round" stroke-linejoin="round"/>
<path d="M8.3215 16.8314C8.2117 16.5177 8.16464 16.1961 8.18817 15.8667C8.18817 15.8353 8.2117 15.8196 8.24307 15.8196C8.2666 15.8196 8.29013 15.8432 8.29013 15.8667C8.31366 16.1647 8.39993 16.4706 8.54111 16.7294C8.6117 16.8863 8.37641 16.9883 8.3215 16.8314Z" fill="black"/>
<path d="M13.6235 17.2471C13.4039 16.7529 12.8628 16.502 12.3843 16.3294C12.0863 16.2353 11.7569 16.1647 11.4431 16.1177C10.6824 16 9.60785 15.8196 8.84707 15.7412C8.83923 15.7412 8.83923 15.7255 8.84707 15.7255C9.06668 15.702 9.28628 15.702 9.50589 15.702C10.1647 15.7177 10.8235 15.7882 11.4745 15.8902C12.1255 15.9922 12.8235 16.1882 13.3177 16.6588C13.4745 16.8235 13.6157 17.0118 13.6549 17.2392C13.6628 17.2628 13.6314 17.2706 13.6235 17.2471Z" fill="black"/>
<path d="M14.3529 19.2628C14.1882 20.0706 13.1215 20.5569 11.3255 19.8275C9.45879 19.0745 8.65094 17.2784 8.44702 16.7451C9.5529 14.6745 8.78428 13.2392 8.78428 13.2392C11.3333 13.0196 13.5607 16 13.5607 16L13.9058 17.4745C13.9372 17.6 14 17.7098 14.0941 17.7882C14.2588 18.0784 14.4549 18.7451 14.3529 19.2628Z" fill="white"/>
<path d="M8.40785 16.7687C8.55686 16.5412 8.65098 16.2745 8.71373 16.0157C8.83137 15.4745 8.87059 14.9255 8.87843 14.3765V14.1726C8.8549 13.9687 8.78432 13.7569 8.70588 13.5687C8.60392 13.3177 8.97255 13.1608 9.0902 13.4118C9.10588 13.4432 9.10588 13.4981 9.10588 13.5295C9.12941 14.5961 9.17647 15.9687 8.50196 16.8549C8.4549 16.902 8.36079 16.8314 8.40785 16.7687Z" fill="black"/>
<path d="M13.6471 15.9843C13.7647 16.0549 13.8039 16.149 13.8196 16.2432C13.8667 16.4314 13.851 16.6353 13.8981 16.8314C13.9373 17.0196 14.0549 17.2 14.0863 17.3961C14.1255 17.6 14.2432 18.0314 14.2902 18.2432C14.3059 18.2902 14.2745 18.3451 14.2196 18.353C14.1883 18.3608 14.1647 18.353 14.1412 18.3373C14.0392 18.251 13.9922 18.1647 13.9294 18.0549C13.8275 17.8667 13.7569 17.6941 13.6941 17.4824C13.6392 17.2941 13.6628 17.0902 13.6157 16.8941C13.5765 16.7059 13.4667 16.5255 13.4275 16.3294C13.4039 16.2353 13.3961 16.1334 13.4667 16.0157C13.5137 15.9687 13.5922 15.953 13.6471 15.9843Z" fill="black"/>
<path d="M14.2118 18.0549C12.7138 17.9765 11.4903 17.5059 10.2981 15.3804C11.302 16.2667 12.4863 16.604 13.7334 16.7608L13.8981 17.4824C13.9295 17.6079 14.1177 17.9765 14.2118 18.0549Z" fill="black"/>
<path d="M14.1491 17.7647C14.4158 18.2667 14.5726 18.8941 14.4079 19.451C14.2824 19.8432 13.9216 20.1333 13.5295 20.2432C12.6197 20.4863 11.5687 20.102 10.7609 19.6706C9.76478 19.1137 9.02753 18.1804 8.55694 17.1608C8.52557 17.0824 8.63537 17.0196 8.68243 17.0981C8.84714 17.4275 9.03537 17.749 9.24714 18.0392C9.4589 18.3373 9.70204 18.6118 9.97655 18.8549C10.7765 19.5765 11.8589 20.0235 12.9413 20.0235C14.055 19.9922 14.4785 19.4039 14.2197 18.3216C14.1805 18.149 14.1177 17.9686 14.0314 17.8196C13.9844 17.7569 14.102 17.6863 14.1491 17.7647Z" fill="black"/>
<path d="M17.1844 8.34512C17.3256 9.00394 17.2158 9.44316 17.153 11.2628C17.1216 12.1255 16.9883 12.4471 16.9491 13.4118C16.9334 13.851 16.6118 14.4549 16.4942 14.8079C16.3373 15.2863 16.1805 15.9294 15.8197 16.3922C15.6314 16.6275 15.404 16.7686 15.0275 16.8314C14.902 16.8549 14.7765 16.6667 14.6746 16.7059C13.4432 17.2471 12.0942 16.9961 10.8707 15.9294C10.3373 15.4588 9.53733 14.3216 9.20007 13.5373C9.12948 13.3726 8.81576 13.7177 8.3687 13.2235C7.74909 12.549 7.00399 11.1922 7.37262 8.79218C7.9687 4.90198 11.0511 4.44708 13.3334 4.87845C15.6314 5.30982 16.8079 6.61178 17.1844 8.34512Z" fill="white"/>
<path d="M8.76083 13.9137C8.58044 13.6157 8.34515 13.349 8.13338 13.0667C7.81966 12.6353 7.58436 12.1412 7.4275 11.6314C6.61966 9.10589 7.38828 5.67844 10.2118 4.86275C11.2471 4.54903 12.3451 4.57256 13.3961 4.76864C14.8079 5.01177 16.2197 5.73334 16.9099 7.04315C17.1608 7.52942 17.3491 8.05491 17.404 8.59609C17.4353 8.95687 17.3726 9.31766 17.3334 9.6706C17.2863 10.0235 17.2785 10.3686 17.2628 10.7216C17.2236 11.2471 17.153 11.7647 17.1295 12.2902C17.0981 12.6431 17.1216 12.9961 17.0667 13.349C16.9491 14.0549 16.6824 14.7137 16.4628 15.3804C16.2902 15.8902 16.1177 16.5177 15.5922 16.7765C15.2157 17.0039 14.7608 17.0118 14.3451 16.9804C14.2824 16.9804 14.2353 16.9647 14.1883 16.9804C13.1765 17.1765 12.2353 17.0039 11.3883 16.3922C10.9804 16.0706 10.4942 15.7647 10.1883 15.3412C10.1569 15.2941 10.2197 15.2392 10.2589 15.2784C10.502 15.5216 10.7922 15.7098 11.0902 15.8902C11.3961 16.0784 11.6706 16.2745 11.9765 16.4079C12.6275 16.7216 13.3569 16.7686 14.0628 16.6431C14.102 16.6353 14.1804 16.6196 14.2197 16.6275C14.4785 16.6431 14.7295 16.6667 14.9804 16.6275C15.2863 16.5804 15.5844 16.4471 15.7569 16.1961C15.9373 15.9451 16.0314 15.6 16.1569 15.2706C16.4 14.6196 16.6902 13.9765 16.8393 13.302C16.902 13.0118 16.9177 12.5726 16.9412 12.2667C16.9961 11.5686 17.1216 10.8784 17.1216 10.1726C17.1295 9.81962 17.1373 9.46668 17.1295 9.12158C17.0353 7.36472 16.0236 5.85883 14.353 5.23923C12.4942 4.54119 10.0157 4.58824 8.65103 6.21177C7.99221 6.98824 7.68632 8.00785 7.54515 9.00393C7.27848 10.5882 7.38044 12.1569 8.64319 13.3098L9.01181 13.6941C9.15299 13.898 8.88632 14.102 8.76083 13.9137Z" fill="black"/>
<path d="M9.68638 11.4196C9.68638 11.4196 9.44324 10.2431 8.29814 10.3843C7.30991 10.5098 6.96481 12.8784 9.20795 13.5373" fill="white"/>
<path d="M9.1059 12.5098C8.92551 12.4079 8.80002 12.2353 8.79218 12.0236C8.80002 11.8667 8.82355 11.6863 8.78433 11.5294C8.7608 11.3804 8.60394 11.3412 8.48629 11.349C8.3608 11.3726 8.28237 11.5294 8.25884 11.6549C8.25884 11.6628 8.251 11.6863 8.251 11.6941C8.24316 11.7334 8.18041 11.7334 8.16473 11.6941C8.06276 11.3883 8.29022 11.051 8.61963 11.0902C9.08237 11.1216 9.14512 11.6079 9.05884 11.9765C9.01178 12.1334 9.07453 12.2745 9.1608 12.4079L9.17649 12.4314C9.21571 12.4785 9.15296 12.5412 9.1059 12.5098Z" fill="black"/>
<path d="M15.3805 10.5882C15.4981 11.1451 15.7177 11.6628 15.9922 12.149C16.2354 12.7451 15.6079 13.3098 15.0511 13.2863C14.9883 13.2863 14.9805 13.2 15.0354 13.1843C15.3883 13.0745 15.7099 12.8392 15.7648 12.4784C15.7883 12.3686 15.7569 12.2745 15.702 12.1804C15.4432 11.6941 15.2864 11.1373 15.3256 10.5882C15.3256 10.549 15.3805 10.549 15.3805 10.5882Z" fill="black"/>
<path d="M9.64702 11.4275C9.46663 10.9647 9.07448 10.5255 8.54899 10.5333C8.50193 10.5255 8.4235 10.5412 8.37644 10.5412C8.2431 10.549 8.1333 10.5961 8.03134 10.6902C7.52938 11.1922 7.61565 12.0784 8.0235 12.6353C8.16467 12.8314 8.34506 13.0039 8.54899 13.1451C8.75291 13.2863 8.98036 13.3961 9.2235 13.4902C9.2784 13.5059 9.25487 13.5922 9.19997 13.5843C8.67448 13.4745 8.17252 13.2157 7.82742 12.7843C7.29408 12.1412 7.18428 11.0667 7.81957 10.4392C7.96075 10.3137 8.15683 10.2196 8.35291 10.2196C8.41565 10.2196 8.50977 10.2039 8.57252 10.2196C8.90193 10.2353 9.21565 10.4 9.41957 10.6588C9.59997 10.8784 9.70193 11.1451 9.7333 11.4118C9.7333 11.4588 9.66271 11.4745 9.64702 11.4275Z" fill="black"/>
<path d="M14.0393 16.6902C14.4001 16.6118 14.6118 16.2588 14.5805 15.8981C14.5726 15.8432 14.6589 15.8275 14.6667 15.8824C14.8001 16.3294 14.5569 16.8157 14.1256 16.9883C13.8981 17.0745 13.804 16.7294 14.0393 16.6902Z" fill="black"/>
<path d="M14.7843 14.0706C14.2823 14.549 13.3333 14.1647 13.0823 13.5843C13.051 13.5137 13.1294 13.451 13.1921 13.4824C13.3255 13.5529 13.4431 13.6235 13.5686 13.6784C13.9294 13.8431 14.3059 13.9765 14.7059 13.9373C14.7843 13.9216 14.8392 14.0157 14.7843 14.0706Z" fill="black"/>
<path d="M12.4549 11.3882C12.2667 11.3804 12.1255 11.2235 12.1412 11.0353L12.149 10.8156C12.1569 10.6274 12.3138 10.4862 12.502 10.5019C12.6902 10.5098 12.8314 10.6666 12.8157 10.8549L12.8079 11.0745C12.8 11.2549 12.6432 11.396 12.4549 11.3882Z" fill="black"/>
<path d="M15.7569 11.5059C15.5843 11.4981 15.451 11.349 15.4588 11.1765L15.4667 10.9726C15.4745 10.8 15.6235 10.6667 15.7961 10.6745C15.9686 10.6824 16.102 10.8314 16.0941 11.0039L16.0863 11.2079C16.0784 11.3804 15.9294 11.5137 15.7569 11.5059Z" fill="black"/>
<path d="M13.1607 10.9647C12.9019 10.7921 12.6195 10.6745 12.3058 10.7372C12.2038 10.7529 12.1019 10.7843 12.0391 10.8549C12.0156 10.8863 11.9607 10.8784 11.9607 10.8314C11.9685 10.6745 12.1019 10.5725 12.2274 10.5098C12.4705 10.3843 12.8078 10.4078 13.0274 10.5725C13.1058 10.6196 13.3725 10.9098 13.2313 10.9725C13.1999 10.9882 13.1842 10.9804 13.1607 10.9647Z" fill="black"/>
<path d="M15.4039 11.0039C15.4039 10.6745 15.8118 10.5569 16.0628 10.6745C16.2039 10.7372 16.3059 10.8627 16.3451 11.0118C16.3608 11.0588 16.2902 11.098 16.2588 11.0588C16.1255 10.9019 15.898 10.8235 15.7177 10.9176C15.6628 10.949 15.6549 10.9725 15.6392 11.0039C15.6392 11.1608 15.4118 11.1529 15.4039 11.0039Z" fill="black"/>
<path d="M13.5372 9.67057C13.7019 9.72548 13.8666 9.57646 13.8353 9.39606C13.8196 9.30195 13.7804 9.20783 13.7019 9.13724C13.4666 8.92548 12.4941 8.73724 11.9059 9.01175C11.3882 9.26273 12.7843 9.41959 13.5372 9.67057Z" fill="black"/>
<path d="M15.8824 9.79607C15.749 9.84313 15.6078 9.70195 15.6314 9.53724C15.6392 9.45097 15.6706 9.3647 15.7333 9.30195C15.9216 9.11371 16.5647 8.9647 16.9725 9.25489C17.3255 9.49803 16.4941 9.56862 15.8824 9.79607Z" fill="black"/>
<path d="M18.196 8.8706C17.9764 9.55296 17.4509 10.1255 17.1137 10.5098C17.1921 10.1412 17.1215 9.92158 17.1372 9.66276C17.1607 9.30982 17.2862 8.91766 17.2627 8.7608C17.247 8.61962 17.2156 8.48629 17.1843 8.34511C17.1451 8.17256 17.098 8.00786 17.0431 7.84315C15.8117 9.04315 13.7019 7.85884 13.7019 7.85884C13.7019 7.85884 13.2549 8.22747 12.4705 8.14119C11.6313 8.05492 11.4039 7.53727 11.4039 7.53727C11.1764 9.12158 9.67839 8.51766 9.9529 10.0941C10.0313 10.5255 10.0313 10.9412 9.6627 11.3726C9.59996 11.153 9.29407 10.2588 8.29015 10.3843C7.34113 10.502 6.98035 12.6981 8.94113 13.451C8.9176 14.1804 8.99603 15.1686 8.9176 14.9098C8.36858 13.2157 7.27054 13.4824 6.7529 12.2039C6.50976 11.5922 6.54898 11.051 6.67447 10.651C6.79996 10.2667 6.79211 9.851 6.66662 9.46668C6.52545 9.01962 6.41564 8.34511 6.67447 7.52943C7.11368 6.13335 8.05486 5.81178 8.298 5.64707C8.54113 5.48237 8.42349 3.97649 10.1254 3.5059C11.4823 3.12943 12.5019 3.92158 12.8 3.86668C13.098 3.81178 15.1843 2.43923 16.7921 3.73335C18.3451 4.98825 17.7647 6.4706 17.7647 6.4706C17.7647 6.4706 18.7294 7.2157 18.196 8.8706Z" fill="black"/>
<path d="M15.9294 15.3573C16.047 14.7377 16.0863 14.1102 15.9843 13.4906C15.9451 13.2553 15.8039 12.8632 15.5843 13.0357C15.498 13.1063 15.051 13.2475 14.9647 13.2553C14.7137 13.2789 14.5255 13.2475 14.3451 13.1063C14.1412 12.9416 14.1412 12.871 14.0941 12.8553C13.2706 12.5808 12.2353 12.3063 11.898 13.4122C11.6235 14.3141 10.9333 15.2004 10.4235 14.322C10.0313 13.6553 10.0549 12.3847 9.99998 12.1181C9.86664 11.4592 9.67841 11.1377 9.5686 11.2318C9.5686 11.4436 9.63919 13.9455 9.64703 14.0789C9.70194 14.7691 9.78821 14.9887 10.1019 15.4357C10.4157 15.8828 11.5137 17.0985 12.9412 17.2004C14.3764 17.3024 15.1686 17.1847 15.9686 16.2671C16.6902 15.4357 16.7137 13.7102 16.7137 13.7102C16.3608 14.7534 16.1176 15.0985 15.9294 15.3573ZM12.698 13.5926C13.1059 13.1455 13.7019 13.6632 14.3451 13.7102C14.9804 13.7573 15.2392 13.3573 15.2863 14.0632C15.3019 14.2357 15.3255 14.5259 15.3176 14.722C15.3176 14.7298 15.3176 14.7377 15.3176 14.7455C15.2941 14.9651 15.2235 15.2083 15.0039 15.3416C14.5412 15.6318 13.7961 15.5612 13.3176 15.4671C12.651 15.3338 12.5098 15.0279 12.4784 14.8867C12.4313 14.2828 12.5333 13.773 12.698 13.5926Z" fill="black"/>
<path d="M22.6039 6.61176C27.3647 15.7804 18.9961 26.1255 9.01959 23.6C4.54115 22.4863 0.941154 18.6039 0.196056 14.0471C-0.651003 9.51372 1.39606 4.64313 5.22351 2.07843C10.4706 -1.52942 17.7412 -0.329415 21.498 4.83137C21.5215 4.8549 21.5137 4.89411 21.4823 4.91764C21.4588 4.94117 21.4196 4.93333 21.3961 4.90196C20.8784 4.23529 20.2902 3.63137 19.647 3.09019C18.5882 2.18823 17.349 1.48235 16.0392 1.00392C9.37253 -1.41177 2.05488 2.60392 0.596056 9.57647C-1.051 17.3882 5.59213 24.5804 13.5137 23.5059C19.6235 22.7373 24.1647 17.098 23.6627 10.9647C23.5529 9.48235 23.1608 8.01568 22.5098 6.66666C22.4941 6.64313 22.5098 6.61176 22.5333 6.59608C22.5568 6.58039 22.5882 6.58823 22.6039 6.61176Z" fill="black"/>
</g>
</svg>
