<svg width="48" height="48" viewBox="0 0 48 48" fill="none" xmlns="http://www.w3.org/2000/svg">
<mask id="mask0_1812_39671" style="mask-type:alpha" maskUnits="userSpaceOnUse" x="0" y="0" width="48" height="48">
<circle cx="23.9213" cy="23.9213" r="23.9213" fill="#D9D9D9"/>
</mask>
<g mask="url(#mask0_1812_39671)">
<path d="M37.0354 43.6705C36.9256 43.749 36.8001 43.8274 36.6903 43.9058C36.5648 43.9843 36.455 44.0627 36.3296 44.1254C36.2197 44.1882 36.1256 44.2509 36.0158 44.3137C36.0001 44.3294 35.9845 44.3294 35.9688 44.3451C35.608 44.5647 35.2315 44.7686 34.855 44.9568C34.7452 45.0196 34.6197 45.0823 34.5099 45.1294C34.5099 45.1294 34.4943 45.1451 34.4786 45.1451C34.3531 45.2078 34.2276 45.2705 34.1021 45.3333C33.8511 45.4588 33.5845 45.5686 33.3335 45.6784C33.208 45.7411 33.0668 45.7882 32.9413 45.8353C32.8158 45.8823 32.6747 45.9451 32.5492 45.9921C32.4237 46.0392 32.2825 46.1019 32.157 46.149C32.157 46.149 32.157 46.149 32.1413 46.149C32.0158 46.196 31.8746 46.2431 31.7492 46.2902C31.4668 46.3843 31.1688 46.4784 30.8864 46.5725C30.7923 46.6039 30.6825 46.6353 30.5884 46.6666C30.2903 46.7607 29.9923 46.8392 29.6943 46.9019C29.5845 46.9333 29.4747 46.949 29.3492 46.9803C29.0668 47.0431 28.7688 47.1058 28.4864 47.1686C28.4237 47.1843 28.3766 47.1843 28.3139 47.2C28.2197 47.2156 28.1099 47.2313 28.0158 47.247C27.8747 47.2627 27.7492 47.2941 27.608 47.3098C27.5452 47.3254 27.4825 47.3254 27.4197 47.3411C27.3413 47.3568 27.2472 47.3725 27.1531 47.3725C26.9021 47.4039 26.6354 47.4353 26.3845 47.4666C26.306 47.4823 26.2119 47.4823 26.1335 47.498H26.1178C26.008 47.5137 25.8982 47.5137 25.7884 47.5294C25.6786 47.5451 25.5688 47.5451 25.459 47.5451C25.3962 47.5451 25.3178 47.5607 25.255 47.5607C25.1296 47.5607 25.0197 47.5764 24.9099 47.5764C24.7531 47.5764 24.6119 47.5921 24.455 47.5921C24.2982 47.5921 24.157 47.5921 24.0001 47.5921C23.8903 47.5921 23.7805 47.5921 23.6707 47.5921C17.0511 47.498 11.106 44.6902 6.85504 40.2353C6.85504 40.2353 6.85504 40.2196 6.83936 40.2196C6.36877 39.796 6.77661 37.5372 8.67465 36.1098C11.059 34.3058 16.7688 33.1764 16.7688 33.1764C16.7688 33.1764 18.9805 32.8156 27.1845 34.5254C31.9845 35.5294 35.6394 36.9882 37.6786 40.9411C38.1021 41.7568 38.5256 43.0117 37.0354 43.6705Z" fill="white"/>
<path d="M27.2315 34.3529C30.2432 34.9647 33.4589 35.6235 35.9373 37.6157C36.7687 38.2902 37.3177 39.2784 37.7726 40.2353C37.9922 40.7059 38.2118 41.1921 38.3844 41.7098C38.4785 42.0549 38.6197 42.447 38.5413 42.8549C38.5256 42.9647 38.4315 43.1059 38.353 43.1843C37.9922 43.5451 37.6001 43.7647 37.2079 44.047C34.902 45.647 32.2511 46.7764 29.506 47.3725C23.3883 48.7059 16.7687 47.6706 11.3883 44.4549C9.60009 43.3725 7.95303 42.0549 6.54126 40.5019C6.3844 40.3137 6.3844 40 6.3844 39.7961C6.40009 39.3255 6.52558 38.8706 6.68244 38.447C7.05891 37.4745 7.54518 36.5019 8.37656 35.8274C8.97263 35.4196 9.61577 35.0745 10.2746 34.7921C12.3452 33.9137 14.5256 33.3019 16.7687 33.051C16.9569 33.0353 16.9883 33.3019 16.8001 33.3333C14.6511 33.7725 12.5177 34.4313 10.5256 35.3255C9.80401 35.6863 9.03538 36 8.45499 36.5647C7.90597 37.1608 7.51381 37.898 7.20009 38.651C6.99616 39.1059 6.85499 39.8274 6.91773 40.1882C7.90597 41.3647 9.06675 42.4 10.3217 43.2941C17.1922 48.0941 27.6236 48.4078 34.9334 44.4078C35.5922 44.047 36.2354 43.6392 36.8471 43.2157C37.1452 43.0117 37.4589 42.8392 37.6942 42.6039C37.7099 42.5882 37.6942 42.6039 37.6942 42.6196C37.6942 42.6353 37.6785 42.651 37.6785 42.651C37.6942 42.4627 37.6315 42.2117 37.553 41.9608C37.2707 41.051 36.8158 40.0941 36.3295 39.2627C35.5609 38.0235 34.2589 37.2392 32.9413 36.6117C32.0315 36.1882 31.0746 35.8588 30.102 35.5451C29.1295 35.2314 28.1413 34.9647 27.153 34.7294C26.902 34.6666 26.9805 34.3059 27.2315 34.3529Z" fill="black"/>
<path d="M28.7687 31.749C28.7687 31.749 27.2785 31.3726 24.0001 30.3216C20.7216 29.2706 16.4863 29.9608 16.4863 29.9608C16.4863 29.9608 15.451 29.9765 15.0589 30.7608C14.6667 31.5451 14.6981 33.1608 14.102 33.6C13.9608 33.6941 13.5687 33.804 12.9883 33.9608C12.0471 34.2275 10.6197 34.5726 9.2079 35.3569C8.15692 35.953 6.66673 37.7726 6.43143 41.0196C6.38437 41.6628 6.40006 48.3138 6.10202 48.9569C3.62359 53.9922 3.73339 51.7334 3.73339 51.7334H42.0706C42.0706 51.7334 39.4981 48 38.8393 44.3294C38.1491 40.502 36.9569 38.2745 35.9844 37.5373C33.7255 35.8275 31.2785 35.2785 30.3373 34.8549L30.2275 33.4432C30.2432 33.4275 29.6314 31.5138 28.7687 31.749Z" fill="black" stroke="black" stroke-width="3.5345" stroke-miterlimit="10" stroke-linecap="round" stroke-linejoin="round"/>
<path d="M30.3687 34.306C30.6824 35.9373 31.0275 37.6471 30.557 39.2785C29.9609 41.6471 28.0001 43.2628 25.5217 43.1687C23.8119 43.1373 22.1962 42.4785 20.7217 41.6785C18.2746 40.3138 16.2511 38.1648 15.1687 35.5766C14.9491 35.0432 14.7609 34.5413 14.6511 33.9766C14.6354 33.9138 14.6824 33.8354 14.7609 33.8197C14.8236 33.804 14.8864 33.8511 14.9021 33.9138C15.0432 34.4158 15.2628 34.9491 15.4981 35.4197C16.6903 37.8511 18.6354 39.8903 20.9883 41.1922C22.8236 42.1805 25.0197 43.0275 27.0903 42.4471C29.8197 41.6785 30.7452 38.4942 30.3217 35.953C30.2589 35.404 30.1805 34.8707 30.1021 34.3217C30.0707 34.1962 30.3374 34.1334 30.3687 34.306Z" fill="white"/>
<path d="M26.2903 42.902C26.2903 42.902 26.6197 45.7883 26.4315 47.5451" stroke="white" stroke-width="3.46" stroke-miterlimit="10" stroke-linecap="round" stroke-linejoin="round"/>
<path d="M16.5177 38.055C15.4981 38.4785 14.5726 39.1687 13.8196 39.9687C13.553 40.2353 13.3334 40.5491 13.1138 40.8471C13.004 40.9883 12.7687 40.8314 12.8785 40.6902C13.5059 39.6863 14.3216 38.8236 15.2942 38.1648C15.6236 37.9452 15.953 37.7412 16.3295 37.5687C16.4706 37.5059 16.6275 37.5687 16.6902 37.6942C16.753 37.8197 16.6746 37.9922 16.5177 38.055Z" fill="white"/>
<path d="M30.6981 37.0667C32.0314 37.6157 33.1922 38.604 33.8197 39.9059C33.8511 39.9687 33.8197 40.0314 33.7726 40.0628C33.7099 40.0942 33.6471 40.0628 33.6158 40.0157C33.2707 39.4353 32.8314 38.9177 32.2824 38.5098C31.7648 38.1177 31.1373 37.7726 30.5099 37.5843C30.1648 37.4589 30.353 36.9412 30.6981 37.0667Z" fill="white"/>
<path d="M28.7058 38.5255C28.3764 40.1412 26.2431 41.1137 22.6509 39.6549C18.9176 38.149 17.3019 34.5569 16.894 33.4902C19.1058 29.349 17.5686 26.4785 17.5686 26.4785C22.6666 26.0392 27.1215 32 27.1215 32L27.8117 34.949C27.8744 35.2 27.9999 35.4196 28.1882 35.5765C28.5176 36.1569 28.9097 37.4902 28.7058 38.5255Z" fill="white"/>
<path d="M16.8157 33.5373C17.1137 33.0824 17.302 32.549 17.4275 32.0314C17.6627 30.949 17.7412 29.851 17.7569 28.753V28.3451C17.7098 27.9373 17.5686 27.5137 17.4118 27.1373C17.2078 26.6353 17.9451 26.3216 18.1804 26.8235C18.2118 26.8863 18.2118 26.9961 18.2118 27.0588C18.2588 29.1922 18.3529 31.9373 17.0039 33.7098C16.9098 33.8039 16.7216 33.6628 16.8157 33.5373Z" fill="black"/>
<path d="M27.294 31.9687C27.5293 32.1099 27.6078 32.2981 27.6391 32.4863C27.7333 32.8628 27.7019 33.2706 27.796 33.6628C27.8744 34.0393 28.1097 34.4001 28.1725 34.7922C28.2509 35.2001 28.4862 36.0628 28.5803 36.4863C28.6117 36.5804 28.5489 36.6902 28.4391 36.7059C28.3764 36.7216 28.3293 36.7059 28.2823 36.6746C28.0784 36.502 27.9842 36.3295 27.8587 36.1099C27.6548 35.7334 27.5136 35.3883 27.3882 34.9648C27.2784 34.5883 27.3254 34.1804 27.2313 33.7883C27.1529 33.4118 26.9333 33.051 26.8548 32.6589C26.8078 32.4706 26.7921 32.2667 26.9333 32.0314C27.0274 31.9373 27.1842 31.9059 27.294 31.9687Z" fill="black"/>
<path d="M28.4235 36.1098C25.4274 35.953 22.9804 35.0118 20.5961 30.7608C22.6039 32.5334 24.9725 33.2079 27.4667 33.5216L27.7961 34.9647C27.8588 35.2157 28.2353 35.953 28.4235 36.1098Z" fill="black"/>
<path d="M28.2981 35.5294C28.8314 36.5334 29.1451 37.7883 28.8157 38.902C28.5647 39.6863 27.8432 40.2667 27.0589 40.4863C25.2392 40.9726 23.1373 40.204 21.5216 39.3412C19.5294 38.2275 18.0549 36.3608 17.1138 34.3216C17.051 34.1647 17.2706 34.0392 17.3647 34.1961C17.6942 34.8549 18.0706 35.4981 18.4942 36.0785C18.9177 36.6745 19.404 37.2236 19.953 37.7098C21.553 39.153 23.7177 40.0471 25.8824 40.0471C28.1098 39.9843 28.9569 38.8079 28.4392 36.6432C28.3608 36.2981 28.2353 35.9373 28.0628 35.6392C27.9687 35.5138 28.204 35.3726 28.2981 35.5294Z" fill="black"/>
<path d="M34.3686 16.6902C34.651 18.0079 34.7922 19.0746 34.0235 22.5883C33.2706 26.0863 35.1059 26.8079 30.7608 32.4079C28.9883 34.6981 24.6902 34.0549 21.2079 31.6863C20.0314 30.8863 19.5294 28.8314 18.651 27.3726C17.9608 26.2275 17.6471 27.4196 16.7373 26.4314C15.4981 25.0824 14.0079 22.3687 14.7451 17.5687C15.9373 9.78828 22.102 8.87847 26.6667 9.74122C31.2628 10.6196 33.6157 13.2236 34.3686 16.6902Z" fill="white"/>
<path d="M17.5216 27.8275C17.1608 27.2157 16.6902 26.6824 16.251 26.1177C15.8275 25.5373 15.4824 24.8941 15.2 24.2353C13.3334 19.6549 14.0549 13.2079 18.6353 10.5098C20.5334 9.41179 22.8236 9.14512 24.9569 9.31767C29.5216 9.64708 33.7098 11.749 34.6981 16.5804C35.2314 18.7137 34.5098 20.9098 34.102 22.9961C33.9138 24.0314 34.0706 25.0981 34.0549 26.1647C34.0392 27.2471 33.7412 28.3294 33.3334 29.3334C33.0824 30.0236 32.6432 30.6353 32.1883 31.2C31.4353 32.1098 30.6824 33.0353 29.7255 33.7412C29.5059 33.8981 29.1138 33.9765 28.8471 34.0079C28.1098 34.1177 27.3883 34.149 26.651 34.102C23.7647 33.9765 20.6745 32.5804 19.5138 29.7883C19.4667 29.6785 19.6236 29.6 19.6863 29.6941C21.1922 32.0785 23.953 33.2549 26.6981 33.4118C27.5451 33.4588 28.4079 33.4432 29.2392 33.2706C29.6471 33.0667 30.0079 32.7059 30.353 32.3765C31.2 31.5294 32.0628 30.6196 32.6745 29.5843C33.4118 28.1883 33.8196 26.6667 33.6941 25.0824C33.6628 24.3765 33.6471 23.6392 33.7883 22.9334C33.9138 22.2275 34.0706 21.553 34.1647 20.8314C34.2589 20.1412 34.3059 19.4353 34.3059 18.7451C34.2275 16.7216 33.5687 14.6353 32.2824 13.0667C29.4432 9.53728 22.7294 8.61179 18.949 11.0275C16.5647 12.502 15.451 15.2628 15.0902 17.9451C14.5412 21.1608 14.6981 24.3294 17.2549 26.6667L18.0079 27.451C18.3059 27.7961 17.7726 28.2039 17.5216 27.8275Z" fill="black"/>
<path d="M19.3725 22.8392C19.3725 22.8392 18.8862 20.4863 16.596 20.7686C14.6196 21.0196 13.9294 25.7569 18.4157 27.0745" fill="white"/>
<path d="M18.2118 25.0197C17.851 24.8157 17.6 24.4706 17.5844 24.0471C17.6 23.7334 17.6471 23.3726 17.5687 23.0589C17.5216 22.7608 17.2079 22.6824 16.9726 22.6981C16.7216 22.7451 16.5647 23.0589 16.5177 23.3099C16.5177 23.3255 16.502 23.3726 16.502 23.3883C16.4863 23.4667 16.3608 23.4667 16.3295 23.3883C16.1255 22.7765 16.5804 22.102 17.2393 22.1804C18.1647 22.2432 18.2902 23.2157 18.1177 23.953C18.0236 24.2667 18.1491 24.5491 18.3216 24.8157L18.353 24.8628C18.4314 24.9569 18.3059 25.0824 18.2118 25.0197Z" fill="black"/>
<path d="M30.7608 21.1765C30.9961 22.2902 31.4353 23.3255 31.9843 24.2981C32.4706 25.4902 31.2157 26.6196 30.102 26.5726C29.9765 26.5726 29.9608 26.4 30.0706 26.3687C30.7765 26.149 31.4196 25.6785 31.5294 24.9569C31.5765 24.7373 31.5138 24.549 31.404 24.3608C30.8863 23.3883 30.5726 22.2745 30.651 21.1765C30.651 21.0981 30.7608 21.0981 30.7608 21.1765Z" fill="black"/>
<path d="M19.2942 22.8549C18.9334 21.9294 18.1491 21.051 17.0981 21.0667C17.004 21.051 16.8471 21.0824 16.753 21.0824C16.4863 21.0981 16.2667 21.1922 16.0628 21.3804C15.0589 22.3843 15.2314 24.1569 16.0471 25.2706C16.3295 25.6628 16.6903 26.0079 17.0981 26.2902C17.5059 26.5726 17.9608 26.7922 18.4471 26.9804C18.5569 27.0118 18.5099 27.1843 18.4001 27.1686C17.3491 26.949 16.3452 26.4314 15.655 25.5686C14.5883 24.2824 14.3687 22.1334 15.6393 20.8785C15.9216 20.6275 16.3138 20.4392 16.7059 20.4392C16.8314 20.4392 17.0197 20.4079 17.1452 20.4392C17.804 20.4706 18.4314 20.8 18.8393 21.3177C19.2001 21.7569 19.404 22.2902 19.4667 22.8235C19.4667 22.9177 19.3255 22.949 19.2942 22.8549Z" fill="black"/>
<path d="M29.5686 28.1412C28.5647 29.098 26.6666 28.3294 26.1647 27.1686C26.1019 27.0275 26.2588 26.902 26.3843 26.9647C26.6509 27.1059 26.8862 27.2471 27.1372 27.3569C27.8588 27.6863 28.6117 27.953 29.4117 27.8745C29.5686 27.8431 29.6784 28.0314 29.5686 28.1412Z" fill="black"/>
<path d="M24.9099 22.7765C24.5334 22.7608 24.251 22.4471 24.2824 22.0706L24.2981 21.6314C24.3138 21.2549 24.6275 20.9726 25.004 21.004C25.3804 21.0197 25.6628 21.3334 25.6314 21.7098L25.6157 22.1491C25.6001 22.5098 25.2863 22.7922 24.9099 22.7765Z" fill="black"/>
<path d="M31.5137 23.0118C31.1686 22.9961 30.902 22.6981 30.9177 22.353L30.9333 21.9451C30.949 21.6 31.2471 21.3334 31.5922 21.349C31.9373 21.3647 32.2039 21.6628 32.1882 22.0079L32.1726 22.4157C32.1569 22.7608 31.8588 23.0275 31.5137 23.0118Z" fill="black"/>
<path d="M26.3216 21.9294C25.804 21.5843 25.2393 21.349 24.6118 21.4745C24.4079 21.5059 24.204 21.5686 24.0785 21.7098C24.0314 21.7726 23.9216 21.7569 23.9216 21.6628C23.9373 21.349 24.204 21.1451 24.455 21.0196C24.9412 20.7686 25.6157 20.8157 26.055 21.1451C26.2118 21.2392 26.7452 21.8196 26.4628 21.9451C26.4001 21.9765 26.3687 21.9608 26.3216 21.9294Z" fill="black"/>
<path d="M30.8079 22.0079C30.8079 21.3491 31.6235 21.1138 32.1255 21.3491C32.4079 21.4745 32.6118 21.7255 32.6902 22.0236C32.7216 22.1177 32.5804 22.1961 32.5177 22.1177C32.251 21.804 31.7961 21.6471 31.4353 21.8353C31.3255 21.8981 31.3098 21.9451 31.2784 22.0079C31.2784 22.3216 30.8235 22.3059 30.8079 22.0079Z" fill="black"/>
<path d="M27.0746 19.3412C27.404 19.451 27.7334 19.153 27.6706 18.7922C27.6393 18.604 27.5608 18.4157 27.404 18.2745C26.9334 17.851 24.9883 17.4745 23.8118 18.0236C22.7765 18.5255 25.5687 18.8392 27.0746 19.3412Z" fill="black"/>
<path d="M31.7648 19.5922C31.4982 19.6863 31.2158 19.404 31.2629 19.0745C31.2786 18.902 31.3413 18.7295 31.4668 18.604C31.8433 18.2275 33.1295 17.9295 33.9452 18.5098C34.6511 18.9961 32.9884 19.1373 31.7648 19.5922Z" fill="black"/>
<path d="M35.6392 14.2902C36.7059 13.3647 38.2745 11.9686 36.6589 10.0235C35.0432 8.07839 32.0628 8.83133 32.0628 8.83133C32.0628 8.83133 32.6902 7.04309 30.949 6.39996C28.8471 5.63133 22.8863 7.9529 22.8863 7.9529C22.4471 7.93721 22.0236 7.92152 21.6314 7.92152C16.4863 7.81172 14.9961 11.0588 14.9334 13.9764C14.9334 13.9764 13.1922 14.5568 12.753 17.3333C12.6118 18.2274 12.4706 19.3725 12.8157 20.7529C13.7412 24.5176 16.2353 27.1372 17.8196 28.4705C18.4157 28.0313 17.3647 27.4196 17.4432 26.698C14.0392 25.0352 14.7765 21.0039 16.5961 20.7686C17.9922 20.596 18.7294 21.4117 19.0745 22.0705C19.2157 22.2588 17.3334 11.7647 28.1883 15.2C30.3373 15.8745 32.549 16.4705 34.0549 15.3882C34.2275 15.7176 34.3373 16.1098 34.3687 16.6902C34.3687 16.6902 36.9883 15.6705 36.5961 14.6039C36.4706 14.2431 35.6392 14.2902 35.6392 14.2902Z" fill="black"/>
<path d="M27.4511 24.7216C26.7295 24.7372 24.5021 24.7529 23.8119 24.7686C22.6197 24.7843 21.7256 23.749 21.8354 22.5725C21.8511 22.1804 21.8354 21.6314 21.8511 21.2392C21.8825 20.2196 22.7923 19.3568 23.8119 19.3882L26.4629 19.4196C26.6668 19.4196 27.2472 19.4353 27.4511 19.4353C28.2982 19.4196 29.0982 20.047 29.2864 20.8784C29.3491 21.1137 29.3335 21.3647 29.3335 21.5686V22.9019C29.3178 23.8902 28.4393 24.7372 27.4511 24.7216ZM27.4511 24.3765C28.2668 24.4078 29.0197 23.7019 29.0354 22.8863C29.0511 22.4627 29.0354 22.0078 29.0354 21.5686C29.1295 20.6117 28.408 19.7333 27.4354 19.7647C26.7609 19.7804 24.5021 19.7961 23.7962 19.8117C22.9491 19.8117 22.2276 20.5804 22.2903 21.4274C22.2903 21.5372 22.2903 21.8196 22.2903 21.9294C22.306 22.2745 22.2589 22.8706 22.3374 23.1843C22.4942 23.8431 23.1217 24.3451 23.7962 24.3451H24.1256C24.5805 24.3451 26.9805 24.3765 27.4511 24.3765Z" fill="black"/>
<path d="M33.7726 19.8431L32.5334 19.8588C32.1883 19.8745 31.7805 19.8118 31.4824 20.0157C31.2001 20.2039 31.0746 20.549 31.0903 20.8784C31.0903 21.2863 31.0903 21.7098 31.0746 22.1177L31.0589 22.0549C31.2785 22.8235 31.5765 23.5608 32.0314 24.2039L31.8746 24.1098C32.0001 24.1412 32.2197 24.1412 32.3452 24.1412C32.8157 24.1569 33.3648 24.1882 33.8354 24.1882C34.2746 24.1882 34.6981 23.8588 34.7922 23.4196C34.8236 23.2941 34.8236 23.0745 34.8236 22.949C34.8236 22.2745 34.8393 21.6157 34.8079 20.9412C34.8393 20.3451 34.3844 19.8118 33.7726 19.8431ZM33.7726 19.3726C34.604 19.3726 35.1844 20.1726 35.0432 20.9569C35.0118 21.6314 35.0275 22.2902 35.0275 22.9647C35.1059 23.749 34.6354 24.4549 33.8197 24.5177C33.4746 24.5333 33.1452 24.5333 32.8157 24.549C32.6432 24.549 32.2197 24.5804 32.0628 24.5804C31.9844 24.5961 31.8589 24.5804 31.7805 24.5804C31.7177 24.5804 31.655 24.5333 31.6236 24.4863C31.1373 23.7647 30.7922 22.9647 30.5883 22.1333C30.5883 21.6 30.5412 21.0667 30.5883 20.5333C30.6824 19.9059 31.2471 19.3726 31.8903 19.3569C32.3295 19.3412 33.3334 19.3726 33.7726 19.3726Z" fill="black"/>
<path d="M29.1608 20.8157C29.5843 20.6275 30.0549 20.549 30.5255 20.5804C30.6823 20.5961 30.8392 20.6431 30.9804 20.7686L31.1843 20.9412C31.3882 21.1137 31.1372 21.4118 30.9333 21.2392C30.6823 21.0196 30.3843 21.051 30.0863 21.0667C29.7882 21.098 29.5059 21.1608 29.2235 21.2706C28.9568 21.3804 28.7843 20.9882 29.0353 20.8627L29.1608 20.8157Z" fill="black"/>
<path d="M22.102 21.3804C21.9922 21.6314 21.8667 21.6627 21.6628 21.647L21.2079 21.6627C20.2981 21.6627 19.3726 21.647 18.4628 21.5059C18.149 21.4902 18.1334 21.051 18.4471 21.0353L22.0863 20.9098C22.1961 20.9098 22.2745 21.0196 22.2275 21.1137L22.102 21.3804Z" fill="black"/>
<path d="M45.2078 13.2235C54.7294 31.5608 37.9921 52.251 18.0392 47.2C9.08231 44.9725 1.88231 37.2078 0.392112 28.0941C-1.30201 19.0274 2.79211 9.28627 10.447 4.15686C20.9411 -3.05883 35.4823 -0.658831 42.996 9.66274C43.0431 9.7098 43.0274 9.78823 42.9647 9.83529C42.9176 9.88235 42.8392 9.86666 42.7921 9.80392C41.7568 8.47058 40.5803 7.26274 39.2941 6.18039C37.1764 4.37646 34.698 2.9647 32.0784 2.00784C18.7451 -2.82354 4.10976 5.20784 1.19211 19.1529C-2.10201 34.7765 11.1843 49.1608 27.0274 47.0118C39.247 45.4745 48.3294 34.1961 47.3254 21.9294C47.1058 18.9647 46.3215 16.0314 45.0196 13.3333C44.9882 13.2863 45.0196 13.2235 45.0666 13.1922C45.1137 13.1608 45.1764 13.1765 45.2078 13.2235Z" fill="black"/>
</g>
</svg>
