<svg width="24" height="24" viewBox="0 0 24 24" fill="none" xmlns="http://www.w3.org/2000/svg">
<mask id="mask0_1812_41584" style="mask-type:alpha" maskUnits="userSpaceOnUse" x="0" y="0" width="24" height="24">
<circle cx="11.9607" cy="11.9607" r="11.9607" fill="#D9D9D9"/>
</mask>
<g mask="url(#mask0_1812_41584)">
<path d="M18.5176 21.8353C18.4627 21.8745 18.3999 21.9137 18.345 21.9529C18.2823 21.9921 18.2274 22.0314 18.1647 22.0627C18.1098 22.0941 18.0627 22.1255 18.0078 22.1568C17.9999 22.1647 17.9921 22.1647 17.9843 22.1725C17.8039 22.2823 17.6156 22.3843 17.4274 22.4784C17.3725 22.5098 17.3098 22.5412 17.2548 22.5647C17.2548 22.5647 17.247 22.5725 17.2392 22.5725C17.1764 22.6039 17.1137 22.6353 17.0509 22.6666C16.9254 22.7294 16.7921 22.7843 16.6666 22.8392C16.6039 22.8706 16.5333 22.8941 16.4705 22.9176C16.4078 22.9412 16.3372 22.9725 16.2745 22.9961C16.2117 23.0196 16.1411 23.051 16.0784 23.0745C16.0784 23.0745 16.0784 23.0745 16.0705 23.0745C16.0078 23.098 15.9372 23.1215 15.8745 23.1451C15.7333 23.1921 15.5843 23.2392 15.4431 23.2863C15.396 23.3019 15.3411 23.3176 15.2941 23.3333C15.145 23.3804 14.996 23.4196 14.847 23.451C14.7921 23.4666 14.7372 23.4745 14.6745 23.4902C14.5333 23.5215 14.3843 23.5529 14.2431 23.5843C14.2117 23.5921 14.1882 23.5921 14.1568 23.6C14.1098 23.6078 14.0549 23.6157 14.0078 23.6235C13.9372 23.6314 13.8745 23.647 13.8039 23.6549C13.7725 23.6627 13.7411 23.6627 13.7098 23.6706C13.6705 23.6784 13.6235 23.6863 13.5764 23.6863C13.4509 23.7019 13.3176 23.7176 13.1921 23.7333C13.1529 23.7412 13.1058 23.7412 13.0666 23.749H13.0588C13.0039 23.7568 12.949 23.7568 12.8941 23.7647C12.8392 23.7725 12.7843 23.7725 12.7294 23.7725C12.698 23.7725 12.6588 23.7804 12.6274 23.7804C12.5647 23.7804 12.5098 23.7882 12.4549 23.7882C12.3764 23.7882 12.3058 23.7961 12.2274 23.7961C12.149 23.7961 12.0784 23.7961 11.9999 23.7961C11.945 23.7961 11.8901 23.7961 11.8352 23.7961C8.52544 23.749 5.55289 22.3451 3.4274 20.1176C3.4274 20.1176 3.4274 20.1098 3.41956 20.1098C3.18426 19.898 3.38818 18.7686 4.3372 18.0549C5.52936 17.1529 8.38426 16.5882 8.38426 16.5882C8.38426 16.5882 9.49014 16.4078 13.5921 17.2627C15.9921 17.7647 17.8196 18.4941 18.8392 20.4706C19.0509 20.8784 19.2627 21.5059 18.5176 21.8353Z" fill="white"/>
<path d="M13.6157 17.1765C15.1216 17.4823 16.7294 17.8118 17.9686 18.8078C18.3843 19.1451 18.6588 19.6392 18.8863 20.1176C18.9961 20.3529 19.1059 20.5961 19.1921 20.8549C19.2392 21.0274 19.3098 21.2235 19.2706 21.4274C19.2627 21.4823 19.2157 21.5529 19.1765 21.5921C18.9961 21.7725 18.8 21.8823 18.6039 22.0235C17.451 22.8235 16.1255 23.3882 14.7529 23.6863C11.6941 24.3529 8.38429 23.8353 5.6941 22.2274C4.79998 21.6863 3.97645 21.0274 3.27057 20.251C3.19214 20.1569 3.19214 20 3.19214 19.898C3.19998 19.6627 3.26273 19.4353 3.34116 19.2235C3.52939 18.7372 3.77253 18.251 4.18822 17.9137C4.48626 17.7098 4.80782 17.5372 5.13724 17.3961C6.17253 16.9569 7.26273 16.651 8.38429 16.5255C8.47841 16.5176 8.4941 16.651 8.39998 16.6667C7.32547 16.8863 6.25881 17.2157 5.26273 17.6627C4.90194 17.8431 4.51763 18 4.22743 18.2823C3.95292 18.5804 3.75684 18.949 3.59998 19.3255C3.49802 19.5529 3.42743 19.9137 3.45881 20.0941C3.95292 20.6823 4.53332 21.2 5.16077 21.647C8.59606 24.047 13.8117 24.2039 17.4666 22.2039C17.7961 22.0235 18.1176 21.8196 18.4235 21.6078C18.5725 21.5059 18.7294 21.4196 18.847 21.3019C18.8549 21.2941 18.847 21.302 18.847 21.3098C18.847 21.3176 18.8392 21.3255 18.8392 21.3255C18.847 21.2314 18.8157 21.1059 18.7765 20.9804C18.6353 20.5255 18.4078 20.047 18.1647 19.6314C17.7804 19.0118 17.1294 18.6196 16.4706 18.3059C16.0157 18.0941 15.5372 17.9294 15.051 17.7725C14.5647 17.6157 14.0706 17.4823 13.5765 17.3647C13.451 17.3333 13.4902 17.1529 13.6157 17.1765Z" fill="black"/>
<path d="M14.3843 15.8746C14.3843 15.8746 13.6392 15.6863 12 15.1608C10.3608 14.6353 8.24317 14.9804 8.24317 14.9804C8.24317 14.9804 7.72552 14.9883 7.52944 15.3804C7.33336 15.7726 7.34905 16.5804 7.05101 16.8C6.98042 16.8471 6.78434 16.902 6.49415 16.9804C6.02356 17.1138 5.30983 17.2863 4.60395 17.6785C4.07846 17.9765 3.33336 18.8863 3.21572 20.5098C3.19219 20.8314 3.20003 24.1569 3.05101 24.4785C1.81179 26.9961 1.8667 25.8667 1.8667 25.8667H21.0353C21.0353 25.8667 19.749 24 19.4196 22.1648C19.0745 20.251 18.4785 19.1373 17.9922 18.7687C16.8628 17.9138 15.6392 17.6393 15.1687 17.4275L15.1138 16.7216C15.1216 16.7138 14.8157 15.7569 14.3843 15.8746Z" fill="black" stroke="black" stroke-width="3.5345" stroke-miterlimit="10" stroke-linecap="round" stroke-linejoin="round"/>
<path d="M15.1844 17.153C15.3413 17.9687 15.5138 18.8236 15.2785 19.6393C14.9805 20.8236 14.0001 21.6314 12.7609 21.5844C11.906 21.5687 11.0981 21.2393 10.3609 20.8393C9.13736 20.1569 8.1256 19.0824 7.58442 17.7883C7.47462 17.5216 7.3805 17.2706 7.3256 16.9883C7.31776 16.9569 7.34129 16.9177 7.3805 16.9098C7.41187 16.902 7.44325 16.9255 7.45109 16.9569C7.52168 17.2079 7.63148 17.4746 7.74913 17.7098C8.34521 18.9255 9.31776 19.9451 10.4942 20.5961C11.4119 21.0902 12.5099 21.5138 13.5452 21.2236C14.9099 20.8393 15.3727 19.2471 15.1609 17.9765C15.1295 17.702 15.0903 17.4353 15.0511 17.1608C15.0354 17.0981 15.1687 17.0667 15.1844 17.153Z" fill="white"/>
<path d="M13.1451 21.451C13.1451 21.451 13.3098 22.8942 13.2157 23.7726" stroke="white" stroke-width="3.46" stroke-miterlimit="10" stroke-linecap="round" stroke-linejoin="round"/>
<path d="M8.25891 19.0275C7.7491 19.2392 7.28636 19.5843 6.90989 19.9843C6.77655 20.1177 6.66675 20.2745 6.55694 20.4236C6.50204 20.4941 6.3844 20.4157 6.4393 20.3451C6.75302 19.8432 7.16087 19.4118 7.64714 19.0824C7.81185 18.9726 7.97655 18.8706 8.16479 18.7843C8.23538 18.753 8.31381 18.7843 8.34518 18.8471C8.37655 18.9098 8.33734 18.9961 8.25891 19.0275Z" fill="white"/>
<path d="M15.349 18.5334C16.0157 18.8079 16.5961 19.302 16.9098 19.953C16.9255 19.9844 16.9098 20.0158 16.8863 20.0315C16.8549 20.0471 16.8235 20.0315 16.8078 20.0079C16.6353 19.7177 16.4157 19.4589 16.1412 19.255C15.8823 19.0589 15.5686 18.8864 15.2549 18.7922C15.0823 18.7295 15.1764 18.4707 15.349 18.5334Z" fill="white"/>
<path d="M14.3529 19.2628C14.1882 20.0706 13.1215 20.5569 11.3255 19.8275C9.45879 19.0745 8.65094 17.2784 8.44702 16.7451C9.5529 14.6745 8.78428 13.2392 8.78428 13.2392C11.3333 13.0196 13.5607 16 13.5607 16L13.9058 17.4745C13.9372 17.6 14 17.7098 14.0941 17.7882C14.2588 18.0784 14.4549 18.7451 14.3529 19.2628Z" fill="white"/>
<path d="M8.40785 16.7687C8.55686 16.5412 8.65098 16.2745 8.71373 16.0157C8.83137 15.4745 8.87059 14.9255 8.87843 14.3765V14.1726C8.8549 13.9687 8.78432 13.7569 8.70588 13.5687C8.60392 13.3177 8.97255 13.1608 9.0902 13.4118C9.10588 13.4432 9.10588 13.4981 9.10588 13.5295C9.12941 14.5961 9.17647 15.9687 8.50196 16.8549C8.4549 16.902 8.36079 16.8314 8.40785 16.7687Z" fill="black"/>
<path d="M13.6471 15.9843C13.7647 16.0549 13.8039 16.149 13.8196 16.2432C13.8667 16.4314 13.851 16.6353 13.8981 16.8314C13.9373 17.0196 14.0549 17.2 14.0863 17.3961C14.1255 17.6 14.2432 18.0314 14.2902 18.2432C14.3059 18.2902 14.2745 18.3451 14.2196 18.353C14.1883 18.3608 14.1647 18.353 14.1412 18.3373C14.0392 18.251 13.9922 18.1647 13.9294 18.0549C13.8275 17.8667 13.7569 17.6941 13.6941 17.4824C13.6392 17.2941 13.6628 17.0902 13.6157 16.8941C13.5765 16.7059 13.4667 16.5255 13.4275 16.3294C13.4039 16.2353 13.3961 16.1334 13.4667 16.0157C13.5137 15.9687 13.5922 15.953 13.6471 15.9843Z" fill="black"/>
<path d="M14.2118 18.0549C12.7138 17.9765 11.4903 17.5059 10.2981 15.3804C11.302 16.2667 12.4863 16.604 13.7334 16.7608L13.8981 17.4824C13.9295 17.6079 14.1177 17.9765 14.2118 18.0549Z" fill="black"/>
<path d="M14.1491 17.7647C14.4158 18.2667 14.5726 18.8941 14.4079 19.451C14.2824 19.8432 13.9216 20.1333 13.5295 20.2432C12.6197 20.4863 11.5687 20.102 10.7609 19.6706C9.76478 19.1137 9.02753 18.1804 8.55694 17.1608C8.52557 17.0824 8.63537 17.0196 8.68243 17.0981C8.84714 17.4275 9.03537 17.749 9.24714 18.0392C9.4589 18.3373 9.70204 18.6118 9.97655 18.8549C10.7765 19.5765 11.8589 20.0235 12.9413 20.0235C14.055 19.9922 14.4785 19.4039 14.2197 18.3216C14.1805 18.149 14.1177 17.9686 14.0314 17.8196C13.9844 17.7569 14.102 17.6863 14.1491 17.7647Z" fill="black"/>
<path d="M17.1844 8.34509C17.3256 9.00391 17.3961 9.53724 17.0118 11.2941C16.6354 13.0431 17.553 13.4039 15.3805 16.2039C14.4942 17.349 12.3452 17.0274 10.604 15.8431C10.0158 15.4431 9.76478 14.4157 9.32556 13.6863C8.98046 13.1137 8.8236 13.7098 8.3687 13.2157C7.74909 12.5412 7.00399 11.1843 7.37262 8.7843C7.9687 4.89411 11.0511 4.43921 13.3334 4.87058C15.6314 5.30979 16.8079 6.61175 17.1844 8.34509Z" fill="white"/>
<path d="M8.7608 13.9137C8.58041 13.6078 8.34511 13.3412 8.1255 13.0588C7.91374 12.7686 7.74119 12.447 7.60001 12.1176C6.66668 9.82743 7.02746 6.6039 9.31766 5.25488C10.2667 4.70586 11.4118 4.57253 12.4784 4.65881C14.7608 4.82351 16.8549 5.87449 17.349 8.29018C17.6157 9.35684 17.2549 10.4549 17.051 11.498C16.9569 12.0157 17.0353 12.549 17.0275 13.0823C17.0196 13.6235 16.8706 14.1647 16.6667 14.6666C16.5412 15.0117 16.3216 15.3176 16.0941 15.6C15.7177 16.0549 15.3412 16.5176 14.8628 16.8706C14.753 16.949 14.5569 16.9882 14.4235 17.0039C14.0549 17.0588 13.6941 17.0745 13.3255 17.051C11.8824 16.9882 10.3373 16.2902 9.75688 14.8941C9.73335 14.8392 9.81178 14.8 9.84315 14.847C10.5961 16.0392 11.9765 16.6274 13.349 16.7059C13.7726 16.7294 14.2039 16.7215 14.6196 16.6353C14.8235 16.5333 15.0039 16.3529 15.1765 16.1882C15.6 15.7647 16.0314 15.3098 16.3373 14.7921C16.7059 14.0941 16.9098 13.3333 16.8471 12.5412C16.8314 12.1882 16.8235 11.8196 16.8941 11.4666C16.9569 11.1137 17.0353 10.7765 17.0824 10.4157C17.1294 10.0706 17.153 9.71763 17.153 9.37253C17.1137 8.36077 16.7843 7.31763 16.1412 6.53332C14.7216 4.76861 11.3647 4.30586 9.47452 5.51371C8.28237 6.25096 7.7255 7.63135 7.54511 8.97253C7.2706 10.5804 7.34903 12.1647 8.62746 13.3333L9.00394 13.7255C9.15295 13.898 8.88629 14.1019 8.7608 13.9137Z" fill="black"/>
<path d="M9.68626 11.4196C9.68626 11.4196 9.44312 10.2431 8.29802 10.3843C7.30979 10.5097 6.96469 12.8784 9.20783 13.5372" fill="white"/>
<path d="M9.1059 12.5098C8.92551 12.4078 8.80002 12.2353 8.79218 12.0235C8.80002 11.8666 8.82355 11.6862 8.78433 11.5294C8.7608 11.3804 8.60394 11.3411 8.48629 11.349C8.3608 11.3725 8.28237 11.5294 8.25884 11.6549C8.25884 11.6627 8.251 11.6862 8.251 11.6941C8.24316 11.7333 8.18041 11.7333 8.16473 11.6941C8.06276 11.3882 8.29022 11.0509 8.61963 11.0902C9.08237 11.1215 9.14512 11.6078 9.05884 11.9764C9.01178 12.1333 9.07453 12.2745 9.1608 12.4078L9.17649 12.4313C9.21571 12.4784 9.15296 12.5411 9.1059 12.5098Z" fill="black"/>
<path d="M15.3803 10.5882C15.498 11.1451 15.7176 11.6627 15.9921 12.149C16.2352 12.7451 15.6078 13.3098 15.0509 13.2862C14.9882 13.2862 14.9803 13.2 15.0352 13.1843C15.3882 13.0745 15.7098 12.8392 15.7647 12.4784C15.7882 12.3686 15.7568 12.2745 15.7019 12.1803C15.4431 11.6941 15.2862 11.1372 15.3254 10.5882C15.3254 10.549 15.3803 10.549 15.3803 10.5882Z" fill="black"/>
<path d="M9.64703 11.4275C9.46663 10.9647 9.07448 10.5255 8.54899 10.5333C8.50193 10.5255 8.4235 10.5412 8.37644 10.5412C8.2431 10.549 8.1333 10.5961 8.03134 10.6902C7.52938 11.1922 7.61565 12.0784 8.0235 12.6353C8.16467 12.8314 8.34506 13.0039 8.54899 13.1451C8.75291 13.2863 8.98036 13.3961 9.2235 13.4902C9.2784 13.5059 9.25487 13.5922 9.19997 13.5843C8.67448 13.4745 8.17252 13.2157 7.82742 12.7843C7.29408 12.1412 7.18428 11.0667 7.81957 10.4392C7.96075 10.3137 8.15683 10.2196 8.35291 10.2196C8.41565 10.2196 8.50977 10.2039 8.57252 10.2196C8.90193 10.2353 9.21565 10.4 9.41957 10.6588C9.59997 10.8784 9.70193 11.1451 9.7333 11.4118C9.7333 11.4588 9.66271 11.4745 9.64703 11.4275Z" fill="black"/>
<path d="M14.7843 14.0706C14.2823 14.549 13.3333 14.1647 13.0823 13.5843C13.051 13.5137 13.1294 13.451 13.1921 13.4824C13.3255 13.5529 13.4431 13.6235 13.5686 13.6784C13.9294 13.8431 14.3059 13.9765 14.7059 13.9373C14.7843 13.9216 14.8392 14.0157 14.7843 14.0706Z" fill="black"/>
<path d="M12.4549 11.3882C12.2667 11.3804 12.1255 11.2235 12.1412 11.0353L12.149 10.8156C12.1569 10.6274 12.3138 10.4862 12.502 10.5019C12.6902 10.5098 12.8314 10.6666 12.8157 10.8549L12.8079 11.0745C12.8 11.2549 12.6432 11.396 12.4549 11.3882Z" fill="black"/>
<path d="M15.7569 11.5059C15.5843 11.4981 15.451 11.349 15.4588 11.1765L15.4667 10.9726C15.4745 10.8 15.6235 10.6667 15.7961 10.6745C15.9686 10.6824 16.102 10.8314 16.0941 11.0039L16.0863 11.2079C16.0784 11.3804 15.9294 11.5137 15.7569 11.5059Z" fill="black"/>
<path d="M13.1607 10.9647C12.9019 10.7921 12.6195 10.6745 12.3058 10.7372C12.2038 10.7529 12.1019 10.7843 12.0391 10.8549C12.0156 10.8863 11.9607 10.8784 11.9607 10.8314C11.9685 10.6745 12.1019 10.5725 12.2274 10.5098C12.4705 10.3843 12.8078 10.4078 13.0274 10.5725C13.1058 10.6196 13.3725 10.9098 13.2313 10.9725C13.1999 10.9882 13.1842 10.9804 13.1607 10.9647Z" fill="black"/>
<path d="M15.4039 11.0039C15.4039 10.6745 15.8118 10.5569 16.0628 10.6745C16.2039 10.7372 16.3059 10.8627 16.3451 11.0118C16.3608 11.0588 16.2902 11.098 16.2588 11.0588C16.1255 10.9019 15.898 10.8235 15.7177 10.9176C15.6628 10.949 15.6549 10.9725 15.6392 11.0039C15.6392 11.1608 15.4118 11.1529 15.4039 11.0039Z" fill="black"/>
<path d="M13.5372 9.67057C13.7019 9.72548 13.8666 9.57646 13.8353 9.39606C13.8196 9.30195 13.7804 9.20783 13.7019 9.13724C13.4666 8.92548 12.4941 8.73724 11.9059 9.01175C11.3882 9.26273 12.7843 9.41959 13.5372 9.67057Z" fill="black"/>
<path d="M15.8824 9.79607C15.749 9.84313 15.6078 9.70195 15.6314 9.53724C15.6392 9.45097 15.6706 9.3647 15.7333 9.30195C15.9216 9.11371 16.5647 8.9647 16.9725 9.25489C17.3255 9.49803 16.4941 9.56862 15.8824 9.79607Z" fill="black"/>
<path d="M17.8196 7.14511C18.353 6.68236 19.1373 5.98432 18.3294 5.01177C17.5216 4.03922 16.0314 4.41569 16.0314 4.41569C16.0314 4.41569 16.3451 3.52158 15.4745 3.20001C14.4235 2.81569 11.4432 3.97648 11.4432 3.97648C11.2235 3.96864 11.0118 3.96079 10.8157 3.96079C8.24315 3.90589 7.49805 5.52942 7.46668 6.98824C7.46668 6.98824 6.59609 7.27844 6.37648 8.66667C6.3059 9.11373 6.23531 9.68628 6.40786 10.3765C6.8706 12.2588 8.11766 13.5686 8.90982 14.2353C9.20786 14.0157 8.68237 13.7098 8.72158 13.349C7.01962 12.5177 7.38825 10.502 8.29805 10.3843C8.99609 10.298 9.36472 10.7059 9.53727 11.0353C9.60786 11.1294 8.66668 5.88236 14.0941 7.60001C15.1686 7.93726 16.2745 8.2353 17.0275 7.69413C17.1137 7.85883 17.1686 8.05491 17.1843 8.34511C17.1843 8.34511 18.4941 7.8353 18.2981 7.30197C18.2353 7.12158 17.8196 7.14511 17.8196 7.14511Z" fill="black"/>
<path d="M13.7255 12.3608C13.3647 12.3687 12.251 12.3765 11.9059 12.3843C11.3098 12.3922 10.8627 11.8745 10.9176 11.2863C10.9255 11.0902 10.9176 10.8157 10.9255 10.6196C10.9412 10.1098 11.3961 9.67845 11.9059 9.69414L13.2314 9.70983C13.3333 9.70983 13.6235 9.71767 13.7255 9.71767C14.149 9.70983 14.549 10.0236 14.6431 10.4392C14.6745 10.5569 14.6667 10.6824 14.6667 10.7843V11.451C14.6588 11.9451 14.2196 12.3687 13.7255 12.3608ZM13.7255 12.1883C14.1333 12.2039 14.5098 11.851 14.5177 11.4432C14.5255 11.2314 14.5177 11.0039 14.5177 10.7843C14.5647 10.3059 14.2039 9.86669 13.7176 9.88238C13.3804 9.89022 12.251 9.89806 11.898 9.90591C11.4745 9.90591 11.1137 10.2902 11.1451 10.7137C11.1451 10.7687 11.1451 10.9098 11.1451 10.9647C11.1529 11.1373 11.1294 11.4353 11.1686 11.5922C11.2471 11.9216 11.5608 12.1726 11.898 12.1726H12.0627C12.2902 12.1726 13.4902 12.1883 13.7255 12.1883Z" fill="black"/>
<path d="M16.8863 9.9216L16.2667 9.92945C16.0941 9.93729 15.8902 9.90592 15.7412 10.0079C15.6 10.102 15.5373 10.2745 15.5451 10.4393C15.5451 10.6432 15.5451 10.8549 15.5373 11.0589L15.5294 11.0275C15.6392 11.4118 15.7883 11.7804 16.0157 12.102L15.9373 12.0549C16 12.0706 16.1098 12.0706 16.1726 12.0706C16.4079 12.0785 16.6824 12.0942 16.9177 12.0942C17.1373 12.0942 17.3491 11.9294 17.3961 11.7098C17.4118 11.6471 17.4118 11.5373 17.4118 11.4745C17.4118 11.1373 17.4196 10.8079 17.404 10.4706C17.4196 10.1726 17.1922 9.90592 16.8863 9.9216ZM16.8863 9.68631C17.302 9.68631 17.5922 10.0863 17.5216 10.4785C17.5059 10.8157 17.5138 11.1451 17.5138 11.4824C17.553 11.8745 17.3177 12.2275 16.9098 12.2589C16.7373 12.2667 16.5726 12.2667 16.4079 12.2745C16.3216 12.2745 16.1098 12.2902 16.0314 12.2902C15.9922 12.2981 15.9294 12.2902 15.8902 12.2902C15.8589 12.2902 15.8275 12.2667 15.8118 12.2432C15.5687 11.8824 15.3961 11.4824 15.2941 11.0667C15.2941 10.8 15.2706 10.5334 15.2941 10.2667C15.3412 9.95297 15.6236 9.68631 15.9451 9.67847C16.1647 9.67062 16.6667 9.68631 16.8863 9.68631Z" fill="black"/>
<path d="M14.5804 10.4079C14.7922 10.3138 15.0275 10.2745 15.2628 10.2902C15.3412 10.2981 15.4197 10.3216 15.4902 10.3843L15.5922 10.4706C15.6942 10.5569 15.5687 10.7059 15.4667 10.6196C15.3412 10.5098 15.1922 10.5255 15.0432 10.5334C14.8942 10.5491 14.753 10.5804 14.6118 10.6353C14.4785 10.6902 14.3922 10.4941 14.5177 10.4314L14.5804 10.4079Z" fill="black"/>
<path d="M11.051 10.6903C10.9961 10.8157 10.9333 10.8314 10.8314 10.8236L10.6039 10.8314C10.149 10.8314 9.68629 10.8236 9.23138 10.753C9.07452 10.7452 9.06668 10.5255 9.22354 10.5177L11.0431 10.455C11.0981 10.455 11.1373 10.5099 11.1137 10.5569L11.051 10.6903Z" fill="black"/>
<path d="M22.6039 6.61176C27.3647 15.7804 18.9961 26.1255 9.01959 23.6C4.54115 22.4863 0.941154 18.6039 0.196056 14.0471C-0.651003 9.51372 1.39606 4.64313 5.22351 2.07843C10.4706 -1.52942 17.7412 -0.329415 21.498 4.83137C21.5215 4.8549 21.5137 4.89411 21.4823 4.91764C21.4588 4.94117 21.4196 4.93333 21.3961 4.90196C20.8784 4.23529 20.2902 3.63137 19.647 3.09019C18.5882 2.18823 17.349 1.48235 16.0392 1.00392C9.37253 -1.41177 2.05488 2.60392 0.596056 9.57647C-1.051 17.3882 5.59213 24.5804 13.5137 23.5059C19.6235 22.7373 24.1647 17.098 23.6627 10.9647C23.5529 9.48235 23.1608 8.01568 22.5098 6.66666C22.4941 6.64313 22.5098 6.61176 22.5333 6.59608C22.5568 6.58039 22.5882 6.58823 22.6039 6.61176Z" fill="black"/>
</g>
</svg>
