<svg width="32" height="32" viewBox="0 0 32 32" fill="none" xmlns="http://www.w3.org/2000/svg">
<mask id="mask0_1812_40986" style="mask-type:alpha" maskUnits="userSpaceOnUse" x="0" y="0" width="32" height="32">
<circle cx="15.9475" cy="15.9475" r="15.9475" fill="#D9D9D9"/>
</mask>
<g mask="url(#mask0_1812_40986)">
<path d="M24.6902 29.1138C24.617 29.166 24.5333 29.2183 24.4601 29.2706C24.3764 29.3229 24.3032 29.3752 24.2196 29.417C24.1464 29.4589 24.0836 29.5007 24.0104 29.5425C24 29.553 23.9895 29.553 23.9791 29.5634C23.7385 29.7098 23.4876 29.8458 23.2366 29.9713C23.1634 30.0131 23.0797 30.0549 23.0065 30.0863C23.0065 30.0863 22.996 30.0968 22.9856 30.0968C22.9019 30.1386 22.8183 30.1804 22.7346 30.2223C22.5673 30.3059 22.3895 30.3791 22.2222 30.4523C22.1385 30.4942 22.0444 30.5255 21.9608 30.5569C21.8771 30.5883 21.783 30.6301 21.6993 30.6615C21.6157 30.6928 21.5215 30.7347 21.4379 30.766C21.4379 30.766 21.4379 30.766 21.4274 30.766C21.3438 30.7974 21.2496 30.8288 21.166 30.8602C20.9777 30.9229 20.7791 30.9857 20.5908 31.0484C20.5281 31.0693 20.4549 31.0902 20.3921 31.1111C20.1934 31.1739 19.9947 31.2262 19.796 31.268C19.7228 31.2889 19.6496 31.2994 19.566 31.3203C19.3777 31.3621 19.1791 31.404 18.9908 31.4458C18.949 31.4562 18.9176 31.4562 18.8758 31.4667C18.813 31.4772 18.7398 31.4876 18.6771 31.4981C18.583 31.5085 18.4993 31.5294 18.4052 31.5399C18.3634 31.5504 18.3215 31.5504 18.2797 31.5608C18.2274 31.5713 18.1647 31.5817 18.1019 31.5817C17.9346 31.6026 17.7568 31.6236 17.5895 31.6445C17.5372 31.6549 17.4745 31.6549 17.4222 31.6654H17.4117C17.3385 31.6758 17.2653 31.6758 17.1921 31.6863C17.1189 31.6968 17.0457 31.6968 16.9725 31.6968C16.9307 31.6968 16.8784 31.7072 16.8366 31.7072C16.7529 31.7072 16.6797 31.7177 16.6065 31.7177C16.5019 31.7177 16.4078 31.7281 16.3032 31.7281C16.1987 31.7281 16.1045 31.7281 16 31.7281C15.9268 31.7281 15.8536 31.7281 15.7804 31.7281C11.3673 31.6654 7.40389 29.7935 4.56991 26.8236C4.56991 26.8236 4.56991 26.8131 4.55945 26.8131C4.24572 26.5308 4.51762 25.0249 5.78298 24.0732C7.37252 22.8706 11.1791 22.1177 11.1791 22.1177C11.1791 22.1177 12.6536 21.8772 18.1228 23.017C21.3228 23.6863 23.7594 24.6589 25.1189 27.2942C25.4013 27.8379 25.6836 28.6745 24.6902 29.1138Z" fill="white"/>
<path d="M18.1543 22.902C20.1621 23.3098 22.3059 23.749 23.9582 25.0772C24.5124 25.5268 24.8784 26.1856 25.1817 26.8236C25.3281 27.1373 25.4745 27.4615 25.5896 27.8066C25.6523 28.0366 25.7464 28.2981 25.6941 28.57C25.6837 28.6432 25.6209 28.7373 25.5686 28.7896C25.3281 29.0301 25.0667 29.1765 24.8052 29.3647C23.268 30.4314 21.5007 31.1843 19.6706 31.5817C15.5922 32.4706 11.1791 31.7804 7.59217 29.6366C6.40002 28.9151 5.30198 28.0366 4.3608 27.0013C4.25623 26.8758 4.25623 26.6667 4.25623 26.5307C4.26668 26.217 4.35034 25.9138 4.45492 25.6314C4.7059 24.983 5.03008 24.3347 5.58433 23.885C5.98172 23.6131 6.41047 23.383 6.84969 23.1948C8.23008 22.6092 9.68368 22.2013 11.1791 22.034C11.3046 22.0236 11.3255 22.2013 11.2 22.2222C9.76734 22.5151 8.34511 22.9543 7.01701 23.5504C6.53596 23.7909 6.02355 24 5.63662 24.3765C5.2706 24.7739 5.00917 25.2654 4.80002 25.7673C4.66407 26.0706 4.56995 26.5517 4.61178 26.7922C5.2706 27.5765 6.04446 28.2667 6.88106 28.8628C11.4615 32.0628 18.4157 32.2719 23.2889 29.6053C23.7281 29.3647 24.1569 29.0928 24.5647 28.8105C24.7634 28.6745 24.9726 28.5595 25.1294 28.4026C25.1399 28.3922 25.1294 28.4026 25.1294 28.4131C25.1294 28.4236 25.119 28.434 25.119 28.434C25.1294 28.3085 25.0876 28.1412 25.0353 27.9739C24.8471 27.3673 24.5438 26.7294 24.2196 26.1752C23.7072 25.349 22.8392 24.8262 21.9608 24.4079C21.3543 24.1255 20.7164 23.9059 20.068 23.6968C19.4196 23.4876 18.7608 23.3098 18.102 23.153C17.9347 23.1111 17.9869 22.8706 18.1543 22.902Z" fill="black"/>
<path d="M19.1791 21.166C19.1791 21.166 18.1856 20.9151 16 20.2144C13.8144 19.5137 10.9908 19.9739 10.9908 19.9739C10.9908 19.9739 10.3007 19.9843 10.0392 20.5072C9.77778 21.0301 9.79869 22.1072 9.40131 22.4C9.30719 22.4628 9.04575 22.536 8.65882 22.6405C8.03137 22.8183 7.07974 23.0484 6.13856 23.5713C5.43791 23.9686 4.44444 25.1817 4.28758 27.3464C4.25621 27.7752 4.26667 32.2092 4.06797 32.6379C2.41569 35.9948 2.48889 34.4889 2.48889 34.4889H28.0471C28.0471 34.4889 26.332 32 25.8928 29.553C25.4327 27.0013 24.6379 25.5164 23.9895 25.0249C22.4837 23.885 20.8523 23.519 20.2248 23.2366L20.1516 22.2954C20.1621 22.285 19.7542 21.0092 19.1791 21.166Z" fill="black" stroke="black" stroke-width="3.5345" stroke-miterlimit="10" stroke-linecap="round" stroke-linejoin="round"/>
<path d="M20.2458 22.8706C20.455 23.9582 20.685 25.0981 20.3713 26.1857C19.9739 27.7648 18.6667 28.8419 17.0144 28.7791C15.8746 28.7582 14.7975 28.319 13.8144 27.7857C12.1831 26.8759 10.8341 25.4432 10.1125 23.7177C9.96608 23.3621 9.84059 23.0275 9.76738 22.651C9.75693 22.6092 9.7883 22.5569 9.84059 22.5465C9.88242 22.536 9.92425 22.5674 9.9347 22.6092C10.0288 22.9438 10.1752 23.2994 10.3321 23.6131C11.1269 25.234 12.4236 26.5935 13.9922 27.4615C15.2158 28.1203 16.6798 28.685 18.0602 28.2981C19.8798 27.7857 20.4968 25.6628 20.2144 23.9687C20.1726 23.6027 20.1203 23.2471 20.068 22.8811C20.0471 22.7974 20.2249 22.7556 20.2458 22.8706Z" fill="white"/>
<path d="M17.5269 28.6013C17.5269 28.6013 17.7465 30.5255 17.621 31.6967" stroke="white" stroke-width="3.46" stroke-miterlimit="10" stroke-linecap="round" stroke-linejoin="round"/>
<path d="M11.0118 25.37C10.3321 25.6523 9.71506 26.1124 9.2131 26.6458C9.03532 26.8235 8.88892 27.0327 8.74251 27.2314C8.66931 27.3255 8.51245 27.2209 8.58565 27.1268C9.00395 26.4575 9.54774 25.8824 10.1961 25.4432C10.4157 25.2967 10.6353 25.1608 10.8863 25.0458C10.9804 25.0039 11.085 25.0458 11.1268 25.1294C11.1687 25.2131 11.1164 25.3281 11.0118 25.37Z" fill="white"/>
<path d="M20.4653 24.7112C21.3542 25.0772 22.1281 25.736 22.5464 26.604C22.5673 26.6458 22.5464 26.6876 22.515 26.7085C22.4732 26.7295 22.4313 26.7085 22.4104 26.6772C22.1804 26.2902 21.8875 25.9451 21.5215 25.6732C21.1764 25.4118 20.7581 25.1817 20.3398 25.0563C20.1098 24.9726 20.2353 24.6275 20.4653 24.7112Z" fill="white"/>
<path d="M19.1371 25.6836C18.9175 26.7608 17.4953 27.4091 15.1005 26.4366C12.6116 25.4327 11.5345 23.0379 11.2626 22.3268C12.7371 19.566 11.7122 17.6523 11.7122 17.6523C15.1109 17.3595 18.0809 21.3333 18.0809 21.3333L18.541 23.2993C18.5828 23.4666 18.6665 23.613 18.792 23.7176C19.0116 24.1046 19.273 24.9934 19.1371 25.6836Z" fill="white"/>
<path d="M11.2103 22.3582C11.409 22.0549 11.5345 21.6993 11.6182 21.3542C11.775 20.6327 11.8273 19.9006 11.8378 19.1686V18.8967C11.8064 18.6248 11.7123 18.3425 11.6077 18.0915C11.4718 17.7569 11.9633 17.5477 12.1201 17.8823C12.1411 17.9242 12.1411 17.9974 12.1411 18.0392C12.1724 19.4614 12.2352 21.2915 11.3358 22.4732C11.2731 22.5359 11.1476 22.4418 11.2103 22.3582Z" fill="black"/>
<path d="M18.1959 21.3124C18.3528 21.4065 18.4051 21.532 18.426 21.6575C18.4888 21.9085 18.4678 22.1804 18.5306 22.4418C18.5829 22.6928 18.7397 22.9333 18.7816 23.1948C18.8339 23.4667 18.9907 24.0418 19.0535 24.3242C19.0744 24.3869 19.0325 24.4601 18.9593 24.4706C18.9175 24.481 18.8861 24.4706 18.8548 24.4497C18.7188 24.3346 18.6561 24.2196 18.5724 24.0732C18.4365 23.8222 18.3424 23.5922 18.2587 23.3098C18.1855 23.0588 18.2169 22.7869 18.1541 22.5255C18.1018 22.2745 17.9554 22.034 17.9031 21.7725C17.8718 21.6471 17.8613 21.5111 17.9554 21.3542C18.0182 21.2915 18.1227 21.2706 18.1959 21.3124Z" fill="black"/>
<path d="M18.9489 24.0732C16.9515 23.9686 15.3201 23.3411 13.7306 20.5071C15.0692 21.6888 16.6482 22.1385 18.311 22.3477L18.5306 23.3098C18.5724 23.4771 18.8234 23.9686 18.9489 24.0732Z" fill="black"/>
<path d="M18.8652 23.6863C19.2208 24.3556 19.4299 25.1922 19.2103 25.9346C19.043 26.4575 18.562 26.8444 18.0391 26.9909C16.826 27.315 15.4247 26.8026 14.3476 26.2275C13.0195 25.485 12.0365 24.2405 11.409 22.881C11.3672 22.7765 11.5136 22.6928 11.5763 22.7974C11.7959 23.2366 12.0469 23.6654 12.3293 24.0523C12.6116 24.4497 12.9358 24.8157 13.3018 25.1399C14.3685 26.102 15.8116 26.698 17.2548 26.698C18.7397 26.6562 19.3044 25.8719 18.9593 24.4288C18.907 24.1987 18.8234 23.9582 18.7084 23.7595C18.6456 23.6758 18.8025 23.5817 18.8652 23.6863Z" fill="black"/>
<path d="M22.9124 11.1268C23.1006 12.0052 23.1947 12.7163 22.6823 15.0588C22.1803 17.3909 23.4039 17.8719 20.5071 21.6052C19.3254 23.132 16.4601 22.7033 14.1385 21.1242C13.3542 20.5909 13.0195 19.2209 12.4339 18.2484C11.9738 17.485 11.7646 18.2797 11.1581 17.6209C10.332 16.7216 9.33849 14.9124 9.83 11.7124C10.6248 6.5255 14.7346 5.91896 17.7777 6.49412C20.8418 7.07975 22.4104 8.81569 22.9124 11.1268Z" fill="white"/>
<path d="M11.681 18.5516C11.4405 18.1438 11.1267 17.7882 10.8339 17.4118C10.5516 17.0248 10.3215 16.5961 10.1333 16.1569C8.88883 13.1033 9.36987 8.80522 12.4235 7.00653C13.6888 6.27451 15.2156 6.09673 16.6378 6.21176C19.681 6.43137 22.4731 7.83268 23.132 11.0536C23.4875 12.4758 23.0065 13.9399 22.7346 15.3307C22.6091 16.0209 22.7137 16.732 22.7032 17.4431C22.6927 18.1647 22.4941 18.8863 22.2222 19.5556C22.0548 20.0157 21.762 20.4235 21.4588 20.8C20.9568 21.4065 20.4548 22.0235 19.8169 22.4941C19.6705 22.5987 19.4091 22.651 19.2313 22.6719C18.7398 22.7451 18.2588 22.766 17.7673 22.7346C15.8431 22.651 13.7829 21.7203 13.0091 19.8588C12.9777 19.7856 13.0823 19.7333 13.1241 19.7961C14.128 21.3856 15.9686 22.1699 17.7986 22.2745C18.3633 22.3059 18.9385 22.2954 19.4927 22.1804C19.7646 22.0444 20.0052 21.8039 20.2352 21.5843C20.7999 21.0196 21.3751 20.4131 21.7829 19.7229C22.2744 18.7922 22.5463 17.7778 22.4627 16.7216C22.4418 16.251 22.4313 15.7595 22.5254 15.2889C22.6091 14.8183 22.7137 14.3686 22.7764 13.8876C22.8392 13.4274 22.8705 12.9569 22.8705 12.4967C22.8182 11.1477 22.379 9.75686 21.5215 8.71111C19.6287 6.35817 15.1529 5.74117 12.6326 7.35163C11.0431 8.33464 10.3006 10.1752 10.0601 11.9634C9.69405 14.1072 9.79863 16.2196 11.5032 17.7778L12.0052 18.3006C12.2039 18.5307 11.8483 18.8026 11.681 18.5516Z" fill="black"/>
<path d="M12.9149 15.2262C12.9149 15.2262 12.5907 13.6575 11.0639 13.8458C9.7463 14.0131 9.28617 17.1713 12.277 18.0497" fill="white"/>
<path d="M12.1411 16.6798C11.9006 16.5438 11.7332 16.3137 11.7228 16.0314C11.7332 15.8222 11.7646 15.5817 11.7123 15.3726C11.6809 15.1739 11.4718 15.1216 11.3149 15.132C11.1476 15.1634 11.043 15.3726 11.0117 15.5399C11.0117 15.5503 11.0012 15.5817 11.0012 15.5922C10.9908 15.6445 10.9071 15.6445 10.8862 15.5922C10.7502 15.1843 11.0535 14.7347 11.4927 14.7869C12.1097 14.8288 12.1934 15.4771 12.0783 15.9686C12.0156 16.1778 12.0993 16.366 12.2143 16.5438L12.2352 16.5752C12.2875 16.6379 12.2038 16.7216 12.1411 16.6798Z" fill="black"/>
<path d="M20.5071 14.1176C20.664 14.8601 20.9568 15.5503 21.3228 16.1987C21.647 16.9935 20.8104 17.7464 20.0679 17.715C19.9843 17.715 19.9738 17.6 20.047 17.5791C20.5176 17.4327 20.9463 17.119 21.0195 16.6379C21.0509 16.4915 21.0091 16.366 20.9359 16.2405C20.5908 15.5922 20.3816 14.8497 20.4339 14.1176C20.4339 14.0654 20.5071 14.0654 20.5071 14.1176Z" fill="black"/>
<path d="M12.8627 15.2366C12.6222 14.6196 12.0993 14.034 11.3987 14.0444C11.3359 14.034 11.2314 14.0549 11.1686 14.0549C10.9908 14.0653 10.8444 14.1281 10.7085 14.2536C10.0392 14.9228 10.1542 16.1045 10.698 16.847C10.8863 17.1085 11.1268 17.3385 11.3987 17.5268C11.6706 17.715 11.9739 17.8614 12.298 17.9869C12.3712 18.0078 12.3399 18.1228 12.2667 18.1124C11.566 17.966 10.8967 17.6209 10.4366 17.0457C9.72549 16.1882 9.57908 14.7555 10.4261 13.9189C10.6144 13.7516 10.8758 13.6261 11.1373 13.6261C11.2209 13.6261 11.3464 13.6052 11.4301 13.6261C11.8693 13.647 12.2876 13.8666 12.5595 14.2117C12.8 14.5045 12.9359 14.8601 12.9778 15.2157C12.9778 15.2784 12.8837 15.2993 12.8627 15.2366Z" fill="black"/>
<path d="M19.7124 18.7608C19.0431 19.3987 17.7778 18.8863 17.4431 18.1124C17.4013 18.0183 17.5059 17.9346 17.5895 17.9765C17.7673 18.0706 17.9242 18.1647 18.0915 18.2379C18.5725 18.4575 19.0745 18.6353 19.6078 18.583C19.7124 18.5621 19.7856 18.6876 19.7124 18.7608Z" fill="black"/>
<path d="M16.6067 15.1843C16.3557 15.1739 16.1674 14.9647 16.1884 14.7137L16.1988 14.4209C16.2093 14.1699 16.4184 13.9817 16.6694 14.0026C16.9204 14.0131 17.1086 14.2222 17.0877 14.4732L17.0772 14.766C17.0668 15.0065 16.8576 15.1948 16.6067 15.1843Z" fill="black"/>
<path d="M21.0092 15.3412C20.7791 15.3307 20.6013 15.132 20.6118 14.902L20.6222 14.6301C20.6327 14.4 20.8314 14.2222 21.0614 14.2327C21.2915 14.2431 21.4693 14.4418 21.4588 14.6719L21.4484 14.9438C21.4379 15.1739 21.2392 15.3516 21.0092 15.3412Z" fill="black"/>
<path d="M17.5478 14.6196C17.2027 14.3896 16.8262 14.2327 16.4079 14.3164C16.2719 14.3373 16.136 14.3791 16.0523 14.4732C16.021 14.515 15.9478 14.5046 15.9478 14.4418C15.9582 14.2327 16.136 14.0967 16.3033 14.0131C16.6275 13.8458 17.0772 13.8771 17.37 14.0967C17.4746 14.1595 17.8301 14.5464 17.6419 14.6301C17.6 14.651 17.5791 14.6405 17.5478 14.6196Z" fill="black"/>
<path d="M20.5387 14.6719C20.5387 14.2327 21.0825 14.0758 21.4171 14.2327C21.6054 14.3163 21.7413 14.4836 21.7936 14.6823C21.8145 14.7451 21.7204 14.7974 21.6786 14.7451C21.5008 14.5359 21.1975 14.4314 20.957 14.5568C20.8838 14.5987 20.8733 14.63 20.8524 14.6719C20.8524 14.881 20.5492 14.8706 20.5387 14.6719Z" fill="black"/>
<path d="M18.0498 12.8941C18.2694 12.9673 18.489 12.7686 18.4471 12.5281C18.4262 12.4026 18.3739 12.2771 18.2694 12.183C17.9556 11.9007 16.6589 11.6497 15.8746 12.0157C15.1844 12.3503 17.0458 12.5595 18.0498 12.8941Z" fill="black"/>
<path d="M21.1766 13.0614C20.9988 13.1242 20.8106 12.936 20.842 12.7163C20.8524 12.6013 20.8942 12.4863 20.9779 12.4026C21.2289 12.1516 22.0864 11.9529 22.6302 12.3399C23.1008 12.6641 21.9923 12.7582 21.1766 13.0614Z" fill="black"/>
<path d="M23.7595 9.52679C24.4706 8.90979 25.5163 7.97908 24.4392 6.68234C23.3621 5.38561 21.3751 5.88757 21.3751 5.88757C21.3751 5.88757 21.7934 4.69542 20.6327 4.26666C19.2313 3.75424 15.2575 5.30195 15.2575 5.30195C14.9647 5.29149 14.6823 5.28104 14.4209 5.28104C10.9908 5.20783 9.99736 7.37254 9.95553 9.31764C9.95553 9.31764 8.79475 9.70457 8.50194 11.5555C8.40782 12.1516 8.3137 12.915 8.54377 13.8353C9.16076 16.3451 10.8235 18.0915 11.8797 18.9804C12.2771 18.6876 11.5764 18.2797 11.6287 17.7987C9.35945 16.6902 9.85096 14.0026 11.064 13.8457C11.9947 13.7307 12.4863 14.2745 12.7163 14.7137C12.8104 14.8392 11.5555 7.84313 18.7921 10.1333C20.2248 10.583 21.6993 10.9804 22.7032 10.2588C22.8183 10.4784 22.8915 10.7399 22.9124 11.1268C22.9124 11.1268 24.6588 10.447 24.3974 9.73594C24.3137 9.49542 23.7595 9.52679 23.7595 9.52679Z" fill="black"/>
<path d="M18.3008 16.481C17.8197 16.4915 16.3348 16.5019 15.8746 16.5124C15.0799 16.5229 14.4838 15.8327 14.557 15.0484C14.5674 14.7869 14.557 14.4209 14.5674 14.1595C14.5884 13.4797 15.1949 12.9046 15.8746 12.9255L17.642 12.9464C17.7779 12.9464 18.1648 12.9569 18.3008 12.9569C18.8655 12.9464 19.3988 13.3647 19.5243 13.9189C19.5661 14.0758 19.5557 14.2431 19.5557 14.3791V15.268C19.5452 15.9268 18.9596 16.4915 18.3008 16.481ZM18.3008 16.251C18.8446 16.2719 19.3465 15.8013 19.357 15.2575C19.3674 14.9752 19.357 14.6719 19.357 14.3791C19.4197 13.7412 18.9387 13.1555 18.2903 13.1765C17.8406 13.1869 16.3348 13.1974 15.8642 13.2078C15.2995 13.2078 14.8184 13.7203 14.8603 14.285C14.8603 14.3582 14.8603 14.5464 14.8603 14.6196C14.8707 14.8497 14.8393 15.247 14.8916 15.4562C14.9962 15.8954 15.4145 16.2301 15.8642 16.2301H16.0838C16.3871 16.2301 17.9871 16.251 18.3008 16.251Z" fill="black"/>
<path d="M22.5151 13.2288L21.689 13.2392C21.4589 13.2497 21.187 13.2079 20.9883 13.3438C20.8001 13.4693 20.7164 13.6994 20.7269 13.919C20.7269 14.1909 20.7269 14.4732 20.7164 14.7451L20.706 14.7033C20.8524 15.2157 21.0511 15.7072 21.3543 16.136L21.2498 16.0732C21.3334 16.0941 21.4798 16.0941 21.5635 16.0941C21.8772 16.1046 22.2432 16.1255 22.5569 16.1255C22.8498 16.1255 23.1321 15.9059 23.1949 15.6131C23.2158 15.5294 23.2158 15.383 23.2158 15.2994C23.2158 14.8497 23.2262 14.4105 23.2053 13.9608C23.2262 13.5634 22.923 13.2079 22.5151 13.2288ZM22.5151 12.9151C23.0694 12.9151 23.4563 13.4484 23.3622 13.9713C23.3413 14.4209 23.3517 14.8602 23.3517 15.3098C23.404 15.8327 23.0903 16.3033 22.5465 16.3451C22.3164 16.3556 22.0968 16.3556 21.8772 16.366C21.7622 16.366 21.4798 16.387 21.3752 16.387C21.323 16.3974 21.2393 16.387 21.187 16.387C21.1452 16.387 21.1034 16.3556 21.0824 16.3242C20.7583 15.8432 20.5282 15.3098 20.3922 14.7556C20.3922 14.4 20.3609 14.0445 20.3922 13.6889C20.455 13.2706 20.8315 12.9151 21.2602 12.9046C21.553 12.8941 22.2223 12.9151 22.5151 12.9151Z" fill="black"/>
<path d="M19.4406 13.8772C19.7229 13.7517 20.0366 13.6994 20.3504 13.7203C20.4549 13.7308 20.5595 13.7621 20.6536 13.8458L20.7896 13.9608C20.9255 14.0759 20.7582 14.2746 20.6223 14.1595C20.4549 14.0131 20.2562 14.034 20.0575 14.0445C19.8589 14.0654 19.6706 14.1072 19.4824 14.1804C19.3046 14.2536 19.1896 13.9922 19.3569 13.9085L19.4406 13.8772Z" fill="black"/>
<path d="M14.7347 14.2536C14.6615 14.4209 14.5778 14.4418 14.4419 14.4314L14.1386 14.4418C13.5321 14.4418 12.9151 14.4314 12.3086 14.3373C12.0994 14.3268 12.0889 14.034 12.2981 14.0235L14.7242 13.9399C14.7974 13.9399 14.8497 14.0131 14.8184 14.0758L14.7347 14.2536Z" fill="black"/>
<path d="M30.1386 8.81566C36.4863 21.0405 25.3281 34.834 12.0262 31.4666C6.05491 29.9817 1.25491 24.8052 0.261449 18.7294C-0.867963 12.6849 1.86145 6.19082 6.96472 2.77122C13.9608 -2.03924 23.6549 -0.439241 28.6641 6.44181C28.6954 6.47318 28.685 6.52547 28.6431 6.55684C28.6118 6.58821 28.5595 6.57775 28.5281 6.53592C27.8379 5.64703 27.0536 4.84181 26.1961 4.12024C24.7843 2.91762 23.132 1.97645 21.3856 1.33854C12.4967 -1.88238 2.73988 3.47187 0.794782 12.7686C-1.4013 23.1843 7.45622 32.7738 18.0183 31.3412C26.1647 30.3163 32.2196 22.7974 31.5503 14.6196C31.4039 12.6431 30.8811 10.6876 30.0131 8.88886C29.9922 8.85749 30.0131 8.81566 30.0445 8.79475C30.0758 8.77383 30.1177 8.78429 30.1386 8.81566Z" fill="black"/>
</g>
</svg>
